<?xml version="1.0" encoding="UTF-8"?>
<svg id="_Слой_1" data-name="Слой 1" xmlns="http://www.w3.org/2000/svg" viewBox="0 0 590 462.265">
  <defs>
    <style>
      .cls-1 {
        fill: #fdfdfd;
      }

      .cls-2 {
        fill: #a8edf7;
      }

      .cls-3 {
        fill: #0552ae;
      }

      .cls-4 {
        fill: #1c436e;
      }
    </style>
  </defs>
  <path class="cls-4" d="M470.219,445.447c-.653-1.684-1.697-2.423-2.523-3.304-14.013-14.952-27.135-30.604-37.889-48.122-4.609-7.508-8.625-15.323-11.812-23.536-4.775-12.307-4.387-24.884-1.326-37.439,7.628-31.297,34.67-54.537,66.768-57.324,43.821-3.804,77.282,28.125,82.356,65.916,1.597,11.89-.087,23.369-5.275,34.394-7.294,15.504-16.628,29.645-27.361,42.919-6.467,7.998-13.028,15.918-20.214,23.296-.759,.779-1.785,1.435-1.99,2.904,1.283,.538,2.649,.301,3.955,.303,21.841,.019,43.681,.009,65.522,.02,1.473,0,2.951-.123,4.389,.491,3.593,1.535,5.692,5.268,5.074,9.187-.587,3.725-3.967,6.74-7.831,6.966-.684,.04-1.372,.017-2.058,.017-188.103,.041-376.206,.081-564.308,.12-2.516,0-5.033,.039-7.547-.039-3.86-.121-7.09-2.776-7.917-6.402-.887-3.89,.798-7.87,4.555-9.348,2.316-.911,2.75-2.198,2.639-4.358-.159-3.08-.074-6.173-.088-9.26-.02-4.247,1.738-6.244,5.881-6.258,4.805-.016,4.073-.067,4.199-4.39,.073-2.514,.033-5.032,.099-7.546,.108-4.13,1.682-5.759,5.776-6.057,2.703-.197,2.726-.197,2.772-2.946,.048-2.858-.012-5.719,.08-8.575,.127-3.963,1.858-5.911,5.836-6.085,2.174-.095,2.305-1.133,2.306-2.811,.005-11.32,.06-22.641,.119-33.961,.099-18.867,.213-37.734,.318-56.601,.005-.915-.042-1.831,0-2.744,.063-1.368-.39-2.015-1.914-2.168-5.023-.503-6.282-1.949-6.356-6.94-.042-2.858-.104-5.718-.044-8.575,.035-1.642-.648-2.242-2.239-2.197-1.827,.052-3.659-.009-5.487-.085-3.556-.147-5.441-1.993-5.538-5.585-.102-3.771-.142-7.549-.037-11.319,.053-1.879-.476-2.585-2.465-2.599-3.914-.026-5.868-1.292-6.445-3.769-.507-2.175,.391-4.996,4.043-6.716,7.337-3.454,14.479-7.324,21.84-10.722,2.717-1.254,3.677-2.792,3.491-5.724-.253-3.985-.103-8.001-.002-12.001,.107-4.237,1.953-5.936,6.127-6.107,2.012-.082,4.482,.972,5.917-.519,1.234-1.282,.796-3.679,1.131-5.577,5.166-29.336,20.483-51.65,46.269-66.651,1.743-1.014,2.336-2.101,2.314-4.05-.103-9.147-.096-18.295-.069-27.443,.017-5.702,2.671-8.288,8.42-8.315,4.002-.019,8.004,.015,12.006,0,3.224-.012,3.225-.028,3.211-3.169-.034-7.547-.083-15.093-.102-22.64-.025-10.177,.163-20.359-.124-30.528-.13-4.601,3.085-8.832,8.687-8.71,11.086,.242,22.182,.07,33.274,.049,3.143-.006,3.161-.038,3.173-3.215,.027-7.204-.01-14.408,.069-21.612,.044-3.982,2.675-7.097,6.381-7.82,3.934-.768,7.729,1.145,9.404,4.661,.62,1.302,.616,2.656,.621,4.024,.025,6.975,.024,13.95,.055,20.926,.013,3.001,.039,3.042,2.953,3.053,11.32,.043,22.641,.069,33.961,.072,1.984,0,3.821,.222,5.482,1.515,2.276,1.773,3.153,4.038,3.144,6.859-.036,10.977,.006,21.954,.005,32.932,0,6.975-.03,13.95-.032,20.926,0,2.656,.017,2.698,2.563,2.703,4.459,.008,8.919-.066,13.378-.061,5.373,.007,8.465,3.061,8.485,8.485,.053,14.522,.052,29.044,.072,43.566,0,.686,.036,1.375-.018,2.058-.122,1.555,.433,2.374,2.125,2.259,1.252-.085,2.515-.031,3.772-.031,43.91-.02,87.819-.037,131.729-.063,1.953-.001,3.863,.003,5.614,1.117,2.181,1.388,3.496,3.243,3.546,5.878,.028,1.486,.007,2.973,.007,4.459,.003,91.822,.006,183.643,.012,275.465,0,5.137-.371,4.437,4.345,4.444,22.184,.035,44.367,.026,66.551,.033,.567,0,1.135,0,2.192,0Zm-314.525-110.507c.043-13.031,.093-26.061,.125-39.092,.007-2.929-.021-2.929-2.912-3.226-3.477-.357-5.418-2.266-5.558-5.716-.125-3.082-.13-6.173-.055-9.256,.043-1.743-.51-2.472-2.356-2.407-3.196,.114-6.402,.081-9.6-.02-1.732-.055-2.467,.496-2.412,2.325,.096,3.197-.061,6.401,.001,9.6,.042,2.141-.773,3.759-2.487,4.969-1.113,.786-2.4,.575-3.648,.631-2.386,.107-2.426,.164-2.492,2.597-.016,.571,.012,1.143,.016,1.714,.156,18.288,.328,36.576,.46,54.864,.087,12.002,.113,24.004,.175,36.007,.007,1.438-.376,2.848,2.016,3.09,4.679,.474,5.806,1.903,5.951,6.665,.091,2.97,.1,5.944,.053,8.915-.023,1.473,.547,2.027,2.019,1.995,3.314-.072,6.631-.088,9.944-.013,1.633,.037,2.247-.596,2.215-2.208-.059-2.971-.043-5.945,.031-8.915,.101-4.067,1.665-6.024,5.6-6.379,3.042-.274,2.707-1.068,2.708-3.2,.008-13.945,.023-27.891,.065-41.836,.003-.927-.002-1.806-.497-2.616,1.291-2.748,.575-5.647,.635-8.488Zm118.818-86.358c.092,1.722-.314,3.366-.789,4.999-1.474,1.496-3.313,1.975-5.329,1.798-1.967-.172-2.549,.715-2.521,2.59,.057,3.764-.034,7.533-.148,11.298-.118,3.924-1.7,5.522-5.653,5.793-1.364,.094-2.743,.133-4.106,.051-1.764-.107-2.426,.604-2.402,2.375,.041,3.078-.08,6.16-.176,9.239-.035,1.135,.043,2.444-.89,3.216-2.295,1.898-1.952,4.411-1.92,6.911,.04,3.081,.002,6.164-.003,9.246-.227,1.711-.238,3.424-.031,5.138-.001,11.809-.003,23.618-.004,35.426-.186,1.88-.22,3.76-.011,5.641,.026,12.235,.044,24.47,.089,36.705,.004,1.115-.433,2.44,.491,3.289,2.127,1.956,2.039,4.456,2.043,6.983,.004,2.058,.046,4.116,.077,6.174q.044,2.905,2.912,3.145c3.609,.303,5.299,2.05,5.396,5.718,.073,2.743,.061,5.488,.043,8.232-.03,4.593,.188,4.106,4.123,4.156,4.5,.057,6.178,1.733,6.311,6.256,.101,3.428,.105,6.861,.056,10.29-.023,1.603,.572,2.35,2.204,2.213,.568-.048,1.143-.001,1.715-.001,33.389,.003,66.778,.007,100.168,.009,.915,0,1.83-.029,2.744-.016,1.123,.015,1.698-.489,1.681-1.641-.013-.914,.016-1.829,.015-2.744-.004-14.633-.004-29.267-.015-43.9-.037-47.337-.083-94.675-.116-142.012-.019-26.986-.015-53.972-.027-80.957-.001-3.233-.016-3.274-3.131-3.275-41.165-.007-82.33-.005-123.494,.006-3.344,0-3.372,.039-3.367,3.45,.027,19.21,.126,38.421,.036,57.63-.012,2.597,.938,3.897,3.131,4.915,5.591,2.595,11.142,5.28,16.65,8.048,1.661,.835,3.72,1.366,4.25,3.604Zm210.931,44.03c-11.034,.435-24.833,5.508-36.088,16.724-7.756,7.729-13.421,16.663-15.994,27.446-2.505,10.498-2.734,20.774,1.98,30.812,3.403,7.246,7.088,14.329,11.468,21.033,7.824,11.974,16.646,23.187,26.172,33.841,4.797,5.365,9.744,10.598,14.699,15.819,2.716,2.861,2.843,2.847,5.471,.111,3.877-4.036,7.755-8.078,11.477-12.257,13.538-15.203,26.511-30.825,35.993-49.017,2.961-5.68,5.874-11.394,7.376-17.643,1.915-7.969,1.077-15.955-1.1-23.713-7.541-26.878-31.766-43.488-61.455-43.156ZM209.634,210.381c2.401,0,4.802,.014,7.203-.004,2.745-.02,2.758-.035,2.369-2.63-2.778-18.568-10.609-34.58-24.115-47.733-12.065-11.75-26.358-19.32-43.019-21.667-22.737-3.203-43.661,1.6-61.934,15.989-17.296,13.62-27.582,31.38-30.852,53.169-.419,2.788-.339,2.885,2.556,2.909,4.687,.04,9.376-.034,14.063,.043,1.896,.031,3.564-.455,5.235-1.304,9.671-4.909,19.342-9.821,29.083-14.59,2.184-1.069,3.294-2.239,3.251-4.859-.064-3.8,.983-4.923,4.681-5.533,6.357-1.048,12.482-2.81,18.268-5.626,2.048-.997,3.867-.96,5.869,.012,6.104,2.962,12.579,4.728,19.246,5.911,3.1,.55,4.402,1.814,4.15,4.868-.287,3.485,1.569,4.723,4.236,5.978,7.335,3.451,14.676,6.916,21.817,10.745,5.657,3.034,11.279,5.549,17.893,4.321Zm23.293-.54c.349-.013,.698-.026,1.047-.039,0-2.71,.002-5.419,0-8.129-.027-27.557-.051-55.115-.089-82.672-.006-4.616,.568-4.276-4.163-4.278-20.925-.01-41.851-.038-62.776-.007-1.765,.003-2.885-.195-3.502-2.241-1.42-4.707-4.277-8.337-9.179-9.851-1.968-.608-1.388-2.076-1.448-3.345-.073-1.556,1.095-1.463,2.136-1.472,1.601-.015,3.202-.024,4.802-.024,15.208-.004,30.416-.006,45.624-.009,.686,0,1.374-.043,2.058,0,1.322,.083,1.852-.513,1.792-1.821-.058-1.255,.001-2.515,.003-3.773,.016-13.15,.04-26.299,.04-39.449,0-3.146-.036-3.157-3.214-3.167-3.43-.01-6.861,.008-10.291,.008-18.753,.004-37.506,.007-56.258,.011q-4.226,0-4.227,4.06c-.003,4.459-.115,8.922,.033,13.377,.069,2.074-.507,3.214-2.443,4.251-4.416,2.366-7.013,6.092-6.955,11.336,.025,2.284-.006,4.57-.017,6.855-.018,3.43-.042,6.859-.061,10.289-.007,1.196-.159,2.146-1.618,2.589-4.955,1.502-7.681,5.151-8.942,9.967-.368,1.405-.895,2.254-2.405,2.373-.827,.065-1.123,.709-1.121,1.458,.013,3.773,.035,7.546,.077,11.319,.013,1.178,.622,1.676,1.773,1.281,2.277-.783,4.625-1.278,6.993-1.635,1.651-.249,2.33-.973,2.297-2.705-.058-3.083-.015-6.179,.463-9.24,.466-2.985,2.224-4.675,5.214-4.986,1.019-.106,2.056-.037,3.084-.053,3.018-.046,3.038-.047,3.045-3.048,.016-7.204,.01-14.407,.016-21.611,0-.914-.072-1.84,.042-2.741,.315-2.503,2.235-4.222,4.59-4.207,2.292,.015,4.035,1.51,4.437,3.944,.166,1.006,.136,2.051,.136,3.078,0,6.289-.068,12.579,.005,18.867,.02,1.777-.744,3.924,.589,5.251,1.094,1.089,3.062,.274,4.629,.475,.113,.015,.228,.013,.342,.024,3.261,.306,5.243,2.173,5.629,5.398,.231,1.929,.392,3.867,.529,5.805,.358,5.041,.384,4.902,5.304,6.251,38.302,10.507,61.585,35.367,70.432,73.941,.628,2.739,1.037,5.529,1.548,8.295Zm13.091,35.983c-27.05-13.214-53.444-26.107-80.024-39.091-.634,2.014-.414,3.735-.435,5.404-.08,6.42-2.568,11.704-7.154,16.134-4.471,4.319-9.532,7.788-14.903,10.863-2.617,1.498-5.127,1.517-7.746,.034-5.183-2.933-10.173-6.148-14.558-10.198-4.335-4.005-7.053-8.847-7.683-14.857-.24-2.285-.162-4.654-.628-7.21-26.712,12.975-53.004,25.746-79.296,38.517,.057,.135,.115,.27,.172,.404H246.018Zm-30.731,95.953c.089,0,.179,0,.268,0,0-3.773-.015-7.545,.003-11.318,.056-11.547,.137-23.094,.178-34.641,.01-2.884-.042-2.884-2.323-3.086-4.623-.408-6.157-2.076-6.205-6.794-.029-2.858-.087-5.718,0-8.574,.051-1.67-.631-2.212-2.228-2.172-3.085,.078-6.174-.005-9.26,.043-2.347,.036-2.378,.08-2.411,2.597-.035,2.629,.019,5.259,0,7.888-.037,5.133-1.03,6.265-6.271,6.898-1.261,.152-1.886,.622-1.865,1.895,.015,.914,.009,1.829,.019,2.744,.169,16.118,.375,32.236,.498,48.354,.107,14.062,.114,28.124,.177,42.186,.012,2.592,.039,2.592,2.668,3.099,3.049,.588,4.788,2.499,4.903,5.678,.115,3.197,.111,6.403,.039,9.602-.037,1.652,.317,2.554,2.243,2.47,2.967-.129,5.946-.106,8.915-.015,1.662,.051,2.214-.643,2.214-2.216,0-3.2,.117-6.4,.166-9.6,.031-2.074,.768-3.77,2.492-5.004,1.104-.791,2.385-.796,3.623-.787,1.619,.011,2.308-.653,2.167-2.261-.06-.681-.011-1.371-.011-2.057,0-14.977,0-29.954,0-44.93Zm-135.281-66.564c-1.095,0-1.781,.002-2.466,0-.8-.003-1.6-.022-2.399-.011-2.841,.037-2.87,.041-2.91,2.82-.046,3.198,.053,6.401-.07,9.595-.106,2.758-2.035,4.705-4.669,5.007q-3.706,.424-3.728,4.148c-.003,.457-.006,.914-.002,1.371,.269,29.815,.538,59.631,.807,89.446,.003,.343,.036,.689,.003,1.028-.156,1.581,.496,2.108,2.127,2.291,4.13,.463,5.535,2.146,5.644,6.265,.082,3.083,.159,6.168,.126,9.251-.017,1.583,.49,2.254,2.172,2.19,2.966-.112,5.94-.013,8.91-.041,2.653-.025,2.691-.047,2.747-2.603,.067-3.084,.09-6.169,.073-9.253-.011-1.985,.792-3.531,2.317-4.727,1.14-.894,2.508-1.086,3.895-1.05,1.437,.037,2.132-.545,2.025-2.022-.041-.568,.009-1.142,.012-1.713,.164-30.387,.008-60.777,.512-91.162,.052-3.155,.012-3.155-3.038-3.407-3.641-.301-5.478-2.26-5.568-5.989-.036-1.484,.087-2.976-.02-4.454-.161-2.239,1.016-5.05-.602-6.566-1.45-1.358-4.159-.262-5.896-.412Zm59.273-9.532v-.044c36.59,0,73.18,.012,109.77-.029,2.342-.003,5.456,1.107,6.844-.608,1.431-1.768,.383-4.837,.462-7.336,.004-.114-.014-.229-.008-.343,.059-1.152-.496-1.658-1.638-1.653-2.058,.009-4.116-.038-6.174-.038-73.409,.024-146.817,.052-220.226,.075q-6.004,.002-6.005,5.958c-.009,4.887,.127,4.004,4.119,4.006,37.619,.018,75.238,.011,112.857,.011Zm.411,179.805v-.006c39.655,0,79.309,0,118.964,0,.686,0,1.374-.04,2.056,.006,1.386,.094,2.159-.346,2.093-1.91-.083-1.939-.061-3.885-.026-5.827,.023-1.292-.537-1.865-1.83-1.863-2.4,.004-4.799-.076-7.199-.076-74.51,.007-149.021,.019-223.531,.035-3.885,0-7.771,.083-11.656,.06-1.411-.009-2.125,.456-2.076,1.966,.06,1.826,.086,3.661-.019,5.484-.097,1.67,.605,2.288,2.204,2.141,.68-.063,1.37-.009,2.056-.009,39.655,0,79.31,0,118.965,0Zm-.063-27.247c-36.017,0-72.034,.004-108.051-.005-5.52-.001-4.676-.566-4.76,4.702-.053,3.345-.003,3.341,3.377,3.34,72.148-.034,144.296-.055,216.444-.117,6.225-.005,5.484,1.384,5.532-6.041,.01-1.562-.702-2.001-2.092-1.893-.682,.053-1.371,.011-2.057,.011-36.131,0-72.262,0-108.394,.004Zm-24.004-76.005c-.037,0-.075,0-.112,0-.192-14.515-.374-29.031-.591-43.546-.024-1.582,.561-3.444-.384-4.681-1.047-1.37-2.999-.365-4.532-.621-.787-.132-1.591-.189-2.389-.215-2.93-.093-3.067,.017-3.086,3.006-.192,30.295-.371,60.589-.553,90.884-.003,.572,.044,1.146,.002,1.714-.1,1.356,.559,1.804,1.844,1.775,2.285-.051,4.573,.005,6.859-.008,2.933-.016,2.941-.026,2.941-3.035,.003-15.091,.001-30.182,.001-45.274Zm120.006-6.749c0-8.103,0-23.081-.001-38.058,0-.8-.039-1.601-.027-2.401,.017-1.1-.417-1.716-1.601-1.703-2.401,.026-4.802,.021-7.203,.023-.968,0-1.49,.464-1.525,1.44-.025,.685-.044,1.371-.051,2.057-.149,14.289-.056,28.578-.368,42.868-.292,13.372-.212,26.753-.29,40.13-.017,2.858,.067,5.719-.036,8.574-.061,1.688,.621,2.193,2.22,2.13,2.512-.099,5.034-.12,7.544-.01,1.715,.076,2.252-.654,2.101-2.227-.065-.68-.009-1.371-.016-2.057-.152-14.631,.079-29.266-.747-50.767Zm-70.775,8.238c0,13.486,0,28.692,0,43.898,0,.457,.018,.916-.012,1.371-.077,1.18,.497,1.636,1.635,1.621,2.401-.032,4.802,.014,7.202-.029,2.826-.051,2.904-.078,2.886-2.854-.04-6.171-.206-12.341-.25-18.513-.108-15.091-.176-30.183-.258-45.274-.051-9.375-.085-18.75-.158-28.125-.021-2.774-.158-2.87-2.949-2.751-1.483,.063-2.962,.222-4.444,.273-2.968,.102-2.98,.084-3.013,3.055-.172,15.202-.004,30.409-.638,47.328Zm-110.303-8.808c0-7.212,.018-21.499-.009-35.786-.011-5.803-.054-5.826-5.763-5.791-4.989,.031-4.586-.679-4.581,4.606,.029,29.716-.444,59.429-.708,89.143-.006,.686-.003,1.371-.01,2.057-.01,1.001,.5,1.431,1.481,1.421,2.971-.032,5.943-.051,8.914-.063,1.052-.004,1.366-.622,1.363-1.545-.002-.8,.013-1.6,.011-2.4-.031-14.857,.096-29.715-.701-51.642Zm101.346-130.937c.11,0,.22,0,.33,0,0-2.966-.07-5.934,.028-8.896,.052-1.568-.538-2.299-2.069-2.504-4.333-.58-8.369-2.212-12.406-3.762-1.6-.614-2.932-.762-4.558-.069-3.985,1.697-8.075,3.159-12.37,3.864-1.698,.279-2.229,1.094-2.183,2.755,.151,5.36,.12,10.725,.279,16.085,.143,4.841,2.297,8.758,5.926,11.888,2.774,2.392,5.9,4.275,9.027,6.159,1.086,.654,1.984,.769,3.136,.066,2.819-1.721,5.721-3.305,8.275-5.431,4.268-3.555,6.731-7.965,6.594-13.654-.052-2.166-.009-4.334-.009-6.501ZM49.039,408.392v.038c2.734,0,5.467,.002,8.201,0q5.812-.005,5.69-5.803c-.053-2.503-.053-2.524-2.755-2.531-6.378-.015-12.757-.064-19.135,.005-6.487,.069-5.75-1.338-5.762,6.093-.003,1.941,.864,2.251,2.486,2.221,3.757-.069,7.517-.022,11.276-.022Zm60.243-.018c2.736,0,5.472,.003,8.207,0,6.017-.009,5.919-.009,5.851-5.941-.024-2.044-.814-2.487-2.626-2.464-7.522,.094-15.046,.123-22.569,.106-1.678-.004-2.591,.449-2.462,2.314,.094,1.36,.071,2.741-.042,4.1-.13,1.568,.605,1.934,2.014,1.912,3.875-.061,7.751-.021,11.627-.026Zm60.859,.014v-.056c2.736,0,5.473,.054,8.207-.011,6.538-.155,5.541,1.384,5.702-5.793,.044-1.971-.672-2.536-2.57-2.516-6.268,.068-12.54-.121-18.807-.013-7.189,.124-5.933-1.519-6.133,6.426-.037,1.482,.493,2.013,1.975,1.986,3.874-.07,7.751-.023,11.627-.023Zm60.369-8.414c0,.019,0,.037,0,.056-2.744,0-5.489-.049-8.232,.01-6.856,.146-5.747-1.108-5.938,6.046-.05,1.858,.63,2.324,2.364,2.306,6.402-.066,12.806,.013,19.209-.002,6.198-.014,6.133-.034,5.975-6.078-.047-1.784-.615-2.417-2.403-2.367-3.656,.102-7.317,.031-10.976,.031Zm-.625-124.419c0-.088,0-.176,0-.264-2.734,0-5.469-.018-8.203,.004-5.917,.046-5.133-.717-5.179,5.358-.02,2.625,.036,2.675,2.589,2.688,6.494,.033,12.988,0,19.482,.026,5.965,.024,5.925,.046,5.431-6.002-.105-1.29-.518-1.836-1.827-1.824-4.097,.037-8.195,.014-12.293,.014Zm-120.377,7.781c0,.013,0,.027,0,.04,2.853,0,5.706,0,8.559,0q5.421,0,5.333-5.459c-.042-2.609-.042-2.67-2.651-2.674-6.391-.009-12.785-.072-19.172,.104-6.996,.192-5.489-.023-5.772,6.132-.073,1.588,.673,1.902,2.062,1.879,3.879-.062,7.76-.022,11.64-.022Zm60.707,.07c0-.024,0-.048,0-.071,2.731,0,5.463,.046,8.193-.009,6.147-.123,5.188,1.209,5.358-5.427,.046-1.792-.595-2.33-2.36-2.341-6.369-.04-12.736-.333-19.105-.34-6.408-.007-5.653-1.12-5.734,6.24-.017,1.506,.617,1.985,2.039,1.966,3.869-.051,7.739-.017,11.608-.017Zm-120.795,.015c0-.015,0-.03,0-.045,2.855,0,5.712,.057,8.566-.012,5.686-.138,4.884,1.072,4.977-5.15,.039-2.627-.039-2.663-2.635-2.669-6.396-.014-12.792,.006-19.188,.013-6.315,.007-5.132-.847-5.322,5.498-.052,1.749,.454,2.453,2.296,2.398,3.766-.112,7.537-.034,11.306-.034ZM139.574,124.881c.001,.079,.002,.157,.003,.236,1.826,0,3.654-.043,5.478,.017,1.029,.034,1.483-.346,1.432-1.374-.04-.798-.064-1.599-.045-2.397,.042-1.747-.763-2.39-2.517-2.33-3.08,.105-6.17,.109-9.249-.012-1.936-.076-2.738,.671-2.6,2.566,.05,.681,.028,1.371-.003,2.055-.055,1.212,.559,1.589,1.688,1.516,1.936-.126,3.875-.187,5.813-.276Zm81.058,94.574c-.03,.305-.06,.61-.09,.914,5.03,2.484,10.061,4.967,15.707,7.755,0-2.729,.005-4.971-.002-7.213-.003-.955-.46-1.461-1.455-1.459-4.72,.007-9.44,.003-14.16,.003Zm-177.82,8.487c5.522-2.724,10.383-5.122,15.243-7.52-4.763-.545-9.3-.546-13.837-.544-1.025,0-1.398,.619-1.403,1.539-.01,1.926-.003,3.852-.003,6.525Z"/>
  <path class="cls-4" d="M417.96,76.552c22.66,2.295,39.41,13.268,49.418,33.999,3.112,6.447,4.765,13.336,5.25,20.466,.39,5.737-2.583,9.507-7.532,9.9-5.048,.402-8.496-2.769-9.177-8.464-.78-6.524-2.307-12.82-5.799-18.482-7.731-12.536-18.891-19.673-33.644-20.517-7.464-.427-10.267-7.841-7.159-13.096,1.938-3.276,5.046-4.032,8.643-3.806Z"/>
  <path class="cls-4" d="M416.501,101.561c19.229,1.14,30.035,16.759,31.397,30.858,.474,4.906-2.72,8.942-7.334,9.513-4.899,.606-8.632-2.138-9.587-7.175-.341-1.797-.558-3.619-1.286-5.309-2.812-6.528-7.717-10.384-14.817-11.1-5.326-.537-8.947-5.577-7.03-11.642,1.166-3.687,4.165-5.348,8.657-5.146Z"/>
  <path class="cls-4" d="M406.069,134.907c.099-4.925,3.827-8.357,8.942-8.231,4.546,.112,7.882,3.776,7.812,8.579-.069,4.72-3.889,8.38-8.609,8.248-4.928-.138-8.244-3.638-8.145-8.596Z"/>
  <path class="cls-2" d="M250.538,346.662c.001-11.809,.003-23.618,.004-35.426,1.254-.036,2.509-.105,3.763-.103,11.767,.013,23.535-.039,35.301,.119,2.644,.036,4.543-.736,6.24-2.698,2.014-2.33,4.338-4.392,6.35-6.725,1.62-1.878,3.401-2.688,5.943-2.581,4.904,.207,9.825,.157,14.734,.03,2.423-.063,4.464,.12,5.623,2.673,.353,.777,1.172,1.411,1.904,1.935,3.238,2.321,6.745,2.849,10.312,.933,3.495-1.878,5.353-4.852,5.194-8.948-.155-4.012-2.365-6.575-5.827-8.151-4.494-2.046-9.475-.471-12.047,4.151-1.084,1.949-2.24,2.439-4.268,2.404-5.939-.104-11.883,.079-17.82-.066-2.384-.058-4.112,.657-5.67,2.428-2.261,2.57-4.812,4.888-7.047,7.478-1.468,1.702-3.054,2.344-5.311,2.306-9.366-.157-18.735-.114-28.103-.167-3.08-.017-6.159-.101-9.239-.155,.005-3.082,.042-6.164,.003-9.246-.032-2.499-.375-5.013,1.92-6.911,.933-.772,.855-2.081,.89-3.216,.096-3.079,.217-6.16,.176-9.239-.024-1.771,.639-2.482,2.402-2.375,1.363,.082,2.742,.043,4.106-.051,3.953-.271,5.535-1.87,5.653-5.793,.114-3.764,.204-7.533,.148-11.298-.028-1.875,.554-2.763,2.521-2.59,2.016,.177,3.856-.302,5.329-1.798,3.645,.315,7.296,.284,10.949,.207,1.57-.034,2.769-.594,3.846-1.818,2.486-2.826,5.143-5.501,7.694-8.271,1.059-1.15,2.21-1.871,3.87-1.763,8.095,.529,16.204,.16,24.306,.26,1.958,.024,3.146,.576,4.049,2.348,1.072,2.105,2.928,3.463,5.209,4.172,4.666,1.451,9.91-1.091,11.816-5.722,1.851-4.497-.035-9.595-4.438-11.998-4.354-2.376-9.908-1.039-12.478,3.508-1.238,2.191-2.608,2.683-4.855,2.654-8.104-.105-16.211,.039-24.313-.116-2.612-.05-4.562,.619-6.249,2.645-2.188,2.628-4.6,5.069-6.91,7.595-.771,.843-1.472,1.713-2.825,1.63-2.956-.182-5.935,.198-8.88-.33-.53-2.238-2.589-2.77-4.25-3.604-5.508-2.768-11.059-5.453-16.65-8.048-2.193-1.018-3.143-2.318-3.131-4.915,.09-19.21-.01-38.42-.036-57.63-.005-3.411,.023-3.449,3.367-3.45,41.165-.011,82.33-.013,123.494-.006,3.115,0,3.13,.041,3.131,3.275,.012,26.986,.009,53.972,.027,80.957,.033,47.337,.079,94.675,.116,142.012,.011,14.633,.011,29.267,.015,43.9,0,.915-.029,1.83-.015,2.744,.016,1.152-.558,1.657-1.681,1.641-.914-.013-1.829,.016-2.744,.016-33.389-.002-66.778-.005-100.168-.009-.572,0-1.147-.046-1.715,.001-1.633,.137-2.227-.61-2.204-2.213,.049-3.429,.046-6.862-.056-10.29-.134-4.523-1.811-6.199-6.311-6.256-3.935-.05-4.153,.438-4.123-4.156,.018-2.744,.03-5.49-.043-8.232-.097-3.668-1.787-5.416-5.396-5.718q-2.866-.24-2.912-3.145c-.031-2.058-.073-4.116-.077-6.174-.005-2.527,.084-5.027-2.043-6.983-.924-.85-.487-2.174-.491-3.289-.045-12.235-.064-24.47-.089-36.705,.336-.069,.672-.197,1.008-.198,11.202-.036,22.404-.042,33.606-.108,1.407-.008,2.358,.586,3.259,1.546,1.956,2.083,4.054,4.04,5.917,6.2,1.684,1.951,3.554,2.868,6.218,2.784,5.71-.179,11.432,.038,17.146-.082,2.649-.056,4.972,.053,6.176,2.95,.285,.687,1.024,1.222,1.633,1.732,3.505,2.93,8.79,2.841,12.308-.175,3.539-3.034,4.296-8.161,1.792-12.124-4.068-6.436-12.7-6.275-16.574,.472-.971,1.692-1.962,2.148-3.733,2.13-6.058-.063-12.118-.032-18.176,.053-1.482,.021-2.642-.327-3.64-1.453-1.894-2.137-3.916-4.161-5.78-6.323-1.754-2.034-3.787-2.905-6.553-2.86-10.172,.165-20.348,.111-30.522,.128-1.364,.002-2.748,.2-4.075-.314Zm74.542-134.688c-.01,0-.02,0-.03,0,0-2.279-.084-4.561,.026-6.835,.088-1.826-.677-2.358-2.413-2.322-4.328,.088-8.659,.071-12.987,.009-1.555-.022-2.283,.437-2.253,2.124,.079,4.442,.068,8.886,.018,13.329-.016,1.402,.4,2.115,1.917,2.104,4.557-.033,9.115-.048,13.671,.039,1.737,.033,2.133-.769,2.071-2.296-.083-2.047-.021-4.1-.021-6.151Zm-8.774,184.153v.006c2.163,0,4.327-.053,6.487,.018,1.512,.05,2.325-.338,2.295-2.077-.077-4.438-.038-8.878,.004-13.317,.013-1.367-.405-2.167-1.915-2.159-4.667,.025-9.333,.02-14,.015-1.059-.001-1.75,.326-1.742,1.545,.029,4.78,.046,9.561,.042,14.341-.001,1.155,.532,1.642,1.659,1.633,2.39-.019,4.781-.006,7.171-.006Zm-.346-57.53v.008c2.285,0,4.571-.051,6.854,.018,1.531,.047,2.327-.379,2.291-2.109-.09-4.34-.093-8.683-.032-13.023,.023-1.609-.537-2.253-2.181-2.228-4.455,.068-8.911,.05-13.366,.011-1.389-.012-2.103,.411-2.085,1.944,.052,4.455,.041,8.911-.008,13.366-.016,1.452,.542,2.072,2.015,2.029,2.169-.063,4.341-.016,6.511-.016Zm.37-58.345v.019c2.162,0,4.325-.057,6.485,.019,1.53,.054,2.321-.379,2.29-2.089-.081-4.436-.06-8.874-.047-13.311,.003-1.202-.336-1.962-1.712-1.954-4.778,.028-9.557,.029-14.335,.027-1.183,0-1.562,.63-1.561,1.725,.005,4.551,.006,9.102-.057,13.653-.021,1.542,.753,1.947,2.111,1.923,2.275-.04,4.551-.011,6.826-.011Zm-26.697-68.576c-.006,0-.012,0-.018,0,0-2.281-.045-4.563,.016-6.842,.039-1.434-.488-2.056-1.978-2.037-4.447,.058-8.895,.062-13.342,.014-1.482-.016-2.015,.597-1.998,2.033,.052,4.561,.06,9.123,.032,13.685-.008,1.325,.569,1.835,1.844,1.831,4.562-.012,9.124-.011,13.685,.035,1.354,.014,1.796-.614,1.772-1.878-.044-2.28-.012-4.561-.012-6.842Zm70.69,.003c0-2.28-.043-4.56,.016-6.838,.037-1.423-.456-2.043-1.968-2.021-4.444,.063-8.89,.058-13.335-.012-1.68-.026-2.158,.722-2.134,2.276,.071,4.444,.085,8.89,.044,13.334-.013,1.446,.506,2.053,1.981,2.036,4.444-.052,8.891-.087,13.334-.003,1.741,.033,2.129-.757,2.077-2.275-.075-2.163-.019-4.331-.016-6.496Zm-70.724,175.976h-.053c0-2.39-.029-4.781,.012-7.17,.022-1.257-.426-1.901-1.767-1.894-4.552,.025-9.105,.02-13.657-.008-1.299-.008-1.829,.549-1.82,1.847,.031,4.552,.038,9.105-.013,13.657-.016,1.436,.499,2.044,1.981,2.029,4.438-.047,8.878-.04,13.316,.018,1.454,.019,2.061-.525,2.018-1.992-.063-2.161-.016-4.324-.016-6.487Zm70.659-.201s.005,0,.007,0c0-2.283-.059-4.568,.021-6.849,.053-1.487-.543-2.034-1.999-2-4.45,.105-8.901,.168-13.351,.19-1.478,.007-1.998,.664-1.98,2.089,.057,4.452,.069,8.904,.043,13.356-.007,1.277,.436,1.893,1.774,1.885,4.566-.027,9.133-.032,13.699,.011,1.33,.013,1.826-.541,1.799-1.833-.049-2.282-.014-4.566-.014-6.849Zm.056-115.632h-.032c0-2.281-.046-4.563,.017-6.842,.039-1.417-.428-2.079-1.949-2.056-4.447,.068-8.895,.063-13.342,.037-1.382-.008-2.113,.429-2.1,1.95,.039,4.447,.026,8.895-.021,13.342-.015,1.466,.617,2.025,2.051,2.013,4.447-.038,8.895-.047,13.342,.008,1.429,.018,2.102-.441,2.052-1.952-.071-2.164-.018-4.333-.018-6.5Zm-79.49,66.822v-.01c2.282,0,4.565-.048,6.845,.017,1.492,.043,2.007-.616,1.988-2.045-.06-4.449-.07-8.898-.062-13.347,.002-1.258-.465-1.885-1.796-1.878-4.563,.023-9.127,.013-13.69-.019-1.353-.009-1.762,.683-1.758,1.917,.012,4.449,.012,8.899-.047,13.348-.019,1.459,.558,2.069,2.018,2.032,2.166-.055,4.335-.014,6.503-.014Zm8.761-66.796h.02c0-2.279-.07-4.56,.023-6.835,.069-1.669-.649-2.181-2.227-2.157-4.329,.065-8.659,.071-12.988,.004-1.64-.025-2.192,.64-2.166,2.222,.072,4.328,.096,8.659,.031,12.988-.025,1.66,.656,2.176,2.23,2.156,4.329-.055,8.66-.063,12.988,.028,1.71,.036,2.17-.704,2.109-2.255-.081-2.048-.02-4.101-.02-6.152Zm61.928,66.763v-.024c2.283,0,4.567-.033,6.849,.013,1.258,.026,1.893-.401,1.881-1.756-.041-4.565-.046-9.132-.016-13.697,.008-1.301-.513-1.837-1.819-1.826-4.451,.037-8.903,.044-13.355,.008-1.402-.011-2.103,.459-2.09,1.966,.038,4.451,.033,8.904-.022,13.355-.019,1.502,.643,2.015,2.067,1.977,2.167-.058,4.337-.015,6.506-.015Z"/>
  <path class="cls-2" d="M485.442,292.612c29.689-.332,53.914,16.278,61.455,43.156,2.177,7.758,3.015,15.744,1.1,23.713-1.502,6.25-4.415,11.963-7.376,17.643-9.482,18.192-22.455,33.814-35.993,49.017-3.721,4.179-7.599,8.22-11.477,12.257-2.628,2.736-2.755,2.751-5.471-.111-4.955-5.22-9.903-10.453-14.699-15.819-9.525-10.655-18.348-21.867-26.172-33.841-4.38-6.704-8.065-13.786-11.468-21.033-4.714-10.038-4.485-20.314-1.98-30.812,2.573-10.783,8.238-19.717,15.994-27.446,11.256-11.216,25.054-16.289,36.088-16.724Zm30.109,41.984c1.38-12.137-11.24-25.404-25.328-25.423-13.791-.019-25.755,13.157-25.617,25.421,.178,15.939,13.963,25.793,25.923,25.776,12.424-.018,25.999-11.56,25.022-25.774Z"/>
  <path class="cls-2" d="M209.634,210.381c-6.613,1.229-12.236-1.287-17.893-4.321-7.14-3.829-14.482-7.294-21.817-10.745-2.668-1.255-4.523-2.493-4.236-5.978,.252-3.054-1.051-4.318-4.15-4.868-6.667-1.182-13.142-2.949-19.246-5.911-2.003-.972-3.821-1.009-5.869-.012-5.787,2.816-11.911,4.578-18.268,5.626-3.698,.61-4.745,1.733-4.681,5.533,.044,2.62-1.067,3.79-3.251,4.859-9.741,4.768-19.412,9.681-29.083,14.59-1.671,.848-3.339,1.335-5.235,1.304-4.687-.077-9.375-.003-14.063-.043-2.895-.025-2.975-.121-2.556-2.909,3.271-21.79,13.557-39.549,30.852-53.169,18.273-14.39,39.197-19.192,61.934-15.989,16.662,2.347,30.955,9.917,43.019,21.667,13.506,13.153,21.337,29.166,24.115,47.733,.388,2.595,.376,2.609-2.369,2.63-2.401,.018-4.802,.004-7.203,.004Z"/>
  <path class="cls-2" d="M232.927,209.841c-.511-2.766-.92-5.556-1.548-8.295-8.847-38.574-32.13-63.434-70.432-73.941-4.92-1.35-4.947-1.21-5.304-6.251-.137-1.938-.298-3.877-.529-5.805-.387-3.224-2.369-5.092-5.629-5.398-.114-.011-.229-.01-.342-.024-1.567-.201-3.535,.615-4.629-.475-1.333-1.327-.569-3.474-.589-5.251-.072-6.288-.005-12.578-.005-18.867,0-1.027,.031-2.072-.136-3.078-.403-2.434-2.145-3.929-4.437-3.944-2.355-.016-4.275,1.703-4.59,4.207-.113,.901-.041,1.827-.042,2.741-.006,7.204,0,14.407-.016,21.611-.007,3.001-.027,3.002-3.045,3.048-1.029,.016-2.066-.053-3.084,.053-2.99,.311-4.748,2.001-5.214,4.986-.478,3.061-.521,6.157-.463,9.24,.033,1.731-.646,2.456-2.297,2.705-2.368,.357-4.716,.852-6.993,1.635-1.151,.395-1.759-.103-1.773-1.281-.042-3.773-.064-7.546-.077-11.319-.003-.749,.294-1.393,1.121-1.458,1.51-.119,2.037-.968,2.405-2.373,1.261-4.816,3.987-8.465,8.942-9.967,1.459-.442,1.612-1.393,1.618-2.589,.019-3.43,.044-6.859,.061-10.289,.012-2.285,.043-4.57,.017-6.855-.058-5.244,2.538-8.97,6.955-11.336,1.936-1.037,2.512-2.177,2.443-4.251-.148-4.454-.036-8.917-.033-13.377q.002-4.057,4.227-4.06c18.753-.004,37.506-.006,56.258-.011,3.43,0,6.861-.018,10.291-.008,3.178,.009,3.214,.021,3.214,3.167,0,13.15-.024,26.299-.04,39.449-.002,1.258-.061,2.518-.003,3.773,.06,1.308-.47,1.903-1.792,1.821-.683-.043-1.372,0-2.058,0-15.208,.003-30.416,.005-45.624,.009-1.601,0-3.202,.01-4.802,.024-1.041,.01-2.209-.084-2.136,1.472,.06,1.269-.52,2.737,1.448,3.345,4.901,1.514,7.759,5.143,9.179,9.851,.617,2.046,1.737,2.244,3.502,2.241,20.925-.03,41.85-.003,62.776,.007,4.731,.002,4.157-.337,4.163,4.278,.038,27.557,.061,55.115,.089,82.672,.003,2.71,0,5.419,0,8.129-.349,.013-.698,.026-1.047,.039Zm-60.404-131.545v-.024c4.102,0,8.204,.039,12.305-.018,1.806-.025,4.013,.754,5.321-.33,1.538-1.274,.52-3.627,.574-5.496,.099-3.423,.005-3.445-3.59-3.449-9.912-.009-19.825,0-29.737,.004-.57,0-1.14,.028-1.709,.011-1.138-.035-1.677,.533-1.685,1.638-.012,1.595-.03,3.19-.011,4.785,.033,2.844,.044,2.866,2.81,2.874,5.241,.016,10.482,.005,15.723,.005Z"/>
  <path class="cls-2" d="M246.018,245.824H33.762c-.057-.135-.115-.27-.172-.404,26.292-12.771,52.584-25.542,79.296-38.517,.466,2.557,.389,4.925,.628,7.21,.63,6.011,3.348,10.852,7.683,14.857,4.384,4.05,9.374,7.265,14.558,10.198,2.62,1.483,5.129,1.464,7.746-.034,5.372-3.075,10.432-6.544,14.903-10.863,4.586-4.43,7.074-9.714,7.154-16.134,.021-1.669-.199-3.39,.435-5.404,26.579,12.984,52.974,25.877,80.024,39.091Z"/>
  <path class="cls-2" d="M215.286,341.777c0,14.977,0,29.954,0,44.93,0,.686-.049,1.376,.011,2.057,.141,1.608-.548,2.272-2.167,2.261-1.238-.009-2.519-.003-3.623,.787-1.724,1.234-2.46,2.93-2.492,5.004-.048,3.2-.166,6.4-.166,9.6,0,1.573-.552,2.267-2.214,2.216-2.97-.091-5.948-.114-8.915,.015-1.926,.084-2.28-.818-2.243-2.47,.072-3.199,.076-6.404-.039-9.602-.114-3.179-1.854-5.09-4.903-5.678-2.629-.507-2.656-.507-2.668-3.099-.064-14.062-.071-28.124-.177-42.186-.122-16.119-.329-32.236-.498-48.354-.01-.915-.004-1.829-.019-2.744-.02-1.272,.604-1.742,1.865-1.895,5.24-.634,6.234-1.765,6.271-6.898,.019-2.629-.035-5.259,0-7.888,.033-2.517,.064-2.561,2.411-2.597,3.086-.048,6.175,.035,9.26-.043,1.597-.04,2.279,.502,2.228,2.172-.087,2.855-.029,5.716,0,8.574,.048,4.719,1.583,6.386,6.205,6.794,2.281,.202,2.333,.202,2.323,3.086-.041,11.547-.123,23.094-.178,34.641-.018,3.773-.003,7.545-.003,11.318-.089,0-.179,0-.268,0Zm-11.278-23.771h-.032c0-5.715,.004-11.43-.004-17.145-.001-.913,.044-1.842-.099-2.736-.227-1.421-1.114-2.276-2.598-2.166-1.291,.095-2.092,.88-2.194,2.211-.069,.91-.052,1.827-.053,2.741-.012,9.03-.342,18.075,.086,27.084,.281,5.907-.732,10.782-5.911,14.181-.187,.123-.308,.341-.487,.481-1.475,1.161-1.926,2.676-1.889,4.53,.102,5.142,.141,10.288,.057,15.429-.029,1.788,.61,3.042,1.906,4.149,1.475,1.261,2.854,2.634,4.323,3.902,1.395,1.204,1.986,2.619,1.916,4.509-.132,3.538-.056,7.085-.028,10.628,.007,.905-.002,1.865,.285,2.7,.357,1.037,1.266,1.616,2.415,1.574,1.191-.043,1.873-.774,2.127-1.877,.126-.548,.114-1.134,.115-1.703,.009-4.458-.067-8.917,.043-13.372,.046-1.877-.386-3.489-1.947-4.466-5.43-3.398-6.174-8.348-6.194-14.368-.02-5.863,1.06-10.447,6.113-13.706,1.696-1.094,2.116-2.761,2.085-4.747-.093-5.942-.033-11.887-.033-17.83Z"/>
  <path class="cls-2" d="M155.058,343.428c.495,.811,.5,1.69,.497,2.616-.043,13.945-.058,27.891-.065,41.836-.001,2.132,.334,2.926-2.708,3.2-3.936,.354-5.499,2.312-5.6,6.379-.074,2.971-.089,5.945-.031,8.915,.032,1.612-.581,2.245-2.215,2.208-3.313-.075-6.63-.059-9.944,.013-1.472,.032-2.042-.522-2.019-1.995,.046-2.971,.037-5.945-.053-8.915-.145-4.763-1.272-6.192-5.951-6.665-2.392-.242-2.009-1.652-2.016-3.09-.061-12.002-.088-24.005-.175-36.007-.132-18.288-.305-36.576-.46-54.864-.005-.571-.032-1.144-.016-1.714,.066-2.433,.107-2.49,2.492-2.597,1.248-.056,2.535,.155,3.648-.631,1.714-1.21,2.529-2.828,2.487-4.969-.062-3.199,.094-6.403-.001-9.6-.055-1.829,.68-2.379,2.412-2.325,3.198,.101,6.404,.134,9.6,.02,1.846-.066,2.399,.663,2.356,2.407-.076,3.084-.071,6.175,.055,9.256,.14,3.45,2.081,5.359,5.558,5.716,2.891,.297,2.919,.297,2.912,3.226-.032,13.031-.082,26.061-.125,39.092-1.435,.29-2.391-.707-3.346-1.423-2.645-1.982-5.136-4.171-7.775-6.162-2.086-1.573-2.895-3.442-2.827-6.131,.174-6.841,.054-13.691-.063-20.536-.037-2.136-1.166-3.273-2.744-3.291-1.594-.019-2.312,.989-2.323,3.434-.034,7.759,.016,15.519-.096,23.277-.028,1.908,.64,3.203,2.019,4.428,5.543,4.923,11.019,9.922,16.52,14.892Zm-18.462,32.677h-.03c0,3.656-.015,7.312,.007,10.967,.01,1.62,.947,2.674,2.473,2.747,1.57,.075,2.472-1.015,2.683-2.566,.076-.561,.024-1.14,.023-1.711-.005-5.712,.096-11.427-.066-17.135-.077-2.695,.403-4.45,3.018-6.083,4.909-3.065,5.53-9.831,1.853-14.109-3.6-4.188-9.697-4.506-13.724-.718-4.32,4.063-4.216,10.076,.264,14.172,.587,.537,1.196,1.118,1.903,1.441,1.384,.633,1.649,1.67,1.619,3.057-.072,3.312-.023,6.626-.023,9.939Z"/>
  <path class="cls-2" d="M80.005,275.213c1.737,.15,4.447-.946,5.896,.412,1.617,1.516,.441,4.327,.602,6.566,.106,1.477-.016,2.97,.02,4.454,.089,3.729,1.926,5.689,5.568,5.989,3.05,.252,3.091,.252,3.038,3.407-.504,30.386-.348,60.775-.512,91.162-.003,.571-.053,1.145-.012,1.713,.107,1.477-.588,2.059-2.025,2.022-1.387-.035-2.755,.156-3.895,1.05-1.526,1.196-2.328,2.742-2.317,4.727,.017,3.084-.006,6.17-.073,9.253-.055,2.557-.094,2.578-2.747,2.603-2.97,.028-5.944-.071-8.91,.041-1.683,.064-2.189-.607-2.172-2.19,.033-3.083-.044-6.168-.126-9.251-.109-4.12-1.514-5.802-5.644-6.265-1.631-.183-2.283-.709-2.127-2.291,.033-.339,0-.685-.003-1.028-.269-29.815-.539-59.631-.807-89.446-.004-.457,0-.914,.002-1.371q.022-3.724,3.728-4.148c2.634-.302,4.563-2.249,4.669-5.007,.123-3.194,.025-6.397,.07-9.595,.04-2.779,.069-2.783,2.91-2.82,.799-.011,1.599,.008,2.399,.011,.685,.002,1.371,0,2.466,0Zm-4.899,98.052h-.076c0,4.226,0,8.452,0,12.677,0,.571-.059,1.15,.018,1.711,.221,1.59,1.341,2.644,2.716,2.468,1.364-.175,2.363-.861,2.426-2.399,.037-.912,.032-1.827,.03-2.74-.012-7.424,.036-14.849-.084-22.271-.035-2.134,.605-3.687,2.213-5.069,1.727-1.485,3.224-3.234,4.888-4.796,1.346-1.263,1.877-2.726,1.838-4.575-.089-4.224-.246-8.466,.033-12.673,.284-4.284-1.068-7.554-4.639-9.906-2.425-1.597-3.527-3.777-3.026-6.701,.076-.444,.045-.915,.005-1.368-.209-2.38,.196-4.086,2.706-5.489,3.781-2.114,5.081-6.7,3.848-10.783-1.238-4.098-4.767-6.908-8.769-6.982-4.404-.082-8.061,2.425-9.5,6.513-1.568,4.453,.021,8.878,4.554,11.753,1.575,.999,2.315,2.011,2.045,3.827-.117,.785-.067,1.596-.084,2.395q-.128,6.024,4.51,10.092c.343,.301,.671,.623,1.035,.898,1.571,1.191,2.208,2.688,2.131,4.724-.144,3.763-.152,7.542,.038,11.302,.12,2.393-.619,4.158-2.426,5.672-1.572,1.317-2.922,2.9-4.496,4.216-1.447,1.21-1.993,2.629-1.959,4.486,.08,4.339,.026,8.68,.026,13.02Z"/>
  <path class="cls-2" d="M139.278,265.681c-37.619,0-75.238,.007-112.857-.011-3.992-.002-4.128,.881-4.119-4.006q.011-5.969,6.005-5.958c73.409-.023,146.817-.051,220.226-.075,2.058,0,4.116,.047,6.174,.038,1.142-.005,1.697,.501,1.638,1.653-.006,.114,.012,.229,.008,.343-.079,2.498,.969,5.568-.462,7.336-1.387,1.715-4.502,.605-6.844,.608-36.59,.042-73.18,.029-109.77,.029v.044Z"/>
  <path class="cls-2" d="M139.69,445.486c-39.655,0-79.31,0-118.965,0-.686,0-1.376-.054-2.056,.009-1.599,.147-2.3-.471-2.204-2.141,.106-1.823,.08-3.657,.019-5.484-.05-1.509,.664-1.974,2.076-1.966,3.885,.023,7.771-.059,11.656-.06,74.51-.016,149.021-.028,223.531-.035,2.4,0,4.799,.08,7.199,.076,1.293-.002,1.853,.571,1.83,1.863-.035,1.942-.056,3.888,.026,5.827,.067,1.563-.707,2.004-2.093,1.91-.682-.047-1.371-.006-2.056-.006-39.655,0-79.309,0-118.964,0v.006Z"/>
  <path class="cls-2" d="M139.627,418.237c36.131-.002,72.262-.002,108.394-.002,.686,0,1.375,.042,2.057-.011,1.39-.108,2.102,.331,2.092,1.893-.049,7.424,.692,6.035-5.532,6.041-72.148,.062-144.296,.084-216.444,.117-3.38,.002-3.43,.006-3.377-3.34,.084-5.267-.76-4.703,4.76-4.702,36.017,.009,72.034,.005,108.051,.003Z"/>
  <path class="cls-2" d="M115.623,342.234c0,15.091,.002,30.182-.001,45.274,0,3.009-.009,3.019-2.941,3.035-2.286,.012-4.574-.044-6.859,.008-1.285,.029-1.944-.42-1.844-1.775,.042-.568-.005-1.143-.002-1.714,.182-30.295,.361-60.589,.553-90.884,.019-2.988,.157-3.099,3.086-3.006,.798,.025,1.602,.083,2.389,.215,1.533,.256,3.485-.749,4.532,.621,.945,1.237,.36,3.099,.384,4.681,.218,14.515,.399,29.031,.591,43.546,.037,0,.075,0,.112,0Z"/>
  <path class="cls-2" d="M235.629,335.485c.826,21.501,.595,36.136,.747,50.767,.007,.686-.049,1.377,.016,2.057,.151,1.573-.385,2.302-2.101,2.227-2.51-.111-5.032-.09-7.544,.01-1.599,.063-2.281-.442-2.22-2.13,.103-2.855,.019-5.716,.036-8.574,.078-13.377-.002-26.757,.29-40.13,.312-14.29,.219-28.579,.368-42.868,.007-.686,.026-1.372,.051-2.057,.035-.976,.557-1.439,1.525-1.44,2.401-.002,4.802,.003,7.203-.023,1.184-.013,1.618,.603,1.601,1.703-.013,.8,.027,1.6,.027,2.401,.002,14.977,.001,29.955,.001,38.058Z"/>
  <path class="cls-2" d="M164.854,343.723c.634-16.919,.466-32.125,.638-47.328,.034-2.971,.045-2.953,3.013-3.055,1.483-.051,2.962-.21,4.444-.273,2.791-.119,2.928-.024,2.949,2.751,.073,9.375,.107,18.75,.158,28.125,.082,15.091,.151,30.183,.258,45.274,.044,6.171,.21,12.342,.25,18.513,.018,2.776-.06,2.803-2.886,2.854-2.4,.043-4.802-.003-7.202,.029-1.139,.015-1.713-.441-1.635-1.621,.03-.455,.012-.914,.012-1.371,0-15.206,0-30.412,0-43.898Z"/>
  <path class="cls-2" d="M54.551,334.915c.797,21.928,.67,36.786,.701,51.642,.002,.8-.014,1.6-.011,2.4,.003,.923-.312,1.54-1.363,1.545-2.972,.012-5.943,.03-8.914,.063-.982,.011-1.491-.419-1.481-1.421,.007-.686,.004-1.371,.01-2.057,.263-29.714,.736-59.426,.708-89.143-.005-5.285-.408-4.576,4.581-4.606,5.709-.035,5.752-.012,5.763,5.791,.026,14.287,.009,28.574,.009,35.786Z"/>
  <path class="cls-2" d="M155.896,203.978c0,2.167-.044,4.335,.009,6.501,.137,5.689-2.326,10.099-6.594,13.654-2.553,2.127-5.455,3.71-8.275,5.431-1.151,.703-2.05,.588-3.136-.066-3.127-1.884-6.253-3.767-9.027-6.159-3.629-3.13-5.783-7.047-5.926-11.888-.158-5.36-.128-10.725-.279-16.085-.047-1.661,.485-2.476,2.183-2.755,4.295-.705,8.385-2.167,12.37-3.864,1.626-.693,2.958-.545,4.558,.069,4.037,1.55,8.073,3.182,12.406,3.762,1.531,.205,2.121,.936,2.069,2.504-.099,2.962-.028,5.93-.028,8.896-.11,0-.22,0-.33,0Z"/>
  <path class="cls-3" d="M250.574,306.098c3.08,.053,6.159,.137,9.239,.155,9.368,.053,18.737,.01,28.103,.167,2.257,.038,3.843-.605,5.311-2.306,2.235-2.591,4.786-4.908,7.047-7.478,1.558-1.771,3.286-2.486,5.67-2.428,5.937,.145,11.881-.038,17.82,.066,2.028,.036,3.184-.455,4.268-2.404,2.572-4.621,7.553-6.197,12.047-4.151,3.462,1.577,5.671,4.139,5.827,8.151,.159,4.096-1.699,7.07-5.194,8.948-3.567,1.917-7.074,1.389-10.312-.933-.731-.524-1.551-1.158-1.904-1.935-1.16-2.553-3.201-2.736-5.623-2.673-4.909,.127-9.83,.177-14.734-.03-2.542-.107-4.324,.702-5.943,2.581-2.011,2.332-4.335,4.395-6.35,6.725-1.697,1.963-3.595,2.734-6.24,2.698-11.765-.158-23.534-.106-35.301-.119-1.254-.001-2.509,.067-3.763,.103-.207-1.714-.196-3.426,.031-5.138Zm85.67-5.134c2.552,.047,4.553-1.851,4.653-4.412,.106-2.729-1.879-4.753-4.643-4.735-2.487,.016-4.615,2.127-4.56,4.523,.056,2.433,2.169,4.58,4.551,4.623Z"/>
  <path class="cls-3" d="M250.538,346.662c1.326,.513,2.711,.316,4.075,.314,10.174-.017,20.35,.037,30.522-.128,2.766-.045,4.799,.826,6.553,2.86,1.864,2.161,3.886,4.186,5.78,6.323,.998,1.126,2.158,1.473,3.64,1.453,6.058-.085,12.118-.116,18.176-.053,1.77,.019,2.761-.438,3.733-2.13,3.873-6.747,12.506-6.908,16.574-.472,2.505,3.963,1.747,9.09-1.792,12.124-3.518,3.016-8.804,3.105-12.308,.175-.61-.51-1.348-1.045-1.633-1.732-1.204-2.897-3.527-3.006-6.176-2.95-5.713,.12-11.435-.097-17.146,.082-2.664,.083-4.534-.833-6.218-2.784-1.864-2.16-3.962-4.117-5.917-6.2-.901-.96-1.853-1.554-3.259-1.546-11.202,.066-22.404,.072-33.606,.108-.336,.001-.672,.129-1.008,.198-.209-1.881-.175-3.761,.011-5.641Zm85.573,12.986c-.055-2.595-2.321-4.738-4.873-4.608-2.404,.123-4.532,2.371-4.459,4.708,.075,2.378,2.305,4.654,4.552,4.646,2.585-.009,4.833-2.241,4.78-4.746Z"/>
  <path class="cls-3" d="M274.512,248.582c2.945,.528,5.924,.148,8.88,.33,1.353,.083,2.054-.787,2.825-1.63,2.31-2.526,4.722-4.968,6.91-7.595,1.687-2.026,3.637-2.695,6.249-2.645,8.102,.156,16.209,.011,24.313,.116,2.246,.029,3.616-.463,4.855-2.654,2.57-4.547,8.124-5.884,12.478-3.508,4.403,2.403,6.289,7.501,4.438,11.998-1.905,4.63-7.15,7.173-11.816,5.722-2.28-.709-4.136-2.067-5.209-4.172-.903-1.772-2.091-2.324-4.049-2.348-8.102-.1-16.211,.269-24.306-.26-1.66-.108-2.811,.612-3.87,1.763-2.551,2.77-5.208,5.445-7.694,8.271-1.077,1.225-2.275,1.785-3.846,1.818-3.653,.078-7.304,.109-10.949-.207,.475-1.633,.881-3.277,.789-4.999Zm62.206-13.661c-2.546-.042-4.619,1.901-4.708,4.41-.092,2.598,1.776,4.629,4.349,4.731,2.481,.098,4.577-1.884,4.682-4.428,.107-2.607-1.786-4.672-4.323-4.713Z"/>
  <path class="cls-3" d="M155.058,343.428c-5.501-4.971-10.977-9.969-16.52-14.892-1.378-1.224-2.046-2.52-2.019-4.428,.113-7.758,.062-15.518,.096-23.277,.011-2.445,.729-3.453,2.323-3.434,1.578,.019,2.707,1.155,2.744,3.291,.117,6.845,.237,13.695,.063,20.536-.068,2.689,.741,4.558,2.827,6.131,2.64,1.991,5.13,4.179,7.775,6.162,.955,.716,1.911,1.713,3.346,1.423-.06,2.841,.656,5.739-.635,8.488Z"/>
  <path class="cls-2" d="M49.039,408.392c-3.759,0-7.518-.047-11.276,.022-1.621,.03-2.489-.28-2.486-2.221,.012-7.431-.725-6.023,5.762-6.093,6.378-.068,12.756-.02,19.135-.005,2.703,.006,2.703,.027,2.755,2.531q.122,5.797-5.69,5.803c-2.734,.002-5.467,0-8.201,0v-.038Z"/>
  <path class="cls-2" d="M109.282,408.377c-3.876,.003-7.752-.037-11.627,.024-1.408,.022-2.144-.344-2.014-1.912,.113-1.36,.136-2.74,.042-4.1-.129-1.865,.784-2.318,2.462-2.314,7.523,.017,15.047-.012,22.569-.106,1.812-.023,2.602,.42,2.626,2.464,.068,5.932,.166,5.933-5.851,5.941-2.736,.004-5.472,0-8.207,.003Z"/>
  <path class="cls-2" d="M170.142,408.388c-3.876,0-7.752-.046-11.627,.023-1.482,.027-2.012-.504-1.975-1.986,.199-7.945-1.056-6.302,6.133-6.426,6.267-.108,12.539,.081,18.807,.013,1.898-.02,2.615,.545,2.57,2.516-.161,7.177,.836,5.637-5.702,5.793-2.734,.065-5.471,.011-8.207,.011v.056Z"/>
  <path class="cls-2" d="M230.51,399.974c3.659,0,7.32,.071,10.976-.031,1.787-.05,2.356,.583,2.403,2.367,.158,6.044,.223,6.064-5.975,6.078-6.403,.015-12.807-.064-19.209,.002-1.735,.018-2.414-.448-2.364-2.306,.191-7.153-.919-5.9,5.938-6.046,2.743-.058,5.488-.01,8.232-.01,0-.019,0-.037,0-.056Z"/>
  <path class="cls-2" d="M229.885,275.555c4.098,0,8.196,.023,12.293-.014,1.309-.012,1.721,.534,1.827,1.824,.494,6.047,.534,6.025-5.431,6.002-6.494-.026-12.988,.007-19.482-.026-2.553-.013-2.609-.063-2.589-2.688,.046-6.075-.737-5.312,5.179-5.358,2.734-.021,5.469-.004,8.203-.004,0,.088,0,.176,0,.264Z"/>
  <path class="cls-2" d="M109.509,283.335c-3.88,0-7.761-.041-11.64,.022-1.389,.022-2.135-.291-2.062-1.879,.283-6.155-1.224-5.94,5.772-6.132,6.387-.176,12.781-.113,19.172-.104,2.609,.004,2.609,.065,2.651,2.674q.088,5.46-5.333,5.459c-2.853,0-5.706,0-8.559,0,0-.013,0-.027,0-.04Z"/>
  <path class="cls-2" d="M170.216,283.405c-3.869,0-7.739-.033-11.608,.017-1.423,.019-2.056-.461-2.039-1.966,.081-7.36-.674-6.246,5.734-6.24,6.368,.007,12.736,.3,19.105,.34,1.765,.011,2.406,.549,2.36,2.341-.17,6.636,.789,5.304-5.358,5.427-2.73,.055-5.462,.009-8.193,.009,0,.024,0,.048,0,.071Z"/>
  <path class="cls-2" d="M49.421,283.42c-3.769,0-7.54-.078-11.306,.034-1.842,.055-2.348-.649-2.296-2.398,.19-6.345-.993-5.491,5.322-5.498,6.396-.007,12.792-.027,19.188-.013,2.596,.006,2.674,.041,2.635,2.669-.092,6.222,.709,5.012-4.977,5.15-2.854,.069-5.711,.012-8.566,.012,0,.015,0,.03,0,.045Z"/>
  <path class="cls-2" d="M139.574,124.881c-1.938,.089-3.878,.15-5.813,.276-1.13,.073-1.744-.303-1.688-1.516,.031-.684,.053-1.373,.003-2.055-.138-1.895,.665-2.642,2.6-2.566,3.079,.121,6.169,.117,9.249,.012,1.754-.06,2.56,.583,2.517,2.33-.019,.798,.006,1.599,.045,2.397,.051,1.028-.404,1.407-1.432,1.374-1.824-.06-3.652-.017-5.478-.017-.001-.079-.002-.157-.003-.236Z"/>
  <path class="cls-2" d="M220.632,219.455c4.72,0,9.44,.004,14.16-.003,.995-.002,1.452,.504,1.455,1.459,.007,2.242,.002,4.484,.002,7.213-5.647-2.788-10.677-5.271-15.707-7.755,.03-.305,.06-.61,.09-.914Z"/>
  <path class="cls-2" d="M42.812,227.942c0-2.674-.007-4.599,.003-6.525,.005-.92,.378-1.539,1.403-1.539,4.537-.002,9.075,0,13.837,.544-4.861,2.398-9.721,4.796-15.243,7.52Z"/>
  <path class="cls-3" d="M325.08,211.974c0,2.051-.062,4.104,.021,6.151,.062,1.528-.335,2.329-2.071,2.296-4.556-.086-9.114-.071-13.671-.039-1.517,.011-1.933-.701-1.917-2.104,.05-4.443,.061-8.887-.018-13.329-.03-1.687,.698-2.146,2.253-2.124,4.329,.062,8.66,.079,12.987-.009,1.736-.035,2.501,.496,2.413,2.322-.11,2.273-.026,4.556-.026,6.835,.01,0,.02,0,.03,0Z"/>
  <path class="cls-3" d="M316.306,396.126c-2.39,0-4.781-.013-7.171,.006-1.127,.009-1.66-.478-1.659-1.633,.004-4.78-.013-9.561-.042-14.341-.007-1.219,.683-1.546,1.742-1.545,4.667,.005,9.334,.01,14-.015,1.51-.008,1.928,.792,1.915,2.159-.042,4.439-.081,8.879-.004,13.317,.03,1.74-.783,2.127-2.295,2.077-2.16-.071-4.325-.018-6.487-.018v-.006Z"/>
  <path class="cls-3" d="M315.96,338.596c-2.171,0-4.343-.047-6.511,.016-1.473,.043-2.031-.577-2.015-2.029,.048-4.455,.059-8.911,.008-13.366-.018-1.533,.697-1.956,2.085-1.944,4.455,.038,8.912,.057,13.366-.011,1.644-.025,2.203,.619,2.181,2.228-.061,4.34-.058,8.683,.032,13.023,.036,1.73-.76,2.156-2.291,2.109-2.283-.069-4.569-.018-6.854-.018v-.008Z"/>
  <path class="cls-3" d="M316.33,280.251c-2.276,0-4.552-.029-6.826,.011-1.358,.024-2.133-.381-2.111-1.923,.063-4.55,.062-9.102,.057-13.653-.001-1.095,.378-1.725,1.561-1.725,4.778,.002,9.557,0,14.335-.027,1.376-.008,1.715,.752,1.712,1.954-.012,4.437-.033,8.875,.047,13.311,.031,1.71-.76,2.144-2.29,2.089-2.159-.076-4.323-.019-6.485-.019v-.019Z"/>
  <path class="cls-3" d="M289.633,211.675c0,2.281-.031,4.562,.012,6.842,.024,1.264-.418,1.891-1.772,1.878-4.561-.046-9.123-.047-13.685-.035-1.275,.003-1.852-.506-1.844-1.831,.028-4.562,.02-9.124-.032-13.685-.016-1.436,.517-2.049,1.998-2.033,4.447,.048,8.896,.043,13.342-.014,1.49-.019,2.016,.603,1.978,2.037-.062,2.279-.016,4.561-.016,6.842,.006,0,.012,0,.018,0Z"/>
  <path class="cls-3" d="M360.321,211.678c-.002,2.166-.057,4.333,.017,6.496,.052,1.518-.336,2.308-2.077,2.275-4.443-.084-8.89-.049-13.334,.003-1.475,.017-1.994-.59-1.981-2.036,.041-4.444,.027-8.89-.044-13.334-.025-1.554,.453-2.302,2.134-2.276,4.444,.07,8.89,.076,13.335,.012,1.512-.022,2.005,.599,1.968,2.021-.059,2.278-.016,4.559-.017,6.838Z"/>
  <path class="cls-3" d="M289.599,387.654c0,2.162-.047,4.326,.016,6.487,.043,1.467-.564,2.011-2.018,1.992-4.438-.058-8.878-.065-13.316-.018-1.482,.016-1.997-.592-1.981-2.029,.05-4.552,.044-9.105,.013-13.657-.009-1.298,.522-1.855,1.82-1.847,4.552,.028,9.105,.033,13.657,.008,1.341-.007,1.789,.637,1.767,1.894-.041,2.389-.012,4.78-.012,7.17h.053Z"/>
  <path class="cls-3" d="M360.258,387.453c0,2.283-.035,4.567,.014,6.849,.028,1.293-.469,1.846-1.799,1.833-4.566-.043-9.133-.038-13.699-.011-1.338,.008-1.781-.608-1.774-1.885,.026-4.452,.014-8.905-.043-13.356-.018-1.425,.502-2.082,1.98-2.089,4.451-.021,8.902-.085,13.351-.19,1.456-.034,2.051,.513,1.999,2-.081,2.28-.021,4.566-.021,6.849-.002,0-.005,0-.007,0Z"/>
  <path class="cls-3" d="M360.313,271.822c0,2.167-.053,4.335,.018,6.5,.05,1.512-.623,1.97-2.052,1.952-4.447-.055-8.895-.046-13.342-.008-1.435,.012-2.067-.547-2.051-2.013,.047-4.447,.06-8.895,.021-13.342-.013-1.521,.718-1.958,2.1-1.95,4.447,.026,8.896,.031,13.342-.037,1.522-.023,1.989,.639,1.949,2.056-.064,2.279-.017,4.561-.017,6.842h.032Z"/>
  <path class="cls-3" d="M280.823,338.644c-2.168,0-4.336-.041-6.503,.014-1.46,.037-2.038-.574-2.018-2.032,.059-4.449,.06-8.899,.047-13.348-.003-1.234,.405-1.926,1.758-1.917,4.563,.031,9.127,.042,13.69,.019,1.331-.007,1.798,.62,1.796,1.878-.007,4.449,.002,8.899,.062,13.347,.019,1.429-.496,2.088-1.988,2.045-2.28-.065-4.563-.017-6.845-.017v.01Z"/>
  <path class="cls-3" d="M289.584,271.848c0,2.051-.061,4.104,.02,6.152,.061,1.55-.399,2.291-2.109,2.255-4.328-.091-8.659-.083-12.988-.028-1.573,.02-2.254-.496-2.23-2.156,.064-4.328,.041-8.659-.031-12.988-.026-1.583,.526-2.248,2.166-2.222,4.328,.066,8.659,.06,12.988-.004,1.579-.024,2.296,.488,2.227,2.157-.094,2.275-.023,4.556-.023,6.835h-.02Z"/>
  <path class="cls-3" d="M351.512,338.612c-2.169,0-4.339-.042-6.506,.015-1.423,.038-2.085-.475-2.067-1.977,.055-4.451,.06-8.903,.022-13.355-.013-1.507,.688-1.977,2.09-1.966,4.451,.036,8.903,.029,13.355-.008,1.306-.011,1.828,.525,1.819,1.826-.03,4.566-.025,9.132,.016,13.697,.012,1.355-.622,1.782-1.881,1.756-2.282-.046-4.566-.013-6.849-.013v.024Z"/>
  <path class="cls-4" d="M515.552,334.596c.976,14.214-12.598,25.756-25.022,25.774-11.96,.017-25.745-9.837-25.923-25.776-.137-12.264,11.826-25.44,25.617-25.421,14.088,.019,26.708,13.286,25.328,25.423Zm-25.343,8.619c4.514-.021,8.327-3.788,8.36-8.26,.036-4.78-3.65-8.406-8.492-8.352-4.667,.052-8.19,3.657-8.127,8.319,.063,4.678,3.685,8.315,8.258,8.293Z"/>
  <path class="cls-3" d="M172.523,78.296c-5.241,0-10.482,.012-15.723-.005-2.766-.009-2.776-.031-2.81-2.874-.019-1.595-.001-3.19,.011-4.785,.009-1.106,.548-1.674,1.685-1.638,.569,.018,1.139-.01,1.709-.011,9.912-.003,19.825-.013,29.737-.004,3.595,.003,3.689,.026,3.59,3.449-.054,1.869,.963,4.222-.574,5.496-1.308,1.084-3.515,.305-5.321,.33-4.101,.057-8.203,.018-12.305,.018v.024Z"/>
  <path class="cls-3" d="M204.008,318.005c0,5.944-.06,11.888,.033,17.83,.031,1.986-.389,3.653-2.085,4.747-5.053,3.26-6.133,7.844-6.113,13.706,.02,6.02,.764,10.97,6.194,14.368,1.561,.977,1.994,2.588,1.947,4.466-.11,4.455-.034,8.915-.043,13.372-.001,.569,.011,1.155-.115,1.703-.254,1.103-.937,1.834-2.127,1.877-1.149,.042-2.057-.537-2.415-1.574-.288-.835-.278-1.795-.285-2.7-.028-3.543-.104-7.09,.028-10.628,.07-1.89-.521-3.305-1.916-4.509-1.469-1.268-2.848-2.641-4.323-3.902-1.295-1.107-1.935-2.361-1.906-4.149,.085-5.142,.045-10.287-.057-15.429-.037-1.854,.414-3.369,1.889-4.53,.178-.14,.3-.358,.487-.481,5.18-3.399,6.192-8.274,5.911-14.181-.428-9.009-.098-18.054-.086-27.084,.001-.914-.016-1.831,.053-2.741,.102-1.331,.903-2.116,2.194-2.211,1.485-.11,2.372,.745,2.598,2.166,.143,.895,.098,1.823,.099,2.736,.007,5.715,.004,11.43,.004,17.145h.032Z"/>
  <path class="cls-3" d="M136.596,376.105c0-3.313-.049-6.627,.023-9.939,.03-1.387-.235-2.424-1.619-3.057-.707-.323-1.316-.904-1.903-1.441-4.48-4.096-4.584-10.108-.264-14.172,4.028-3.789,10.124-3.47,13.724,.718,3.678,4.278,3.056,11.044-1.853,14.109-2.615,1.633-3.095,3.388-3.018,6.083,.162,5.708,.061,11.423,.066,17.135,0,.571,.053,1.15-.023,1.711-.211,1.552-1.114,2.642-2.683,2.566-1.527-.073-2.464-1.127-2.473-2.747-.022-3.656-.007-7.311-.007-10.967h.03Zm2.821-17.113c2.399-.091,4.524-2.43,4.361-4.799-.17-2.479-2.317-4.251-4.955-4.091-2.443,.148-4.3,2.13-4.191,4.472,.111,2.393,2.402,4.508,4.785,4.418Z"/>
  <path class="cls-3" d="M75.106,373.265c0-4.34,.054-8.681-.026-13.02-.034-1.857,.512-3.277,1.959-4.486,1.573-1.316,2.923-2.898,4.496-4.216,1.808-1.514,2.547-3.279,2.426-5.672-.189-3.76-.181-7.539-.038-11.302,.078-2.035-.559-3.533-2.131-4.724-.363-.275-.691-.597-1.035-.898q-4.638-4.068-4.51-10.092c.017-.799-.032-1.61,.084-2.395,.27-1.815-.47-2.828-2.045-3.827-4.533-2.875-6.122-7.3-4.554-11.753,1.439-4.088,5.096-6.595,9.5-6.513,4.002,.074,7.532,2.885,8.769,6.982,1.233,4.084-.066,8.67-3.848,10.783-2.51,1.403-2.914,3.109-2.706,5.489,.04,.453,.071,.924-.005,1.368-.501,2.924,.602,5.104,3.026,6.701,3.571,2.353,4.924,5.623,4.639,9.906-.279,4.207-.122,8.449-.033,12.673,.039,1.849-.493,3.312-1.838,4.575-1.664,1.562-3.161,3.311-4.888,4.796-1.608,1.382-2.247,2.935-2.213,5.069,.12,7.422,.072,14.847,.084,22.271,.002,.914,.007,1.828-.03,2.74-.063,1.538-1.062,2.224-2.426,2.399-1.375,.176-2.495-.878-2.716-2.468-.078-.56-.018-1.14-.018-1.711,0-4.226,0-8.452,0-12.677h.076Zm8.432-69.232c-.022-2.405-2.218-4.489-4.685-4.445-2.632,.047-4.837,2.3-4.711,4.814,.121,2.419,2.362,4.605,4.669,4.552,2.491-.056,4.751-2.408,4.728-4.921Z"/>
  <path class="cls-2" d="M336.243,300.963c-2.382-.044-4.495-2.191-4.551-4.623-.055-2.396,2.073-4.507,4.56-4.523,2.764-.018,4.749,2.006,4.643,4.735-.099,2.561-2.1,4.458-4.653,4.412Z"/>
  <path class="cls-2" d="M336.111,359.648c.053,2.505-2.195,4.736-4.78,4.746-2.247,.008-4.477-2.268-4.552-4.646-.074-2.337,2.055-4.584,4.459-4.708,2.551-.131,4.818,2.012,4.873,4.608Z"/>
  <path class="cls-2" d="M336.718,234.921c2.537,.041,4.431,2.106,4.323,4.713-.105,2.544-2.201,4.526-4.682,4.428-2.574-.102-4.441-2.133-4.349-4.731,.089-2.51,2.162-4.452,4.708-4.41Z"/>
  <path class="cls-1" d="M490.208,343.215c-4.574,.021-8.196-3.616-8.258-8.293-.062-4.662,3.46-8.267,8.127-8.319,4.841-.053,8.528,3.573,8.492,8.352-.034,4.472-3.846,8.239-8.36,8.26Z"/>
  <path class="cls-2" d="M139.418,358.991c-2.382,.09-4.673-2.025-4.785-4.418-.109-2.342,1.748-4.324,4.191-4.472,2.637-.16,4.784,1.613,4.955,4.091,.163,2.369-1.963,4.708-4.361,4.799Z"/>
  <path class="cls-2" d="M83.539,304.034c.023,2.513-2.237,4.865-4.728,4.921-2.306,.052-4.547-2.133-4.669-4.552-.126-2.514,2.079-4.767,4.711-4.814,2.467-.044,4.663,2.04,4.685,4.445Z"/>
</svg>