<?xml version="1.0" encoding="UTF-8"?>
<svg id="_Слой_1" data-name="Слой 1" xmlns="http://www.w3.org/2000/svg" viewBox="0 0 596 557.98">
  <defs>
    <style>
      .cls-1 {
        fill: #113c72;
      }

      .cls-2 {
        fill: #61a4f5;
      }

      .cls-3 {
        fill: #fefefe;
      }
    </style>
  </defs>
  <path class="cls-1" d="M164.18,298.25c.03-25.82,.29-51.65-.07-77.47-.09-6.73,1.4-11.64,7.77-14.27,7.62-3.15,10.11-8.66,8.91-16.68-.67-4.47,.03-9.13-.19-13.7-.17-3.53,.9-6.03,3.95-8.05,31.42-20.75,62.4-42.16,94.07-62.54,3.25-2.09,6.03-2.3,9.48-.74,38.2,17.32,76.42,34.59,114.7,51.72,4.42,1.98,5.88,4.7,5.84,9.49-.22,27.66-.12,55.32-.12,82.98,0,2.5,0,4.99,0,7.37,2.44,1.22,4.3,.08,6.19-.49,8.74-2.62,17.52-5.1,26.17-7.99,4.22-1.41,7.77-1.15,11.74,.97,28.95,15.48,57.95,30.88,87.08,46.02,5.33,2.77,8.55,6.02,7.29,12.17-2.23,10.87,1.79,17.72,12.55,20.8,4.67,1.34,5.63,4.88,5.62,9.59-.15,67.21-.11,134.42-.09,201.63,0,2.91-.31,5.87,.69,9.52,7.13,0,14.14-.01,21.15,0,1.83,0,3.67-.05,5.47,.18,2.46,.31,3.43,2.25,3.62,4.36,.18,1.96-1,3.43-2.85,4.24-1.97,.87-4.05,.56-6.09,.56-123.9,0-247.8,0-371.7-.01-68.81,0-137.62,0-206.42,.01-6.03,0-8.61-1.21-8.89-4.26-.31-3.32,2.59-4.9,8.8-5,6.12-.1,12.27,.44,18.18-.4,1.57-2.4,.92-4.74,.92-6.96,.05-64.69,.06-129.39,.08-194.08q0-9.15,8.38-12.31c30.72-11.57,61.62-22.7,92.08-34.93,11.28-4.53,21.81-5.6,33.02-1.34,1.01,.65,1.99,1.13,2.7-.38Zm114.64-31.96v-117.64c-2.2-.22-3.09,1.46-4.5,2.03-6.08,2.48-7.73,6.75-7.59,13.36,.52,25.14,.22,50.29,.43,75.43,.03,3.98-1.04,6.85-4.04,9.54-6.12,5.5-11.87,11.39-17.84,17.06-2.26,2.15-3.35,4.45-3.34,7.77,.19,40.69,.24,81.38,.2,122.07,0,3.03,.9,5.17,3.11,7.12,3.94,3.48,7.61,7.26,11.59,10.7,2.63,2.27,3.76,4.79,3.64,8.33-.25,7.3-.08,14.61-.08,21.84,1.64,1.24,3.2,2.23,4.52,3.47,5.79,5.45,6.15,14.24,.04,19.36-3.33,2.79-3.83,5.61-3.8,9.41,.17,22.17,.15,44.35,.25,66.52,0,1.74-.65,3.65,1.18,5.62,5.23-.27,10.84,.59,16.23-.58v-153.65c-7,0-13.59,.06-20.18-.02-5.21-.06-5.95-.66-6.18-5.87-.26-5.7-.23-11.43-.17-17.14,.06-6.11,.16-6.21,6.09-6.28,10.74-.12,21.49-.08,32.23-.24,2.64-.04,5.43,.67,8.1-.88,.14-3.42,.49-6.77-.52-10.73h-44.97c-1.66-8.38-1.3-9.47,3.61-9.46,15.54,.04,31.08,.32,46.63,.41,3.44,.02,4.95,1.32,4.88,4.88-.13,6.17,.11,12.34,.07,18.52-.04,6.24-.29,6.51-6.7,6.55-11.43,.07-22.86,0-34.29,.06-1.74,0-3.7-.66-5.29,1.29,.04,2.9-.83,6.04,.48,9.24,5.65,0,11.12,.02,16.59,0,8.95-.04,9.85,.83,9.85,9.67,.03,48.92,.05,97.84,.14,146.76,0,2.38-.89,5,.76,7h27.81c0-14.2-.05-27.9,.05-41.59,.02-2.35-.98-3.84-2.58-5.26-4.11-3.63-8.04-7.48-12.31-10.91-2.57-2.07-3.57-4.33-3.55-7.59,.11-26.52,.12-53.03,.05-79.55,0-3,.9-5.19,3.15-7.14,4.31-3.74,8.35-7.81,12.71-11.5,2.82-2.39,4.11-4.96,3.96-8.8-.34-8.9-.2-17.83-.17-26.74,0-1.74-.62-3.7,1.44-5.42,2.26,.54,5.03-.78,8.03,1.32,0,5.97,.03,12.12,0,18.26-.04,7.08,1.56,14.76-.69,21.06-2.36,6.6-9.7,10.62-15.02,15.59-2.91,2.72-4.08,5.59-4.05,9.57,.16,21.03,.39,42.07-.09,63.09-.16,7.01,1.15,12.5,7.19,16.34,9.71,6.18,12.6,14.94,11.63,26.24-.93,10.84-.2,21.83-.2,33.31,4.38-.02,8.16,.48,11.82-.28,.29-.69,.61-1.09,.61-1.49,.04-11.66,.08-23.31,.05-34.97-.02-7.31,1.67-15.28-.72-21.73-2.5-6.75-10.12-10.85-15.7-15.88-2.94-2.65-4.26-5.38-4.14-9.43,.33-11.42,1.16-22.95,.04-34.26-1.23-12.44,2.43-21.66,12.75-28.45,7.55-4.96,10.66-11.74,9.3-20.9-.73-4.92-.18-10.04-.18-15.07,.02-36.35-.03-72.7,.19-109.04,.03-4.29-1.1-7.34-4.29-10.1-4.31-3.74-8.25-7.9-12.5-11.73-2.18-1.96-3.34-4.06-3.33-7.1,.03-17.14-.1-34.28-.13-51.43,0-.6,.41-1.19,.77-2.14,3.04,.47,5.62,1.77,8.63,3.39,0,9.23-.01,18.59,0,27.94,.01,7.08-1.65,14.77,.58,21.08,2.33,6.59,9.8,10.49,14.98,15.61,3.12,3.09,4.71,6.17,4.69,10.73-.15,46.41-.11,92.81,0,139.22,0,3.54-1.08,6-3.67,8.31-4.94,4.41-9.56,9.18-14.47,13.64-2.5,2.28-3.85,4.64-3.78,8.25,.25,13.03,.21,26.06,.08,39.09-.03,2.97,.72,5.18,2.99,7.16,4.13,3.61,7.89,7.65,12.1,11.14,3.8,3.16,5.46,6.68,5.36,11.78-.3,16-.12,32-.04,48,.01,2.68-.59,5.45,.64,8.29h9.88c1.37-2.36,.82-4.7,.83-6.92,.08-16.69-.5-33.4,.3-50.05,.47-9.75-1.53-17.35-10.07-22.63-4.99-3.08-6.82-7.57-5.93-13.36,.51-3.3-.47-5.72-3.4-8.14-6.27-5.17-6.34-13.97-.91-19.38,5.04-5.03,13.36-4.97,18.51,.13,5.72,5.66,5.5,13.66-.53,19.4-5.11,4.87-5.14,9.98-.03,14.87,1.98,1.9,3.88,3.92,6.08,5.53,4.45,3.25,5.96,7.33,5.88,12.9-.32,20.8-.16,41.6-.11,62.41,0,1.74-.63,3.64,.85,5.54h27.32V193.69c-36.23-15.74-72.56-31.52-109.61-47.61,0,2.98,0,5.02,0,7.05,.05,30.4,.13,60.81,.16,91.21,.02,27.2-.02,54.41,0,81.61,0,3.24-.24,6.06-4.47,6.13-3.71,.06-5.47-1.65-5.53-6.08-.1-7.77,.07-15.54,.02-23.32-.01-1.99,.6-4.09-.96-6.55-6.04,0-12.4-.17-18.75,.06-4.16,.15-5.83-1.61-5.82-5.62,.03-6.4,.02-12.81-.2-19.2-.14-3.88,1.43-5.27,5.27-5.15,6.58,.21,13.18,.06,20.12,.06Zm173.6,20.71v260.72h27.99c.13-2.26,.33-4.05,.33-5.84,.03-11.43-.03-22.86,.03-34.3,.03-6.78,.8-7.63,7.67-6.83,12.93,1.51,25.84,3.24,38.73,5.08,5.55,.79,6.09,1.55,6.14,7.09,.07,7.32-.18,14.63-.05,21.95,.08,4.25-.82,8.6,.68,12.73h21.21c0-2.53,0-4.77,0-7.01,.02-65.62-.04-131.24,.18-196.86,.02-5.51-1.55-8.4-6.62-10.84-30.45-14.62-60.7-29.64-91.05-44.47-1.57-.77-3.08-2.13-5.25-1.4ZM139.92,547.77v-241.52c-34.6,13.02-68.25,25.68-101.75,38.29v203.33h21.86c0-11.85-.05-23.26,.02-34.68,.04-5.83,.91-7.13,6.26-7.86,13.12-1.81,26.27-3.45,39.43-4.93,5.1-.57,6.42,.83,6.53,6.18,.12,5.71,.04,11.43,.04,17.14,0,7.93,0,15.85,0,24.04h27.6Zm111.77,.19c0-25.23-.02-49.68,.03-74.13,0-2.2-.61-3.65-2.39-5.21-8.59-7.53-8.88-14.92-.92-22.64,1.65-1.6,2.24-3.08,2.36-5.27q.97-18.67-13.04-31.56c-.67-.62-1.29-1.32-2.03-1.84-2.45-1.73-3.3-4.01-3.29-7.04,.14-43.67,.21-87.34,.19-131.01,0-3.26,1.02-5.58,3.38-7.75,5.89-5.41,11.48-11.15,17.45-16.48,2.76-2.47,4.06-4.95,4.03-8.79-.19-23.09-.08-46.18-.13-69.28,0-1.42,.65-3.11-.92-4.46-.88,.44-1.73,.76-2.46,1.25-24.89,16.61-49.73,33.3-74.71,49.78-3.66,2.42-5.08,5.01-5.03,9.46,.27,21.95,.18,43.9,.2,65.85q0,12.66,12.55,14.73c.59,.1,1.34,.25,2.15-1.17,0-16.21-.07-33.11,.05-50,.03-4.21-.34-7.46-4.17-10.64-6.06-5.05-5.55-13.32,.01-18.78,5.17-5.08,13.36-4.88,18.4,.43,5.1,5.39,5.15,14.17-.75,18.87-3.24,2.58-3.73,5.24-3.73,8.78,.01,16.92-.09,33.84-.12,50.76,0,1.55-.47,3.21,.94,5.02,3.15,.47,6.38,2.39,10.75,1.69,0-2.34,0-4.59,0-6.84,.05-14.4,.22-28.81,.06-43.21-.04-3.99,1.1-6.92,4.06-9.56,4.43-3.95,8.58-8.23,12.84-12.37,2.76-2.68,5.78-4.97,5.24-9.71-.57-5.01,.61-9.83-4.75-13.81-5.85-4.34-5.22-13.96-.04-18.94,5.12-4.93,13.52-4.68,18.5,.56,5.12,5.38,5.29,14.47-.58,18.93-3.37,2.56-3.86,5.18-3.74,8.69,.08,2.28-.19,4.59,.04,6.85,.48,4.53-1.34,7.84-4.59,10.84-4.86,4.5-9.41,9.34-14.2,13.93-2.08,1.99-3.25,4.02-3.21,7.11,.18,15.55,.09,31.09,.13,46.64,0,1.35-.26,3.33,.49,3.95,3.69,3.04,2.58,7.07,2.59,10.79,.13,72.71,.18,145.41,.31,218.12,0,2.42-.74,4.99,.81,7.46h27.24Zm-38.55-.46v-61.95c-20.95-1.95-41.52-3.57-62.02-4.65v66.6h62.02ZM398.83,182.72c0-5.27-.17-9.6,.06-13.9,.15-2.85-1.33-4.02-3.59-5.04-33.67-15.17-67.32-30.4-101.02-45.5-1.43-.64-3.02-2.26-5.17-.68,0,3.31,.37,6.77-.08,10.12-.73,5.46,1.55,8.11,6.53,10.2,19.75,8.29,39.32,17.03,58.97,25.58,14.39,6.26,28.8,12.5,44.3,19.23Zm42.1,364.73v-61.99c-10.72,.61-20.85,1.19-31,1.77v60.22h31ZM191.07,193.33c9.26-6.12,17.97-11.91,26.71-17.65,18.86-12.38,37.76-24.71,56.6-37.14,1.97-1.3,4.63-2.12,4.53-5.41-.15-4.93-.04-9.87-.04-16.07-4.73,3.02-8.53,5.35-12.23,7.83-21.4,14.35-42.76,28.75-64.16,43.1q-12.69,8.51-11.94,23.98c0,.2,.14,.38,.52,1.35Zm22.4,148.18c0-6.29-.16-11.53,.06-16.76,.14-3.46-1.31-4.85-4.6-5.4-3.8-.64-7.5-1.9-11.27-2.76-15.48-3.54-30.97-7.03-46.74-10.61v21.57c20.86,4.65,41.27,9.21,62.56,13.96Zm323.01-25.89c2.32-7.8,.1-11.97-6.73-15.36-21.25-10.55-42.08-21.94-63.15-32.85-4.52-2.34-8.76-5.47-14.03-6.49-.97,3.53-.19,6.76-.58,9.9-.41,3.37,1.39,4.79,4.13,6.1,13.8,6.58,27.5,13.35,41.27,20,12.9,6.22,25.84,12.37,39.08,18.7Zm-385.78,33.03c20.99,4.18,41.54,8.27,62.5,12.45v-9.7c-20.75-4.65-41.4-9.27-62.5-14v11.24Zm62.62,22.27c-21.01-4.19-41.59-8.3-62.05-12.39-1.22,2.55-.55,4.63-.79,6.64-.42,3.47,1.19,4.8,4.57,5.21,17.82,2.17,35.37,5.9,52.99,9.25,1.68,.32,3.55,1.12,5.28-.66v-8.06Zm-62.78,59.31c21.31,2.48,41.77,4.86,62.53,7.28,.7-3.3,.89-6.12-.23-9.29-20.64-2.83-41.2-5.64-62.3-8.53v10.55Zm.45,9.82c-.89,10.94-.88,10.79,8.79,11.43,7.24,.48,14.45,1.44,21.69,2.11,10.52,.99,21.05,1.91,31.91,2.89v-9.21c-20.75-2.4-41.35-4.79-62.38-7.23Zm62.29-50.17c-20.84-3.48-41.32-6.89-61.95-10.34-1.06,3.72-.72,6.58-.49,10,20.74,3.3,41.25,6.56,61.68,9.81,1.59-3.12,.99-5.81,.76-9.48Zm-.2,19.4c-20.81-3.6-41.17-6.72-62.37-9.14,.1,3.77-.98,6.81,.75,10.01,20.46,2.73,40.87,5.45,61.43,8.2,.85-3.23,.73-5.88,.19-9.07Zm-.07,56.76c-20.62-1.78-41.25-3.57-62.06-5.37-.43,3.97-.87,6.84,.43,10,20.54,1.29,40.97,3.8,61.72,4.31,.49-3.04,.66-5.25-.09-8.95Zm227.61-207.99c-8.95,2.72-17.84,5.37-26.67,8.17-1.82,.58-4.4,.82-4.38,3.53,.02,4.64-.73,9.35,.62,14.07,6.18-1.23,11.71-3.25,17.35-4.91,14.94-4.41,14.96-4.35,13.91-19.49-.01-.2-.23-.39-.83-1.36Zm.52,27.66c-7.76,2.26-15.14,4.34-22.48,6.57-11.05,3.35-11.06,3.42-9.74,15.08,.05,.41,.41,.79,.98,1.85,10.47-1.51,20.76-4.68,31.24-7.59v-15.92Zm.42,92.3c-.67-5.59,.72-10.5-.93-15.48-9.58,1.75-18.71,3.47-27.87,5.05-1.94,.33-3.88,.68-3.89,2.95-.02,3.95-.98,8.02,.61,12.13,10.65-1.54,20.91-3.03,32.08-4.65Zm-.36-40.93c-7.7,1.71-14.57,3.19-21.43,4.78q-10.77,2.49-10.24,13.75c.03,.64,.31,1.27,.64,2.53,10.48-1.69,20.92-2.93,31.02-5.78v-15.26Zm-30.71,69.3c10.22-1.2,20.29-2.38,30.91-3.62-.32-5.04,.76-9.71-.83-14.56-7.03,.28-13.68,1.98-20.44,2.55-13,1.09-10.67,1.49-10.55,13.44,0,.4,.32,.8,.91,2.2Zm30.84,6.24c-10.87,1.24-20.95,2.39-31.39,3.58-.37,4.98-1,9.59,.44,14.38,10.34-1.39,20.56-1.3,30.75-3.12,.67-4.8,.51-9.27,.2-14.84Zm-.52-99.86c-7.2,.37-13.67,2.75-20.22,4.38-12.77,3.18-11.21-.41-10.97,14.44,0,.6,.52,1.19,.93,2.06,6.61-.63,12.95-2.44,19.34-3.95,12.35-2.92,12.33-2.98,10.93-16.93ZM90.39,512.28c0,9.05,0,17.65,0,26.26q-.01,10.48,10.48,9.71c.39-.03,.76-.43,1.17-.68v-37.17c-3.94,.64-7.28,1.17-11.65,1.88Zm350.86-74.59c-10.57,.15-20.92,1.68-31.54,3.04-.24,4.65-.83,8.83,.59,13.59,10.29-1.73,20.53-.94,30.67-2.92,.67-4.52,.49-8.58,.29-13.71Zm70.24,75.87c0,8.49,.02,16.84,0,25.19q-.03,10.47,10.66,9.5c.37-.03,.71-.52,.83-.61v-33.2c-3.99,.67-7.19-.96-11.48-.88Zm-70.39-52.21c-5.72,1.07-10.72,1.06-15.71,1.12-5.2,.07-10.28,.92-15.76,1.64-.09,4.13-.44,7.88,.19,11.51h31.28v-14.27Zm60.3,86.8v-36.11c-3.81-.4-7.08-.75-10.29-1.09v37.2h10.29Zm-431.32-32.95v31.95c3.66,.8,6.9,.89,10.75-.15,0-5.59,.12-10.99-.03-16.39-.16-5.35,.74-10.79-.86-16.39-3.33,.28-6.47-.12-9.85,.97Zm209.01-238.53h-15.4c-.58,3.42-.57,6.47-.05,9.86,5.22,.42,10.08,.17,15.15-.22,.81-3.25,.56-6.12,.29-9.64Zm71.44,164.68c2.56-.73,4.44-2.25,4.14-5.23-.31-2.96-2.29-4.33-5.21-4.04-2.68,.27-4.09,2.04-3.95,4.61,.16,2.88,2.02,4.38,5.02,4.66Zm-108.53-237.74c-.77-2.72-2.42-4.64-5.32-4.3-2.5,.29-4.07,2.07-3.9,4.76,.17,2.63,1.7,4.34,4.36,4.27,2.86-.08,4.5-1.86,4.86-4.73Zm-47.44,24.2c-3.12,.1-4.87,1.81-4.97,4.62-.09,2.52,1.55,4.41,4.12,4.59,2.5,.17,4.4-1.25,4.75-3.88,.39-2.95-1.18-4.66-3.89-5.33Zm65.93,229.73c-.16-2.83-1.41-4.76-4.45-4.79-2.98-.03-4.61,1.86-4.66,4.62-.04,2.49,1.61,4.37,4.13,4.47,2.68,.1,4.68-1.29,4.98-4.3Z"/>
  <path class="cls-1" d="M469.07,.71c3.69-.22,5.93-.54,8.6,.25,1.15,13.3,.52,26.7,.71,40.02-8.25,1.59-8.31,1.63-12.45-4.91-3.6-5.7-7.05-11.49-11.16-17.08-1.78,7.41-.51,14.81-1.31,22.25-2.52,1.51-5.22,.78-8.39,.67V1.03c7.18-1.46,7.3-1.44,10.92,4.37,3.95,6.33,7.84,12.7,13.08,18.93V.71Z"/>
  <path class="cls-1" d="M486.91,.68c6,0,11.68-.23,17.34,.07,4.94,.26,9.45,1.74,11.7,6.88,2.23,5.11,.7,9.28-3.18,12.56,.29,2.23,2.18,2.63,3.07,3.9,4.63,6.62,1.41,15.06-6.69,17.13-7.2,1.84-14.49,.61-22.23,.77V.68Zm8.72,33.55c3.1,0,5.83,.22,8.51-.06,2.9-.31,4.4-2.29,4.26-5.19-.13-2.64-1.72-4.21-4.37-4.25-2.86-.04-5.81-.61-8.59,.46-.47,3.02-.5,5.68,.19,9.04Zm-.29-17.77c3.4,1.25,6.29,.74,9.12,.12,2.36-.52,3.15-2.37,2.93-4.63-.21-2.07-1.47-3.34-3.5-3.46-2.64-.15-5.33-.63-7.99,.3-1.07,2.42-.54,4.89-.56,7.67Z"/>
  <path class="cls-1" d="M159.07,.44c5.42,0,10.43-.2,15.41,.05,6.11,.3,12.09,1.33,14.31,8.29,2.13,6.69,.32,12.12-6.44,15.61,2.76,5.9,5.34,11.39,8.04,17.16-3.34,1.23-6.25,.06-8.96,.61-2.69-3.93-4.21-8.01-6.07-11.9q-1.88-3.93-7.64-3.42c-1.23,4.76,.22,9.84-.88,14.8-2.53,.94-4.94,.48-7.77,.11V.44Zm8.9,18.54c4.79-.19,9.09,1.33,12-2.76,1.27-1.79,1.17-4.02-.22-5.72-3.17-3.89-7.37-1.69-11.48-2.22-.13,1.69-.27,2.78-.29,3.86-.04,2.01-.01,4.02-.01,6.83Z"/>
  <path class="cls-1" d="M251.1,41.49V.47c6.34,.02,12.4-.7,18.42,.82,7.43,1.87,11.76,6.69,12.69,14.23,.51,4.08,.53,8.2-.12,12.26-1.07,6.68-4.78,11.41-11.33,13.14-6.4,1.69-12.99,1.47-19.66,.57Zm9.14-7.39c10.43,.29,13.69-3.35,13.26-13.86-.33-7.99-3.18-13.89-13.26-11.43v25.29Z"/>
  <path class="cls-1" d="M364.68,.6h7.82c1.33,5.23-.05,10.53,1,15.89,4.64,1.56,9.34,.58,14.24,.58,2.03-5.39,.18-11.02,1.61-16.19,2.42-.75,4.65-.38,7.42-.19,.86,13.55,.61,26.96,.7,40.36-2.78,1.68-5.45,1-8.6,.76V25.33c-5.14-1.17-9.86-.19-15-.86-1.23,5.77-.31,11.23-.95,16.54-2.38,1.93-4.96,.19-7.98,1.45-1.06-14.23-.14-27.78-.25-41.84Z"/>
  <path class="cls-1" d="M211.73,25.67c-7.84,2.96-5.9,10-6.78,15.77-2.71,.74-5.12,.76-7.85,.22V1.34c2.43-1.59,4.96-.48,7.56-1.13,1.65,5.42,.09,10.72,1.12,15.79,2.16,1.03,2.76-.88,3.66-2.03,1.69-2.14,3.55-4.23,4.83-6.61,3.31-6.21,8.18-8.49,15.53-6.5-4.29,5.51-8.45,10.85-12.67,16.28,4.45,8.07,8.79,15.96,13.22,23.98q-9.1,1.86-13.15-5.44c-1.85-3.34-3.65-6.71-5.45-10.02Z"/>
  <path class="cls-1" d="M552.32,.78c.82,2.31,.98,4.48,.05,7.23h-18.34c-.87,3.14-.5,5.77-.39,8.59,5.17,2.16,10.5,.37,15.69,1.33,.99,1.88,.69,3.86,.29,6.35-4.98,1.2-10.25-.06-15.68,.91-.93,2.79-.53,5.66-.26,8.85,6.19,1.64,12.58,.17,18.82,.95,1.36,2.28,1.07,4.43,.35,6.92h-27.65V.78h27.11Z"/>
  <path class="cls-1" d="M401.95,42.22c5.33-14.5,10.32-28.08,15.34-41.75h7.83c4.86,13.38,9.81,26.99,14.83,40.79-3.07,1.42-5.75,.27-8.03,.84-2.17-2.32-1.67-5.27-3.66-7.22-2.74-.82-5.73-.1-8.66-.33-3.84-.29-6.12,.64-7.4,4.93-1.54,5.16-6.09,1.71-10.24,2.74Zm23.85-15.65c-1.49-4.51-2.81-8.48-4.47-13.51-1.65,5.1-2.95,9.12-4.27,13.2,2.78,1.07,5.22,.75,8.74,.31Z"/>
  <path class="cls-1" d="M84.81,41.89V.47c6.89,.08,13.6-.74,20.28,.6,7.52,1.51,11.51,6.69,11.19,14.02-.28,6.6-5.02,11.27-12.38,12.32-3.35,.48-6.82-.56-10.14,.73-1.36,4.27,.12,8.69-1.05,13.22-2.33,.9-4.77,.23-7.9,.53Zm9.37-22.1c4.44-.42,8.75,1.41,11.87-2.38,1.55-1.88,1.42-4.47,.12-6.42-3.05-4.61-7.61-2.25-12-2.76v11.57Z"/>
  <path class="cls-1" d="M131.52,.31h7.5c4.94,13.39,9.94,26.94,15.07,40.84-2.94,1.48-5.58,.72-7.93,.83-2.22-2-1.96-4.88-3.59-6.88-2.87-.97-5.85-.26-8.78-.46-3.66-.25-6.25,.13-7.46,4.75-1.33,5.08-6.03,2.04-9.95,2.73,5.15-14.23,10.08-27.86,15.14-41.82Zm8.31,25.77c-2-4.09-2.07-8.25-4.75-12.67-1.43,4.94-2.58,8.88-3.75,12.93,2.91,.65,5.33,.84,8.5-.26Z"/>
  <path class="cls-1" d="M289.15,.46h7.4c1.51,4.31,.58,8.86,.75,13.31,.17,4.32-.06,8.66,.09,12.99,.19,5.46,3.12,8.45,7.82,8.29,4.63-.16,7.02-2.72,7.09-8.1,.12-8.61,.03-17.23,.03-25.83,3.19-.92,5.58-.87,8.37-.19,0,9.8,.43,19.58-.14,29.31-.44,7.41-7.29,12.33-15.56,12.39-8.43,.06-15.17-4.99-15.7-13.06-.63-9.47-.15-19.02-.15-29.09Z"/>
  <path class="cls-1" d="M326.71,37.25c1.1-2.72,2.34-4.29,4.32-5.8,3.5,2.31,7.39,4.28,11.81,3.9,2.87-.25,6.34-.5,6.63-4.44,.25-3.5-2.58-4.38-5.36-5.1-2.86-.74-5.77-1.41-8.53-2.47-5.53-2.12-8.43-6.28-8.26-11.32,.17-4.98,3.36-8.77,8.99-10.77,6.96-2.48,13.4-1.1,19.73,2.39-.25,2.6-2.19,3.96-3.53,6.05-3.48-.93-6.77-2.85-10.46-2.21-2.53,.44-5.33,1.3-5.67,4.15-.36,2.98,2.29,4.15,4.76,4.95,3.03,.98,6.18,1.66,9.13,2.82,5.38,2.11,7.6,5.51,7.57,10.96-.03,5.21-2.49,8.96-7.84,10.78-8.23,2.81-16.03,2.24-23.3-3.91Z"/>
  <path class="cls-1" d="M58.53,7.89c-4.23-.25-7.8-.45-11.28-.65-1.06-2.24-1-4.16,.11-6.43h31.14c1.11,1.95,.81,3.91,.28,5.94-3.66,1.51-7.71-.45-11.8,1.5V41.37c-2.93,.93-5.35,.29-8.45,.48V7.89Z"/>
  <path class="cls-1" d="M40.32,41.45c-2.57,.44-4.8,.46-7.48-.11V.83c2.42-.78,4.67-.44,7.48-.37V41.45Z"/>
  <path class="cls-3" d="M278.82,266.29c-6.94,0-13.53,.15-20.12-.06-3.83-.12-5.4,1.27-5.27,5.15,.23,6.39,.23,12.8,.2,19.2-.02,4.01,1.65,5.77,5.82,5.62,6.35-.23,12.71-.06,18.75-.06,1.56,2.45,.94,4.56,.96,6.55,.05,7.77-.12,15.55-.02,23.32,.06,4.43,1.82,6.14,5.53,6.08,4.24-.07,4.48-2.89,4.47-6.13-.03-27.2,.02-54.41,0-81.61-.03-30.4-.1-60.81-.16-91.21,0-2.03,0-4.06,0-7.05,37.05,16.09,73.38,31.87,109.61,47.61v354.31h-27.32c-1.48-1.9-.85-3.8-.85-5.54-.04-20.8-.2-41.61,.11-62.41,.09-5.57-1.43-9.66-5.88-12.9-2.2-1.61-4.1-3.63-6.08-5.53-5.11-4.89-5.08-9.99,.03-14.87,6.03-5.75,6.25-13.74,.53-19.4-5.15-5.1-13.47-5.15-18.51-.13-5.43,5.41-5.35,14.21,.91,19.38,2.94,2.43,3.92,4.84,3.4,8.14-.9,5.79,.94,10.28,5.93,13.36,8.54,5.27,10.54,12.87,10.07,22.63-.81,16.65-.22,33.37-.3,50.05-.01,2.22,.54,4.56-.83,6.92h-9.88c-1.23-2.84-.62-5.6-.64-8.29-.08-16-.26-32.01,.04-48,.1-5.1-1.56-8.63-5.36-11.78-4.21-3.5-7.98-7.53-12.1-11.14-2.26-1.98-3.02-4.19-2.99-7.16,.12-13.03,.16-26.06-.08-39.09-.07-3.61,1.28-5.97,3.78-8.25,4.9-4.46,9.52-9.23,14.47-13.64,2.59-2.31,3.68-4.77,3.67-8.31-.12-46.41-.16-92.81,0-139.22,.01-4.56-1.57-7.64-4.69-10.73-5.17-5.12-12.64-9.02-14.98-15.61-2.23-6.3-.57-14-.58-21.08-.02-9.35,0-18.71,0-27.94-3.02-1.61-5.59-2.92-8.63-3.39-.35,.95-.77,1.54-.77,2.14,.04,17.14,.16,34.29,.13,51.43,0,3.03,1.15,5.14,3.33,7.1,4.25,3.82,8.18,7.99,12.5,11.73,3.19,2.76,4.31,5.81,4.29,10.1-.21,36.35-.16,72.69-.19,109.04,0,5.03-.55,10.14,.18,15.07,1.36,9.16-1.75,15.94-9.3,20.9-10.32,6.78-13.99,16.01-12.75,28.45,1.12,11.31,.29,22.84-.04,34.26-.12,4.04,1.2,6.78,4.14,9.43,5.58,5.03,13.2,9.13,15.7,15.88,2.39,6.45,.7,14.43,.72,21.73,.03,11.66-.01,23.31-.05,34.97,0,.4-.32,.8-.61,1.49-3.67,.77-7.44,.26-11.82,.28,0-11.48-.73-22.47,.2-33.31,.97-11.3-1.92-20.06-11.63-26.24-6.04-3.84-7.35-9.33-7.19-16.34,.48-21.02,.25-42.06,.09-63.09-.03-3.98,1.14-6.84,4.05-9.57,5.32-4.97,12.66-8.99,15.02-15.59,2.25-6.3,.65-13.98,.69-21.06,.04-6.14,0-12.28,0-18.26-2.99-2.1-5.77-.78-8.03-1.32-2.05,1.72-1.43,3.68-1.44,5.42-.03,8.92-.17,17.84,.17,26.74,.15,3.85-1.14,6.42-3.96,8.8-4.36,3.69-8.4,7.75-12.71,11.5-2.25,1.95-3.16,4.14-3.15,7.14,.07,26.52,.06,53.04-.05,79.55-.01,3.26,.98,5.52,3.55,7.59,4.27,3.43,8.2,7.28,12.31,10.91,1.6,1.42,2.6,2.91,2.58,5.26-.1,13.7-.05,27.39-.05,41.59h-27.81c-1.65-2-.75-4.62-.76-7-.09-48.92-.11-97.84-.14-146.76,0-8.84-.91-9.71-9.85-9.67-5.47,.03-10.95,0-16.59,0-1.31-3.2-.43-6.34-.48-9.24,1.59-1.95,3.55-1.28,5.29-1.29,11.43-.06,22.86,0,34.29-.06,6.4-.04,6.66-.31,6.7-6.55,.04-6.17-.2-12.35-.07-18.52,.07-3.56-1.44-4.86-4.88-4.88-15.54-.09-31.08-.37-46.63-.41-4.91-.01-5.27,1.08-3.61,9.46h44.97c1.01,3.97,.66,7.31,.52,10.73-2.66,1.55-5.46,.84-8.1,.88-10.74,.16-21.49,.12-32.23,.24-5.92,.07-6.03,.17-6.09,6.28-.06,5.71-.09,11.44,.17,17.14,.23,5.2,.97,5.8,6.18,5.87,6.59,.08,13.18,.02,20.18,.02v153.65c-5.39,1.17-11,.31-16.23,.58-1.84-1.96-1.17-3.88-1.18-5.62-.1-22.17-.09-44.35-.25-66.52-.03-3.8,.47-6.63,3.8-9.41,6.11-5.12,5.75-13.91-.04-19.36-1.32-1.24-2.88-2.22-4.52-3.47,0-7.22-.18-14.54,.08-21.84,.12-3.54-1-6.06-3.64-8.33-3.97-3.43-7.65-7.21-11.59-10.7-2.21-1.95-3.11-4.09-3.11-7.12,.04-40.69,0-81.38-.2-122.07-.02-3.32,1.07-5.62,3.34-7.77,5.97-5.67,11.72-11.57,17.84-17.06,2.99-2.69,4.07-5.56,4.04-9.54-.2-25.14,.09-50.3-.43-75.43-.14-6.61,1.52-10.88,7.59-13.36,1.41-.58,2.3-2.26,4.5-2.03v117.64Zm100.23-67.4V463.67c3.24,.62,6.05,.86,8.92-.17V202.18c-2.98-1.36-5.44-2.97-8.92-3.29Zm-38.13-16.29c0,6.05-.03,11.51,0,16.97,.04,6.16-1.33,12.84,.62,18.33,2.06,5.8,8.4,9.4,13.29,13.44,4.12,3.4,5.28,7.17,5.26,12.38-.2,50.01-.14,100.03-.12,150.04,0,1.74-.58,3.7,1.38,5.2,2.48,.04,5.15,.52,7.78-.21,.2-1.01,.44-1.66,.44-2.31-.01-52.75-.09-105.51,.01-158.26,0-4.32-1.53-7.29-4.57-10.09-4.86-4.47-10.87-8.52-13.75-14.1-3.03-5.88-.69-13.44-1-20.26-.44-9.77,.87-8.2-9.36-11.14Zm-40.59-17.33c-1.17,2.47-.6,5.02-.61,7.49-.04,19.86,.51,39.74-.24,59.57-.36,9.45,1.25,16.91,9.58,22.09,1.14,.71,1.95,1.92,2.99,2.8,2.22,1.87,3.15,4.05,3.1,7.1-.22,11.87-.23,23.74-.07,35.61,.04,3.27-.93,5.4-3.5,7.5-4.47,3.64-5.83,8.6-4.04,14.17,1.67,5.21,6.4,8.79,11.7,9.09,5.31,.29,10.39-2.81,12.63-7.73,2.35-5.17,1.57-11.27-3.08-14.94-3.36-2.66-4.06-5.46-3.98-9.35,.19-8.9-.72-17.87,.14-26.69,1.12-11.47-1.79-20.45-11.81-26.73-3.31-2.08-4.36-5.16-4.31-9.29,.21-20.77,.04-41.54-.04-62.32,0-2.03,.35-4.12-.73-6.07-2.42-1.24-4.94-2.17-7.74-2.29Zm60.76,25.22c-.34,1.28-.55,1.71-.55,2.15-.07,4.34-.12,8.67-.15,13.01-.06,7.99,.18,8.29,9.05,10.95v-22.9c-2.84-1.09-5.35-2.06-8.34-3.21Z"/>
  <path class="cls-3" d="M452.42,287c2.17-.73,3.68,.64,5.25,1.4,30.35,14.83,60.6,29.85,91.05,44.47,5.08,2.44,6.64,5.33,6.62,10.84-.22,65.62-.16,131.24-.18,196.86,0,2.24,0,4.48,0,7.01h-21.21c-1.5-4.13-.6-8.48-.68-12.73-.14-7.31,.12-14.63,.05-21.95-.05-5.54-.59-6.29-6.14-7.09-12.89-1.84-25.8-3.57-38.73-5.08-6.87-.8-7.64,.05-7.67,6.83-.06,11.43,0,22.86-.03,34.3,0,1.79-.2,3.58-.33,5.84h-27.99V287Zm7.93,39.63s.09,0,.13,0c0,3.65,.25,7.32-.07,10.94-.33,3.86,1.34,5.86,4.78,7.15,3.62,1.35,7.1,3.06,10.64,4.63,20.78,9.27,41.54,18.59,62.35,27.8,6.59,2.92,8.7,1.5,8.84-5.7,.12-5.93-.21-11.88,.22-17.78,.33-4.63-1.54-7.02-5.59-8.88-13.66-6.25-27.19-12.8-40.78-19.21-11.12-5.24-22.21-10.55-33.4-15.62-4.84-2.19-6.8-.91-7.07,4.35-.21,4.09-.04,8.21-.04,12.31Zm86.41,80.24h-.07c0-2.97-.24-5.97,.05-8.91,.49-4.92-1.77-7.45-6.2-9.21-24.17-9.61-48.24-19.46-72.37-29.16-5.72-2.3-7.56-1.1-7.69,5.01-.15,6.63-.07,13.26-.04,19.89,.03,7.04,.02,7.11,6.91,9.71,19.2,7.27,38.41,14.48,57.63,21.69,5.12,1.92,10.23,3.92,15.44,5.58,4.15,1.32,6.01-.01,6.3-4.32,.23-3.41,.05-6.85,.05-10.28Zm-86.29,17.84h-.04c0,3.65,.24,7.33-.06,10.96-.36,4.25,1.67,6.3,5.44,7.41,24.72,7.23,49.41,14.55,74.14,21.73,4.93,1.43,6.57,.05,6.74-5.38,.18-5.93,.16-11.87,.16-17.81,0-7.23-.01-7.27-7.06-9.57-15.39-5.01-30.79-9.97-46.19-14.93-8.68-2.8-17.34-5.63-26.05-8.31-4.81-1.48-6.79-.08-7.04,4.95-.18,3.64-.04,7.31-.04,10.96Z"/>
  <path class="cls-3" d="M139.92,547.77h-27.6c0-8.19,0-16.12,0-24.04,0-5.71,.08-11.43-.04-17.14-.11-5.36-1.43-6.76-6.53-6.18-13.16,1.48-26.31,3.12-39.43,4.93-5.35,.74-6.23,2.03-6.26,7.86-.07,11.41-.02,22.82-.02,34.68h-21.86v-203.33c33.5-12.61,67.15-25.27,101.75-38.29v241.52Zm-8.33-203.33c0-3.2,.15-6.41-.03-9.6-.3-5.18-2.19-6.76-7.07-5.14-24.69,8.17-49.3,16.56-73.96,24.8-3.38,1.13-4.61,3.22-4.47,6.67,.19,4.57,.05,9.14,.05,13.72,0,8.38,1.34,9.42,9.23,6.98,21.14-6.55,42.32-13.01,63.39-19.77,14.73-4.73,12.91-2.1,12.85-17.65Zm.05,40.48c0-1.6,0-3.19,0-4.79,0-1.6,.1-3.2,.01-4.79-.29-5.15-1.93-6.46-6.92-5.07-7.89,2.2-15.7,4.68-23.57,6.95-16.17,4.68-32.36,9.3-48.55,13.94-3.13,.9-6.32,1.68-6.33,5.91-.02,6.16-.18,12.31-.04,18.47,.07,3.34,2.17,4.92,5.46,4.56,1.79-.2,3.56-.74,5.31-1.21,20.42-5.55,40.85-11.1,61.26-16.7,13.33-3.66,13.31-3.7,13.36-17.26Zm.26,40.58c0-3.42,.21-6.86-.05-10.26-.33-4.22-2.29-5.67-6.4-4.85-3.12,.63-6.14,1.71-9.23,2.47-21.21,5.25-42.33,10.85-63.69,15.45-5.56,1.2-6.22,2.11-6.34,7.85-.09,4.56-.09,9.12-.06,13.68,.04,7.01,1.2,7.91,8.24,6.39,22.48-4.83,44.97-9.63,67.43-14.54,11-2.41,10.15-1.01,10.11-12.78,0-1.14,0-2.28,0-3.42Zm-.07,39.56h-.03c0-2.97,.11-5.94-.02-8.9-.21-4.82-1.76-6.07-6.41-5.23-2.91,.52-5.77,1.32-8.68,1.88-21.48,4.09-42.97,8.14-64.45,12.21-5.07,.96-6.07,2.04-6.2,7.22-.11,4.56-.07,9.13,0,13.69,.09,6.74,1.04,7.74,7.63,6.78,8.56-1.25,17.08-2.85,25.61-4.32,15.49-2.67,30.96-5.52,46.5-7.95,4.58-.71,6.39-2.7,6.1-7.17-.18-2.73-.03-5.47-.03-8.21Z"/>
  <path class="cls-3" d="M251.68,547.96h-27.24c-1.55-2.46-.81-5.04-.81-7.46-.13-72.71-.19-145.41-.31-218.12,0-3.72,1.11-7.75-2.59-10.79-.75-.61-.48-2.6-.49-3.95-.04-15.55,.05-31.1-.13-46.64-.04-3.1,1.13-5.12,3.21-7.11,4.79-4.58,9.34-9.43,14.2-13.93,3.25-3.01,5.07-6.32,4.59-10.84-.24-2.26,.03-4.57-.04-6.85-.12-3.5,.38-6.13,3.74-8.69,5.87-4.46,5.7-13.56,.58-18.93-4.98-5.24-13.38-5.49-18.5-.56-5.19,4.99-5.81,14.61,.04,18.94,5.36,3.98,4.18,8.8,4.75,13.81,.54,4.74-2.49,7.03-5.24,9.71-4.26,4.14-8.41,8.42-12.84,12.37-2.96,2.64-4.11,5.57-4.06,9.56,.16,14.4-.02,28.81-.06,43.21,0,2.25,0,4.5,0,6.84-4.37,.7-7.6-1.22-10.75-1.69-1.41-1.8-.95-3.46-.94-5.02,.03-16.92,.13-33.84,.12-50.76,0-3.54,.5-6.2,3.73-8.78,5.9-4.71,5.86-13.49,.75-18.87-5.04-5.32-13.23-5.51-18.4-.43-5.56,5.46-6.08,13.73-.01,18.78,3.83,3.19,4.2,6.43,4.17,10.64-.11,16.89-.05,33.79-.05,50-.81,1.42-1.56,1.27-2.15,1.17q-12.56-2.07-12.55-14.73c-.01-21.95,.08-43.9-.2-65.85-.06-4.44,1.36-7.04,5.03-9.46,24.98-16.48,49.81-33.17,74.71-49.78,.73-.49,1.58-.8,2.46-1.25,1.58,1.35,.92,3.04,.92,4.46,.05,23.09-.06,46.18,.13,69.28,.03,3.84-1.27,6.32-4.03,8.79-5.96,5.33-11.56,11.07-17.45,16.48-2.36,2.17-3.38,4.49-3.38,7.75,.03,43.67-.05,87.34-.19,131.01,0,3.03,.84,5.3,3.29,7.04,.74,.52,1.36,1.22,2.03,1.84q14.04,12.89,13.04,31.56c-.11,2.18-.71,3.67-2.36,5.27-7.96,7.72-7.67,15.11,.92,22.64,1.79,1.56,2.39,3.01,2.39,5.21-.05,24.45-.03,48.91-.03,74.13Z"/>
  <path class="cls-2" d="M213.13,547.5h-62.02v-66.6c20.5,1.08,41.07,2.7,62.02,4.65v61.95Z"/>
  <path class="cls-2" d="M398.83,182.72c-15.5-6.73-29.91-12.96-44.3-19.23-19.64-8.55-39.21-17.29-58.97-25.58-4.98-2.09-7.26-4.74-6.53-10.2,.45-3.35,.08-6.81,.08-10.12,2.15-1.58,3.74,.04,5.17,.68,33.7,15.11,67.34,30.34,101.02,45.5,2.26,1.02,3.74,2.19,3.59,5.04-.23,4.3-.06,8.63-.06,13.9Z"/>
  <path class="cls-2" d="M440.94,547.45h-31v-60.22c10.15-.58,20.28-1.16,31-1.77v61.99Z"/>
  <path class="cls-3" d="M191.07,193.33c-.38-.97-.51-1.16-.52-1.35q-.77-15.5,11.94-23.98c21.4-14.35,42.76-28.75,64.16-43.1,3.7-2.48,7.49-4.81,12.23-7.83,0,6.2-.11,11.13,.04,16.07,.1,3.29-2.56,4.11-4.53,5.41-18.83,12.43-37.73,24.76-56.6,37.14-8.74,5.74-17.45,11.53-26.71,17.65Z"/>
  <path class="cls-2" d="M213.47,341.51c-21.28-4.75-41.7-9.3-62.56-13.96v-21.57c15.77,3.57,31.26,7.07,46.74,10.61,3.77,.86,7.46,2.12,11.27,2.76,3.29,.55,4.74,1.94,4.6,5.4-.21,5.23-.06,10.47-.06,16.76Z"/>
  <path class="cls-2" d="M536.48,315.62c-13.24-6.33-26.18-12.48-39.08-18.7-13.77-6.64-27.47-13.42-41.27-20-2.74-1.31-4.55-2.73-4.13-6.1,.39-3.14-.39-6.37,.58-9.9,5.27,1.02,9.51,4.15,14.03,6.49,21.07,10.91,41.9,22.3,63.15,32.85,6.83,3.39,9.05,7.55,6.73,15.36Z"/>
  <path class="cls-2" d="M150.7,348.64v-11.24c21.1,4.73,41.76,9.35,62.5,14v9.7c-20.97-4.18-41.52-8.27-62.5-12.45Z"/>
  <path class="cls-2" d="M213.32,370.91v8.06c-1.73,1.78-3.6,.98-5.28,.66-17.62-3.35-35.17-7.08-52.99-9.25-3.38-.41-4.99-1.74-4.57-5.21,.24-2-.43-4.09,.79-6.64,20.46,4.08,41.04,8.19,62.05,12.39Z"/>
  <path class="cls-2" d="M150.54,430.22v-10.55c21.11,2.89,41.66,5.71,62.3,8.53,1.11,3.17,.92,5.99,.23,9.29-20.76-2.42-41.22-4.8-62.53-7.28Z"/>
  <path class="cls-2" d="M150.98,440.03c21.03,2.44,41.63,4.82,62.38,7.23v9.21c-10.85-.98-21.38-1.91-31.91-2.89-7.23-.68-14.44-1.63-21.69-2.11-9.67-.64-9.68-.5-8.79-11.43Z"/>
  <path class="cls-2" d="M213.27,389.86c.24,3.67,.83,6.36-.76,9.48-20.43-3.25-40.94-6.51-61.68-9.81-.23-3.42-.57-6.28,.49-10,20.63,3.44,41.1,6.86,61.95,10.34Z"/>
  <path class="cls-2" d="M213.07,409.26c.53,3.19,.66,5.83-.19,9.07-20.56-2.74-40.96-5.47-61.43-8.2-1.73-3.2-.66-6.24-.75-10.01,21.21,2.41,41.56,5.54,62.37,9.14Z"/>
  <path class="cls-2" d="M213,466.02c.74,3.7,.58,5.91,.09,8.95-20.74-.52-41.17-3.02-61.72-4.31-1.3-3.17-.86-6.03-.43-10,20.81,1.8,41.44,3.58,62.06,5.37Z"/>
  <path class="cls-2" d="M440.61,258.03c.6,.97,.82,1.15,.83,1.36,1.05,15.14,1.03,15.08-13.91,19.49-5.64,1.67-11.17,3.69-17.35,4.91-1.35-4.72-.61-9.43-.62-14.07-.01-2.71,2.57-2.95,4.38-3.53,8.84-2.8,17.72-5.44,26.67-8.17Z"/>
  <path class="cls-2" d="M441.13,285.7v15.92c-10.48,2.91-20.76,6.07-31.24,7.59-.57-1.06-.93-1.44-.98-1.85-1.33-11.67-1.32-11.73,9.74-15.08,7.34-2.22,14.72-4.3,22.48-6.57Z"/>
  <path class="cls-2" d="M441.55,378c-11.17,1.62-21.44,3.11-32.08,4.65-1.59-4.12-.63-8.18-.61-12.13,.01-2.27,1.95-2.61,3.89-2.95,9.16-1.58,18.29-3.3,27.87-5.05,1.65,4.98,.26,9.89,.93,15.48Z"/>
  <path class="cls-2" d="M441.19,337.07v15.26c-10.1,2.85-20.54,4.1-31.02,5.78-.33-1.26-.61-1.89-.64-2.53q-.53-11.23,10.24-13.75c6.85-1.58,13.73-3.06,21.43-4.78Z"/>
  <path class="cls-2" d="M410.48,406.37c-.59-1.39-.9-1.79-.91-2.2-.12-11.96-2.46-12.36,10.55-13.44,6.75-.56,13.41-2.26,20.44-2.55,1.59,4.85,.51,9.52,.83,14.56-10.62,1.24-20.69,2.42-30.91,3.62Z"/>
  <path class="cls-2" d="M441.33,412.62c.31,5.58,.47,10.05-.2,14.84-10.19,1.81-20.41,1.73-30.75,3.12-1.43-4.79-.81-9.39-.44-14.38,10.44-1.19,20.52-2.34,31.39-3.58Z"/>
  <path class="cls-2" d="M440.81,312.76c1.41,13.95,1.42,14.01-10.93,16.93-6.39,1.51-12.73,3.32-19.34,3.95-.41-.88-.92-1.47-.93-2.06-.25-14.84-1.8-11.26,10.97-14.44,6.55-1.63,13.02-4.01,20.22-4.38Z"/>
  <path class="cls-2" d="M90.39,512.28c4.37-.71,7.7-1.24,11.65-1.88v37.17c-.41,.25-.78,.65-1.17,.68q-10.5,.77-10.48-9.71c.01-8.6,0-17.21,0-26.26Z"/>
  <path class="cls-2" d="M441.25,437.68c.2,5.13,.39,9.2-.29,13.71-10.14,1.98-20.37,1.19-30.67,2.92-1.42-4.76-.83-8.94-.59-13.59,10.63-1.36,20.97-2.89,31.54-3.04Z"/>
  <path class="cls-2" d="M511.49,513.55c4.29-.08,7.49,1.55,11.48,.88v33.2c-.12,.09-.45,.58-.83,.61q-10.71,.98-10.66-9.5c.02-8.35,0-16.7,0-25.19Z"/>
  <path class="cls-2" d="M441.1,461.34v14.27h-31.28c-.63-3.63-.28-7.38-.19-11.51,5.48-.73,10.55-1.58,15.76-1.64,4.99-.06,9.99-.05,15.71-1.12Z"/>
  <path class="cls-2" d="M501.4,548.14h-10.29v-37.2c3.21,.34,6.48,.69,10.29,1.09v36.11Z"/>
  <path class="cls-2" d="M70.08,515.19c3.38-1.1,6.52-.69,9.85-.97,1.6,5.6,.71,11.04,.86,16.39,.16,5.4,.03,10.8,.03,16.39-3.85,1.05-7.09,.95-10.75,.15v-31.95Z"/>
  <path class="cls-3" d="M279.09,276.67c.26,3.51,.52,6.39-.29,9.64-5.07,.39-9.94,.65-15.15,.22-.52-3.39-.53-6.44,.05-9.86h15.4Z"/>
  <path class="cls-3" d="M350.52,441.34c-3-.28-4.86-1.78-5.02-4.66-.14-2.57,1.27-4.34,3.95-4.61,2.92-.3,4.91,1.07,5.21,4.04,.31,2.97-1.57,4.5-4.14,5.23Z"/>
  <path class="cls-3" d="M241.99,203.6c-.36,2.87-2,4.66-4.86,4.73-2.66,.07-4.19-1.64-4.36-4.27-.17-2.7,1.4-4.48,3.9-4.76,2.9-.33,4.55,1.59,5.32,4.3Z"/>
  <path class="cls-3" d="M194.55,227.81c2.71,.67,4.29,2.39,3.89,5.33-.35,2.63-2.25,4.05-4.75,3.88-2.57-.17-4.21-2.07-4.12-4.59,.1-2.81,1.85-4.53,4.97-4.62Z"/>
  <path class="cls-3" d="M260.49,457.54c-.29,3.01-2.29,4.4-4.98,4.3-2.52-.1-4.17-1.98-4.13-4.47,.05-2.76,1.67-4.64,4.66-4.62,3.04,.03,4.28,1.95,4.45,4.79Z"/>
  <path class="cls-1" d="M379.04,198.89c3.48,.31,5.95,1.93,8.92,3.29V463.5c-2.87,1.03-5.69,.79-8.92,.17V198.89Z"/>
  <path class="cls-1" d="M340.92,182.59c10.23,2.94,8.92,1.37,9.36,11.14,.31,6.82-2.03,14.37,1,20.26,2.88,5.59,8.89,9.63,13.75,14.1,3.04,2.8,4.58,5.77,4.57,10.09-.1,52.75-.03,105.51-.01,158.26,0,.65-.24,1.3-.44,2.31-2.64,.73-5.31,.25-7.78,.21-1.96-1.5-1.38-3.47-1.38-5.2-.02-50.01-.08-100.03,.12-150.04,.02-5.21-1.14-8.98-5.26-12.38-4.89-4.04-11.23-7.65-13.29-13.44-1.95-5.49-.58-12.17-.62-18.33-.04-5.46,0-10.93,0-16.97Z"/>
  <path class="cls-1" d="M300.33,165.26c2.79,.12,5.32,1.06,7.74,2.29,1.07,1.96,.72,4.05,.73,6.07,.07,20.77,.25,41.55,.04,62.32-.04,4.13,1,7.22,4.31,9.29,10.02,6.29,12.93,15.26,11.81,26.73-.86,8.81,.04,17.79-.14,26.69-.08,3.88,.62,6.69,3.98,9.35,4.65,3.67,5.43,9.77,3.08,14.94-2.24,4.92-7.31,8.03-12.63,7.73-5.3-.29-10.04-3.88-11.7-9.09-1.78-5.57-.43-10.53,4.04-14.17,2.57-2.09,3.55-4.23,3.5-7.5-.16-11.87-.15-23.74,.07-35.61,.06-3.06-.87-5.23-3.1-7.1-1.05-.88-1.85-2.09-2.99-2.8-8.33-5.18-9.94-12.64-9.58-22.09,.75-19.83,.2-39.71,.24-59.57,0-2.47-.56-5.02,.61-7.49Zm24.28,152.07c-.64-2.13-1.66-4.43-4.66-4.46-2.91-.03-4.62,1.89-4.65,4.67-.03,2.5,1.68,4.27,4.15,4.52,2.91,.3,4.45-1.56,5.17-4.73Z"/>
  <path class="cls-1" d="M361.09,190.48c2.99,1.15,5.5,2.12,8.34,3.21v22.9c-8.86-2.66-9.1-2.95-9.05-10.95,.03-4.34,.08-8.67,.15-13.01,0-.44,.22-.88,.55-2.15Z"/>
  <path class="cls-1" d="M460.35,326.63c0-4.1-.17-8.22,.04-12.31,.28-5.25,2.23-6.54,7.07-4.35,11.2,5.07,22.29,10.38,33.4,15.62,13.59,6.41,27.12,12.96,40.78,19.21,4.05,1.85,5.92,4.25,5.59,8.88-.43,5.9-.1,11.85-.22,17.78-.14,7.2-2.25,8.62-8.84,5.7-20.81-9.21-41.57-18.53-62.35-27.8-3.53-1.58-7.02-3.28-10.64-4.63-3.43-1.29-5.11-3.28-4.78-7.15,.31-3.62,.07-7.29,.07-10.94-.04,0-.09,0-.13,0Zm76.2,39q1.39-11.67-7.78-16.08c-13.39-6.38-26.73-12.86-40.22-19-5.91-2.69-11.53-6.16-18.46-8.18,0,2.91,.29,5.22-.06,7.43-.83,5.3,1.82,7.66,6.42,9.48,8.47,3.37,16.72,7.3,25.07,10.98,11.43,5.03,22.88,10.04,35.03,15.37Z"/>
  <path class="cls-1" d="M546.76,406.87c0,3.43,.18,6.87-.05,10.28-.29,4.3-2.16,5.64-6.3,4.32-5.21-1.66-10.31-3.66-15.44-5.58-19.22-7.21-38.44-14.42-57.63-21.69-6.88-2.6-6.88-2.67-6.91-9.71-.02-6.63-.11-13.26,.04-19.89,.14-6.12,1.98-7.31,7.69-5.01,24.13,9.7,48.2,19.54,72.37,29.16,4.44,1.77,6.69,4.29,6.2,9.21-.29,2.94-.05,5.94-.05,8.91h.07Zm-76.75-36.2c0,3.16-.04,5.42,0,7.68,.14,6.62-1.47,6.3,6.29,9.14,14.72,5.4,29.37,10.98,44.08,16.39,5.44,2,10.62,4.76,16.42,5.97q1.18-11.54-8.9-15.5c-.64-.25-1.28-.49-1.91-.75-18.28-7.49-36.56-14.97-55.99-22.93Z"/>
  <path class="cls-1" d="M460.47,424.7c0-3.65-.15-7.31,.04-10.96,.25-5.03,2.23-6.43,7.04-4.95,8.71,2.68,17.37,5.52,26.05,8.31,15.4,4.96,30.8,9.92,46.19,14.93,7.05,2.29,7.06,2.34,7.06,9.57,0,5.94,.02,11.88-.16,17.81-.17,5.42-1.81,6.81-6.74,5.38-24.73-7.18-49.43-14.49-74.14-21.73-3.77-1.1-5.8-3.16-5.44-7.41,.31-3.63,.06-7.3,.06-10.96h.04Zm9.85,9.5c22.51,6.63,44.46,13.08,66.73,19.64,.12-1.52,.3-2.63,.28-3.74-.17-10.43,1.02-8.17-8.02-11.16-17.93-5.92-35.88-11.79-53.86-17.55-1.53-.49-3.12-2.11-5.13-.61v13.43Z"/>
  <path class="cls-1" d="M131.59,344.43c.06,15.55,1.88,12.92-12.85,17.65-21.08,6.76-42.25,13.22-63.39,19.77-7.89,2.45-9.23,1.41-9.23-6.98,0-4.57,.13-9.15-.05-13.72-.14-3.46,1.09-5.54,4.47-6.67,24.66-8.24,49.27-16.63,73.96-24.8,4.88-1.61,6.77-.04,7.07,5.14,.19,3.19,.03,6.4,.03,9.6Zm-74.94,26.63c21.67-6.82,43.19-13.59,64.72-20.36,.58-3.29,.95-6.14-.3-9.12-1.25,.14-2.43,.06-3.47,.42-18.88,6.54-37.76,13.11-56.62,19.72-5.39,1.89-5.37,1.96-4.33,9.33Z"/>
  <path class="cls-1" d="M131.63,384.91c-.05,13.56-.04,13.6-13.36,17.26-20.41,5.6-40.84,11.15-61.26,16.7-1.75,.48-3.52,1.01-5.31,1.21-3.29,.36-5.39-1.22-5.46-4.56-.13-6.15,.02-12.31,.04-18.47,.01-4.24,3.21-5.01,6.33-5.91,16.19-4.63,32.37-9.26,48.55-13.94,7.87-2.28,15.68-4.76,23.57-6.95,4.99-1.39,6.62-.08,6.92,5.07,.09,1.59,0,3.19-.01,4.79,0,1.6,0,3.19,0,4.79Zm-10.78-3.49c-21.47,6.43-43.11,12.9-65.11,19.48,.48,2.75-.76,5.2,1.04,7.63,20.41-5.38,40.79-10.82,61.22-16.09,3.01-.78,4.26-2.27,3.94-5.26-.19-1.77,.44-3.65-1.08-5.76Z"/>
  <path class="cls-1" d="M131.9,425.49c0,1.14,0,2.28,0,3.42,.04,11.77,.89,10.37-10.11,12.78-22.46,4.92-44.95,9.71-67.43,14.54-7.04,1.51-8.2,.61-8.24-6.39-.02-4.56-.03-9.12,.06-13.68,.12-5.74,.79-6.66,6.34-7.85,21.36-4.6,42.48-10.2,63.69-15.45,3.09-.77,6.11-1.84,9.23-2.47,4.11-.83,6.07,.62,6.4,4.85,.27,3.4,.05,6.84,.06,10.26Zm-75.43,20.52c21.99-4.85,43.64-9.63,65.12-14.37,.38-3.77,.65-6.69-.31-9.96-21.83,5.44-43.55,10.87-65.07,16.23-.64,2.83-.85,5.04,.26,8.09Z"/>
  <path class="cls-1" d="M131.82,465.04c0,2.74-.14,5.48,.03,8.21,.29,4.46-1.53,6.45-6.1,7.17-15.53,2.43-31,5.27-46.5,7.95-8.53,1.47-17.05,3.07-25.61,4.32-6.59,.96-7.55-.03-7.63-6.78-.06-4.56-.11-9.13,0-13.69,.13-5.18,1.13-6.26,6.2-7.22,21.48-4.07,42.97-8.12,64.45-12.21,2.91-.55,5.77-1.35,8.68-1.88,4.66-.84,6.2,.42,6.41,5.23,.13,2.96,.02,5.93,.02,8.9h.03Zm-75.27,17.31c20.56-3.51,41.12-7.05,61.68-10.51,2.82-.47,3.94-1.97,3.69-4.68-.16-1.76,.55-3.66-.86-5.38-19.56,3.8-39.17,7.6-58.77,11.43-6.97,1.36-6.96,1.4-5.75,9.15Z"/>
  <path class="cls-3" d="M324.61,317.33c-.71,3.17-2.25,5.03-5.17,4.73-2.47-.25-4.18-2.01-4.15-4.52,.04-2.78,1.75-4.7,4.65-4.67,3,.03,4.02,2.33,4.66,4.46Z"/>
  <path class="cls-2" d="M536.55,365.63c-12.15-5.33-23.59-10.34-35.03-15.37-8.35-3.67-16.59-7.61-25.07-10.98-4.6-1.83-7.25-4.18-6.42-9.48,.35-2.21,.06-4.52,.06-7.43,6.93,2.02,12.55,5.5,18.46,8.18,13.5,6.14,26.84,12.62,40.22,19q9.18,4.38,7.78,16.08Z"/>
  <path class="cls-2" d="M470.01,370.66c19.42,7.96,37.7,15.44,55.99,22.93,.63,.26,1.27,.5,1.91,.75q10.08,3.96,8.9,15.5c-5.8-1.21-10.98-3.97-16.42-5.97-14.71-5.41-29.36-10.99-44.08-16.39-7.76-2.84-6.15-2.52-6.29-9.14-.05-2.26,0-4.51,0-7.68Z"/>
  <path class="cls-2" d="M470.32,434.2v-13.43c2.01-1.5,3.6,.12,5.13,.61,17.98,5.77,35.93,11.63,53.86,17.55,9.05,2.99,7.85,.73,8.02,11.16,.02,1.11-.16,2.23-.28,3.74-22.27-6.55-44.22-13.01-66.73-19.64Z"/>
  <path class="cls-2" d="M56.64,371.07c-1.04-7.38-1.06-7.45,4.33-9.33,18.86-6.61,37.73-13.18,56.62-19.72,1.04-.36,2.22-.28,3.47-.42,1.25,2.98,.89,5.83,.3,9.12-21.53,6.77-43.05,13.54-64.72,20.36Z"/>
  <path class="cls-2" d="M120.85,381.42c1.52,2.11,.89,4,1.08,5.76,.32,2.99-.93,4.48-3.94,5.26-20.43,5.27-40.81,10.71-61.22,16.09-1.8-2.43-.56-4.88-1.04-7.63,22-6.58,43.64-13.06,65.11-19.48Z"/>
  <path class="cls-2" d="M56.47,446c-1.11-3.05-.9-5.26-.26-8.09,21.52-5.37,43.24-10.79,65.07-16.23,.96,3.27,.7,6.19,.31,9.96-21.48,4.74-43.13,9.52-65.12,14.37Z"/>
  <path class="cls-2" d="M56.56,482.35c-1.22-7.74-1.22-7.79,5.75-9.15,19.6-3.83,39.21-7.63,58.77-11.43,1.4,1.72,.7,3.62,.86,5.38,.25,2.71-.87,4.21-3.69,4.68-20.57,3.46-41.12,7-61.68,10.51Z"/>
</svg>