<?xml version="1.0" encoding="UTF-8"?>
<svg id="_Слой_1" data-name="Слой 1" xmlns="http://www.w3.org/2000/svg" viewBox="0 0 596.724 556.5">
  <defs>
    <style>
      .cls-1 {
        fill: #62a7f8;
      }

      .cls-2 {
        fill: #113b6f;
      }

      .cls-3 {
        fill: #fcfcfc;
      }
    </style>
  </defs>
  <path class="cls-2" d="M426.714,312.964c-.004,21.322-.007,42.643-.002,63.965,.001,5.908-1.314,7.263-7.366,7.264-30.817,.001-61.633,.011-92.45-.09-3.201-.01-5.177,.697-7.212,3.637-9.552,13.799-32.918,13.737-42.769-.152-2.118-2.987-4.182-3.538-7.327-3.53-29.983,.07-59.967,.048-89.951,.052-.999,0-2,.023-2.998-.01-5.127-.168-6.824-1.883-6.833-7.066-.023-13.159-.013-26.318-.001-39.477,.026-29.15,.061-58.301,.092-87.451,0-.833-.042-1.668,.001-2.498,.24-4.672,1.808-6.287,6.418-6.375,4.163-.08,8.336-.151,12.49,.052,2.667,.13,3.376-.828,3.397-3.414,.054-6.846,.331-7.237,6.923-8.675,26.253-5.726,52.503-5.954,78.669,.543,6.473,1.607,12.655,4.092,18.43,7.487,1.288,.758,2.249,1.453,3.991,.423,13.356-7.897,28.208-10.785,43.377-12.017,17.153-1.393,34.26-.687,51.234,2.573,2.619,.503,4.754,2.125,7.461,2.335,1.3,.101,2.138,1.536,2.261,2.98,.126,1.487,.286,3.001,.14,4.474-.234,2.37,.563,3.327,3.04,3.206,3.657-.179,7.327-.11,10.992-.091,6.545,.033,7.985,1.431,7.992,7.891,.021,21.321,.008,42.642,.004,63.963Zm-133.305,45.337c0-7.854-.003-15.462,0-23.07,.012-27.994-.073-55.989,.153-83.982,.032-4.001-1.211-6.231-4.769-7.536-2.962-1.087-5.829-2.458-8.834-3.393-24.244-7.541-48.812-7.821-73.577-3.087-4.919,.94-4.966,.98-4.964,5.891,.015,35.493,.05,70.985,.099,106.478,.001,.938-.316,1.99,.776,2.968,30.715-8.038,61.058-6.599,91.115,5.731Zm101.491-5.478c.098-.72,.26-1.361,.261-2.003,.084-36.496,.118-72.992,.299-109.488,.015-2.935-1.235-3.57-3.69-4.069-14.804-3.009-29.758-3.699-44.765-2.681-13.008,.882-25.702,3.429-37.833,8.49-4.271,1.782-6.253,4.116-6.211,9.197,.283,34.161,.182,68.325,.223,102.488,.001,1.133-.284,2.322,.449,3.486,29.718-12.411,60.138-13.835,91.267-5.419Zm-215.635-40.474h.059c0,18.992-.005,37.984,.003,56.977,.002,5.133,.02,5.141,5.104,5.139,27.822-.013,55.643-.033,83.465-.045,3.165-.001,6.331,.06,9.496,.033,2.63-.022,4.465,.936,5.235,3.633,1.784,6.249,6.542,8.904,12.45,10.034,8.202,1.568,16.281-2.284,18.748-8.866q1.793-4.785,6.859-4.823c1.833-.013,3.665-.008,5.498-.007,28.821,.01,57.642,.028,86.463,.024,4.616,0,4.617-.047,4.666-4.578,.007-.666,.005-1.333,.005-1.999,.02-36.151,.041-72.303,.057-108.454,.004-9.95,0-9.886-10.056-9.233-2.14,.139-3.054,.826-2.856,2.967,.092,.992,.033,1.998,.032,2.997-.015,33.986-.142,67.972,.076,101.956,.031,4.835-2.785,7.813-7.972,5.75-15.472-6.154-31.643-7.441-48.058-6.533-15.579,.862-30.641,4.109-44.616,11.278-3.959,2.031-7.142,1.904-11.212-.018-23.889-11.279-48.978-14.039-74.932-9.605-6.069,1.037-11.997,2.531-17.726,4.893-4.643,1.914-7.501-.064-7.747-4.982-.05-.997-.003-1.999-.004-2.998-.05-32.653-.097-65.306-.152-97.958q-.013-7.503-7.713-7.552-5.176-.033-5.171,4.995c.002,18.992,0,37.984,0,56.976Z"/>
  <path class="cls-2" d="M106.508,522.337c-30.829,0-61.659,0-92.488-.001-1.333,0-2.666-.003-3.998-.034-.959-.022-1.521-.506-1.572-1.502-.008-.166,.002-.334-.021-.498-.952-6.985-.511-7.474,6.766-7.508,5.719-.027,5.796-.027,5.807-5.909,.052-27.33,.059-54.659,.081-81.989,0-1.167-.03-2.334,.007-3.499,.16-5.077,1.847-6.738,7.085-6.761,10.998-.049,21.997-.031,32.995-.046,4.658-.006,4.32,.274,4.32-4.323,0-12.665,.015-25.33,.026-37.995,.001-1.166-.044-2.336,.029-3.499,.317-5.042,1.589-6.352,6.702-6.412,7.998-.094,15.997-.034,23.996-.041,4.939-.004,4.913-.006,4.9-4.76-.023-8.499,.136-17.001-.091-25.494-.084-3.146,.874-3.989,3.925-3.837,6.719,.335,5.903-.955,5.951,5.763,.06,8.332,.079,16.666-.079,24.995-.049,2.586,.657,3.443,3.34,3.39,8.162-.162,16.33-.039,24.495-.029,6.316,.008,7.894,1.537,7.915,7.999,.044,13.332,.012,26.663,.019,39.995,.002,4.232,.015,4.263,4.39,4.273,10.332,.023,20.664,.009,30.996,.018,8.19,.007,9.356,1.116,9.366,9.096,.036,27.996,.054,55.992,.07,83.989,.003,4.998-.017,4.999,5.214,5.003,1.167,0,2.333-.016,3.5-.013,4.438,.014,4.496,.016,4.504,4.222,.013,6.537,.307,5.456-5.165,5.461-30.996,.031-61.992,.015-92.988,.015v-.069Zm30.782-79.77h-.044c0-22.156,.002-44.312-.002-66.467,0-4.529-.013-4.568-4.623-4.577-17.658-.036-35.316-.036-52.974-.069-5.786-.011-4.957-.097-4.963,5.224-.029,26.82-.067,53.64-.073,80.46-.004,17.158,.028,34.316,.072,51.474,.012,4.421,.061,4.452,4.452,4.487,6.163,.048,12.332-.092,18.489,.122,2.899,.101,3.768-.912,3.642-3.708-.195-4.323,.074-8.665-.104-12.989-.111-2.684,.972-3.6,3.489-3.346,.99,.1,2.004,.097,2.996,.008,2.15-.192,2.969,.718,2.93,2.876-.086,4.663,.089,9.33-.029,13.992-.06,2.376,.774,3.22,3.175,3.169,6.327-.133,12.659-.058,18.99-.065q4.57-.005,4.577-4.623c.002-21.989,.001-43.978,.001-65.967Zm44.844,25.772h.018c0-3.998-.005-7.997,.001-11.995,.016-9.497,.034-18.993,.058-28.49,.005-1.868,.239-3.706-2.638-3.682-10.162,.084-20.325,.062-30.488,.029-1.971-.007-2.694,.894-2.526,2.75,.045,.496,.017,.999,.015,1.499-.016,4.671-.016,4.689,4.504,4.721,6.164,.045,12.329,.045,18.493,.092,4.795,.036,4.795,.055,4.753,5.01-.034,3.991-.034,4.023-4.125,4.058-6.83,.059-13.662,.151-20.491,.063-2.368-.03-3.425,.748-3.149,3.15,.075,.658,.01,1.331,.011,1.998,.005,4.671,.004,4.705,4.482,4.733,6.497,.041,12.995,.008,19.492,.057,1.113,.008,2.673-.551,3.228,.652,1.072,2.322,.751,4.942,.284,7.331-.383,1.963-2.465,1.219-3.838,1.227-6.83,.038-13.663,.041-20.491-.097-2.319-.047-3.493,.641-3.217,3.093,.056,.494,.01,.999,.008,1.499q-.028,5.228,5.034,5.226c6.497-.01,12.996,.038,19.492-.082,2.326-.043,3.477,.661,3.178,3.125-.1,.821-.105,1.675-.005,2.495,.339,2.786-.751,3.815-3.628,3.728-6.492-.196-12.993-.109-19.491-.115-4.46-.004-4.5,.012-4.512,4.222-.023,7.997-.02,15.994,.019,23.991,.022,4.449,.064,4.49,4.44,4.504,8.83,.028,17.66,.02,26.49,0,4.596-.011,4.599-.037,4.6-4.805,.001-13.328,0-26.656,0-39.984Zm-151.794,.511h.067c0,13.495,.013,26.99-.013,40.485-.004,2.12-.157,3.89,2.994,3.841,9.661-.15,19.326-.091,28.988,.036,2.515,.033,3.09-1.015,3.068-3.281-.084-8.496-.006-16.993-.034-25.49-.013-3.951-.061-3.957-4.256-3.953-6.331,.006-12.662,.043-18.993,.011-1.116-.006-2.658,.527-3.253-.621-1.192-2.297-.706-4.907-.348-7.313,.317-2.131,2.413-1.292,3.747-1.308,6.497-.075,12.998-.139,19.491,.053,2.863,.085,3.99-.897,3.625-3.701-.085-.655,.002-1.331-.005-1.997-.042-4.064-.044-4.116-4.099-4.124-6.497-.013-12.995,.067-19.493,.065-1.111,0-2.72,.489-3.148-.793-.794-2.377-.81-5.041-.053-7.357,.641-1.963,2.917-.985,4.455-1.009,6.33-.099,12.664-.155,18.991,.001,2.662,.066,3.66-.906,3.326-3.456-.043-.328-.006-.666-.009-.999-.045-6.014,.566-5.472-5.222-5.524-6.331-.056-12.663-.131-18.992-.037-2.186,.032-3.074-.73-2.879-2.878,.075-.826,.1-1.676,0-2.496-.335-2.727,.622-3.84,3.556-3.75,6.158,.188,12.327,.046,18.491,.017,5.108-.024,4.885-.047,5.097-5.238,.132-3.231-1.057-3.892-4.008-3.839-8.994,.161-17.992,.022-26.989,.046-4.044,.011-4.087,.061-4.094,4.122-.021,13.495-.008,26.99-.008,40.485Z"/>
  <path class="cls-2" d="M526.224,496.836c-6.3,1.262-12.044,2.944-17.989,3.694-19.938,2.517-39.497,1.052-58.625-5.256-1.629-.537-3.147-1.414-4.707-2.154-2.373-1.125-3.52-2.653-3.448-5.637,.23-9.489-.097-18.99,.039-28.483,.041-2.868-.62-4.547-3.5-5.591-4.323-1.567-8.477-3.604-13.516-5.796,0,6.933,.057,13.177-.038,19.419-.026,1.696,1.062,2.26,2.153,3.004,3.296,2.247,4.798,5.358,4.673,9.365-.104,3.328-.078,6.666,.047,9.994,.094,2.479-.78,3.748-3.405,3.714-4.83-.061-9.662-.008-14.493-.009-2.642,0-3.979-1.218-3.936-3.973,.06-3.83-.034-7.663-.027-11.494,.006-3.295,1.586-5.828,4.335-7.395,2.095-1.195,2.461-2.791,2.438-4.94-.065-6.163-.109-12.332,.116-18.489,.089-2.446-.781-3.658-2.996-4.291-.947-.271-1.879-.716-2.707-1.255-2.628-1.71-2.839-4.13-.441-6.109,1.002-.827,2.29-1.332,3.489-1.894,23.333-10.937,46.701-21.801,69.982-32.848,3.613-1.714,6.614-1.813,10.291-.043,18.716,9.013,37.547,17.786,56.363,26.589,4.195,1.962,8.495,3.698,12.736,5.562,1.064,.468,2.152,.928,3.117,1.563,3.584,2.36,3.504,5.719-.361,7.658-4.009,2.012-8.209,3.638-12.305,5.481-5.157,2.321-10.291,4.695-15.44,7.035-1.168,.531-2.813,.671-2.548,2.506,.345,2.384,2.313,1.359,3.565,1.368,13.826,.1,27.653,.092,41.48,.143,7.066,.026,9.562,2.514,9.575,9.675,.047,26.488,.065,52.976,.062,79.464,0,6.376-2.667,9.019-9.171,9.032-15.16,.031-30.32,.017-45.479-.043-6.581-.026-9.315-2.84-9.324-9.476-.022-16.483-.007-32.966-.007-50.091Zm25.369-58.941c-2.249-1.151-3.695-1.946-5.185-2.647-17.145-8.057-34.391-15.909-51.384-24.274-4.556-2.243-8.073-1.997-12.447,.154-16.253,7.991-32.686,15.615-49.031,23.418-2.254,1.076-4.801,1.678-6.825,3.578,.667,.466,1.035,.817,1.472,1.014,19.225,8.691,38.473,17.332,57.665,26.096,2.164,.988,3.914,1.061,6.069,.045,10.519-4.957,21.098-9.789,31.669-14.634,9.05-4.148,18.118-8.253,27.998-12.75Zm29.487,60.42c0-8.987-.107-17.977,.061-26.961,.055-2.938-.582-4.038-3.818-3.989-12.646,.188-25.298,.138-37.945-.022-2.92-.037-4.076,.532-4.046,3.781,.17,18.14,.176,36.282,.05,54.423-.021,3.049,1.153,3.494,3.79,3.476,12.482-.083,24.964,.029,37.447,.039,4.409,.004,4.438-.038,4.447-4.283,.019-8.821,.006-17.642,.014-26.463Zm-130.601-39.257c0,7.292,.006,13.77-.002,20.248q-.008,6.201,6.021,8.255c17.593,6.002,35.569,6.065,53.697,3.363,4.591-.684,9.188-1.459,13.559-3.156,1.227-.476,2.579-.663,2.57-2.499-.04-8.418-.017-16.837-.017-25.777-10.606,4.949-20.806,9.392-30.686,14.459-4.659,2.389-8.475,2.233-13.06-.035-10.257-5.075-20.76-9.654-32.083-14.858Zm94.549,88.23v-.046c2.312,0,4.626-.048,6.936,.016,1.678,.046,2.422-.663,2.363-2.341-.052-1.485-.057-2.975,.007-4.458,.077-1.777-.88-2.238-2.449-2.229-4.624,.024-9.249-.024-13.874-.017-.961,.001-2.262-.147-2.464,1.061-.379,2.275-.674,4.746,.147,6.856,.828,2.127,3.196,.925,4.878,1.122,1.466,.172,2.969,.036,4.455,.036Zm27.157-9c-2.489,0-4.978,.021-7.466-.008-1.448-.017-2.133,.652-2.121,2.089,.01,1.327,.115,2.668-.034,3.979-.29,2.553,.985,3.096,3.226,3.019,3.48-.119,6.967,.002,10.452-.005q4.99-.01,4.931-4.85-.051-4.143-4.01-4.217c-1.659-.027-3.318-.004-4.977-.006Zm-149.148-58.194c-.061-.861-.025-2.878-2.702-2.819-2.536,.056-2.697,1.879-2.805,3.841-.126,2.279,.605,3.307,3.085,3.275,2.557-.033,2.53-1.548,2.423-4.298Z"/>
  <path class="cls-2" d="M112.408,204.577c.691,2.639,1.184,4.557,1.696,6.471,.598,2.235,.66,4.901,1.976,6.577,1.325,1.687,4.074,.394,6.182,.651,3.318,.404,5.389,2.178,5.416,4.78,.028,2.672-1.845,4.369-5.469,4.441-6.993,.138-13.99,.091-20.985,.088-14.657-.005-29.314-.02-43.97-.064-1.802-.005-3.569,.072-5.346-.795-2.457-1.199-2.6-3.261-2.271-5.332,.31-1.948,1.73-3.097,3.893-3.012,.997,.039,1.999,0,2.996-.05,4.353-.213,5.32-.954,6.456-5.002,.759-2.706,1.472-5.426,2.213-8.168-1.215-1.102-2.582-.572-3.809-.574-12.658-.018-25.316,.05-37.974,.031-11.573-.017-16.208-4.63-16.217-16.1-.022-29.314,.188-58.63-.148-87.94-.109-9.46,6.713-15.585,15.461-15.54,43.803,.227,87.608,.217,131.411-.035,9.186-.053,15.968,6.267,15.881,15.758-.27,29.31-.063,58.624-.043,87.937,0,.666,.014,1.334-.021,1.998-.455,8.652-5.677,13.866-14.361,13.936-12.324,.1-24.65-.027-36.975-.056-1.82-.004-3.64,0-5.992,0Zm-24.547-29.378c22.819,0,45.638,.007,68.456-.007,4.079-.003,4.099-.043,4.099-4.007-.004-23.318-.006-46.637-.036-69.955-.007-5.885-1.081-6.93-7.025-6.935-43.305-.035-86.611-.06-129.916-.079-5.811-.003-7.118,1.279-7.118,6.949,.002,23.152,.012,46.303,.03,69.455,.003,4.56,.025,4.569,4.552,4.57,22.319,.004,44.638,.002,66.957,.008Zm.504,9.211c0,.008,0,.017,0,.025-2.997,0-5.995,.001-8.992,0-19.65-.01-39.3,.024-58.949-.082-2.809-.015-4.191,.37-4.102,3.725,.167,6.301,.894,7.342,7.133,7.343,29.475,.004,58.949-.016,88.424-.029,14.321-.007,28.643,.031,42.963-.055,4.578-.028,5.761-1.731,5.618-7.332q-.092-3.589-5.152-3.594c-22.314-.002-44.628,0-66.943,0Zm17.698,33.462c-.912-3.697-1.878-7.368-2.704-11.069-.398-1.785-1.363-2.442-3.142-2.435-7.648,.031-15.296-.003-22.944-.041-1.447-.007-2.52,.21-2.922,1.939-.895,3.848-1.969,7.654-2.976,11.5,4.77,.8,29.63,.862,34.689,.106Z"/>
  <path class="cls-1" d="M537.721,236.681c-.805,.179-1.609,.513-2.414,.514-13.164,.024-26.327,.007-39.491-.006-1.005,0-2.003-.066-2.883-.641,1.487-6.049,1.883-12.161,.796-18.305-1.026-5.803-2.577-7.141-8.507-7.825-3.627-.419-7.27-.793-10.786-1.83-4.92-1.451-5.781-2.605-6.029-7.777-.191-3.989-.42-7.977-.533-11.968-.103-3.63-1.698-5.619-5.386-6.57-5.748-1.483-5.02-1.194-2.796-6.262,3.58-8.159,5.827-16.327,5.986-25.442,.19-10.878,4.954-20.219,13.848-27.056,10.513-8.082,22.636-10.259,35.397-8.95,15.003,1.54,27.374,8.413,33.921,22.244,7.565,15.98,7.138,32.254-2.799,47.557-2.536,3.905-5.321,7.647-7.924,11.509-3.346,4.963-4.814,10.442-4.98,16.454-.234,8.492,1.827,16.468,4.581,24.353Zm10.119-83.671c-.348-2.03-.094-4.09-1.115-5.909-2.553-4.543-6.04-8.599-7.186-13.871-6.232-4.835-12.482-9.719-20.567-10.966-2.401-.37-5.066-.476-7.295,.955-1.788,1.147-3.338,.707-5.126,.029-4.204-1.595-8.572-1.791-12.566,.373-3.461,1.874-6.867,3.727-10.577,5.123-3.244,1.221-5.3,3.889-6.172,7.36-.481,1.915-.702,3.935-2.057,5.543-6.321,7.505-1.586,21.011,9.981,22.702,1.57,.23,2.875,.549,3.709,2.052,4.352,7.841,11.105,9.742,19.518,8.193,4.085-.752,7.654-.157,11.235,3.187,7.809,7.293,21.244,4.109,24.255-5.731,1.877-6.134,2.025-12.799,3.964-19.041Z"/>
  <path class="cls-2" d="M270.511,97.6c-5.999,0-12.008,.22-17.996-.041-18.162-.793-31.837-15.857-31.539-34,.126-7.678,2.157-14.712,7.235-20.11,6.24-6.633,13.972-11.334,23.67-11.04,3.117,.094,4.871-1.059,5.885-4.053,3.446-10.175,10.197-17.713,19.494-22.834,21.877-12.05,50.997-3.948,61.41,20.123,1.165,2.693,2.555,3.325,5.117,3.269,8.417-.186,15.665,3.373,21.707,8.606,5.631,4.878,9.363,11.531,10.646,19.03,2.871,16.783-3.937,29.689-17.219,37.123-5.363,3.002-11.192,4.14-17.297,4.121-11.167-.035-22.333-.053-33.5-.035-5.3,.009-4.885-.673-4.905,4.694-.023,6.333-.129,12.669,.014,18.998,.054,2.414-.69,3.385-3.108,3.113-1.152-.13-2.341-.125-3.495-.004-2.44,.255-3.131-.788-3.086-3.167,.125-6.664-.101-13.334,.042-19.997,.058-2.724-.676-3.783-3.576-3.695-6.494,.196-12.998,.061-19.498,.061,0-.054,0-.108,0-.162Zm27.784-9.193c14.984,0,29.967-.004,44.951,.002,6.101,.002,11.43-2.115,15.891-6.173,8.056-7.329,10.552-18.873,6.411-28.779-4.204-10.056-13.134-15.597-24.567-15.244-7.105,.219-7.048,.198-9.488-6.386-2.871-7.749-7.753-13.888-14.986-18.021-19.67-11.24-46.243-1.244-51.277,22.625-1.131,5.36-2.246,6.036-7.46,5.103-9.1-1.627-19.47,3.036-24.058,10.818-9.257,15.702,1.888,35.785,20.133,36.014,14.815,.187,29.634,.038,44.451,.04Z"/>
  <path class="cls-2" d="M537.721,236.681c-2.754-7.886-4.815-15.861-4.581-24.353,.166-6.012,1.634-11.491,4.98-16.454,2.603-3.862,5.388-7.604,7.924-11.509,9.938-15.303,10.364-31.577,2.799-47.557-6.547-13.831-18.918-20.704-33.921-22.244-12.761-1.31-24.884,.868-35.397,8.95-8.894,6.837-13.659,16.178-13.848,27.056-.159,9.115-2.406,17.283-5.986,25.442-2.224,5.069-2.952,4.78,2.796,6.262,3.687,.951,5.283,2.94,5.386,6.57,.113,3.991,.341,7.979,.533,11.968,.248,5.171,1.109,6.326,6.029,7.777,3.516,1.037,7.159,1.411,10.786,1.83,5.93,.684,7.481,2.022,8.507,7.825,1.087,6.145,.691,12.257-.796,18.305-1.187,.77-2.541,.799-3.864,.729-3-.159-4.129-1.396-4.014-4.485,.123-3.325,.266-6.657,.609-9.964,.319-3.08-.592-4.481-3.968-4.676-3.792-.218-7.609-.937-11.294-1.901-6.739-1.762-9.599-5.441-10.152-12.476-.274-3.486-.558-6.981-.567-10.473-.006-2.208-.786-3.428-2.945-3.826-.977-.18-1.955-.416-2.89-.749-5.012-1.782-6.204-4.195-4.44-9.135,.894-2.503,1.86-4.988,2.938-7.417,2.921-6.582,4.766-13.228,4.909-20.642,.419-21.665,15.955-39.791,37.214-44.077,13.15-2.651,26.112-2.084,38.547,3.49,16.042,7.191,24.877,20.027,28.288,36.861,3.33,16.435-.802,31.232-10.486,44.669-.292,.405-.552,.844-.9,1.196-9.27,9.381-9.73,20.525-6.491,32.405,.612,2.244,1.376,4.451,1.914,6.711,.829,3.481,.259,4.248-3.215,4.41-1.477,.069-3.009,.252-4.405-.518Z"/>
  <path class="cls-2" d="M94.132,299.073c-18.495,0-36.99,.062-55.484-.063-3.001-.02-4.73,.607-6.066,3.628-3.399,7.691-14.952,11.933-23.53,7.215-8.368-4.603-11.309-14.489-7.24-23.415,3.038-6.664,8.574-8.962,14.995-9.521,6.726-.587,12.154,2.667,15.297,8.455,1.92,3.535,4.125,4.277,7.781,4.264,36.156-.124,72.313-.091,108.47-.048,1.926,.002,4.778-1.019,5.583,.766,.944,2.094,.393,4.883,.39,7.371-.001,1.006-.797,1.349-1.713,1.361-1.166,.015-2.332,.013-3.498,.013-18.328,0-36.656,0-54.985,0v-.028Zm-76.957,3.299c4.624,.13,8.277-3.42,8.3-8.065,.022-4.476-3.302-7.9-7.79-8.023-4.579-.126-8.332,3.489-8.362,8.054-.028,4.341,3.46,7.91,7.852,8.034Z"/>
  <path class="cls-2" d="M502.397,299.107c-18.646,.002-37.292,.03-55.938-.052-1.425-.006-3.783,1.212-4.167-1.24-.403-2.571-.767-5.379,.366-7.843,.46-1,2.147-.443,3.273-.446,8.823-.024,17.647-.006,26.471,.001,28.135,.022,56.271-.007,84.406,.136,3.441,.017,5.562-.571,7.371-4.008,3.901-7.415,11.78-10.323,19.726-8.117,7.322,2.033,12.899,9.475,12.818,17.104-.08,7.55-5.595,14.667-12.825,16.548-8.02,2.087-15.986-1.104-19.941-8.527-1.476-2.77-3.07-3.654-6.122-3.63-18.478,.143-36.959,.071-55.438,.074Zm84.964-4.681c.027-4.428-3.394-7.97-7.811-8.088-4.643-.123-8.366,3.426-8.417,8.024-.05,4.497,3.268,7.929,7.786,8.055,4.661,.13,8.415-3.424,8.442-7.992Z"/>
  <path class="cls-2" d="M303.235,467.293c.003,16.816,.038,33.632-.031,50.448-.011,2.706,.564,4.341,3.354,5.732,7.984,3.979,11.434,13.942,8.175,22.104-3.363,8.424-12.244,12.45-21.303,10.394-7.43-1.686-10.813-6.857-11.933-13.373-1.523-8.857,.348-14.445,8.722-19.051,2.668-1.468,3.327-2.977,3.322-5.716-.066-32.966-.07-65.932-.01-98.898,.013-7.368-1.472-6.353,6.576-6.631,2.915-.101,3.18,1.203,3.164,3.545-.081,11.987-.038,23.975-.038,35.963,0,5.161,0,10.323,.004,15.484Zm3.322,71.883c0-4.544-3.696-8.393-8.109-8.442-4.334-.048-8.191,3.933-8.137,8.4,.054,4.513,3.889,8.211,8.391,8.092,4.373-.116,7.855-3.684,7.855-8.05Z"/>
  <path class="cls-2" d="M484.996,360.216c-9.64,2.367-16.428-1.866-22.597-8.898-5.805-6.617-12.382-12.564-18.716-18.705-1.303-1.264-2.053-2.535-1.999-4.326,.026-.865,.142-1.554,1.018-2.055,2.539-1.451,7.419-.886,9.601,1.269,6.871,6.786,13.788,13.526,20.531,20.437,2.049,2.1,4.202,2.859,7.067,2.728,4.653-.213,9.326-.222,13.982-.061,3.222,.111,5.213-.571,6.933-3.879,3.361-6.463,9.323-9.365,16.622-8.726,7.132,.625,12.036,4.625,14.641,11.192,3.409,8.594-.399,17.86-8.736,21.85-8.172,3.911-18.21,1.106-22.494-6.937-1.711-3.213-3.556-4.192-6.866-3.938-2.979,.228-5.99,.048-8.987,.048Zm39.01-5.007c-.105-4.479-3.941-8.062-8.481-7.922-4.507,.139-8.208,4.037-7.995,8.419,.211,4.329,3.809,7.688,8.194,7.65,4.581-.04,8.384-3.781,8.282-8.147Z"/>
  <path class="cls-2" d="M422.152,96.103c11.581-.399,17.764,10.783,17.293,18.995-.562,9.809-9.293,16.916-19.354,15.381-2.798-.427-4.173,.39-5.691,2.53-9.231,13.018-18.588,25.945-27.918,38.893-3.258,4.522-3.166,4.34-7.738,1.3-2.51-1.669-3.205-3.044-.972-5.352,.8-.827,1.363-1.882,2.044-2.826,8.847-12.271,17.651-24.572,26.583-36.78,1.626-2.223,2.064-3.746,.531-6.52-6.356-11.497,2.106-25.472,15.221-25.621Zm8.229,17.588c.106-4.543-3.541-8.242-8.178-8.294-4.368-.049-7.844,3.386-7.986,7.891-.14,4.443,3.157,8.006,7.609,8.226,4.661,.23,8.447-3.233,8.555-7.823Z"/>
  <path class="cls-2" d="M126.41,265.571c-7.493,0-14.992,.184-22.475-.078-3.668-.128-5.789,.759-7.72,4.265-4.872,8.843-16.259,11.078-24.701,5.416-8.174-5.482-10.038-16.51-4.162-24.627,7.436-10.272,23.355-9.421,29.161,1.887,1.712,3.334,3.615,3.931,6.864,3.906,15.652-.122,31.305-.062,46.957-.035,3.956,.007,4.009,.061,4.008,4.122,0,5.944,.51,5.081-4.952,5.108-7.659,.038-15.319,.01-22.978,.01,0,.008,0,.017,0,.025Zm-36.862-5.01c-.076-4.526-3.998-8.233-8.474-8.008-4.253,.214-7.837,4.036-7.76,8.277,.079,4.397,3.589,7.84,8.028,7.874,4.741,.036,8.285-3.48,8.207-8.143Z"/>
  <path class="cls-2" d="M353.279,163.826c-.222,1.927-.99,3.512-2.696,4.549-1.808,1.098-3.518,.79-5.101-.437-1.052-.815-2.011-1.747-3.027-2.611-25.421-21.611-62.783-21.548-88.054,.142-1.01,.867-1.968,1.83-3.089,2.523-2.267,1.403-4.573,1.172-6.342-.783-1.771-1.958-1.667-4.285-.203-6.439,.55-.809,1.365-1.453,2.117-2.105,29.656-25.7,72.573-25.868,102.574-.402,1.769,1.501,3.712,2.91,3.819,5.562Z"/>
  <path class="cls-2" d="M195.427,175.059c0-.832-.112-1.681,.019-2.492,.653-4.04-.795-6.48-4.533-8.63-6.797-3.909-9.367-11.713-7.167-19.028,2.344-7.791,9.13-12.766,17.168-12.586,7.5,.167,14.109,5.309,16.176,12.582,2.1,7.388-.777,15.785-7.567,19.423-3.521,1.886-4.172,4.007-4.4,7.63-.352,5.609,.997,10.056,5.514,13.465,.656,.495,1.173,1.175,1.748,1.776,4.191,4.381,4.101,4.278-.649,8.395-1.898,1.645-3.155,1.953-4.866-.104-1.59-1.911-3.365-3.7-5.239-5.336-4.607-4.024-8.139-8.415-6.205-15.095Zm12.998-25.009c.086-4.582-3.587-8.443-8.042-8.455-4.273-.011-7.971,3.564-8.133,7.864-.169,4.482,3.56,8.366,8.066,8.402,4.326,.034,8.029-3.533,8.108-7.812Z"/>
  <path class="cls-2" d="M240.466,415.141c0,2.497,.208,5.016-.044,7.487-.499,4.904,.312,8.339,5.439,11.116,6.349,3.44,8.44,12.594,5.937,19.505-2.606,7.194-9.914,12.161-17.412,11.835-7.71-.336-14.252-5.862-15.969-13.489-1.701-7.555,1.524-15.789,8.407-19.117,3.75-1.813,4.352-4.086,4.216-7.707-.269-7.15-.143-14.315-.149-21.474-.004-4.172,.024-4.172,4.425-4.163,.167,0,.333,.001,.499,.003,5.04,.047,4.582-.448,4.605,4.517,.018,3.829,.004,7.658,.004,11.488h.041Zm3.059,32.052c-.073-4.368-3.578-7.92-7.858-7.966-4.745-.05-8.525,3.849-8.323,8.585,.188,4.391,3.727,7.713,8.146,7.645,4.708-.072,8.114-3.575,8.035-8.264Z"/>
  <path class="cls-2" d="M299.84,162.647c12.273,.262,23.887,5.002,33.981,13.618,.875,.746,1.772,1.604,2.29,2.601,1.099,2.116,.808,4.27-.834,6.002-1.751,1.847-3.831,1.811-5.869,.405-1.092-.754-2.097-1.634-3.142-2.458-17.41-13.725-38.665-13.654-55.97,.183-.909,.727-1.772,1.541-2.771,2.118-2.046,1.182-4.194,1.359-5.949-.455-1.85-1.912-1.946-4.222-.469-6.381,.827-1.211,1.96-2.272,3.126-3.183,10.143-7.921,21.589-12.278,35.606-12.449Z"/>
  <path class="cls-2" d="M561.353,327.308c-.55,6.156-2.338,13.059-4.035,19.985-4.382,17.883-10.539,35.126-18.641,51.661-.675,1.378-.915,3.836-2.963,3.442-2.56-.493-5.058-1.796-6.937-3.69-.959-.967,.4-2.153,.893-3.104,6.374-12.289,11.232-25.175,15.266-38.393,3.208-10.511,5.459-21.244,7.443-32.038,.345-1.875,.392-3.529,3.269-3.058,4.856,.794,5.797,1.248,5.704,5.195Z"/>
  <path class="cls-2" d="M404.782,507.109c-.541,1.777-1.983,2.004-3.122,2.518-9.185,4.15-18.59,7.749-28.235,10.664-12.031,3.637-24.24,6.54-36.69,8.393-1.592,.237-3.323,.12-4.724,1.299-.664,.559-1.602,.509-2.317,0-3.184-2.262,.336-5.44-1.093-8.181-.841-1.613,1.443-1.821,2.632-2.03,4.087-.719,8.21-1.235,12.296-1.959,18.388-3.259,36.061-8.866,53.206-16.226,1.386-.595,3.118-2.401,4.49-.787,1.57,1.848,2.454,4.278,3.556,6.308Z"/>
  <path class="cls-2" d="M452.924,85.025c-2.398,1.608-3.012,5.253-5.793,5.874-2.866,.64-4.171-2.775-6.306-4.197-14.87-9.908-30.421-18.497-46.937-25.339-1.46-.605-3.944-.718-3.91-2.556,.045-2.395,.913-4.881,1.91-7.113,.582-1.302,2.102-.369,3.115,.056,11.782,4.945,23.46,10.128,34.433,16.716,6.386,3.834,12.597,7.962,18.828,12.048,1.642,1.076,3.462,2.053,4.66,4.511Z"/>
  <path class="cls-2" d="M268.153,523.305c-1.226,7.622-.138,6.276-7.052,5.508-4.432-.493-9.133-.722-13.199-1.873-9.503-2.69-19.465-3.792-28.577-7.891-1.657-.745-2.438-1.612-1.622-3.396,.069-.151,.131-.308,.171-.468,1.538-6.107,1.525-6.069,7.622-4.122,12.207,3.899,24.67,6.674,37.369,8.392,.986,.133,1.975,.285,2.94,.523,2.535,.626,2.53,.647,2.349,3.328Z"/>
  <path class="cls-2" d="M298.172,185.801c7.175,.223,13.241,2.179,18.569,6.291,1.199,.925,2.306,1.934,3.084,3.234,1.473,2.461,1.187,5.157-.737,6.816-2.135,1.841-4.336,1.533-6.322-.175-2.799-2.408-5.66-4.662-9.333-5.573-6.018-1.493-11.554-.503-16.527,3.278-.662,.504-1.26,1.094-1.931,1.584-3.124,2.278-5.754,2.343-7.58,.215-1.862-2.17-1.444-5.499,1.19-7.995,3.976-3.768,8.839-5.865,14.128-6.987,1.946-.413,3.959-.507,5.458-.687Z"/>
  <path class="cls-2" d="M206.704,58.347c.572,2.016-1.16,2.087-2.268,2.512-7.144,2.737-14.138,5.802-20.928,9.332-3.243,1.686-6.595,3.182-9.739,5.035-2.766,1.629-4.395,1.501-6.391-1.461-2.858-4.239-3.194-4.009,1.29-6.554,10.115-5.742,20.532-10.852,31.493-14.776,4.617-1.653,4.344-2.601,5.819,3.011,.253,.964,.483,1.935,.724,2.902Z"/>
  <path class="cls-2" d="M34.989,325.619c-.549-1.469,.027-2.108,1.126-2.482,.309-.105,.571-.347,.88-.455,5.579-1.958,6.732-1.351,7.889,4.468,2.003,10.081,4.152,20.13,7.421,29.884,.995,2.969,.616,4.695-2.601,5.384-.637,.136-1.238,.472-1.836,.757-2.329,1.112-3.969,1.089-4.608-2.032-.595-2.909-1.715-5.707-2.467-8.59-2.345-8.979-4.411-18.022-5.803-26.933Z"/>
  <path class="cls-2" d="M309.662,218.951c.095,6.048-4.83,11.169-10.892,11.326-6.03,.156-11.283-4.787-11.444-10.771-.171-6.369,4.748-11.754,10.886-11.917,6.121-.162,11.351,5.027,11.45,11.362Z"/>
  <path class="cls-2" d="M37.95,266.154c-4.487-.104-4.267-.087-3.933-4.389,.475-6.115,2.767-11.958,2.514-18.188-.047-1.149,1.151-2.298,1.532-3.523,1.816-5.838,1.744-5.735,7.555-3.562,2.264,.847,2.415,1.904,1.972,4.091-1.402,6.911-3.804,13.639-3.359,20.911,.19,3.101-2.543,4.746-6.281,4.659Z"/>
  <path class="cls-2" d="M563.176,262.671c.201,1.354-.277,2.13-1.662,2.579-6.542,2.121-7.246,1.73-8.482-5.126-.383-2.124-.748-4.253-1.043-6.39-.237-1.723-1.763-4.038,.076-5.04,2.077-1.132,4.716-1.572,7.238-1.491,1.046,.034,1.146,1.057,1.297,1.84,.877,4.539,1.721,9.085,2.576,13.629Z"/>
  <path class="cls-2" d="M559.928,99.202c-.099,.392-.104,.944-.359,1.333-2.446,3.744-5.229,7.249-8.71,10.049-1.625,1.307-3.563,.408-4.985-.846-1.527-1.346-2.029-3.411-.879-4.952,2.427-3.25,5.219-6.238,7.97-9.232,1.41-1.535,3.136-.569,4.639-.046,1.599,.557,1.768,2.238,2.323,3.694Z"/>
  <path class="cls-2" d="M504.707,86.3c0-1.328,.141-2.675-.031-3.981-.303-2.298,.262-3.791,2.798-4.235,2.598-.455,4.955,.275,5.515,2.744,.952,4.194,.836,8.601,.015,12.82-.415,2.13-2.558,2.724-4.796,2.646-2.412-.085-3.124-1.756-3.362-3.528-.286-2.119-.067-4.307-.067-6.465-.024,0-.047,0-.071,0Z"/>
  <path class="cls-2" d="M469.71,111.235c-1.675-.048-2.701-1.13-3.628-2.328-1.927-2.49-3.817-5.009-5.742-7.501-1.39-1.798-1.824-3.48,.012-5.353,1.822-1.859,4.003-2.215,5.778-.684,3.382,2.919,6.003,6.615,7.901,10.641,1.145,2.429-1.55,5.383-4.321,5.225Z"/>
  <path class="cls-2" d="M576.537,147.458c-1.486,0-2.978,.082-4.458-.018-2.795-.188-4.598-1.886-4.376-4.285,.223-2.411,1.506-3.965,4.154-3.982,3.137-.02,6.275-.108,9.411-.066,2.607,.035,4.003,1.622,4.045,4.067,.042,2.409-1.251,4.1-3.825,4.313-1.64,.136-3.3,.025-4.952,.025,0-.018,0-.036,0-.054Z"/>
  <path class="cls-3" d="M293.409,358.301c-30.057-12.33-60.4-13.77-91.115-5.731-1.092-.978-.775-2.03-.776-2.968-.049-35.493-.085-70.985-.099-106.478-.002-4.911,.045-4.951,4.964-5.891,24.765-4.734,49.333-4.453,73.577,3.087,3.006,.935,5.873,2.306,8.834,3.393,3.557,1.305,4.801,3.535,4.769,7.536-.227,27.993-.141,55.988-.153,83.982-.003,7.608,0,15.216,0,23.07Zm-10.815-45.198c0-2.118-.167-3.787,.036-5.41,.389-3.118-.468-5.168-3.898-5.573-.809-.096-1.578-.502-2.375-.734-18.321-5.356-36.976-6.07-55.834-4.043-5.196,.559-5.202,.51-5.125,6.036q.058,4.224,4.045,3.672c21.257-2.932,42.101-1.391,63.152,6.052Zm-.072-45.874c0-2.717-.179-4.723,.045-6.683,.287-2.517-.876-3.667-3.121-4.197-1.129-.266-2.225-.668-3.34-.997-17.825-5.267-35.988-5.926-54.351-4.066-6.695,.678-6.762,.789-6.511,7.401,.086,2.267,.79,2.934,2.948,2.487,5.891-1.22,11.904-1.371,17.871-1.528,15.748-.412,31.161,1.647,46.46,7.582Zm-.218,68.837c.092-1.258,.236-2.238,.223-3.217-.105-7.987,1.204-6.403-6.377-8.636-17.315-5.1-34.972-5.972-52.853-4.026-9.29,1.011-7.998-.392-7.658,9.44,.005,.137,.185,.269,.454,.637,22.308-2.964,44.532-2.756,66.21,5.802Zm-.074-45.952c.7-2.355,.233-4.367,.455-6.329,.29-2.569-.609-4.132-3.29-4.548-.973-.151-1.901-.583-2.857-.857-18.155-5.206-36.627-5.957-55.312-4.045-6.054,.62-5.926,.483-5.959,6.815-.014,2.722,.717,3.35,3.41,2.945,21.546-3.241,42.709-1.989,63.555,6.018Z"/>
  <path class="cls-3" d="M394.9,352.823c-31.129-8.415-61.549-6.992-91.267,5.419-.733-1.165-.448-2.353-.449-3.486-.041-34.163,.06-68.327-.223-102.488-.042-5.081,1.939-7.415,6.211-9.197,12.131-5.06,24.825-7.608,37.833-8.49,15.007-1.017,29.961-.328,44.765,2.681,2.455,.499,3.705,1.134,3.69,4.069-.181,36.496-.215,72.992-.299,109.488-.001,.642-.163,1.283-.261,2.003Zm-14.035-45.419c.62-1.579,.368-3.083,.38-4.54,.041-4.757,.024-4.813-4.81-5.316-8.777-.914-17.578-1.5-26.404-1.037-11.157,.585-22.126,2.267-32.83,5.635-2.702,.85-3.962,2.061-3.462,4.906,.142,.807-.01,1.661,.029,2.492,.159,3.388,.189,3.452,3.465,2.357,15.836-5.295,32.089-7.054,48.698-5.794,4.943,.375,9.878,.855,14.934,1.297Zm.458-27.288c-.018-4.994-.008-5.074-4.041-5.548-19.835-2.332-39.455-1.414-58.758,4.037q-4.925,1.391-4.819,6.831c.084,4.437,.075,4.408,4.357,3.062,19.182-6.029,38.72-7.463,58.589-4.462,4.697,.709,4.69,.755,4.673-3.92Zm-66.937-13.561c.568-.025,.898,.032,1.176-.063,17.385-5.957,35.211-8.151,53.521-6.369,3.14,.306,6.299,.365,9.409,1.002,.909,.186,2.427,.54,2.569-.638,.296-2.444,.425-5.018-.046-7.407-.311-1.576-2.433-1.399-3.841-1.554-18.815-2.076-37.475-1.778-55.832,3.561-8.062,2.345-8.091,2.248-7.298,10.727,.014,.151,.13,.292,.342,.742Zm-.268,69.122c22.009-7.966,44.214-8.461,66.583-5.447,.912-1.837,.294-3.55,.603-5.149,.643-3.323-1.072-4.272-4.009-4.622-18.672-2.224-37.224-1.777-55.419,3.201-9.404,2.573-8.342,.134-7.758,12.016Z"/>
  <path class="cls-1" d="M179.265,312.349c0-18.992,.001-37.984,0-56.976q0-5.028,5.171-4.995,7.688,.049,7.713,7.552c.055,32.653,.102,65.306,.152,97.958,.002,1-.046,2.001,.004,2.998,.246,4.918,3.104,6.896,7.747,4.982,5.729-2.362,11.657-3.856,17.726-4.893,25.955-4.434,51.044-1.675,74.932,9.605,4.07,1.922,7.253,2.049,11.212,.018,13.974-7.169,29.036-10.416,44.616-11.278,16.415-.908,32.586,.379,48.058,6.533,5.187,2.063,8.003-.915,7.972-5.75-.218-33.984-.092-67.971-.076-101.956,0-1,.059-2.006-.032-2.997-.198-2.141,.717-2.829,2.856-2.967,10.057-.653,10.061-.717,10.056,9.233-.016,36.151-.037,72.303-.057,108.454,0,.666,.002,1.333-.005,1.999-.049,4.531-.05,4.578-4.666,4.578-28.821,.004-57.642-.014-86.463-.024-1.833,0-3.665-.006-5.498,.007q-5.065,.035-6.859,4.823c-2.467,6.582-10.546,10.434-18.748,8.866-5.908-1.13-10.666-3.785-12.45-10.034-.77-2.697-2.605-3.656-5.235-3.633-3.165,.027-6.33-.034-9.496-.033-27.822,.012-55.643,.032-83.465,.045-5.084,.002-5.102-.006-5.104-5.139-.008-18.992-.003-37.984-.003-56.977h-.059Z"/>
  <path class="cls-1" d="M137.29,442.566c0,21.989,.001,43.978-.001,65.967q0,4.619-4.577,4.623c-6.33,.007-12.662-.068-18.99,.065-2.401,.051-3.235-.793-3.175-3.169,.117-4.661-.057-9.329,.029-13.992,.04-2.158-.779-3.068-2.93-2.876-.991,.089-2.006,.092-2.996-.008-2.517-.254-3.6,.662-3.489,3.346,.179,4.324-.09,8.667,.104,12.989,.126,2.796-.743,3.809-3.642,3.708-6.157-.214-12.325-.074-18.489-.122-4.39-.034-4.44-.066-4.452-4.487-.045-17.158-.077-34.316-.072-51.474,.007-26.82,.045-53.64,.073-80.46,.006-5.321-.823-5.235,4.963-5.224,17.658,.034,35.316,.033,52.974,.069,4.61,.009,4.622,.048,4.623,4.577,.005,22.156,.002,44.312,.002,66.467h.044Zm-45.111-30.811q-.013-5.133-5.001-5.13c-4.782,.003-4.823,.004-4.771,4.819,.064,5.955-.941,5.596,4.948,5.633,4.837,.031,4.837,.01,4.824-5.322Zm9.021-.327q.006,5.847,5.745,5.794c.333-.003,.67-.03,.999,.007,2.241,.255,3.517-.442,3.297-2.992-.142-1.653-.02-3.328-.031-4.993-.005-.851-.089-1.852-.927-2.161-2.564-.948-5.354-.874-7.847-.226-2.383,.62-.754,3.188-1.236,4.571Zm9.993,43.586c-.127-5.949,.558-5.284-5.311-5.348-5.74-.062-4.59,.237-4.661,6.012-.055,4.473,.009,4.474,5.234,4.443q4.76-.028,4.738-5.107Zm-28.908-.625c.098,5.928-.768,5.629,5.108,5.677,4.868,.04,4.868,.012,4.865-5.018q-.003-5.428-5.01-5.448-4.962-.02-4.963,4.788Zm.018-64.381c.041,5.922-.362,5.131,5.514,5.192,4.357,.045,4.358-.002,4.359-4.29q.002-5.718-5.026-5.737-4.851-.018-4.847,4.835Zm18.937-.021q-.016,5.227,4.964,5.23,4.951,.003,4.971-4.725,.022-5.207-4.469-5.238-5.451-.037-5.465,4.733Zm-14.287,48.424q5.289,.045,5.311-4.436c.027-5.615,.027-5.642-4.586-5.628-5.6,.017-5.286-.607-5.328,4.925q-.038,5.1,4.603,5.139Zm14.338-5.416q-.016,5.322,4.309,5.354,5.55,.041,5.553-5.155,.003-4.833-4.823-4.838-5.025-.005-5.039,4.639Zm-18.93,43.274q-.02,5.09,4.492,5.13,5.318,.047,5.324-4.834c.006-5.098,.006-5.129-4.525-5.123-5.625,.007-5.264-.63-5.291,4.828Zm28.811,.348q.018-5.318-4.382-5.354-5.608-.046-5.643,4.58-.043,5.617,5.112,5.616,4.897,0,4.913-4.843Zm18.361-64.124c-.051-6.009,.344-5.213-5.386-5.29-4.529-.061-4.53-.017-4.537,4.63q-.008,5.385,4.979,5.374,4.938-.011,4.944-4.713Zm-9.361-22.639q-.042,5.336,4.271,5.395,5.039,.068,5.065-4.56,.03-5.387-4.225-5.411-5.075-.029-5.111,4.576Zm.031,43.412q.033,5.107,5.112,5.064,4.332-.037,4.285-5.375-.041-4.596-5.132-4.562-4.297,.029-4.265,4.873Zm9.338,43.705q-.002-5.698-5.196-5.699c-4.197,0-4.269,0-4.216,4.415,.021,1.756-.939,4.168,.622,5.146,2.248,1.408,5.207,.923,7.685,.313,2.083-.512,.745-2.855,1.104-4.176Zm.017-22.755c-1.291-.834,2.125-4.492-2.428-4.412-6.848,.12-6.849,.084-6.908,4.51q-.069,5.15,4.924,5.175,4.373,.022,4.413-5.273Z"/>
  <path class="cls-1" d="M182.134,468.339c0,13.328,0,26.656,0,39.984,0,4.768-.003,4.794-4.6,4.805-8.83,.021-17.66,.028-26.49,0-4.376-.014-4.418-.055-4.44-4.504-.039-7.997-.043-15.994-.019-23.991,.012-4.21,.052-4.226,4.512-4.222,6.497,.006,12.999-.081,19.491,.115,2.878,.087,3.967-.942,3.628-3.728-.1-.821-.095-1.674,.005-2.495,.299-2.464-.851-3.168-3.178-3.125-6.496,.121-12.994,.072-19.492,.082q-5.062,.008-5.034-5.226c.003-.5,.048-1.005-.008-1.499-.276-2.452,.898-3.139,3.217-3.093,6.829,.138,13.661,.134,20.491,.097,1.373-.008,3.455,.736,3.838-1.227,.467-2.389,.788-5.009-.284-7.331-.555-1.203-2.115-.644-3.228-.652-6.497-.049-12.995-.016-19.492-.057-4.477-.028-4.477-.062-4.482-4.733,0-.666,.065-1.34-.011-1.998-.276-2.403,.781-3.181,3.149-3.15,6.829,.087,13.661-.004,20.491-.063,4.091-.035,4.091-.067,4.125-4.058,.043-4.955,.043-4.973-4.753-5.01-6.164-.047-12.329-.047-18.493-.092-4.52-.033-4.52-.051-4.504-4.721,.002-.5,.03-1.003-.015-1.499-.168-1.856,.555-2.756,2.526-2.75,10.163,.034,20.326,.055,30.488-.029,2.877-.024,2.643,1.815,2.638,3.682-.025,9.497-.043,18.993-.058,28.49-.007,3.998-.001,7.997-.001,11.995h-.018Z"/>
  <path class="cls-1" d="M30.34,468.849c0-13.495-.013-26.99,.008-40.485,.006-4.061,.05-4.111,4.094-4.122,8.997-.024,17.995,.115,26.989-.046,2.951-.053,4.14,.608,4.008,3.839-.212,5.19,.011,5.214-5.097,5.238-6.164,.029-12.333,.17-18.491-.017-2.934-.089-3.891,1.023-3.556,3.75,.101,.82,.076,1.67,0,2.496-.195,2.148,.693,2.911,2.879,2.878,6.329-.094,12.662-.019,18.992,.037,5.788,.052,5.177-.49,5.222,5.524,.003,.333-.034,.671,.009,.999,.333,2.55-.664,3.522-3.326,3.456-6.327-.156-12.662-.1-18.991-.001-1.537,.024-3.813-.955-4.455,1.009-.756,2.315-.74,4.979,.053,7.357,.428,1.282,2.037,.793,3.148,.793,6.498,.001,12.995-.079,19.493-.065,4.055,.008,4.056,.06,4.099,4.124,.007,.666-.08,1.343,.005,1.997,.365,2.803-.763,3.785-3.625,3.701-6.492-.192-12.994-.129-19.491-.053-1.334,.015-3.43-.823-3.747,1.308-.358,2.406-.844,5.016,.348,7.313,.595,1.148,2.137,.615,3.253,.621,6.331,.032,12.662-.005,18.993-.011,4.195-.004,4.243,.002,4.256,3.953,.028,8.497-.05,16.994,.034,25.49,.022,2.267-.553,3.314-3.068,3.281-9.662-.127-19.327-.186-28.988-.036-3.151,.049-2.998-1.721-2.994-3.841,.026-13.495,.013-26.99,.013-40.485h-.067Z"/>
  <path class="cls-1" d="M551.593,437.896c-9.879,4.497-18.948,8.603-27.998,12.75-10.572,4.845-21.15,9.677-31.669,14.634-2.155,1.016-3.905,.943-6.069-.045-19.192-8.764-38.44-17.405-57.665-26.096-.437-.197-.805-.548-1.472-1.014,2.025-1.9,4.571-2.502,6.825-3.578,16.346-7.803,32.779-15.427,49.031-23.418,4.374-2.151,7.891-2.396,12.447-.154,16.993,8.365,34.239,16.216,51.384,24.274,1.491,.701,2.937,1.495,5.185,2.647Z"/>
  <path class="cls-3" d="M581.076,498.315c-.004,8.821,.009,17.642-.01,26.463-.009,4.245-.037,4.287-4.447,4.283-12.482-.01-24.965-.122-37.447-.039-2.637,.018-3.811-.427-3.79-3.476,.125-18.14,.12-36.283-.05-54.423-.03-3.249,1.126-3.818,4.046-3.781,12.647,.16,25.299,.21,37.945,.022,3.236-.048,3.873,1.051,3.818,3.989-.168,8.984-.061,17.974-.065,26.961Z"/>
  <path class="cls-1" d="M450.479,459.058c11.323,5.204,21.826,9.783,32.083,14.858,4.585,2.269,8.401,2.425,13.06,.035,9.88-5.068,20.08-9.51,30.686-14.459,0,8.94-.022,17.359,.017,25.777,.009,1.836-1.344,2.023-2.57,2.499-4.371,1.697-8.967,2.471-13.559,3.156-18.129,2.702-36.104,2.64-53.697-3.363q-6.033-2.058-6.021-8.255c.008-6.478,.002-12.956,.002-20.248Z"/>
  <path class="cls-1" d="M545.029,547.288c-1.487,0-2.989,.136-4.455-.036-1.683-.197-4.05,1.005-4.878-1.122-.821-2.11-.526-4.581-.147-6.856,.202-1.208,1.503-1.06,2.464-1.061,4.625-.007,9.249,.042,13.874,.017,1.569-.008,2.526,.452,2.449,2.229-.064,1.484-.059,2.974-.007,4.458,.059,1.678-.684,2.387-2.363,2.341-2.31-.064-4.624-.016-6.936-.016v.046Z"/>
  <path class="cls-1" d="M572.186,538.289c1.659,0,3.319-.022,4.977,.005q3.959,.065,4.01,4.217,.059,4.83-4.931,4.85c-3.484,.007-6.972-.114-10.452,.005-2.241,.077-3.516-.466-3.226-3.019,.149-1.311,.044-2.652,.034-3.979-.011-1.437,.673-2.106,2.121-2.089,2.488,.029,4.977,.008,7.466,.009Z"/>
  <path class="cls-1" d="M423.038,480.093c.108,2.749,.135,4.265-2.423,4.298-2.48,.032-3.211-.996-3.085-3.275,.109-1.963,.27-3.786,2.805-3.841,2.678-.059,2.642,1.958,2.702,2.819Z"/>
  <path class="cls-3" d="M87.861,175.196c-22.319-.003-44.638-.001-66.957-.005-4.528,0-4.549-.01-4.552-4.57-.018-23.152-.028-46.303-.03-69.455,0-5.671,1.307-6.952,7.118-6.949,43.305,.02,86.611,.045,129.916,.079,5.943,.005,7.017,1.05,7.025,6.935,.029,23.318,.032,46.637,.036,69.955,0,3.963-.019,4.004-4.099,4.007-22.819,.014-45.638,.007-68.456,.004Zm28.806-49.618c-.098-.368-.197-.735-.295-1.103,2.52-2.091,4.9-4.332,7.727-6.078,1.663-1.028,2.612-2.359,1.71-4.584-2.804-6.913-16.497-14.212-23.443-12.228-2.19,.625-3.959,2.222-6.247,2.893-9.713,2.847-15.332,9.802-17.424,19.342-.78,3.558-1.656,5.383-5.448,4.919-2.743-.335-3.24,1.187-3.172,3.611,.144,5.155-.001,10.317-.006,15.476-.004,5.163-.816,4.591,4.771,4.882,2.905,.152,3.696-.882,3.566-3.631-.197-4.158-.051-8.333-.051-12.5,1.649,1.889,2.531,3.841,3.61,5.678,5.535,9.421,16.987,14.162,27.486,11.438,11.686-3.032,19.574-12.191,20.004-23.227,.157-4.03-.362-4.683-4.379-4.864-2.797-.126-5.604-.024-8.407-.024Zm-27.805,41.687v-.015c10.831,0,21.663,.033,32.494-.014,5.344-.024,4.88,.915,5.089-5.107,.095-2.738-.609-3.704-3.538-3.691-22.495,.096-44.99,.007-67.486,.01-3.756,0-3.756,.078-3.761,4.392-.005,4.34-.005,4.403,3.708,4.414,11.164,.033,22.329,.012,33.494,.012Zm-27.603-24.779h-.075c0-2.327-.126-4.662,.035-6.977,.163-2.33-.554-3.465-3.045-3.131-.98,.131-1.996,.087-2.988,.017-1.842-.13-2.734,.51-2.712,2.52,.055,5.151-.038,10.303-.068,15.454-.004,.66-.103,1.565,.524,1.804,2.379,.905,4.919,.767,7.302,.237,1.715-.382,.937-2.228,.996-3.444,.105-2.155,.029-4.319,.029-6.48Z"/>
  <path class="cls-1" d="M88.365,184.41c22.314,0,44.628-.001,66.943,0q5.06,0,5.152,3.594c.143,5.601-1.04,7.304-5.618,7.332-14.321,.086-28.642,.049-42.963,.055-29.475,.013-58.949,.033-88.424,.029-6.239,0-6.966-1.042-7.133-7.343-.089-3.356,1.293-3.741,4.102-3.725,19.649,.106,39.299,.072,58.949,.082,2.997,.002,5.995,0,8.992,0,0-.008,0-.017,0-.025Z"/>
  <path class="cls-1" d="M106.062,217.872c-5.059,.756-29.918,.694-34.689-.106,1.007-3.845,2.081-7.652,2.976-11.5,.402-1.728,1.475-1.946,2.922-1.939,7.648,.038,15.296,.072,22.944,.041,1.78-.007,2.744,.65,3.142,2.435,.826,3.701,1.792,7.372,2.704,11.069Z"/>
  <path class="cls-2" d="M547.839,153.01c-1.938,6.242-2.086,12.907-3.964,19.041-3.011,9.84-16.446,13.024-24.255,5.731-3.581-3.344-7.15-3.94-11.235-3.187-8.413,1.549-15.166-.352-19.518-8.193-.834-1.503-2.139-1.822-3.709-2.052-11.567-1.692-16.302-15.198-9.981-22.702,1.355-1.608,1.576-3.628,2.057-5.543,.872-3.471,2.928-6.14,6.172-7.36,3.71-1.396,7.117-3.249,10.577-5.123,3.995-2.164,8.362-1.968,12.566-.373,1.787,.678,3.338,1.118,5.126-.029,2.229-1.43,4.894-1.325,7.295-.955,8.085,1.247,14.336,6.131,20.567,10.966,1.147,5.272,4.633,9.328,7.186,13.871,1.022,1.819,.767,3.879,1.115,5.909Zm-10.828,14.867c-.842-.61-1.566,.097-2.338,.225-4.039,.668-7.885,.038-10.31-3.397-1.754-2.485-3.548-3.683-6.535-3.242-2.89,.427-3.197-1.521-3.312-3.72-.129-2.473,1.456-2.616,3.24-2.62,1.83-.004,3.669,.085,5.489-.057,2.447-.19,3.966,.557,4.931,3.041,1.211,3.119,3.719,4.003,6.773,2.937,3.787-1.321,6.095-5.365,5.477-9.599-.58-3.977-1.75-4.488-4.975-2.161-.674,.486-1.268,1.1-1.983,1.508-2.135,1.219-4.299,.634-5.467-1.425-1.215-2.142-.784-3.647,1.57-4.715,1.176-.533,2.182-1.498,3.169-2.375,1.175-1.043,2.015-2.355,1.312-3.97-.764-1.755-2.001-2.99-4.124-3.113-2.996-.172-3.885,.737-4.269,4.642-.719,7.311-3.943,10.429-11.203,10.473-4.008,.024-7.88,1.014-11.865,1.278-4.778,.317-7.752,4.486-7.344,9.053,.36,4.019,3.604,6.796,8.33,6.86,3.99,.054,7.988-.057,11.974-.262,2.318-.12,4.171,.408,5.761,2.213,2.016,2.288,4.545,3.894,7.583,4.514,4.258,.869,7.483-1.568,8.116-6.087Zm-56.841-17.908c-.016,2.483,.882,4.567,2.857,6.085,2.748,2.112,4.704,1.752,6.091-1.428,2.938-6.738,8.451-9.473,15.29-10.303,3.296-.4,6.603-.707,9.902-1.079,2.445-.276,4.544-1.392,3.683-4.098-1.014-3.189-.095-5.047,2.573-6.61,1.567-.918,.789-1.965-.268-2.689-3.185-2.184-7.317-.254-7.762,3.604-.095,.823-.114,1.668-.05,2.494,.188,2.43-1.151,3.14-3.312,3.313-2.386,.191-3.363-1.012-3.578-3.122-.118-1.154-.14-2.33-.074-3.489,.118-2.079-.968-3.137-2.868-3.353-1.779-.202-3.89-.761-5.083,.999-1.194,1.761,.956,2.512,1.751,3.603,1.377,1.889,1.604,3.534-.296,5.247-1.92,1.732-3.492,1.522-5.023-.475-.604-.788-1.344-1.476-2.055-2.176-2.082-2.047-5.363-2.131-6.832-.038-1.86,2.65,.485,3.393,2.182,4.389,1.818,1.067,2.522,2.387,1.537,4.554-1.115,2.451-2.538,1.714-4.446,1.137-3.154-.952-4.214,.07-4.218,3.435Z"/>
  <path class="cls-1" d="M298.295,88.405c-14.817,0-29.636,.148-44.451-.039-18.244-.23-29.39-20.313-20.133-36.014,4.588-7.782,14.958-12.445,24.058-10.818,5.214,.932,6.329,.257,7.46-5.103,5.034-23.869,31.607-33.866,51.277-22.625,7.233,4.133,12.115,10.272,14.986,18.021,2.44,6.584,2.383,6.605,9.488,6.386,11.433-.353,20.364,5.189,24.567,15.244,4.141,9.905,1.645,21.45-6.411,28.779-4.461,4.058-9.79,6.176-15.891,6.173-14.984-.006-29.967-.002-44.951-.003Z"/>
  <path class="cls-3" d="M17.175,302.372c-4.392-.123-7.88-3.693-7.852-8.034,.03-4.565,3.782-8.18,8.362-8.054,4.488,.123,7.812,3.546,7.79,8.023-.023,4.645-3.676,8.195-8.3,8.065Z"/>
  <path class="cls-3" d="M587.361,294.425c-.027,4.567-3.782,8.121-8.442,7.992-4.518-.126-7.835-3.558-7.786-8.055,.051-4.598,3.774-8.148,8.417-8.024,4.417,.117,7.838,3.659,7.811,8.088Z"/>
  <path class="cls-3" d="M306.557,539.176c0,4.366-3.482,7.934-7.855,8.05-4.502,.12-8.337-3.579-8.391-8.092-.053-4.467,3.803-8.448,8.137-8.4,4.413,.049,8.11,3.897,8.109,8.442Z"/>
  <path class="cls-3" d="M524.005,355.209c.102,4.366-3.701,8.107-8.282,8.147-4.385,.038-7.983-3.321-8.194-7.65-.213-4.382,3.488-8.28,7.995-8.419,4.54-.14,8.377,3.444,8.481,7.922Z"/>
  <path class="cls-3" d="M430.381,113.691c-.107,4.591-3.893,8.053-8.555,7.823-4.452-.22-7.749-3.784-7.609-8.226,.142-4.506,3.618-7.94,7.986-7.891,4.637,.052,8.284,3.751,8.178,8.294Z"/>
  <path class="cls-3" d="M89.548,260.561c.078,4.663-3.466,8.179-8.207,8.143-4.438-.034-7.949-3.477-8.028-7.874-.076-4.241,3.507-8.063,7.76-8.277,4.476-.225,8.398,3.482,8.474,8.008Z"/>
  <path class="cls-3" d="M208.425,150.05c-.08,4.279-3.782,7.846-8.108,7.812-4.506-.036-8.235-3.92-8.066-8.402,.162-4.3,3.859-7.875,8.133-7.864,4.455,.012,8.127,3.873,8.042,8.455Z"/>
  <path class="cls-3" d="M243.524,447.193c.079,4.689-3.327,8.192-8.035,8.264-4.419,.068-7.958-3.254-8.146-7.645-.203-4.735,3.578-8.635,8.323-8.585,4.28,.045,7.784,3.598,7.858,7.966Z"/>
  <path class="cls-2" d="M282.594,313.103c-21.052-7.443-41.895-8.984-63.152-6.052q-3.987,.55-4.045-3.672c-.076-5.526-.071-5.478,5.125-6.036,18.859-2.027,37.513-1.313,55.834,4.043,.796,.233,1.566,.639,2.375,.734,3.431,.406,4.287,2.455,3.898,5.573-.202,1.623-.036,3.292-.036,5.41Z"/>
  <path class="cls-2" d="M282.522,267.229c-15.299-5.935-30.712-7.995-46.46-7.582-5.966,.156-11.98,.308-17.871,1.528-2.158,.447-2.862-.22-2.948-2.487-.252-6.612-.184-6.723,6.511-7.401,18.364-1.86,36.527-1.201,54.351,4.066,1.114,.329,2.211,.731,3.34,.997,2.245,.529,3.408,1.679,3.121,4.197-.223,1.96-.045,3.967-.045,6.683Z"/>
  <path class="cls-2" d="M282.304,336.066c-21.678-8.558-43.902-8.766-66.21-5.802-.269-.368-.449-.499-.454-.637-.34-9.833-1.632-8.43,7.658-9.44,17.88-1.945,35.538-1.074,52.853,4.026,7.581,2.233,6.272,.649,6.377,8.636,.013,.978-.132,1.959-.223,3.217Z"/>
  <path class="cls-2" d="M282.23,290.114c-20.846-8.006-42.009-9.258-63.555-6.018-2.692,.405-3.424-.223-3.41-2.945,.033-6.332-.095-6.195,5.959-6.815,18.685-1.912,37.157-1.161,55.312,4.045,.957,.274,1.884,.706,2.857,.857,2.681,.416,3.58,1.979,3.29,4.548-.222,1.961,.246,3.974-.455,6.329Z"/>
  <path class="cls-2" d="M380.865,307.404c-5.056-.442-9.991-.922-14.934-1.297-16.609-1.261-32.862,.498-48.698,5.794-3.276,1.095-3.306,1.031-3.465-2.357-.039-.83,.113-1.685-.029-2.492-.5-2.845,.759-4.056,3.462-4.906,10.704-3.369,21.674-5.05,32.83-5.635,8.825-.463,17.627,.123,26.404,1.037,4.834,.503,4.85,.559,4.81,5.316-.012,1.457,.24,2.961-.38,4.54Z"/>
  <path class="cls-2" d="M381.323,280.117c.016,4.675,.023,4.629-4.673,3.92-19.868-3.001-39.407-1.566-58.589,4.462-4.282,1.346-4.273,1.374-4.357-3.062q-.103-5.431,4.819-6.831c19.303-5.452,38.923-6.37,58.758-4.037,4.033,.474,4.024,.554,4.041,5.548Z"/>
  <path class="cls-2" d="M314.386,266.556c-.211-.45-.327-.591-.342-.742-.793-8.479-.764-8.382,7.298-10.727,18.357-5.339,37.017-5.637,55.832-3.561,1.408,.155,3.53-.021,3.841,1.554,.471,2.389,.341,4.963,.046,7.407-.142,1.178-1.66,.824-2.569,.638-3.109-.637-6.269-.697-9.409-1.002-18.311-1.782-36.136,.412-53.521,6.369-.278,.095-.608,.037-1.176,.063Z"/>
  <path class="cls-2" d="M314.118,335.678c-.584-11.882-1.646-9.443,7.758-12.016,18.195-4.978,36.747-5.426,55.419-3.201,2.937,.35,4.652,1.299,4.009,4.622-.309,1.599,.309,3.312-.603,5.149-22.369-3.015-44.574-2.519-66.583,5.447Z"/>
  <path class="cls-2" d="M92.18,411.755c.013,5.332,.013,5.353-4.824,5.322-5.888-.037-4.883,.321-4.948-5.633-.052-4.815-.011-4.815,4.771-4.819q4.988-.003,5.001,5.13Z"/>
  <path class="cls-2" d="M101.201,411.428c.482-1.384-1.148-3.952,1.236-4.571,2.493-.648,5.283-.722,7.847,.226,.838,.31,.922,1.311,.927,2.161,.011,1.665-.111,3.34,.031,4.993,.22,2.549-1.056,3.247-3.297,2.992-.329-.037-.666-.01-.999-.007q-5.74,.053-5.745-5.794Z"/>
  <path class="cls-2" d="M111.194,455.013q.022,5.078-4.738,5.107c-5.225,.031-5.289,.03-5.234-4.443,.071-5.775-1.08-6.074,4.661-6.012,5.87,.064,5.184-.6,5.311,5.348Z"/>
  <path class="cls-2" d="M82.285,454.389q0-4.808,4.963-4.788,5.006,.02,5.01,5.448c.003,5.029,.003,5.058-4.865,5.018-5.876-.048-5.009,.251-5.108-5.677Z"/>
  <path class="cls-2" d="M82.303,390.008q-.004-4.853,4.847-4.835,5.028,.019,5.026,5.737c-.001,4.288-.002,4.335-4.359,4.29-5.876-.061-5.473,.729-5.514-5.192Z"/>
  <path class="cls-2" d="M101.241,389.987q.014-4.77,5.465-4.733,4.492,.03,4.469,5.238-.02,4.728-4.971,4.725-4.979-.003-4.964-5.23Z"/>
  <path class="cls-2" d="M86.953,438.412q-4.632-.039-4.603-5.139c.042-5.531-.272-4.907,5.328-4.925,4.613-.014,4.613,.013,4.586,5.628q-.022,4.481-5.311,4.436Z"/>
  <path class="cls-2" d="M101.291,432.995q.014-4.644,5.039-4.639,4.826,.005,4.823,4.838-.004,5.196-5.553,5.155-4.325-.032-4.309-5.354Z"/>
  <path class="cls-2" d="M82.361,476.27c.027-5.457-.334-4.82,5.291-4.828,4.53-.006,4.53,.026,4.525,5.123q-.005,4.881-5.324,4.834-4.512-.04-4.492-5.13Z"/>
  <path class="cls-2" d="M111.171,476.618q-.016,4.842-4.913,4.843-5.154,0-5.112-5.616,.035-4.626,5.643-4.58,4.4,.036,4.382,5.354Z"/>
  <path class="cls-2" d="M129.532,412.494q-.005,4.702-4.944,4.713-4.987,.011-4.979-5.374c.007-4.647,.008-4.691,4.537-4.63,5.73,.078,5.335-.719,5.386,5.29Z"/>
  <path class="cls-2" d="M120.171,389.855q.036-4.605,5.111-4.576,4.256,.024,4.225,5.411-.026,4.628-5.065,4.56-4.313-.058-4.271-5.395Z"/>
  <path class="cls-2" d="M120.203,433.267q-.032-4.844,4.265-4.873,5.092-.035,5.132,4.562,.047,5.338-4.285,5.375-5.079,.044-5.112-5.064Z"/>
  <path class="cls-2" d="M129.54,476.972c-.359,1.321,.979,3.664-1.104,4.176-2.478,.609-5.437,1.095-7.685-.313-1.561-.978-.601-3.39-.622-5.146-.053-4.415,.018-4.416,4.216-4.415q5.193,0,5.196,5.699Z"/>
  <path class="cls-2" d="M129.557,454.218q-.039,5.295-4.413,5.273-4.993-.025-4.924-5.175c.059-4.427,.06-4.39,6.908-4.51,4.553-.08,1.137,3.578,2.428,4.412Z"/>
  <path class="cls-2" d="M116.667,125.578c2.803,0,5.61-.102,8.407,.024,4.018,.181,4.536,.834,4.379,4.864-.43,11.036-8.318,20.194-20.004,23.227-10.499,2.724-21.951-2.017-27.486-11.438-1.079-1.837-1.961-3.79-3.61-5.678,0,4.168-.145,8.342,.051,12.5,.13,2.749-.66,3.783-3.566,3.631-5.587-.292-4.775,.28-4.771-4.882,.005-5.159,.15-10.321,.006-15.476-.068-2.424,.429-3.946,3.172-3.611,3.792,.464,4.668-1.361,5.448-4.919,2.092-9.54,7.711-16.495,17.424-19.342,2.288-.671,4.058-2.268,6.247-2.893,6.947-1.983,20.639,5.316,23.443,12.228,.903,2.225-.047,3.556-1.71,4.584-2.826,1.746-5.207,3.987-7.727,6.078,.098,.368,.197,.735,.295,1.103Zm3.594,7.347c-5.852,0-11.162,.283-16.425-.091-4.102-.291-4.382-.978-4.414-5.013-.034-4.314-.062-8.63,.007-12.943,.038-2.38-.784-3.001-2.965-1.919-8.085,4.011-13.235,14.471-8.154,24.068,3.52,6.647,10.278,10.21,17.779,9.297,6.726-.818,12.278-5.71,14.172-13.399Zm-12.884-23.694c-.637,4.193-.211,8-.246,12.665,3.381-2.984,6.017-5.311,8.756-7.729-2.502-2.368-5.035-3.792-8.51-4.936Z"/>
  <path class="cls-2" d="M88.861,167.265c-11.165,0-22.329,.021-33.494-.012-3.713-.011-3.713-.074-3.708-4.414,.005-4.314,.005-4.392,3.761-4.392,22.495-.003,44.991,.086,67.486-.01,2.929-.013,3.633,.954,3.538,3.691-.209,6.022,.255,5.084-5.089,5.107-10.831,.048-21.662,.014-32.494,.014v.015Z"/>
  <path class="cls-2" d="M61.259,142.486c0,2.16,.075,4.324-.029,6.48-.059,1.216,.719,3.062-.996,3.444-2.383,.53-4.923,.668-7.302-.237-.627-.238-.528-1.144-.524-1.804,.03-5.152,.123-10.304,.068-15.454-.022-2.01,.87-2.65,2.712-2.52,.992,.07,2.008,.115,2.988-.017,2.492-.334,3.208,.801,3.045,3.131-.162,2.315-.035,4.651-.035,6.977h.075Z"/>
  <path class="cls-1" d="M537.011,167.877c-.633,4.519-3.857,6.956-8.116,6.087-3.039-.62-5.567-2.226-7.583-4.514-1.59-1.804-3.443-2.332-5.761-2.213-3.986,.206-7.984,.316-11.974,.262-4.726-.064-7.97-2.842-8.33-6.86-.409-4.567,2.565-8.736,7.344-9.053,3.985-.264,7.857-1.254,11.865-1.278,7.26-.044,10.484-3.162,11.203-10.473,.384-3.905,1.272-4.814,4.269-4.642,2.123,.122,3.36,1.358,4.124,3.113,.703,1.616-.137,2.927-1.312,3.97-.987,.877-1.993,1.842-3.169,2.375-2.354,1.068-2.785,2.573-1.57,4.715,1.168,2.059,3.332,2.644,5.467,1.425,.715-.408,1.31-1.022,1.983-1.508,3.225-2.327,4.395-1.816,4.975,2.161,.618,4.234-1.69,8.277-5.477,9.599-3.054,1.065-5.562,.182-6.773-2.937-.965-2.485-2.484-3.232-4.931-3.041-1.82,.141-3.659,.052-5.489,.057-1.784,.004-3.369,.147-3.24,2.62,.115,2.199,.422,4.147,3.312,3.72,2.987-.442,4.781,.757,6.535,3.242,2.425,3.435,6.271,4.064,10.31,3.397,.772-.128,1.496-.835,2.338-.225Zm-30.399-3.278c1.223-.311,2.607,.068,3.337-1.026,.921-1.38-.285-2.493-.847-3.639-.214-.436-.597-.796-.933-1.163-1.19-1.301-2.547-2.171-4.402-1.514-1.349,.478-2.412,1.333-2.292,2.875,.14,1.793,1.24,3.054,2.857,3.784,.739,.334,1.566,.475,2.28,.683Z"/>
  <path class="cls-1" d="M480.171,149.968c.004-3.364,1.063-4.387,4.217-3.434,1.909,.576,3.332,1.314,4.446-1.137,.985-2.167,.281-3.487-1.537-4.554-1.697-.996-4.042-1.74-2.182-4.389,1.469-2.093,4.75-2.009,6.832,.038,.712,.699,1.452,1.388,2.055,2.176,1.53,1.997,3.103,2.207,5.023,.475,1.899-1.713,1.673-3.358,.296-5.247-.795-1.091-2.945-1.842-1.751-3.603,1.193-1.76,3.304-1.201,5.083-.999,1.901,.216,2.987,1.274,2.868,3.353-.066,1.159-.043,2.334,.074,3.489,.215,2.11,1.192,3.312,3.578,3.122,2.162-.173,3.5-.883,3.312-3.313-.064-.826-.044-1.671,.05-2.494,.445-3.858,4.577-5.788,7.762-3.604,1.057,.725,1.835,1.772,.268,2.689-2.668,1.563-3.587,3.421-2.573,6.61,.861,2.706-1.238,3.822-3.683,4.098-3.299,.372-6.606,.679-9.902,1.079-6.839,.83-12.351,3.565-15.29,10.303-1.387,3.18-3.343,3.54-6.091,1.428-1.975-1.517-2.872-3.602-2.856-6.085Z"/>
  <path class="cls-1" d="M120.261,132.926c-1.894,7.689-7.446,12.581-14.172,13.399-7.501,.912-14.259-2.65-17.779-9.297-5.082-9.597,.069-20.057,8.154-24.068,2.181-1.082,3.003-.461,2.965,1.919-.069,4.313-.041,8.629-.007,12.943,.032,4.036,.312,4.722,4.414,5.013,5.263,.374,10.573,.091,16.425,.091Z"/>
  <path class="cls-3" d="M107.377,109.232c3.475,1.143,6.008,2.568,8.51,4.936-2.739,2.418-5.375,4.745-8.756,7.729,.035-4.665-.391-8.472,.246-12.665Z"/>
  <path class="cls-2" d="M506.612,164.599c-.714-.208-1.541-.349-2.28-.683-1.617-.731-2.717-1.991-2.857-3.784-.12-1.542,.943-2.397,2.292-2.875,1.854-.657,3.212,.213,4.402,1.514,.336,.367,.719,.727,.933,1.163,.562,1.146,1.767,2.259,.847,3.639-.73,1.094-2.114,.715-3.337,1.026Z"/>
</svg>