<?xml version="1.0" encoding="UTF-8"?>
<svg id="_Слой_1" data-name="Слой 1" xmlns="http://www.w3.org/2000/svg" viewBox="0 0 330.28 311.97">
  <defs>
    <style>
      .cls-1 {
        fill: #153b6c;
      }

      .cls-2 {
        fill: #84d586;
      }

      .cls-3 {
        fill: #65a7f8;
      }

      .cls-4 {
        fill: #fbfcfc;
      }

      .cls-5 {
        fill: #0d3364;
      }
    </style>
  </defs>
  <path class="cls-4" d="M165.18,.01C209.01,.01,252.84-.03,296.67,.04c16.12,.02,29.2,10.58,32.8,26.18,.61,2.62,.82,5.29,.82,7.99-.02,81.14-.01,162.28-.07,243.42-.01,20.02-14.26,34.28-34.31,34.3-87.09,.05-174.17,.06-261.26,.01C13.85,311.92,.02,297.95,.02,277.21,0,196.36,0,115.5,.02,34.65,.02,16.55,11.06,3.33,28.53,.36c1.78-.3,3.63-.32,5.44-.32,43.74-.02,87.47-.01,131.21-.01h0Zm-24.01,291.2c-.53,4,2.44,1.7,3.87,2.15,5.56,0,11.12,.01,16.68,.02,10.83,.02,21.66,.04,32.49,.06,1.05,0,2.06,.21,2.11-1.49,.06-1.84-1.01-1.7-2.2-1.7-.81,0-1.82,.26-1.82-1.13,0-6.65,0-13.3,0-20.1q4.37,2.28,7.1-1.69c.27-.39,.49-.84,.81-1.18,1.14-1.25,.74-2.08-.54-2.95-3.32-2.28-6.52-4.71-9.85-6.96-1.35-.91-1.85-1.98-1.81-3.58,.09-2.97-.05-5.94,.02-8.91,.04-1.61-.52-2.3-2.17-2.11-.95,.11-1.92,.04-2.87,.05q-4.97,.06-5.68,4.93c-.02,.11-.26,.2-.52,.37-1.99-1.38-4.12-2.67-6.04-4.22-1.55-1.24-2.69-1.14-4.28,0-8.63,6.21-17.34,12.29-26.03,18.42-4.57,3.23-4.49,3.17-1.43,7.8,1.4,2.11,2.73,2.75,4.71,.9,.96-.89,1.46-.59,1.62,.61-.26,5.18-.32,10.35,.04,15.52-.25,.59-.25,1.18-.01,1.77-.09,.83-.19,1.66-.28,2.48-.98,.07-1.96,.15-2.94,.22-.67-.22-1.08-.09-.98,.72ZM194.23,32.15c-1.21-1.15-2.81-1.93-4.31-1.93-3.73,0-6.05-1.69-7.43-4.98-.58-.81-1.05-1.74-1.76-2.4-2.02-1.87-3.81-4.18-6.93-4.32-.71-1-1.8-1.33-2.91-1.62-9.9-2.61-20.14,2.31-24.12,11.81-.82,1.96-1.83,2.61-3.87,2.83-8.43,.92-13.92,7.6-13.44,16.07,.44,7.72,7.12,13.99,15.09,14.08,5.75,.06,11.51,0,17.26,.02,8.34,0,16.69,.24,25.02-.03,6.38-.21,11.13-3.6,13.72-9.39,2.51-5.64,2.02-11.19-1.93-16.19-1.05-1.78-2.55-3.06-4.4-3.95ZM36.23,136.63c-10-.61-10.57-.2-12.73,9.09-.02,.09-.01,.19-.02,.29-2.13,6.78-4.34,13.55-6.37,20.36-1.46,4.89,1.02,8.1,6.11,8.13,5.37,.03,10.74,.08,16.1-.05,1.81-.04,2.33,.51,2.23,2.26-.09,1.45,.03,2.47-2.05,2.43-4.22-.08-5.6,1.66-5.49,6.05,.04,1.32,.38,1.91,1.79,1.91,7.29-.04,14.57-.02,21.86-.01,.89,0,1.74,.04,1.81-1.24,.21-3.45-.7-6.96-5.07-6.56-1.81,.16-2.56-.28-2.51-2.31,.05-2.06,.8-2.52,2.73-2.47,5.27,.13,10.54,.08,15.82,.03,4.08-.04,6.6-3.34,5.74-7.36-.38-1.77-1.34-3.35-1.78-5.05-1.93-7.41-4.71-14.54-6.84-21.89-.71-2.44-2.44-3.68-4.89-3.69-8.82-.02-17.63,.05-26.45,.09Zm219.08-46.78c-.23,1.56-.31,3.12,1.07,4.23,1.02,.82,2.21,1.22,3.47,.5,1.91-1.08,2.09-2.82,1.74-4.74,1.61-.02,3.22-.05,4.83-.07,.05,.86,.17,1.71,.15,2.57-.02,.93,.25,1.46,1.28,1.42,4.59-.2,9.23,.38,13.76-.6,7.69-1.66,12.64-8.76,11.96-16.93-.62-7.52-7.03-13.91-14.5-14.17-1.93-.07-2.72-.75-3.6-2.37-3.88-7.15-9.89-11.12-18.16-10.91-8.22,.22-14.17,4.28-17.67,11.67-.93,1.96-1.72,2.99-4.13,3.26-8.07,.9-13.45,7.17-13.36,14.98,.09,7.69,5.75,13.95,13.7,14.8,3.41,.36,6.89,.17,10.34,.19,4.06,.02,4.06,0,4.43-3.9,1.57,.02,3.14,.05,4.72,.07Zm-53.32,60.98c3.8,.51,6.54-1.22,8.86-4.04,1.15-1.4,2.6-2.55,3.86-3.85,1.35-1.4,2.59-2.36,4.9-1.93,3.28,.6,5.92-2,6.1-5.33,.18-3.35-2.19-6.03-5.43-6.14-3.27-.11-6.64,2.77-5.96,5.89,.65,2.98-.79,4.38-2.51,6.01-1.39,1.32-2.83,2.6-4.08,4.04-1.55,1.78-3.34,2.4-5.59,1.77,0-.9-.01-1.81-.02-2.71,.91-4.5-.1-8.94-.42-13.4-.82-11.26-2.73-22.51,.27-33.74,.52-1.97-.52-2.73-2.36-2.4-3.01,.54-6.05,1.02-9.01,1.8-20.47,5.46-37.87,15.72-49.82,33.59-2.82,4.21-5.4,6.11-10.35,5.55-2.32-.26-4.12-.59-5.73-2.44-2.25-2.6-4.83-4.93-7.27-7.37-.76-.76-1.62-1.15-2.5-.28-.87,.86-.54,1.74,.23,2.51,1.49,1.49,3.18,2.83,4.45,4.5,3.77,4.96,8.48,7.48,14.83,6.35,.64-.11,1.33,.1,2,.17l-.7,2.64c-5.15,.58-10.32,.12-15.48,.39-1.18,.06-1.64-.54-2.13-1.46-1.37-2.55-3.65-3.29-6.33-2.67-2.41,.56-4.19,3.01-4.19,5.55,0,2.88,1.67,4.63,4.23,5.49,2.58,.87,4.75,.02,6.17-2.29,.61-1,1.19-1.49,2.43-1.46,4.4,.1,8.8,.06,13.2,.07,.04,.79,.08,1.59,.12,2.38-2.07,3.37-1.72,6.82-.3,10.29,.05,.76,.09,1.53,.14,2.29-5.55,.03-11.1,.04-16.65,.11-1.16,.01-1.83-.34-2.51-1.39-1.57-2.44-4.28-3.34-6.72-2.45-2.55,.92-3.86,2.86-3.81,5.5,.06,2.67,1.59,4.44,4.14,5.24,2.73,.86,4.91,.03,6.46-2.32,.49-.75,.84-1.37,1.92-1.35,6.03,.12,12.06-.16,18.08,.33,.27,.91,.54,1.82,.81,2.72-1.24,.08-2.5,.33-3.71,.2-2.62-.29-4.51,.61-6.2,2.65-1.89,2.28-4.11,4.28-6.22,6.37-1.9,1.88-4.28,1.62-5.77-.61-1.61-2.41-3.95-3.03-6.55-2.3-2.59,.72-3.86,2.68-3.94,5.37-.09,2.82,1.46,5.07,4.15,5.82,2.61,.72,4.84-.11,6.21-2.36,.79-1.29,1.62-1.75,2.97-1.53,2.33,.38,4.01-.58,5.47-2.34,1.15-1.4,2.72-2.49,3.75-3.96,2.28-3.25,5.26-4.31,9.11-3.86,1.48,.17,2.38,.45,3.1,1.87,3.25,6.38,8.09,11.37,14.08,15.21,1.73,1.11,2.21,2.23,1.93,4.18-.72,5.03-1.19,10.08-1.02,15.17,.04,1.39-.27,3.23,1.89,3.17,2.01-.06,1.56-1.81,1.54-3.08-.08-5.09,.33-10.14,.92-15.19,.16-1.36,.57-1.76,1.95-1.63,5.2,.46,10.34-.12,15.38-1.39,10.73-2.7,18.69-8.94,23.55-18.95,.55-1.13,1.55-2.45-.42-3.32-.03-.45-.05-.91-.08-1.36,1.7-.94,3.39-1.26,4.91,.31,2.87,2.94,5.79,5.84,8.52,8.91,1.26,1.41,2.56,2.13,4.45,1.92,2.2-.24,4-.08,5.54,2.22,1.83,2.73,5.83,2.59,8.08,.3,2.28-2.33,2.09-6.29-.4-8.45-2.48-2.14-6.1-1.79-8.14,.78-1.96,2.48-5.48,2.7-7.74,.38-2.67-2.73-5.35-5.47-7.83-8.38-1.23-1.45-2.52-2.21-4.38-2.04,.15-.92,.29-1.85,.44-2.77,2.19-1.06,1.13-2.97,1.2-4.58l-.03-2.84ZM66.09,283.84s0-.02,0-.03c12.66,0,25.32-.04,37.98,.04,1.86,.01,2.47-.47,2.42-2.38-.04-1.67-.33-2.62-2.2-2.25-2.34,.47-2.59-.75-2.56-2.72,.09-7.38-.04-14.77,.04-22.15,.03-2.11-.69-3.35-2.62-4.24-4.61-2.11-9.12-4.44-13.73-6.58-1.42-.66-1.96-1.47-1.89-3.06,.15-3.06-.07-6.14,.08-9.2,.14-2.82-1.14-3.76-3.78-3.65-3.06,.13-6.14-.02-9.2,.12-1.64,.07-2.15-.44-2.11-2.09,.09-4.79-.08-9.59,.06-14.38,.06-1.97-.65-2.33-2.45-2.35-1.81-.01-2.27,.55-2.23,2.3,.11,4.79-.04,9.59,.06,14.39,.03,1.61-.4,2.2-2.07,2.13-3.16-.13-6.33,.02-9.49-.09-2.43-.08-3.54,.91-3.47,3.39,.09,3.07-.1,6.15,.1,9.2,.12,1.92-.51,2.95-2.25,3.73-4.37,1.95-8.62,4.16-13,6.09-2.02,.89-2.85,2.06-2.8,4.35,.14,7.48,0,14.96,.08,22.44,.02,1.75-.27,2.77-2.31,2.44-1.83-.3-2.67,.19-2.67,2.4,0,2.23,1.04,2.19,2.62,2.19,12.47-.03,24.94-.02,37.41-.02Zm10.79-223.23c6.71,4.65,13.3,8.32,19.76,12.21,.74,.44,1.48,.89,2.25,1.27,1.78,.86,3.41,.65,4.56-1.04,1.21-1.77,.96-3.5-.7-4.85-4.53-3.69-9.16-7.27-13.64-11.02-2-1.67-4.02-2.46-6.59-1.65-.9,.29-2.51,.56-2.59-.3-.23-2.22-2.07-4.06-1.9-6.03,.68-7.84,.13-15.67,.17-23.5,.01-2.34-1.1-4.21-3.69-4.29-2.66-.08-3.55,1.79-3.79,4.14-.56,5.43-1.12,10.87-1.76,16.29-.18,1.54,.09,2.89,1.15,3.98,1.72,1.76,3.14,3.36-.1,5.09-.89,.48-1.27,1.69-1.4,2.75-.09,.82-.54,1.1-1.2,1.37-7.52,3.06-13.94,7.95-20.69,12.29-1.96,1.26-3.34,2.86-2.12,5.22,1.3,2.51,3.49,2.27,5.72,1.26,4.01-1.82,7.98-3.72,12.04-5.44,3.36-1.42,6.46-2.97,7.11-7.08,.1-.62,.39-1.45,1.27-1.22,.91,.24,.53,1.11,.49,1.72-.72,10.61-1.46,21.23-2.21,31.84-.05,.71,.18,1.87-.93,1.73-4.09-.53-3.69,2.45-4.15,4.93-.37,1.99,.43,2.5,2.25,2.48,4.98-.06,9.97,.02,14.95-.03,1.07-.01,2.85,.68,2.68-1.46-.17-2.05,.77-5.28-2.06-5.55-3.17-.3-2.84-1.95-2.91-3.93-.05-1.44-.2-2.87-.29-4.3-.55-8.79-1.1-17.57-1.68-26.87Zm180.97,152.69c-1.7,.16-3.26,.14-4.74,.47-10.64,2.38-17.95,8.6-20.6,19.29-2.58,10.39,.29,19.5,8.63,26.31,8.61,7.03,18.21,7.86,28.27,3.09,2.06-.98,4.66,.44,4.43,2.74-.16,1.64,.55,2.52,1.45,3.49,4.18,4.49,8.33,9.01,12.56,13.45,3.05,3.2,6.98,3.32,9.89,.44,2.85-2.83,2.81-6.5-.2-9.67-4.09-4.31-8.22-8.59-12.34-12.87-1-1.04-2.03-1.92-3.64-2.04-2.87-.22-3.5-1.93-2.04-4.46,5.03-8.67,5.7-17.6,.89-26.55-4.83-8.97-12.62-13.28-22.55-13.69Zm29.5-32.31c13.21-.05,23.09-10.85,20.97-23.53-2.35-14.11-10.52-25.29-19.39-35.99-1.49-1.79-2.63-.61-3.7,.65-4.86,5.7-9.3,11.69-12.93,18.27-2.42,4.38-4.42,8.92-5.62,13.79-3.51,14.32,6.17,26.88,20.66,26.82ZM84,82.82c.06,4.68,3.84,7.82,8.05,6.85,1.62-.37,2.42,.1,3.4,1.12,4.7,4.91,9.41,9.81,14.21,14.63,.72,.72,1.23,2.79,3.05,1.04,1.9-1.83-.15-2.5-.95-3.34-4.47-4.74-9-9.41-13.58-14.04-1.24-1.26-1.74-2.3-1.09-4.22,.87-2.58,.21-5.18-2.06-6.99-2.21-1.77-4.74-1.96-7.3-.8-2.66,1.2-3.64,3.49-3.74,5.75Zm7.58,150.9c4.61,.03,7.95-4.13,6.57-8.55-.52-1.65,.01-2.42,1.01-3.43,5.1-5.18,10.16-10.4,15.23-15.6,.77-.79,1.83-1.34,.46-2.69-1.46-1.44-1.99-.08-2.69,.62-4.95,4.93-9.89,9.86-14.75,14.87-1.33,1.37-2.46,2.06-4.62,1.62-3.99-.81-7.39,2.25-7.6,6.24-.2,3.92,2.55,6.89,6.39,6.91Zm56.8-118.57c2.88-.61,3.27-2.37,3.25-4.6-.06-5.74,.09-11.48,.03-17.21-.02-1.98,.13-3.45,2.04-4.8,2.9-2.06,2.85-6.12,.36-8.57-2.38-2.34-6-2.26-8.16,.18-2.33,2.63-2.18,6.62,.7,8.58,1.65,1.12,1.82,2.34,1.81,4.03-.06,7.43-.02,14.85-.02,22.4Zm-17.94-2.61c.22,1.74-.92,4.47,.5,6.41,1.9,2.59,4.53,4.66,6.88,6.92,.42,.41,.99,.71,1.5,.13,.43-.48,1.22-.92,.94-1.63-.27-.68-.81-1.36-1.41-1.77-4.82-3.31-6.07-7.97-5.22-13.46,.06-.37,.03-.77,0-1.15-.17-1.78,.1-3.07,1.91-4.26,2.75-1.8,2.84-5.99,.64-8.41-2.18-2.4-6.2-2.37-8.47,.05-2.35,2.5-2.28,6.44,.57,8.32,1.95,1.29,2.33,2.74,2.18,4.75-.09,1.14-.02,2.3-.02,4.08Zm2.35,98.88c2.55-.09,4.35-1.28,5.17-3.55,.89-2.45,.42-4.73-1.66-6.49-2.44-2.07-2.87-8.63-.66-10.97,1.77-1.88,3.61-3.69,5.4-5.56,.7-.73,1.69-1.41,.49-2.59-1.27-1.25-1.99-.32-2.81,.54-.86,.9-1.64,1.92-2.63,2.64-4.18,3.03-5.84,7.02-4.98,12.11,.27,1.58-.17,2.76-1.65,3.85-2.2,1.62-2.86,4.03-1.76,6.66,.94,2.27,2.75,3.34,5.09,3.37Zm100.7-56.72c-.06-2.72-1.83-5.03-4.3-5.66-2.64-.68-4.9,.07-6.11,2.48-.77,1.53-1.74,1.72-3.15,1.71-1.28-.01-2.62-.35-3.74,.87-2.07,2.25-4.3,4.37-6.43,6.57-.65,.67-1.48,1.31-.43,2.39,1,1.03,1.72,.78,2.61-.15,1.73-1.79,3.55-3.49,5.35-5.21,2.22-2.14,4.14-2.01,6.09,.38,1.72,2.11,3.97,2.66,6.45,1.79,2.43-.86,3.51-2.82,3.67-5.15Zm44.74-117.43c-1.35-.14-2.66-.02-2.77,1.67-.11,1.69,1.31,1.56,2.44,1.68,.19,.02,.38,.06,.57,.09,8.37,1.18,13.71,6.35,15.05,14.65,.21,1.31,.37,2.75,2.02,2.54,1.88-.25,1.53-1.89,1.37-3.22-1.13-9.2-9.41-16.92-18.68-17.41Zm-81.93,157.23c-1.56,.49-2.51-.12-3.12-1.5-.51-1.17-1.56-1.59-2.81-1.6-1.91-.03-3.83-.15-5.74-.16-2.1,0-5.58,3.04-5.55,5.23,.03,1.91,2.3,1.52,3.42,2.39,1.32,1.03,2.16,.45,2.83-.91,.51-1.04,1.23-1.98,1.97-3.13,.83,1.69,2.82,2.81,.71,4.61,6.26,1.3,6.39,1.23,8.29-4.93Zm-16.98,14.92c.89-1.17,.32-3.5,2.59-3.04,.69,.14,.6-.52,.57-.99-.24-3.52-2.09-5.01-5.62-4.54-1.18,.16-2.77-.06-1.5,2.05,.21,.36-.58,1.32-.91,2.01-.37,.76-1,1.51-.51,2.41,1.18,2.19,2.21,4.49,3.67,6.48,1.7,2.33,4.5,1.53,6.7,1.21,1.82-.26,.63-2.42,.89-3.71,.31-1.52-.45-2.03-1.94-1.89-1.3,.12-2.62,.02-3.93,.02Zm16.92-.07c-1.82-.47-3.77,1.17-4.29-1.55-.02-.1-.31-.2-.47-.21-.95-.04-3.81,4.62-3.11,5.13,1.42,1.05,1.31,5.15,4.72,2.56,.24-.18,.75-.07,1.13-.02,1.74,.24,2.93-.48,3.69-2.03,.84-1.71,1.8-3.37,2.58-5.11,.63-1.41-1.15-5.81-2.48-6.48-.42-.21-.67,0-1.02,.14-3.52,1.5-3.78,2.23-1.9,5.51,.28,.48,.54,.97,1.16,2.06Zm52.65-52.01v.06c3.45,0,6.89-.03,10.34,.02,1.11,.02,1.82-.09,1.79-1.49-.03-1.24-.44-1.64-1.69-1.63-6.8,.05-13.6,.03-20.39,.02-1.06,0-1.79,.06-1.84,1.48-.05,1.67,.93,1.56,2.02,1.55,3.26-.02,6.51,0,9.77,0Zm-13.18,62.12c-.34-.4-.57-.7-.83-.96-5.06-5.09-10.14-10.16-15.19-15.26-.84-.84-1.38-.93-2.31,0-1.04,1.03-.82,1.64,.1,2.54,5.06,4.95,10.08,9.95,15.13,14.92,.42,.41,.82,1.26,1.61,.5,.53-.51,.97-1.11,1.5-1.73ZM47.01,119.19c-2.61-.06-4.82,1.96-4.94,4.53-.12,2.64,2.07,5.09,4.66,5.19,2.68,.11,5.01-2.07,5.07-4.74,.06-2.75-2.02-4.91-4.79-4.98Zm243.89-63.82c-.07-5.31-7.35-12.1-13.22-11.92-1.19,.04-2.12,.41-2.18,1.76-.05,1.22,.8,1.6,1.86,1.73,5.6,.67,9.15,3.55,10.05,9.31,.18,1.15,.81,2.06,2.13,1.78,1.1-.24,1.41-1.18,1.35-2.66ZM85.51,157.51s0-.06,0-.09c2.48,0,4.96-.03,7.44,.02,1.07,.02,1.54-.3,1.52-1.45-.02-1.15-.25-1.72-1.58-1.7-4.77,.07-9.54,.08-14.31,.02-1.42-.02-1.45,.74-1.49,1.8-.05,1.2,.51,1.44,1.56,1.42,2.29-.05,4.58-.02,6.87-.02Zm82.88-81.49s-.03,0-.05,0c0-1.9-.03-3.81,.01-5.71,.02-1.03-.2-1.62-1.41-1.56-1.08,.05-1.78,.16-1.74,1.56,.1,3.71,.12,7.42,.06,11.13-.02,1.36,.64,1.52,1.74,1.56,1.2,.04,1.43-.52,1.4-1.56-.05-1.81-.02-3.62-.02-5.42Zm61.07,20.21c-.58-.54-1.05-.99-1.53-1.42-.78-.7-1.18,.01-1.64,.46-2.76,2.65-5.52,5.31-8.29,7.95-.75,.71-1.39,1.25-.25,2.25,.96,.85,1.61,1.04,2.6,.02,2.61-2.67,5.32-5.24,7.98-7.86,.39-.39,.7-.86,1.13-1.4Zm55.06-40.17c.07-3.02-4.28-6.77-7.38-6.37-.83,.11-1.49,.42-1.61,1.34-.13,.97,.21,1.79,1.23,1.95,2.3,.36,3.89,1.42,4.45,3.81,.23,.97,1.08,1.37,2.01,1.21,1.02-.17,1.3-1,1.3-1.94Zm-118.74,175.06h-.08c0,1.71,.03,3.42,0,5.13-.02,1.15,.76,1.09,1.53,1.17,.89,.09,1.47-.07,1.47-1.15-.02-3.14-.02-6.27,.02-9.41,.01-.96-.31-1.37-1.31-1.33-.91,.04-1.7,0-1.63,1.31,.08,1.42,.02,2.85,.02,4.28ZM49.34,113.99c1.1,.24,2,.1,2.32-1.07,.26-.96-.2-1.66-1.06-2.08-1.08-.52-1.91-.02-2.33,.91-.35,.78-.84,.94-1.55,1.26-1.59,.72-.64,2.31-.72,3.53-.04,.51,.46,.86,.98,.78,1.49-.22,.84-1.46,.94-2.27,.12-1.03,.28-1.71,1.43-1.07Zm185.72,71.45c-1.09,.22-1.67,.92-1.66,1.98,0,1.12,.76,1.8,1.8,1.78,1.19-.03,1.91-.85,1.79-2.07-.11-1.07-.87-1.61-1.93-1.69ZM48.2,132.94c-.28-.81,.52-2.23-1.23-2.29-2-.07-1.21,1.48-1.35,2.43-.13,.93-.24,1.97,1.19,2.06,1.76,.11,1.26-1.21,1.39-2.19Zm183,63.18c.99-.13,1.71-.68,1.76-1.77,.05-1.12-.7-1.76-1.73-1.85-1.11-.1-1.76,.58-1.79,1.69-.02,1.1,.62,1.71,1.75,1.93Zm52.55-7.03c-.98,.21-1.76,.75-1.67,1.89,.08,1.08,.82,1.78,1.9,1.73,1.07-.05,1.79-.75,1.72-1.88-.07-1.1-.76-1.69-1.95-1.74Zm-231.95,8.85c-.06-1.08-.63-1.76-1.69-1.9-1.09-.14-1.85,.38-1.95,1.51-.11,1.22,.53,2.02,1.75,2.09,1.09,.07,1.7-.62,1.9-1.7Zm231.25,.32c-.21-1.03-.81-1.79-1.9-1.76-1.08,.03-1.78,.76-1.73,1.87,.05,1.08,.77,1.8,1.85,1.77,1.09-.03,1.67-.77,1.77-1.89Zm-81.23,25.33c1.12-.06,1.82-.69,1.83-1.77,.01-1.07-.68-1.82-1.76-1.84-1.07-.02-1.79,.64-1.8,1.77-.01,1.11,.6,1.75,1.73,1.84ZM54.5,105.28c-.29-.91-.79-1.68-1.93-1.64-1.17,.04-1.69,.83-1.65,1.88,.04,1.08,.65,1.73,1.84,1.67,1.17-.06,1.62-.78,1.75-1.92Zm58.11-60.74c1.19-.07,1.73-.82,1.69-1.89-.03-.99-.74-1.6-1.7-1.57-.92,.03-1.65,.53-1.69,1.59-.05,1.16,.57,1.76,1.7,1.87Zm66.84,185.49c-.11-1.05-.6-1.85-1.73-1.89-1.09-.04-1.83,.63-1.87,1.72-.03,.95,.55,1.59,1.55,1.7,1.15,.13,1.75-.48,2.04-1.53Zm100.08-125.88c-1.15,.03-1.88,.61-1.9,1.71-.02,1.09,.68,1.74,1.79,1.82,1.17,.08,1.82-.61,1.84-1.69,.02-1.07-.62-1.75-1.72-1.84Zm-49.31,159.07c-.13-1.06-.79-1.72-1.85-1.73-1.07,0-1.81,.61-1.77,1.77,.04,.99,.64,1.55,1.64,1.61,1.12,.06,1.77-.49,1.98-1.65Zm9.94-83.32c-.11-1.18-.79-1.71-1.93-1.63-.98,.08-1.65,.65-1.64,1.65,.02,1.1,.73,1.84,1.81,1.84,1.1,0,1.72-.73,1.75-1.87Zm-45.83,47.31c1.07-.25,1.67-.9,1.57-2.02-.09-1-.74-1.58-1.72-1.54-1.07,.05-1.84,.68-1.76,1.81,.08,1.06,.8,1.67,1.91,1.74Zm-99.55-48.33c-.17-1.07-.71-1.85-1.82-1.86-.94,0-1.64,.55-1.64,1.6,0,1.15,.72,1.8,1.76,1.84,.95,.04,1.54-.62,1.7-1.58Zm147.86-6.7c-.21-1.05-.81-1.79-1.93-1.69-1.11,.1-1.65,.95-1.58,2.01,.07,.98,.82,1.58,1.75,1.57,1.13,0,1.64-.82,1.76-1.9Zm41.69-59.22c-.16-1.12-.93-1.7-1.99-1.58-1.06,.12-1.72,.83-1.58,2.01,.12,1.04,.83,1.54,1.78,1.47,1.06-.08,1.76-.69,1.79-1.9Zm-194.83,48.03c-1.2,.03-1.84,.73-1.79,1.77,.05,1.04,.84,1.72,1.89,1.68,.94-.03,1.57-.67,1.57-1.65,0-1.09-.63-1.71-1.68-1.8Zm.18-11.92c1.05-.2,1.77-.85,1.62-1.93-.14-1.01-.87-1.69-2.02-1.53-.98,.14-1.54,.8-1.49,1.75,.05,1.1,.76,1.66,1.89,1.71ZM218.35,40.92c-1.06,.13-1.78,.74-1.73,1.82,.05,1.06,.76,1.7,1.88,1.64,1-.05,1.57-.68,1.59-1.63,.03-1.09-.63-1.71-1.75-1.84Zm-88.21,231.51c-1.04,.14-1.82,.65-1.81,1.8,0,1.16,.82,1.74,1.88,1.74,.95,0,1.61-.58,1.67-1.61,.07-1.19-.67-1.69-1.74-1.94Zm-32.25-85.99c-.02-1.17-.62-1.89-1.71-1.94-1.09-.05-1.81,.6-1.84,1.74-.03,1.02,.67,1.65,1.56,1.76,1.06,.13,1.79-.48,1.99-1.55Zm20.39,25.61c-.8,.17-1.55,.49-1.59,1.55-.04,1.1,.46,1.83,1.6,1.88,.97,.04,1.64-.53,1.71-1.49,.08-1.09-.58-1.71-1.72-1.94Zm39.84,18.07c-.21-1.02-.68-1.79-1.84-1.75-1.14,.03-1.71,.72-1.69,1.82,.02,1.01,.68,1.58,1.62,1.61,1.07,.04,1.72-.62,1.91-1.68ZM227.07,46.51c-.11-.93-.43-1.69-1.51-1.73-1.12-.04-1.88,.52-1.95,1.62-.06,.95,.56,1.67,1.53,1.75,1.09,.09,1.76-.55,1.94-1.64Zm15.38,119.52c1.11-.13,1.72-.73,1.68-1.88-.04-1.04-.75-1.61-1.66-1.64-1.05-.03-1.87,.6-1.89,1.73-.02,1.15,.79,1.65,1.87,1.79Zm-19.22,101c-.26-1.03-.8-1.76-1.94-1.68-1.14,.07-1.71,.88-1.69,1.91,.03,1.1,.78,1.68,1.9,1.63,1.16-.05,1.61-.81,1.73-1.86Zm3.66-64.27c1.06-.11,1.6-.72,1.52-1.73-.09-1.13-.86-1.77-1.93-1.7-.94,.06-1.59,.7-1.52,1.75,.09,1.17,.87,1.62,1.93,1.69ZM94.5,131.34c-.04-1.08-.65-1.72-1.73-1.8-1.02-.07-1.65,.58-1.7,1.5-.07,1.2,.63,1.95,1.88,1.96,1.03,0,1.48-.66,1.56-1.66Zm144.25-3.46c-.89,.34-1.76,.76-1.65,1.96,.1,1.18,.91,1.64,1.98,1.56,.97-.08,1.58-.69,1.55-1.71-.03-1.14-.74-1.67-1.88-1.81Zm-198.93,4.5c1.16-.64,2.17-1.53,2.69-2.69,.32-.71-.54-1.67-1.23-1.51-1.29,.3-2.26,1.39-2.78,2.57-.37,.83,.69,1.15,1.32,1.63Zm236.41,79.8c-.26-.9-.81-1.6-1.92-1.55-1.11,.04-1.76,.66-1.69,1.8,.07,1.1,.75,1.71,1.84,1.69,1.13-.02,1.62-.76,1.77-1.93Zm-67.33,3.51c-1.06,.12-1.64,.8-1.52,1.88,.1,.93,.78,1.57,1.71,1.56,1.05-.02,1.79-.67,1.74-1.78-.05-1.09-.73-1.67-1.93-1.65ZM97.35,123.37c-.11-1.03-.82-1.57-1.89-1.52-1.11,.04-1.74,.7-1.64,1.83,.09,1.08,.79,1.76,1.87,1.67,1.03-.08,1.7-.72,1.67-1.98Zm140.29-1.48c-.25-1.06-.85-1.73-1.99-1.61-1.15,.12-1.66,.87-1.54,1.98,.12,1.02,.85,1.47,1.79,1.48,1.19,0,1.62-.79,1.74-1.85Zm-51.66,107.98c1-.11,1.71-.45,1.75-1.53,.05-1.16-.62-1.82-1.65-1.9-1.05-.08-1.85,.55-1.84,1.68,.01,1.09,.7,1.69,1.74,1.75ZM52.72,119.6c.87-.83,2.1-1.52,2.44-2.82,.19-.72-.87-1.66-1.36-1.47-1.25,.47-1.99,1.74-2.52,2.92-.31,.69,.65,1,1.44,1.37Zm3.56-23.01c-1.1,.01-1.68,.53-1.74,1.53-.06,1.07,.4,1.87,1.54,1.95,1.12,.08,1.8-.65,1.85-1.68,.04-1.05-.63-1.71-1.65-1.8Zm91.59,130.18c-.89,.18-1.63,.76-1.53,1.87,.09,1.04,.75,1.74,1.91,1.66,1.02-.07,1.52-.72,1.53-1.69,.02-1.14-.63-1.72-1.92-1.83ZM121.52,39.65c-.01-.98-.46-1.69-1.46-1.8-1.12-.13-1.85,.49-1.96,1.61-.09,.99,.48,1.73,1.43,1.83,1.07,.11,1.8-.48,1.98-1.64Zm-30.66,132.95c.99-.2,1.67-.75,1.65-1.73-.01-1.09-.64-1.81-1.81-1.78-1.04,.02-1.59,.63-1.59,1.65,0,1.15,.71,1.69,1.75,1.87Zm38.25-85.03c-.15-1.12-.72-1.83-1.87-1.75-1.12,.08-1.77,.82-1.69,1.91,.07,.94,.74,1.56,1.74,1.57,1.14,.01,1.74-.63,1.83-1.73Zm0-50.84c-.16-1-.69-1.63-1.72-1.58-1.14,.05-1.81,.77-1.73,1.87,.07,.93,.74,1.6,1.73,1.59,1.17-.02,1.64-.81,1.71-1.88Zm-13.91,230.19c-1.06,.05-1.75,.65-1.76,1.76-.01,1.11,.68,1.78,1.8,1.79,.99,0,1.6-.6,1.66-1.6,.06-1.1-.45-1.82-1.69-1.95ZM199.39,86.04c.14,.69,.42,1.44,1.47,1.56,1.15,.14,1.85-.51,2-1.52,.16-1.05-.45-1.85-1.56-1.93-1.11-.08-1.69,.64-1.91,1.89Zm-4.17-3.52c-.06-1.14-.72-1.81-1.8-1.77-1.04,.05-1.79,.72-1.74,1.86,.04,.99,.69,1.54,1.67,1.59,1.15,.06,1.75-.56,1.87-1.68Zm11.39,189.06c-.96,.14-1.67,.75-1.58,1.84,.08,1.05,.81,1.71,1.92,1.61,.97-.08,1.52-.72,1.52-1.69,0-1.11-.6-1.72-1.86-1.76ZM49.02,190.86c.11-1.21-.55-1.73-1.47-1.85-1.08-.14-1.9,.37-1.96,1.52-.05,.95,.52,1.62,1.5,1.76,1.15,.16,1.77-.45,1.93-1.43Zm151.9,84.99c0-1.14-.44-1.88-1.58-2-.98-.1-1.66,.39-1.86,1.32-.24,1.12,.43,1.84,1.43,2.07,1.1,.26,1.72-.43,2.01-1.39Zm41.75-131.93c-1.11,.12-1.83,.74-1.8,1.82,.03,1.08,.79,1.69,1.9,1.65,1-.03,1.62-.68,1.65-1.61,.03-1.09-.7-1.69-1.75-1.86ZM105.64,48.33c1.15-.18,1.74-.92,1.65-1.99-.08-.96-.79-1.51-1.81-1.47-1.04,.04-1.64,.7-1.65,1.64-.01,1.09,.7,1.73,1.81,1.82Zm4.31,216.8c-.16-.91-.61-1.59-1.65-1.6-1.16-.01-1.79,.67-1.8,1.78-.01,1,.65,1.64,1.61,1.67,1.13,.04,1.69-.72,1.84-1.84Zm-4.38-155.74c-.16-1.1-.74-1.77-1.86-1.69-1.13,.09-1.67,.92-1.57,1.94,.09,.89,.7,1.54,1.72,1.53,1.16-.02,1.64-.73,1.72-1.78Zm36.2,116.71c-.05-.94-.46-1.62-1.51-1.71-1.18-.1-1.86,.57-1.87,1.65-.02,1.07,.63,1.82,1.79,1.78,1-.04,1.5-.71,1.59-1.73ZM37.83,125.03c.78-.26,2.17,.69,2.18-1.21,0-1.61-1.12-1.21-1.95-1.18-.9,.03-2.24-.55-2.28,1.19-.03,1.58,1.19,1.04,2.05,1.2Zm205.07,12.7c-.06-1.12-.68-1.8-1.74-1.83-1.07-.04-1.78,.6-1.83,1.71-.04,1.02,.66,1.53,1.57,1.65,1.11,.15,1.74-.47,2-1.53Zm-32.85-47.83c-.18-.85-.69-1.48-1.7-1.46-1.11,.02-1.81,.6-1.77,1.77,.04,1.02,.75,1.57,1.68,1.59,1.12,.03,1.71-.68,1.79-1.91Zm19.09,18.3c.02-1.07-.51-1.7-1.49-1.81-1.16-.12-1.84,.58-1.88,1.66-.03,1,.71,1.57,1.66,1.62,.99,.05,1.59-.51,1.7-1.47Zm4.65-57.74c-.1-1.06-.71-1.67-1.83-1.65-1,.02-1.6,.66-1.64,1.6-.05,1.17,.75,1.7,1.82,1.67,.92-.03,1.61-.5,1.65-1.62Zm-16.33,161.77c-.32-.91-.87-1.63-2.01-1.47-.95,.14-1.53,.77-1.42,1.77,.12,1.1,.82,1.69,1.93,1.57,.99-.11,1.38-.86,1.5-1.87ZM113.48,95.65c-.81,.2-1.46,.67-1.41,1.69,.06,1.1,.7,1.72,1.8,1.74,1.08,.02,1.48-.75,1.49-1.66,.01-1.11-.67-1.68-1.88-1.77Zm-14.12,22.37c1.01-.12,1.55-.73,1.54-1.7-.01-1.1-.63-1.79-1.77-1.76-1.04,.02-1.52,.77-1.55,1.69-.03,1.13,.67,1.69,1.78,1.77Zm-8.68,19.49c-.92,.11-1.53,.63-1.54,1.64-.01,1.15,.71,1.79,1.78,1.74,1.07-.06,1.75-.82,1.61-1.92-.12-.93-.78-1.48-1.85-1.45Zm189.12,68.06c-.1-1.06-.62-1.78-1.75-1.8-1.1-.02-1.79,.6-1.8,1.72-.01,1.09,.6,1.78,1.72,1.8,1.1,.02,1.74-.56,1.82-1.72Zm-62.97-110.65c-.25-.96-.76-1.68-1.78-1.54-1.07,.14-1.73,.82-1.59,1.99,.11,.87,.66,1.38,1.56,1.35,1.15-.04,1.67-.76,1.82-1.8Zm16.87,20.26c.1-1.04-.31-1.73-1.31-1.91-1.15-.21-1.88,.41-2.01,1.49-.11,.95,.48,1.65,1.48,1.74,.96,.09,1.65-.33,1.84-1.31Zm-94.36,160.93c-.11-.89-.51-1.61-1.57-1.59-1.16,.02-1.76,.77-1.71,1.84,.04,.98,.77,1.55,1.74,1.49,.97-.06,1.54-.65,1.54-1.74ZM53.1,206.74c1.03-.09,1.6-.66,1.61-1.64,0-1.09-.59-1.84-1.7-1.85-1.11-.01-1.76,.71-1.76,1.8,.01,1.15,.81,1.61,1.85,1.69ZM122.13,91.98c-.17-1.13-.84-1.72-1.96-1.63-1.14,.09-1.72,.85-1.65,1.94,.07,1.14,.84,1.7,1.95,1.63,1.15-.07,1.64-.84,1.66-1.94Zm82.07-53.39c.91-.15,1.47-.7,1.45-1.7-.02-1.02-.69-1.62-1.61-1.61-1.09,0-1.72,.77-1.65,1.87,.07,1,.75,1.45,1.81,1.44Zm-71.83,185.95c1.08-.12,1.73-.72,1.71-1.84-.02-.96-.56-1.63-1.56-1.67-1.11-.05-1.8,.58-1.87,1.67-.07,1.13,.6,1.72,1.72,1.84Zm-7.2-4.13c.94-.29,1.65-.87,1.48-2.03-.15-.98-.83-1.5-1.83-1.43-1,.07-1.59,.7-1.59,1.69,0,1.16,.76,1.67,1.94,1.77ZM52.79,128.24c-.77,.18-1.57,.73-1.44,1.23,.35,1.37,1.43,2.37,2.71,2.89,.55,.23,1.37-.62,1.2-1.24-.36-1.3-1.48-2.09-2.47-2.88Zm3.24-3.25c.8-.22,2.12,.51,2.09-1.13-.03-1.78-1.45-1.1-2.34-1.17-.85-.07-2.06-.42-1.92,1.23,.14,1.62,1.4,.81,2.17,1.07Zm159.82,145.37c-.2-1.04-.84-1.71-1.96-1.56-.93,.12-1.56,.79-1.5,1.78,.07,1.16,.89,1.69,1.96,1.58,.94-.09,1.52-.72,1.5-1.8ZM136.45,84.01c-.06-1.09-.63-1.73-1.76-1.72-1.01,0-1.6,.66-1.61,1.6,0,1.08,.7,1.77,1.78,1.78,.98,.01,1.5-.65,1.58-1.66Zm-12.14,187.78c-.08-1.08-.63-1.8-1.74-1.8-1.09,0-1.74,.67-1.77,1.77-.03,1.01,.62,1.56,1.56,1.65,1.13,.11,1.7-.57,1.94-1.62Zm-67.7-58.17c.82-.1,1.51-.56,1.58-1.57,.08-1.14-.59-1.84-1.68-1.89-.97-.04-1.66,.6-1.74,1.56-.1,1.12,.57,1.76,1.85,1.9ZM187.04,80.08c-.12-1.06-.66-1.76-1.8-1.72-.97,.04-1.58,.66-1.6,1.62-.02,1.12,.66,1.75,1.77,1.73,.99-.02,1.5-.64,1.63-1.63Zm-80.67,120.16c-.17-.9-.56-1.65-1.58-1.68-1.12-.04-1.8,.58-1.81,1.71,0,1.15,.74,1.74,1.83,1.7,1.01-.03,1.41-.8,1.57-1.73Zm-4.55-6.79c-.12-.85-.54-1.6-1.53-1.7-1.08-.11-1.85,.43-1.96,1.58-.09,1.01,.44,1.66,1.43,1.79,1.16,.16,1.73-.56,2.06-1.68Zm77.07-115.12c-.19-.89-.59-1.68-1.62-1.68-1.09,0-1.82,.64-1.78,1.79,.03,1.02,.7,1.56,1.69,1.54,1-.02,1.5-.7,1.71-1.65Zm-80.07-25.93c1.06-.1,1.82-.62,1.82-1.76,0-.96-.6-1.63-1.59-1.66-1.1-.03-1.81,.56-1.82,1.72-.01,1.02,.62,1.52,1.59,1.7Zm178.66,46.73c0-1.06-.52-1.72-1.48-1.8-1.23-.1-1.99,.61-2.01,1.83-.01,.95,.59,1.6,1.6,1.61,1.1,.01,1.72-.61,1.89-1.64Zm-66.44-61.33c-.97,.12-1.61,.61-1.61,1.64,0,1.19,.78,1.72,1.84,1.67,.94-.04,1.63-.63,1.63-1.63,0-1.15-.75-1.66-1.86-1.68Zm25.15,221.18c-.14-.87-.72-1.55-1.66-1.56-.96,0-1.61,.6-1.52,1.66,.09,1.04,.81,1.52,1.75,1.46,.81-.05,1.42-.53,1.42-1.57ZM39.93,115.55c-.68,.3-1.51,.75-1.29,1.37,.44,1.22,1.35,2.27,2.72,2.46,.45,.06,1.4-.67,1.09-1.35-.5-1.09-1.37-1.99-2.52-2.48Z"/>
  <path class="cls-2" d="M202.12,144.54c0,.9,.01,1.81,.02,2.71-5.52,.05-11.04,.08-16.56,.17-1.12,.02-2.7-.48-2.59,1.62,.1,1.88,1.51,1.64,2.72,1.66,5.43,.06,10.85,.09,16.28,.13,0,.95,.02,1.9,.03,2.84-1.63,0-2.89-.03-3.19,2.35-.27,2.1,1.01,1.8,2,2.23-.15,.92-.29,1.85-.44,2.77-4.77,.05-9.55,.05-14.32,.17-1.29,.03-1.78-.66-2.41-1.57-2.02-2.95-5.55-3.37-8.17-1.09-2.62,2.28-2.83,5.69-.49,8.08,2.44,2.48,6.24,2.55,8.26-.25,1.22-1.7,2.52-1.94,4.32-1.88,2.38,.08,4.78-.04,7.16-.08,.94-.02,1.94-.24,2.63,.69,.03,.45,.05,.91,.08,1.36-1.29,.55-2.28,1.28-3.01,2.63-7.59,14.01-20.18,18.11-35.09,17.56-1.26-.05-1.65-.4-1.34-1.74,.94-4.01,1.92-8.02,2.54-12.08,.69-4.52,2.62-7.62,7.5-8.17,.37-.04,.72-.24,1.08-.39,.91-.39,1.83-.78,1.37-2.08-.48-1.35-1.5-1.29-2.59-1.01-1.43,.37-2.64,1.47-4.61,1.35,1.5-4.31,3.08-8.4,4.33-12.58,1.15-3.86,3.35-6.14,7.48-6.62,1.97-.23,3.89-1,5.83-1.53,1.15-.31,2.44-.7,2.03-2.22-.43-1.6-1.69-1.38-3.04-1.06-2.56,.61-4.98,1.85-7.75,1.95,0-1.58,.75-2.72,1.3-3.9,2.62-5.55,5.46-10.98,8.6-16.26,.66-1.11,1.74-2.39,.04-3.47-1.78-1.13-2.37,.48-3,1.59-1.61,2.83-3.11,5.73-4.69,8.57-.5,.89-.74,2.39-1.74,2.43-1.23,.05-1.45-1.56-2.11-2.45-.51-.68-.84-1.5-1.27-2.25-.63-1.1-1.5-1.89-2.8-1.24-1.5,.76-.85,1.88-.24,2.92,1.16,1.99,2.33,3.96,3.49,5.95,.48,.83,1.05,1.67,.62,2.69-2.36,5.61-4.74,11.22-7.14,16.91-1.4-1.06-1.96-2.54-2.85-3.75-.69-.93-1.53-1.04-2.49-.36-.93,.67-.79,1.41-.24,2.23,.7,1.03,1.34,2.11,2.1,3.09,1.41,1.82,2.12,3.6,1.26,6.04-2.72,7.78-4.46,15.84-6.09,23.91-.41,2.05-1.04,1.82-2.36,.87-5.2-3.77-9.6-8.27-12.45-14.07-1.06-2.16-2.36-3.33-4.81-2.95-.27-.91-.54-1.82-.81-2.72,3.21-.16,6.3-.96,8.86,2.47,1.81,2.44,5.79,1.66,7.83-.75,2.03-2.41,1.75-5.93-.64-7.96-2.45-2.08-5.93-1.99-7.86,.68-1.34,1.86-2.84,2.21-4.82,2.06-1.42-.11-2.86-.1-4.29-.15-.05-.76-.09-1.53-.14-2.29,2.05,.09,2.83-.7,2.42-2.87-.29-1.56-.29-3.26,0-4.82,.35-1.92-.29-2.64-2.11-2.6-.04-.79-.08-1.59-.12-2.38,2.77-.02,5.55,0,8.32-.08,1.68-.04,2.91,.13,3.99,1.87,1.7,2.74,5.7,2.99,8.11,.92,2.49-2.13,2.73-6.18,.5-8.5-2.26-2.36-6.32-2.53-8.06,.18-1.45,2.26-3.19,2.34-5.31,2.23-1.81-.09-3.63-.19-5.44-.28,.23-.88,.47-1.76,.7-2.64,1.45-.17,2.81,.06,3.77-1.78,4.31-8.27,10.52-14.98,17.77-20.79,11.03-8.84,23.54-14.5,37.28-17.57,2.03-.45,2.86-.34,2.43,2.28-.94,5.76-1.07,11.6-.49,17.45,.74,7.51,1.46,15.04,1.9,22.57,.13,2.31,.97,3.06,3.03,3.02Z"/>
  <path class="cls-5" d="M66.09,283.84c-12.47,0-24.94-.01-37.41,.02-1.58,0-2.62,.05-2.62-2.19,0-2.21,.84-2.69,2.67-2.4,2.03,.33,2.33-.69,2.31-2.44-.08-7.48,.06-14.96-.08-22.44-.04-2.29,.78-3.46,2.8-4.35,4.38-1.93,8.63-4.14,13-6.09,1.74-.78,2.37-1.81,2.25-3.73-.19-3.06,0-6.14-.1-9.2-.07-2.48,1.03-3.46,3.47-3.39,3.16,.1,6.33-.04,9.49,.09,1.67,.07,2.1-.52,2.07-2.13-.09-4.79,.05-9.59-.06-14.39-.04-1.74,.41-2.31,2.23-2.3,1.79,.01,2.5,.37,2.45,2.35-.14,4.79,.04,9.59-.06,14.38-.03,1.65,.48,2.16,2.11,2.09,3.06-.14,6.14,.01,9.2-.12,2.65-.11,3.92,.84,3.78,3.65-.15,3.06,.07,6.14-.08,9.2-.08,1.6,.47,2.41,1.89,3.06,4.6,2.13,9.12,4.47,13.73,6.58,1.93,.88,2.64,2.13,2.62,4.24-.09,7.38,.05,14.77-.04,22.15-.03,1.97,.22,3.19,2.56,2.72,1.87-.37,2.16,.58,2.2,2.25,.05,1.91-.56,2.39-2.42,2.38-12.66-.08-25.32-.04-37.98-.04,0,0,0,.02,0,.03Zm12.89-28.17c0-6.9-.12-13.81,.06-20.71,.06-2.44-.88-2.84-2.99-2.81-6.62,.09-13.23,.1-19.85-.05-2.18-.05-2.72,.59-2.7,2.74,.1,13.62,.13,27.23-.04,40.85-.04,2.88,.64,4,3.61,3.6,2.08-.28,4.75,.62,6.17-.39,1.74-1.24,.57-4.1,.62-6.24,.04-1.83,.92-1.95,2.34-1.98,1.48-.03,2.23,.25,2.31,2.01,.09,2.13-1.14,5.04,.65,6.2,1.57,1.02,4.27,.3,6.47,.34,.29,0,.58-.03,.86,.01,2.1,.36,2.55-.64,2.52-2.58-.1-7-.04-14-.04-21Zm4.51,7.7c0,4.59,.06,9.18-.03,13.77-.03,1.63,.52,2.18,2.14,2.13,3.15-.11,6.31-.12,9.47-.04,1.58,.04,2.18-.42,2.16-2.1-.08-6.98-.05-13.97,0-20.95,.01-1.32-.38-2.09-1.61-2.67-3.37-1.58-6.71-3.25-10.02-4.97-1.62-.84-2.17-.54-2.13,1.33,.08,4.49,.03,8.99,.02,13.49Zm-34.47-15.38c-4.36,2.08-8.14,3.9-11.93,5.69-.96,.45-1.47,1.04-1.46,2.18,.06,7.18,.06,14.35,.06,21.53,0,1.09,.19,1.83,1.54,1.81,3.44-.03,6.89,0,10.33,.05,1.14,.02,1.47-.54,1.47-1.58-.02-9.74,0-19.48,0-29.68Z"/>
  <path class="cls-3" d="M266.42,89.77c-1.61,.02-3.22,.05-4.83,.07-2.1-2.11-4.19-2.23-6.28,0-1.57-.02-3.14-.05-4.72-.07-.77-.88-1.79-.48-2.7-.49-3.64-.04-7.29,.09-10.93-.06-3.66-.15-6.67-1.76-8.66-4.88-2.31-3.62-2.4-7.5-.3-11.18,2.17-3.82,5.62-5.67,10.09-5.24,2.2,.21,4.09,.45,4.71-2.6,1.48-7.28,6.87-11.89,13.96-12.31,7.28-.43,13.6,3.73,15.89,10.73,.73,2.24,1.73,2.99,4.16,2.66,6.58-.88,11.9,3.92,12.46,10.95,.48,6.11-4.45,11.68-10.69,11.91-3.16,.12-6.33-.06-9.49-.07-.92,0-1.94-.37-2.67,.56Zm-7.23-20.47c-5.78,.07-10.45,1.47-14.32,4.98-.8,.73-1.99,1.54-.87,2.85,1.09,1.27,1.96,.37,2.89-.39,7.11-5.83,16.53-5.75,23.65,.16,.92,.76,1.83,2.17,3.03,.62,1.05-1.35-.2-2.29-1.1-3.11-3.95-3.59-8.74-4.91-13.29-5.11Zm-.63,6.23c-3.55,.07-6.66,1.15-9.37,3.31-.86,.69-2.08,1.38-1.08,2.78,1,1.39,1.92,.51,2.89-.18,5.25-3.72,9.87-3.66,15.01,.22,.95,.72,1.79,1.66,2.85,.28,1.02-1.34-.09-2.11-.93-2.85-2.7-2.37-5.92-3.42-9.38-3.56Zm.24,9.53c1.11-.12,2.27,.5,3.34,1.35,.75,.6,1.55,1.41,2.39,.24,.63-.87,.43-1.77-.3-2.59-2.57-2.87-8.95-2.81-11.41,.12-.59,.7-1.06,1.44-.24,2.25,.73,.71,1.58,.67,2.27-.05,1.01-1.04,2.24-1.37,3.95-1.33Z"/>
  <path class="cls-1" d="M145.35,270.51c-.17-1.2-.67-1.5-1.62-.61-1.99,1.85-3.32,1.21-4.71-.9-3.06-4.63-3.15-4.57,1.43-7.8,8.69-6.13,17.4-12.22,26.03-18.42,1.59-1.14,2.73-1.25,4.28,0,1.92,1.55,4.04,2.84,6.04,4.22,.25-.18,.5-.26,.52-.37q.72-4.86,5.68-4.93c.96-.01,1.93,.05,2.87-.05,1.65-.19,2.21,.51,2.17,2.11-.07,2.97,.07,5.94-.02,8.91-.05,1.6,.45,2.67,1.81,3.58,3.33,2.25,6.54,4.68,9.85,6.96,1.28,.88,1.69,1.71,.54,2.95-.32,.35-.54,.79-.81,1.18q-2.73,3.97-7.1,1.69c0,6.8,0,13.45,0,20.1,0,1.39,1.01,1.13,1.82,1.13,1.19,0,2.26-.14,2.2,1.7-.05,1.7-1.07,1.5-2.11,1.49-10.83-.02-21.66-.04-32.49-.06,0-1.01,0-2.02,0-3.03,1.58-.1,3.16-.2,4.96-.31-1.16-2.89-3.27-4.31-5.96-4.44-3.21-.15-5.66,1.39-6.99,4.45-1.02,0-2.03-.01-3.05-.02,1.73-6.88,7.79-9.2,15.5-5.94q.23-2.91-1.15-2.94c-7.27-.15-10.53-2.79-12.09-9.94-.48-2.21-.74-4.46-1.09-6.65-3.46,.71-3.71,3.18-3.55,5.9-.98,.01-1.97,.02-2.95,.03Zm20.99,3.44c.03,.07,.05,.16,.1,.22,.02,.03,.1,.01,.16,.02-.1-.06-.2-.13-.29-.19,0-.56,.13-1.16-.01-1.68-.76-2.77-7.41-6.46-10.17-5.75-.74,.19-.86,.65-.83,1.25,.21,3.65,1.17,7.02,4.17,9.37,1.62,1.27,3.49,1.75,5.56,.63-1.02-1.76-2.21-3.1-3.54-4.35-.72-.68-1.45-1.42-.48-2.4,.85-.86,1.73-.47,2.6,.07,1.15,.72,1.44,2.27,2.75,2.83Zm20.32-8.97c-.3,1.47-.52,2.88-.87,4.26-1.61,6.29-7.48,10.62-13.07,9.67-3.2-.55-3.35-.43-3.17,2.81,.06,1.08,.27,2.14,.43,3.33,7.99-4.28,12.31-3.12,16.29,4.18,.46,.84,.93,1.08,1.75,1.04,1.33-.06,1.12-1.06,1.13-1.88,.02-6.79-.01-13.59,.07-20.38,.02-1.87-1.18-2.4-2.57-3.03Zm-33.28-1.93c4.47,.59,8.53,1.21,12.01,3.7,1.28,.92,1.31,.06,1.71-.73,1.33-2.65,3.37-4.63,6.05-5.9,1.24-.59,2.51-1.12,4.05-1.8-2.72-2.01-5.1-3.77-7.49-5.52-.54-.39-1.03-.82-1.78-.27-4.84,3.53-9.7,7.02-14.55,10.53Zm32.08-6.23c-3.88-2.7-7.41-5.14-10.92-7.61q-5.75-4.05-11.63,.03c-.47,.33-.96,.64-1.42,.97-6.56,4.65-13.11,9.32-19.69,13.94-1.23,.86-1.95,1.66-.43,2.8,1,.74,1.57-.36,2.18-.8,7.43-5.24,14.86-10.49,22.21-15.85,2.04-1.49,3.59-1.89,5.69,.04,2.24,2.06,4.97,3.58,7.38,5.47,1.87,1.47,3.82,1.98,6.64,1.03Zm-14.04,18.61c3.25,1.29,5.99,.45,8.31-1.67,3.62-3.3,3.98-7.87,4.42-12.36,.06-.64-.18-1.18-.96-1.04-5.01,.9-10.08,1.74-13.11,6.58-.96,1.53-1.49,3.18-.51,5.2,1.66-2.07,3.11-3.94,4.63-5.76,.78-.93,1.79-1.65,2.95-.63,1.37,1.2,.15,2.01-.61,2.81-1.95,2.07-3.99,4.08-5.12,6.87Zm-.95,14.74c3.8,0,7.31,.01,10.82-.01,.53,0,1.23,.24,1.53-.38,.34-.72-.28-1.25-.66-1.76-2.94-3.9-8.96-2.98-11.68,2.15Zm17.06-31.65c-.8,1.89-.53,3.07,1.12,4.03,1.97,1.15,3.78,2.55,5.67,3.84,.72,.49,1.38,1.05,2.16,0,.87-1.19,.05-1.69-.76-2.24-2.66-1.82-5.32-3.65-8.18-5.61Zm-2.76-5.93c0-2.43-.03-4.51,0-6.58,.04-1.91-1.35-1.4-2.39-1.48-1.13-.09-1.88,.03-2.11,1.54-.54,3.47,1.71,4.88,4.5,6.52Z"/>
  <path class="cls-1" d="M36.23,136.63c8.82-.04,17.63-.11,26.45-.09,2.44,0,4.18,1.25,4.89,3.69,2.12,7.34,4.9,14.48,6.84,21.89,.44,1.7,1.41,3.28,1.78,5.05,.86,4.02-1.67,7.32-5.74,7.36-5.27,.05-10.55,.1-15.82-.03-1.93-.05-2.68,.41-2.73,2.47-.05,2.03,.7,2.47,2.51,2.31,4.37-.39,5.28,3.11,5.07,6.56-.08,1.28-.93,1.24-1.81,1.24-7.29,0-14.57-.02-21.86,.01-1.41,0-1.75-.59-1.79-1.91-.12-4.39,1.26-6.13,5.49-6.05,2.08,.04,1.96-.98,2.05-2.43,.11-1.75-.42-2.3-2.23-2.26-5.37,.13-10.74,.08-16.1,.05-5.08-.03-7.56-3.24-6.11-8.13,2.03-6.81,4.24-13.58,6.37-20.36,.56,1.06,2.52,.73,2.42,2.44-1.52,2.05-2.25,4.77-1.83,6.83,.28,1.35,3.56,.31,5.48,.53,.19,.02,.38,0,.57,0,5.31-.02,5.96-.66,6.12-5.84,.03-.91-.16-1.47-1.14-1.55,0-.93,0-1.86,0-2.79,1.89,.12,2.15-1.33,2.11-2.59-.04-1.25,1.45-3.04-.96-3.7-.01-.9-.02-1.81-.03-2.71Zm10.15,29.76v.04c1.25,0,2.49,0,3.74,0,5.94,0,5.88,0,5.16-5.8-.18-1.46-.7-1.98-2.14-1.94-3.16,.09-6.32,.07-9.48,.08-5.81,0-5.74,.01-6.53,5.81-.2,1.44,.07,1.88,1.5,1.84,2.58-.07,5.17-.02,7.76-.02Zm.34,3.03s0,.07,0,.1c-8.14,0-16.27-.01-24.41,.02-.73,0-1.99-.54-2.04,.73-.04,1.01,1.06,1.19,1.96,1.22,.48,.02,.96,.01,1.44,.01,12.83,.02,25.65,.05,38.48,.06,2.87,0,5.74-.03,8.61-.07,1.05-.01,2.11-.51,2.03-1.55-.08-.98-1.26-.52-1.95-.52-8.04-.03-16.08-.02-24.12-.02Zm-.37-13.65v.08c1.05,0,2.11,.01,3.16,0,5.97-.08,5.13,1,4.32-5.17-.21-1.63-.81-2.29-2.55-2.18-2.38,.16-4.79-.03-7.18,.02-6.18,.11-4.32-1.04-5.5,4.91-.33,1.69,.1,2.51,2.01,2.38,1.91-.13,3.83-.03,5.75-.03Zm-19.14,10.73c1.44,0,2.97,.03,4.5-.01,.89-.02,2.02,.33,2.24-1.11,.32-2.12,.87-4.22,.67-6.39-.01-.12-.68-.25-1.04-.25-3.35,0-6.69,.03-10.04,.01-1.04,0-1.45,.29-1.47,1.47-.04,2.05-2.4,4.34-1.03,5.84,1.22,1.33,4,.21,6.17,.44Zm38.66-.06c.38,0,.77,0,1.15,0,6.07-.02,6.02,0,3.97-5.86-.44-1.27-.95-1.93-2.38-1.88-2.97,.1-5.94,.07-8.91,.06-.98,0-1.57,.15-1.57,1.4,0,5.27,.91,6.27,6.02,6.28,.57,0,1.15,0,1.72,0Zm-2.43-10.65v.06c1.34,0,2.68-.05,4.01,.01,1.72,.08,1.86-.69,1.43-2.12-1.57-5.27-1.54-5.28-7.07-5.26-1.24,0-2.48,.06-3.73,.02-1.26-.03-1.57,.4-1.42,1.72,.61,5.54,.56,5.55,6.2,5.57,.19,0,.38,0,.57,0Zm-17.14-10.21v-.03c1.43,0,2.87,.05,4.3-.02,1.01-.05,2.84,.41,2.23-1.47-.53-1.63,1.2-4.69-2.49-4.68-2.58,0-5.17,.06-7.75-.03-1.55-.06-2.17,.48-2.37,2.07-.54,4.17-.62,4.16,3.49,4.17,.86,0,1.72,0,2.58,0Zm14.9-.03v.03c.96,0,1.93-.09,2.87,.02,1.92,.22,1.92-.61,1.53-2.15-.72-2.84-1.93-4.7-5.3-4.08-1.2,.22-2.48,.05-3.73,.03-1.03-.02-1.24,.47-1.2,1.44,.17,4.46,.36,4.66,4.97,4.71,.29,0,.57,0,.86,0Zm-14.49,38.57s0,0,0-.01c2.59,0,5.18,.02,7.76-.02,.58,0,1.54,.38,1.61-.62,.06-.84-.57-1.4-1.49-1.4-5.27,0-10.54-.01-15.81,.01-.74,0-1.32,.35-1.31,1.2,.01,1.08,.87,.81,1.47,.82,2.59,.03,5.18,.01,7.76,.01Zm2.24-7.37c.42-1.95-.57-2.28-2.33-2.36-2.18-.11-2.12,1.07-2.23,2.61-.13,1.84,.66,2.17,2.3,2.21,1.87,.04,2.67-.55,2.26-2.45Z"/>
  <path class="cls-1" d="M76.88,60.61c.58,9.3,1.13,18.09,1.68,26.87,.09,1.43,.24,2.87,.29,4.3,.06,1.99-.26,3.63,2.91,3.93,2.83,.27,1.89,3.5,2.06,5.55,.18,2.14-1.61,1.45-2.68,1.46-4.98,.06-9.97-.03-14.95,.03-1.82,.02-2.62-.49-2.25-2.48,.46-2.48,.06-5.46,4.15-4.93,1.11,.14,.88-1.02,.93-1.73,.75-10.61,1.49-21.23,2.21-31.84,.04-.61,.41-1.48-.49-1.72-.88-.24-1.17,.6-1.27,1.22-.65,4.11-3.75,5.66-7.11,7.08-4.05,1.72-8.03,3.62-12.04,5.44-2.22,1.01-4.42,1.25-5.72-1.26-1.22-2.36,.17-3.97,2.12-5.22,6.75-4.34,13.18-9.24,20.69-12.29,.67-.27,1.11-.54,1.2-1.37,.12-1.06,.5-2.27,1.4-2.75,3.23-1.73,1.82-3.33,.1-5.09-1.06-1.09-1.34-2.44-1.15-3.98,.64-5.42,1.2-10.86,1.76-16.29,.24-2.35,1.13-4.22,3.79-4.14,2.59,.08,3.71,1.95,3.69,4.29-.04,7.83,.51,15.66-.17,23.5-.17,1.96,1.67,3.81,1.9,6.03,.09,.85,1.69,.58,2.59,.3,2.56-.81,4.59-.02,6.59,1.65,4.49,3.75,9.11,7.33,13.64,11.02,1.66,1.36,1.91,3.09,.7,4.85-1.15,1.69-2.78,1.89-4.56,1.04-.77-.37-1.51-.82-2.25-1.27-6.46-3.89-13.04-7.56-19.76-12.21Zm3.13-1.9c-.17-.15-.34-.3-.51-.46-.08,.09-.16,.18-.25,.28,.24,.07,.49,.14,.73,.21,6.38,4.96,13.3,9.02,20.64,12.43-2.62-3.42-6.1-5.76-9.25-8.48-3.29-2.84-6.55-5.59-11.37-3.97Zm-5.86,5.33c-.11,.02-.23,.05-.34,.07-.58,9.56-1.17,19.12-1.73,28.68-.07,1.24-.6,2.68,1.72,2.72,2.18,.04,2.23-1.01,2.16-2.64-.31-8.01-1.31-15.98-1.32-24.01,0-1.6-.33-3.21-.5-4.81Zm-5.2-6.06c-5.88,1.68-20.09,10.68-21.4,13.31,.43,0,.83,.1,1.15-.02,5.57-2.05,10.89-4.66,16.21-7.29,.63-.31,1.12-.73,1.27-1.45,.4-1.83,1.45-3.26,2.77-4.56Zm6.4-9.61c0-7.41,0-14.82,0-22.23,0-.64,0-1.48-.91-1.46-.71,.01-.75,.74-.81,1.31-.59,5.3-1.18,10.61-1.75,15.91-.07,.66-.15,1.42,.44,1.87,1.53,1.18,2.06,2.88,3.04,4.6Zm1.35,6.34c-.02-1.56-.63-2.73-2.26-2.77-1.75-.04-2.99,.93-2.94,2.76,.04,1.53,.82,2.84,2.61,2.79,1.71-.05,2.51-1.15,2.59-2.78Zm-9.29,44.03c3.65,1.45,11.74,1.14,13.12,0h-13.12Z"/>
  <path class="cls-1" d="M135.3,166.99c2.44-.38,3.75,.79,4.81,2.95,2.84,5.8,7.24,10.31,12.45,14.07,1.31,.95,1.94,1.19,2.36-.87,1.63-8.07,3.37-16.13,6.09-23.91,.85-2.44,.14-4.22-1.26-6.04-.76-.98-1.39-2.07-2.1-3.09-.56-.82-.69-1.56,.24-2.23,.96-.69,1.8-.58,2.49,.36,.9,1.22,1.45,2.69,2.85,3.75,2.41-5.7,4.79-11.3,7.14-16.91,.43-1.02-.14-1.86-.62-2.69-1.15-1.99-2.33-3.97-3.49-5.95-.6-1.03-1.25-2.16,.24-2.92,1.3-.66,2.17,.13,2.8,1.24,.43,.75,.76,1.56,1.27,2.25,.66,.88,.88,2.5,2.11,2.45,1-.04,1.24-1.54,1.74-2.43,1.58-2.85,3.09-5.74,4.69-8.57,.63-1.11,1.22-2.73,3-1.59,1.7,1.08,.62,2.36-.04,3.47-3.14,5.28-5.98,10.71-8.6,16.26-.56,1.18-1.31,2.32-1.3,3.9,2.78-.1,5.19-1.34,7.75-1.95,1.35-.32,2.61-.55,3.04,1.06,.41,1.53-.88,1.91-2.03,2.22-1.94,.53-3.85,1.3-5.83,1.53-4.13,.48-6.33,2.76-7.48,6.62-1.25,4.18-2.83,8.27-4.33,12.58,1.96,.12,3.18-.98,4.61-1.35,1.09-.28,2.12-.35,2.59,1.01,.46,1.3-.46,1.69-1.37,2.08-.35,.15-.71,.35-1.08,.39-4.88,.55-6.81,3.65-7.5,8.17-.62,4.06-1.6,8.07-2.54,12.08-.31,1.34,.08,1.69,1.34,1.74,14.91,.55,27.5-3.55,35.09-17.56,.73-1.35,1.72-2.08,3.01-2.63,1.97,.87,.97,2.19,.42,3.32-4.86,10.02-12.82,16.26-23.55,18.95-5.04,1.27-10.18,1.85-15.38,1.39-1.39-.12-1.79,.28-1.95,1.63-.59,5.05-1,10.1-.92,15.19,.02,1.28,.47,3.02-1.54,3.08-2.15,.06-1.84-1.78-1.89-3.17-.16-5.09,.3-10.15,1.02-15.17,.28-1.95-.2-3.07-1.93-4.18-5.98-3.83-10.83-8.83-14.08-15.21-.73-1.42-1.62-1.7-3.1-1.87-3.85-.44-6.83,.61-9.11,3.86-1.03,1.47-2.6,2.56-3.75,3.96-1.45,1.77-3.13,2.72-5.47,2.34-1.35-.22-2.19,.24-2.97,1.53-1.37,2.25-3.61,3.08-6.21,2.36-2.69-.75-4.24-3-4.15-5.82,.09-2.69,1.35-4.65,3.94-5.37,2.6-.72,4.94-.1,6.55,2.3,1.5,2.23,3.87,2.5,5.77,.61,2.11-2.09,4.33-4.09,6.22-6.37,1.69-2.04,3.58-2.95,6.2-2.65,1.21,.14,2.47-.12,3.71-.2Zm-24.09,12c-.08-1.59-.85-2.77-2.57-2.73-1.63,.03-2.67,1.09-2.7,2.75-.04,1.58,1.01,2.56,2.47,2.63,1.61,.08,2.68-.83,2.8-2.65Z"/>
  <path class="cls-1" d="M257.85,213.3c9.94,.4,17.72,4.71,22.55,13.69,4.82,8.95,4.14,17.88-.89,26.55-1.47,2.53-.83,4.24,2.04,4.46,1.61,.12,2.64,1.01,3.64,2.04,4.12,4.28,8.25,8.56,12.34,12.87,3.01,3.17,3.05,6.84,.2,9.67-2.91,2.88-6.84,2.76-9.89-.44-4.23-4.44-8.38-8.96-12.56-13.45-.91-.97-1.61-1.85-1.45-3.49,.23-2.3-2.37-3.72-4.43-2.74-10.05,4.77-19.66,3.94-28.27-3.09-8.34-6.81-11.21-15.92-8.63-26.31,2.66-10.69,9.96-16.91,20.6-19.29,1.48-.33,3.04-.31,4.74-.47Zm22.47,26.22c-.02-13.13-9.86-23.06-22.82-23.03-12.36,.03-22.7,10.42-22.68,22.78,.03,12.92,9.92,22.8,22.79,22.75,12.85-.05,22.73-9.83,22.71-22.5Zm1.44,22.4c-.98,.78-2.16,1.75-3.37,2.67-1.14,.88-1.28,1.67-.19,2.8,3.98,4.13,7.84,8.39,11.83,12.51,1.87,1.94,3.83,1.94,5.47,.16,1.61-1.76,1.21-3.41-.37-5.03-3.93-4.05-7.81-8.16-11.71-12.24-.38-.4-.67-.96-1.67-.88Zm-5.66-.01c.57-.6,1.66-1.23,1.73-1.95,.07-.78-.94-1.86-1.87-1.74-.79,.1-1.9,.81-1.77,1.88,.1,.78,.78,1.51,1.91,1.82Z"/>
  <path class="cls-1" d="M266.42,89.77c.73-.94,1.76-.56,2.67-.56,3.16,0,6.33,.19,9.49,.07,6.24-.23,11.17-5.81,10.69-11.91-.56-7.03-5.87-11.84-12.46-10.95-2.43,.33-3.43-.43-4.16-2.66-2.29-7-8.61-11.16-15.89-10.73-7.08,.42-12.47,5.03-13.96,12.31-.62,3.05-2.51,2.81-4.71,2.6-4.47-.43-7.92,1.41-10.09,5.24-2.09,3.69-2.01,7.56,.3,11.18,1.99,3.12,5,4.74,8.66,4.88,3.64,.14,7.28,.02,10.93,.06,.91,0,1.94-.4,2.7,.49-.37,3.9-.37,3.92-4.43,3.9-3.45-.02-6.92,.17-10.34-.19-7.95-.85-13.61-7.11-13.7-14.8-.09-7.81,5.3-14.08,13.36-14.98,2.41-.27,3.2-1.3,4.13-3.26,3.5-7.39,9.45-11.45,17.67-11.67,8.27-.22,14.28,3.75,18.16,10.91,.88,1.62,1.68,2.3,3.6,2.37,7.47,.26,13.88,6.65,14.5,14.17,.68,8.17-4.27,15.27-11.96,16.93-4.53,.98-9.17,.4-13.76,.6-1.03,.04-1.3-.49-1.28-1.42,.02-.86-.09-1.71-.15-2.57Z"/>
  <path class="cls-5" d="M198.63,36.1c3.95,5,4.44,10.55,1.93,16.19-2.59,5.8-7.34,9.19-13.72,9.39-8.33,.27-16.68,.04-25.02,.03-5.75,0-11.51,.05-17.26-.02-7.97-.09-14.65-6.36-15.09-14.08-.48-8.47,5-15.15,13.44-16.07,2.04-.22,3.05-.88,3.87-2.83,3.98-9.5,14.21-14.42,24.12-11.81,1.1,.29,2.19,.62,2.91,1.62-.44,1.12-.26,2.46-1.2,3.41-.55-.15-1.11-.28-1.65-.45-9.71-2.94-18.43,1.91-20.96,11.78-.55,2.15-1.65,2.77-3.7,2.49-3.16-.43-6.11,.1-8.61,2.27-3.5,3.02-4.71,7.81-3.1,12.31,1.55,4.33,5.64,7.13,10.77,7.14,13.32,.04,26.64,.02,39.96-.01,2.73,0,5.3-.63,7.57-2.29,5.01-3.68,5.95-9.43,2.66-16.53,1.75,.03,2.85-.73,3.11-2.53Z"/>
  <path class="cls-1" d="M202.12,144.54c-2.06,.04-2.89-.71-3.03-3.02-.44-7.54-1.16-15.06-1.9-22.57-.57-5.85-.44-11.69,.49-17.45,.42-2.62-.41-2.73-2.43-2.28-13.74,3.07-26.25,8.73-37.28,17.57-7.25,5.81-13.45,12.52-17.77,20.79-.96,1.84-2.32,1.61-3.77,1.78-.67-.06-1.36-.28-1.99-.17-6.35,1.13-11.05-1.39-14.83-6.35-1.27-1.66-2.95-3-4.45-4.5-.77-.77-1.1-1.65-.23-2.51,.88-.87,1.74-.48,2.5,.28,2.44,2.44,5.01,4.77,7.27,7.37,1.61,1.86,3.41,2.18,5.73,2.44,4.95,.56,7.53-1.35,10.35-5.55,11.95-17.87,29.36-28.13,49.82-33.59,2.95-.79,5.99-1.27,9.01-1.8,1.84-.33,2.88,.43,2.36,2.4-2.99,11.23-1.08,22.48-.27,33.74,.32,4.45,1.33,8.9,.42,13.4Z"/>
  <path class="cls-1" d="M287.35,180.99c-14.49,.06-24.17-12.5-20.66-26.82,1.19-4.87,3.2-9.41,5.62-13.79,3.63-6.58,8.07-12.57,12.93-18.27,1.07-1.26,2.21-2.44,3.7-.65,8.87,10.7,17.04,21.88,19.39,35.99,2.11,12.68-7.76,23.48-20.97,23.53Zm14.2-33.66l.05,.05c-2.62-6.76-6.56-12.73-10.9-18.47-3.28-4.33-3.28-4.35-6.51-.19-6.38,8.22-12.06,16.87-14.5,27.15-2.03,8.55,1.87,16.44,9.76,20.19,9.97,4.74,22.49-.67,25.21-11.12,1.62-6.21,.13-12.12-3.1-17.6Z"/>
  <path class="cls-1" d="M197.37,165.09c-.69-.93-1.68-.71-2.63-.69-2.39,.04-4.78,.16-7.16,.08-1.8-.06-3.1,.18-4.32,1.88-2.02,2.8-5.83,2.73-8.26,.25-2.34-2.38-2.13-5.8,.49-8.08,2.62-2.28,6.15-1.85,8.17,1.09,.63,.91,1.12,1.6,2.41,1.57,4.77-.12,9.54-.12,14.32-.17,1.86-.16,3.15,.6,4.38,2.04,2.47,2.91,5.16,5.64,7.83,8.38,2.27,2.32,5.78,2.1,7.74-.38,2.04-2.57,5.66-2.92,8.14-.78,2.49,2.16,2.68,6.13,.4,8.45-2.24,2.29-6.25,2.43-8.08-.3-1.54-2.3-3.35-2.46-5.54-2.22-1.9,.21-3.19-.51-4.45-1.92-2.74-3.06-5.66-5.96-8.52-8.91-1.53-1.57-3.21-1.25-4.91-.31Zm27.28,6.94c-1.28,.28-2.42,.93-2.47,2.55-.05,1.75,.95,2.7,2.66,2.68,1.59-.01,2.51-.95,2.47-2.55-.03-1.56-.96-2.42-2.67-2.68Zm-42.85-9.4c-.31-1.46-1.18-2.52-2.71-2.42-1.43,.09-2.56,.93-2.47,2.6,.09,1.57,1,2.47,2.6,2.44,1.65-.03,2.28-1.16,2.58-2.62Z"/>
  <path class="cls-1" d="M135.73,142c1.81,.09,3.63,.19,5.44,.28,2.12,.11,3.86,.02,5.31-2.23,1.74-2.71,5.8-2.54,8.06-.18,2.22,2.32,1.98,6.37-.5,8.5-2.41,2.07-6.42,1.82-8.11-.92-1.08-1.75-2.31-1.92-3.99-1.87-2.77,.07-5.55,.05-8.32,.08-4.4-.01-8.8,.03-13.2-.07-1.25-.03-1.82,.45-2.43,1.46-1.42,2.31-3.58,3.16-6.17,2.29-2.56-.86-4.22-2.61-4.23-5.49,0-2.54,1.78-5,4.19-5.55,2.69-.62,4.96,.12,6.33,2.67,.49,.91,.95,1.52,2.13,1.46,5.16-.27,10.33,.19,15.48-.39Zm17.34,1.79c-.18-1.5-1.13-2.45-2.62-2.46-1.51-.01-2.51,.94-2.56,2.54-.05,1.65,.86,2.48,2.49,2.46,1.59-.02,2.44-.91,2.69-2.54Zm-37.23,.12c-.02-1.67-.97-2.61-2.47-2.62-1.51-.01-2.54,1.04-2.58,2.55-.04,1.52,.81,2.53,2.49,2.5,1.59-.03,2.46-.86,2.56-2.44Z"/>
  <path class="cls-1" d="M133.58,160.61c1.43,.04,2.86,.04,4.29,.15,1.98,.15,3.48-.2,4.82-2.06,1.93-2.67,5.41-2.76,7.86-.68,2.39,2.03,2.67,5.55,.64,7.96-2.04,2.42-6.02,3.19-7.83,.75-2.56-3.43-5.65-2.63-8.86-2.47-6.02-.49-12.05-.21-18.08-.33-1.09-.02-1.43,.61-1.92,1.35-1.55,2.35-3.73,3.18-6.46,2.32-2.56-.81-4.08-2.58-4.14-5.24-.06-2.63,1.26-4.58,3.81-5.5,2.44-.88,5.16,0,6.72,2.45,.67,1.05,1.35,1.4,2.51,1.39,5.55-.07,11.1-.08,16.65-.11Zm13.31,4.34c1.49-.29,2.64-1.03,2.61-2.6-.03-1.72-1.2-2.56-2.87-2.45-1.56,.1-2.51,1.06-2.4,2.63,.11,1.54,1.17,2.31,2.67,2.43Zm-34.61-2.66c-.05-1.72-1.08-2.57-2.52-2.63-1.44-.06-2.62,.69-2.7,2.33-.08,1.73,.87,2.69,2.6,2.66,1.54-.02,2.43-.89,2.62-2.36Z"/>
  <path class="cls-1" d="M201.99,150.82c-5.43-.04-10.85-.08-16.28-.13-1.21-.01-2.62,.23-2.72-1.66-.11-2.09,1.46-1.6,2.59-1.62,5.52-.09,11.04-.12,16.56-.17,2.25,.63,4.05,.01,5.6-1.77,1.25-1.44,2.69-2.72,4.08-4.04,1.72-1.64,3.15-3.04,2.51-6.01-.68-3.12,2.69-6,5.96-5.89,3.24,.11,5.61,2.79,5.43,6.14-.18,3.34-2.81,5.94-6.1,5.33-2.32-.43-3.55,.54-4.9,1.93-1.26,1.31-2.71,2.46-3.86,3.85-2.33,2.82-5.06,4.55-8.86,4.04Zm20.71-15.43c-.16-1.48-.88-2.53-2.46-2.57-1.7-.05-2.66,.9-2.67,2.62,0,1.62,1.02,2.52,2.51,2.49,1.45-.03,2.43-.95,2.62-2.53Z"/>
  <path class="cls-1" d="M84,82.82c.1-2.26,1.08-4.55,3.74-5.75,2.56-1.15,5.08-.97,7.3,.8,2.27,1.81,2.93,4.41,2.06,6.99-.65,1.91-.15,2.96,1.09,4.22,4.57,4.63,9.11,9.31,13.58,14.04,.8,.84,2.85,1.51,.95,3.34-1.82,1.75-2.33-.32-3.05-1.04-4.8-4.81-9.51-9.72-14.21-14.63-.98-1.02-1.78-1.49-3.4-1.12-4.21,.96-7.99-2.18-8.05-6.85Zm6.7,3.93c2.13-.05,3.83-1.82,3.63-3.78-.22-2.21-1.57-3.42-3.78-3.48-1.95-.05-3.69,1.79-3.47,3.73,.24,2.2,1.64,3.32,3.62,3.53Z"/>
  <path class="cls-1" d="M91.58,233.71c-3.84-.02-6.59-2.99-6.39-6.91,.2-3.99,3.61-7.05,7.6-6.24,2.17,.44,3.29-.25,4.62-1.62,4.87-5,9.81-9.94,14.75-14.87,.7-.69,1.23-2.06,2.69-.62,1.37,1.35,.32,1.9-.46,2.69-5.08,5.2-10.13,10.42-15.23,15.6-.99,1.01-1.52,1.77-1.01,3.43,1.38,4.42-1.96,8.57-6.57,8.55Zm-3.19-6.56c.23,2.13,1.36,3.45,3.53,3.34,2.11-.11,3.4-1.48,3.38-3.57-.03-2.17-1.53-3.33-3.59-3.31-2.16,.02-3.23,1.42-3.32,3.55Z"/>
  <path class="cls-1" d="M148.38,115.15c0-7.54-.03-14.97,.02-22.4,.01-1.68-.16-2.91-1.81-4.03-2.88-1.95-3.03-5.94-.7-8.58,2.16-2.43,5.78-2.51,8.16-.18,2.49,2.45,2.53,6.51-.36,8.57-1.91,1.35-2.06,2.82-2.04,4.8,.06,5.74-.09,11.48-.03,17.21,.03,2.23-.36,3.99-3.25,4.6Zm1.82-28.31c1.47-.28,2.4-1.07,2.39-2.66-.01-1.71-1-2.77-2.63-2.71-1.66,.07-2.55,1.36-2.48,2.94,.07,1.52,1.18,2.28,2.71,2.43Z"/>
  <path class="cls-1" d="M130.44,112.53c0-1.78-.07-2.94,.02-4.08,.16-2.01-.22-3.47-2.18-4.75-2.85-1.88-2.92-5.83-.57-8.32,2.28-2.42,6.29-2.45,8.47-.05,2.2,2.42,2.11,6.6-.64,8.41-1.81,1.19-2.08,2.47-1.91,4.26,.04,.38,.06,.77,0,1.15-.85,5.49,.4,10.15,5.22,13.46,.6,.41,1.14,1.1,1.41,1.77,.28,.71-.51,1.15-.94,1.63-.52,.58-1.09,.27-1.5-.13-2.34-2.27-4.97-4.33-6.88-6.92-1.42-1.94-.28-4.67-.5-6.41Zm1.5-15.85c-1.63,.07-2.72,1.04-2.75,2.62-.03,1.47,1.05,2.43,2.57,2.53,1.76,.11,2.73-.95,2.73-2.57,0-1.45-.87-2.47-2.55-2.58Z"/>
  <path class="cls-1" d="M132.79,211.41c-2.35-.03-4.15-1.11-5.09-3.37-1.09-2.63-.44-5.05,1.76-6.66,1.48-1.09,1.92-2.27,1.65-3.85-.86-5.09,.8-9.08,4.98-12.11,.99-.72,1.78-1.74,2.63-2.64,.82-.86,1.54-1.79,2.81-.54,1.2,1.18,.21,1.86-.49,2.59-1.79,1.87-3.63,3.68-5.4,5.56-2.21,2.34-1.78,8.9,.66,10.97,2.08,1.76,2.56,4.04,1.66,6.49-.83,2.27-2.62,3.46-5.17,3.55Zm0-8.25c-1.48,.3-2.55,1.15-2.53,2.66,.02,1.5,1.05,2.5,2.61,2.47,1.56-.02,2.47-.97,2.42-2.57-.05-1.56-.93-2.43-2.51-2.56Z"/>
  <path class="cls-1" d="M233.5,154.69c-.16,2.33-1.24,4.3-3.67,5.15-2.48,.88-4.73,.32-6.45-1.79-1.95-2.38-3.86-2.52-6.09-.38-1.8,1.73-3.62,3.43-5.35,5.21-.9,.92-1.61,1.17-2.61,.15-1.05-1.08-.21-1.72,.43-2.39,2.14-2.2,4.36-4.31,6.43-6.57,1.12-1.21,2.45-.88,3.74-.87,1.42,.01,2.38-.18,3.15-1.71,1.21-2.41,3.47-3.16,6.11-2.48,2.47,.64,4.24,2.94,4.3,5.66Zm-5.79-2.74c-1.54,.25-2.56,1.16-2.52,2.65,.04,1.62,1.05,2.68,2.79,2.55,1.6-.12,2.33-1.2,2.28-2.73-.05-1.61-1.04-2.34-2.55-2.47Z"/>
  <path class="cls-1" d="M278.23,37.27c9.26,.48,17.55,8.2,18.67,17.4,.16,1.33,.51,2.97-1.37,3.22-1.65,.22-1.81-1.23-2.02-2.54-1.34-8.3-6.68-13.46-15.05-14.65-.19-.03-.38-.07-.57-.09-1.13-.12-2.55,0-2.44-1.68,.11-1.68,1.42-1.81,2.77-1.66Z"/>
  <path class="cls-1" d="M196.3,194.5c-1.9,6.16-2.03,6.23-8.29,4.93,2.11-1.8,.11-2.93-.71-4.61-.74,1.15-1.46,2.09-1.97,3.13-.67,1.36-1.5,1.94-2.83,.91-1.12-.87-3.39-.48-3.42-2.39-.04-2.19,3.44-5.23,5.55-5.23,1.91,0,3.83,.13,5.74,.16,1.26,.02,2.3,.43,2.81,1.6,.6,1.38,1.55,1.98,3.12,1.5Z"/>
  <path class="cls-1" d="M179.32,209.42c1.31,0,2.63,.09,3.93-.02,1.49-.14,2.25,.37,1.94,1.89-.26,1.29,.93,3.45-.89,3.71-2.2,.31-5,1.12-6.7-1.21-1.45-1.99-2.49-4.29-3.67-6.48-.49-.9,.14-1.65,.51-2.41,.33-.68,1.12-1.65,.91-2.01-1.26-2.11,.32-1.89,1.5-2.05,3.54-.47,5.38,1.02,5.62,4.54,.03,.47,.11,1.13-.57,.99-2.27-.45-1.7,1.87-2.59,3.04Z"/>
  <path class="cls-1" d="M196.23,209.35c-.61-1.09-.88-1.58-1.16-2.06-1.88-3.28-1.62-4.01,1.9-5.51,.35-.15,.61-.35,1.02-.14,1.33,.67,3.11,5.07,2.48,6.48-.78,1.74-1.74,3.4-2.58,5.11-.76,1.56-1.95,2.27-3.69,2.03-.38-.05-.89-.17-1.13,.02-3.4,2.6-3.3-1.51-4.72-2.56-.7-.52,2.16-5.18,3.11-5.13,.17,0,.46,.11,.47,.21,.52,2.72,2.47,1.08,4.29,1.55Z"/>
  <path class="cls-1" d="M248.89,157.34c-3.26,0-6.51-.01-9.77,0-1.09,0-2.07,.12-2.02-1.55,.04-1.42,.77-1.49,1.84-1.48,6.8,.02,13.6,.04,20.39-.02,1.25,0,1.66,.4,1.69,1.63,.03,1.4-.68,1.51-1.79,1.49-3.45-.05-6.89-.02-10.34-.02v-.06Z"/>
  <path class="cls-1" d="M235.7,219.46c-.53,.62-.97,1.22-1.5,1.73-.78,.76-1.18-.09-1.61-.5-5.05-4.97-10.06-9.97-15.13-14.92-.91-.89-1.14-1.5-.1-2.54,.93-.92,1.48-.84,2.31,0,5.05,5.1,10.12,10.18,15.19,15.26,.26,.26,.49,.56,.83,.96Z"/>
  <path class="cls-1" d="M47.01,119.19c2.77,.06,4.86,2.23,4.79,4.98-.06,2.68-2.39,4.85-5.07,4.74-2.59-.1-4.78-2.54-4.66-5.19,.12-2.56,2.32-4.59,4.94-4.53Z"/>
  <path class="cls-1" d="M290.89,55.37c.06,1.47-.26,2.42-1.35,2.66-1.32,.29-1.95-.63-2.13-1.78-.91-5.76-4.46-8.64-10.05-9.31-1.06-.13-1.91-.51-1.86-1.73,.06-1.34,.99-1.72,2.18-1.76,5.87-.18,13.15,6.6,13.22,11.92Z"/>
  <path class="cls-5" d="M36.23,136.63c.01,.9,.02,1.81,.03,2.71-1.33,.03-2.66,.08-4,.09-4.01,.01-4.58,.57-5.26,4.62-.21,1.22,.12,1.51,1.25,1.5,2.28-.02,4.57,.06,6.85,.09,0,.93,0,1.86,0,2.79-3.07,.01-6.13,.02-9.2,.03,.09-1.71-1.87-1.38-2.42-2.44,0-.1,0-.19,.02-.29,2.16-9.29,2.74-9.7,12.73-9.09Z"/>
  <path class="cls-5" d="M182.49,25.23c1.39,3.29,3.7,4.99,7.43,4.98,1.5,0,3.09,.78,4.31,1.93-1.93,.09-1.32,2.4-2.65,3.02-2.54-.8-5.08-1.55-7.82-1.08-1.47,.25-2.31-.58-2.63-2.01-.45-1.99-1.46-3.71-2.54-5.41,1.33-.4,3.1,.4,3.9-1.44Z"/>
  <path class="cls-5" d="M150.68,290.04c1.02,0,2.03,.01,3.05,.02,2.66,.1,5.33,.2,7.99,.3,0,1.01,0,2.02,0,3.03-5.56,0-11.12-.01-16.68-.02,.02-1.03,.03-2.06,.05-3.09,.09-.83,.19-1.66,.28-2.48,1.01,0,2.01-.01,3.02-.02,.22,1.3-.29,3.34,2.28,2.26Z"/>
  <path class="cls-1" d="M85.51,157.51c-2.29,0-4.58-.03-6.87,.02-1.04,.02-1.6-.21-1.56-1.42,.04-1.06,.08-1.82,1.49-1.8,4.77,.05,9.54,.05,14.31-.02,1.33-.02,1.57,.56,1.58,1.7,.02,1.15-.45,1.48-1.52,1.45-2.48-.05-4.96-.02-7.44-.02,0,.03,0,.06,0,.09Z"/>
  <path class="cls-1" d="M168.39,76.02c0,1.81-.04,3.62,.02,5.42,.03,1.03-.2,1.6-1.4,1.56-1.1-.04-1.76-.2-1.74-1.56,.06-3.71,.04-7.42-.06-11.13-.04-1.39,.67-1.51,1.74-1.56,1.21-.06,1.44,.53,1.41,1.56-.05,1.9-.01,3.81-.01,5.71,.02,0,.03,0,.05,0Z"/>
  <path class="cls-5" d="M145.35,270.51c.98-.01,1.97-.02,2.95-.03,.03,5.22,.05,10.43,.08,15.65-1-.03-2-.06-2.99-.09-.36-5.17-.29-10.35-.04-15.52Z"/>
  <path class="cls-1" d="M229.46,96.23c-.43,.54-.74,1.01-1.13,1.4-2.66,2.62-5.37,5.19-7.98,7.86-.99,1.01-1.63,.82-2.6-.02-1.14-1-.5-1.54,.25-2.25,2.78-2.63,5.53-5.3,8.29-7.95,.46-.44,.86-1.16,1.64-.46,.48,.44,.95,.89,1.53,1.42Z"/>
  <path class="cls-1" d="M182.49,25.23c-.8,1.84-2.57,1.04-3.9,1.44-1.81-1.82-3.75-3.47-5.99-4.75,.94-.95,.76-2.29,1.2-3.41,3.12,.14,4.9,2.45,6.93,4.32,.71,.66,1.18,1.59,1.76,2.4Z"/>
  <path class="cls-1" d="M284.51,56.06c0,.94-.28,1.77-1.3,1.94-.93,.16-1.78-.24-2.01-1.21-.56-2.39-2.15-3.45-4.45-3.81-1.02-.16-1.36-.99-1.23-1.95,.12-.92,.78-1.23,1.61-1.34,3.1-.4,7.45,3.35,7.38,6.37Z"/>
  <path class="cls-1" d="M255.31,89.85c2.09-2.23,4.18-2.12,6.28,0,.35,1.92,.17,3.66-1.74,4.74-1.26,.71-2.45,.32-3.47-.5-1.38-1.11-1.3-2.67-1.07-4.23Z"/>
  <path class="cls-1" d="M133.74,148.03c1.82-.04,2.46,.68,2.11,2.6-.28,1.56-.29,3.26,0,4.82,.41,2.17-.37,2.96-2.42,2.87-1.42-3.47-1.77-6.92,.3-10.29Z"/>
  <path class="cls-1" d="M165.78,231.12c0-1.43,.06-2.86-.02-4.28-.07-1.3,.72-1.27,1.63-1.31,1-.04,1.32,.36,1.31,1.33-.04,3.14-.04,6.27-.02,9.41,0,1.08-.57,1.24-1.47,1.15-.77-.08-1.55-.02-1.53-1.17,.04-1.71,0-3.42,0-5.13h.08Z"/>
  <path class="cls-1" d="M191.58,35.17c1.33-.62,.73-2.93,2.65-3.02,1.85,.88,3.35,2.17,4.4,3.95-.25,1.8-1.36,2.57-3.11,2.53-1.32-1.15-2.63-2.31-3.95-3.46Z"/>
  <path class="cls-1" d="M49.34,113.99c-1.15-.65-1.31,.04-1.43,1.07-.1,.81,.55,2.05-.94,2.27-.52,.08-1.02-.27-.98-.78,.09-1.22-.86-2.81,.72-3.53,.72-.32,1.21-.49,1.55-1.26,.42-.93,1.25-1.43,2.33-.91,.86,.41,1.32,1.12,1.06,2.08-.32,1.17-1.22,1.31-2.32,1.07Z"/>
  <path class="cls-5" d="M200.83,158.25c-.98-.43-2.27-.13-2-2.23,.31-2.38,1.56-2.36,3.19-2.35-.06,1.62,1,3.52-1.2,4.58Z"/>
  <path class="cls-1" d="M235.06,185.44c1.06,.08,1.82,.61,1.93,1.69,.12,1.22-.6,2.04-1.79,2.07-1.04,.03-1.79-.66-1.8-1.78,0-1.06,.57-1.75,1.66-1.98Z"/>
  <path class="cls-1" d="M48.2,132.94c-.13,.98,.37,2.3-1.39,2.19-1.43-.09-1.32-1.13-1.19-2.06,.14-.95-.65-2.5,1.35-2.43,1.75,.06,.96,1.48,1.23,2.29Z"/>
  <path class="cls-1" d="M231.19,196.12c-1.13-.22-1.77-.83-1.75-1.93,.02-1.12,.67-1.8,1.79-1.69,1.02,.09,1.78,.73,1.73,1.85-.05,1.09-.77,1.64-1.76,1.77Z"/>
  <path class="cls-1" d="M283.74,189.09c1.18,.05,1.88,.65,1.95,1.74,.07,1.13-.65,1.83-1.72,1.88-1.09,.05-1.82-.65-1.9-1.73-.09-1.14,.69-1.68,1.67-1.89Z"/>
  <path class="cls-1" d="M51.79,197.93c-.19,1.09-.81,1.77-1.9,1.7-1.22-.07-1.86-.87-1.75-2.09,.1-1.13,.86-1.65,1.95-1.51,1.06,.14,1.63,.82,1.69,1.9Z"/>
  <path class="cls-1" d="M283.03,198.26c-.1,1.11-.69,1.86-1.77,1.89-1.08,.03-1.8-.69-1.85-1.77-.05-1.1,.65-1.84,1.73-1.87,1.09-.03,1.68,.73,1.9,1.76Z"/>
  <path class="cls-1" d="M201.81,223.58c-1.13-.09-1.74-.73-1.73-1.84,.01-1.13,.72-1.79,1.8-1.77,1.08,.02,1.78,.78,1.76,1.84-.01,1.08-.71,1.7-1.83,1.76Z"/>
  <path class="cls-1" d="M54.5,105.28c-.12,1.13-.57,1.85-1.75,1.92-1.19,.06-1.8-.59-1.84-1.67-.04-1.05,.49-1.84,1.65-1.88,1.14-.04,1.64,.73,1.93,1.64Z"/>
  <path class="cls-1" d="M112.61,44.54c-1.13-.11-1.75-.71-1.7-1.87,.04-1.06,.77-1.56,1.69-1.59,.96-.03,1.67,.58,1.7,1.57,.03,1.07-.5,1.82-1.69,1.89Z"/>
  <path class="cls-1" d="M179.45,230.03c-.29,1.05-.89,1.66-2.04,1.53-1.01-.11-1.59-.75-1.55-1.7,.04-1.1,.78-1.76,1.87-1.72,1.12,.04,1.61,.84,1.73,1.89Z"/>
  <path class="cls-1" d="M279.52,104.15c1.1,.09,1.74,.77,1.72,1.84-.02,1.08-.67,1.77-1.84,1.69-1.1-.08-1.81-.73-1.79-1.82,.02-1.1,.75-1.68,1.9-1.71Z"/>
  <path class="cls-1" d="M230.21,263.22c-.2,1.16-.85,1.72-1.98,1.65-1-.06-1.6-.62-1.64-1.61-.05-1.17,.7-1.78,1.77-1.77,1.06,0,1.72,.67,1.85,1.73Z"/>
  <path class="cls-1" d="M240.15,179.91c-.04,1.14-.66,1.87-1.76,1.87-1.08,0-1.8-.74-1.81-1.84-.01-1,.66-1.58,1.64-1.65,1.14-.09,1.82,.45,1.93,1.63Z"/>
  <path class="cls-1" d="M194.32,227.21c-1.11-.07-1.83-.68-1.91-1.74-.09-1.13,.68-1.77,1.76-1.81,.97-.04,1.62,.54,1.72,1.54,.1,1.12-.5,1.77-1.57,2.02Z"/>
  <path class="cls-1" d="M94.77,178.88c-.16,.96-.75,1.62-1.7,1.58-1.04-.04-1.77-.7-1.76-1.84,0-1.05,.7-1.6,1.64-1.6,1.1,0,1.65,.79,1.82,1.86Z"/>
  <path class="cls-1" d="M242.63,172.18c-.12,1.08-.63,1.9-1.76,1.9-.93,0-1.67-.59-1.75-1.57-.08-1.06,.46-1.91,1.58-2.01,1.12-.1,1.72,.64,1.93,1.69Z"/>
  <path class="cls-1" d="M284.33,112.96c-.03,1.21-.73,1.82-1.79,1.9-.95,.07-1.66-.43-1.78-1.47-.13-1.18,.52-1.89,1.58-2.01,1.06-.12,1.82,.46,1.99,1.58Z"/>
  <path class="cls-1" d="M89.49,160.99c1.05,.09,1.68,.71,1.68,1.8,0,.98-.64,1.62-1.57,1.65-1.05,.03-1.84-.65-1.89-1.68-.05-1.04,.59-1.74,1.79-1.77Z"/>
  <path class="cls-1" d="M89.68,149.07c-1.13-.04-1.84-.61-1.89-1.71-.04-.95,.51-1.61,1.49-1.75,1.15-.16,1.88,.52,2.02,1.53,.15,1.07-.57,1.72-1.62,1.93Z"/>
  <path class="cls-1" d="M218.35,40.92c1.12,.12,1.77,.75,1.75,1.84-.02,.94-.6,1.58-1.59,1.63-1.12,.06-1.84-.58-1.88-1.64-.05-1.07,.67-1.69,1.73-1.82Z"/>
  <path class="cls-1" d="M130.13,272.43c1.07,.24,1.82,.75,1.74,1.94-.06,1.02-.72,1.61-1.67,1.61-1.06,0-1.87-.58-1.88-1.74,0-1.15,.78-1.66,1.81-1.8Z"/>
  <path class="cls-1" d="M145.09,290.29c-.02,1.03-.03,2.06-.05,3.09-1.44-.45-4.4,1.85-3.87-2.15,.5,0,.88-.18,.98-.72,.98-.07,1.96-.15,2.94-.22Z"/>
  <path class="cls-1" d="M97.89,186.43c-.2,1.08-.93,1.68-1.99,1.55-.89-.11-1.59-.74-1.56-1.76,.04-1.14,.75-1.79,1.84-1.74,1.09,.05,1.69,.77,1.71,1.94Z"/>
  <path class="cls-1" d="M118.28,212.05c1.14,.23,1.8,.84,1.72,1.94-.07,.97-.74,1.53-1.71,1.49-1.14-.05-1.64-.78-1.6-1.88,.04-1.06,.79-1.38,1.59-1.55Z"/>
  <path class="cls-1" d="M158.13,230.11c-.19,1.07-.84,1.72-1.91,1.68-.94-.03-1.6-.61-1.62-1.61-.02-1.1,.55-1.79,1.69-1.82,1.16-.03,1.64,.73,1.84,1.75Z"/>
  <path class="cls-1" d="M227.07,46.51c-.18,1.09-.85,1.73-1.94,1.64-.96-.08-1.58-.8-1.53-1.75,.07-1.1,.83-1.66,1.95-1.62,1.09,.04,1.41,.8,1.51,1.73Z"/>
  <path class="cls-1" d="M242.44,166.03c-1.08-.14-1.89-.64-1.87-1.79,.02-1.13,.83-1.76,1.89-1.73,.91,.03,1.62,.59,1.66,1.64,.04,1.15-.57,1.76-1.68,1.88Z"/>
  <path class="cls-1" d="M223.23,267.03c-.12,1.05-.56,1.81-1.73,1.86-1.12,.05-1.87-.54-1.9-1.63-.03-1.03,.55-1.84,1.69-1.91,1.14-.07,1.68,.66,1.94,1.68Z"/>
  <path class="cls-1" d="M226.89,202.75c-1.06-.07-1.84-.52-1.93-1.69-.08-1.04,.58-1.69,1.52-1.75,1.07-.07,1.84,.57,1.93,1.7,.08,1.01-.46,1.62-1.52,1.73Z"/>
  <path class="cls-1" d="M94.5,131.34c-.08,1-.53,1.67-1.56,1.66-1.25-.01-1.95-.77-1.88-1.96,.05-.92,.69-1.57,1.7-1.5,1.08,.08,1.69,.71,1.73,1.8Z"/>
  <path class="cls-1" d="M238.75,127.89c1.14,.14,1.85,.67,1.88,1.81,.03,1.02-.58,1.63-1.55,1.71-1.07,.09-1.88-.38-1.98-1.56-.11-1.2,.76-1.62,1.65-1.96Z"/>
  <path class="cls-1" d="M39.83,132.38c-.63-.48-1.68-.8-1.32-1.63,.52-1.18,1.49-2.27,2.78-2.57,.68-.16,1.54,.81,1.23,1.51-.52,1.16-1.53,2.05-2.69,2.69Z"/>
  <path class="cls-1" d="M276.24,212.19c-.15,1.17-.63,1.91-1.77,1.93-1.1,.02-1.78-.59-1.84-1.69-.07-1.13,.58-1.76,1.69-1.8,1.11-.04,1.66,.65,1.92,1.55Z"/>
  <path class="cls-1" d="M208.91,215.7c1.2-.02,1.88,.57,1.93,1.65,.05,1.11-.69,1.77-1.74,1.78-.93,.01-1.61-.63-1.71-1.56-.12-1.08,.46-1.76,1.52-1.88Z"/>
  <path class="cls-5" d="M97.35,123.37c.04,1.26-.64,1.9-1.67,1.98-1.08,.09-1.77-.59-1.87-1.67-.1-1.13,.54-1.79,1.64-1.83,1.07-.04,1.77,.49,1.89,1.52Z"/>
  <path class="cls-1" d="M237.64,121.89c-.11,1.06-.55,1.86-1.74,1.85-.94,0-1.68-.46-1.79-1.48-.13-1.11,.39-1.86,1.54-1.98,1.14-.12,1.74,.55,1.99,1.61Z"/>
  <path class="cls-1" d="M185.98,229.87c-1.04-.06-1.73-.66-1.74-1.75-.01-1.13,.78-1.76,1.84-1.68,1.03,.07,1.7,.74,1.65,1.9-.04,1.08-.75,1.42-1.75,1.53Z"/>
  <path class="cls-1" d="M52.72,119.6c-.79-.38-1.76-.68-1.44-1.37,.53-1.17,1.27-2.45,2.52-2.92,.49-.18,1.54,.75,1.36,1.47-.34,1.3-1.57,1.99-2.44,2.82Z"/>
  <path class="cls-1" d="M56.28,96.6c1.02,.08,1.69,.75,1.65,1.8-.04,1.03-.72,1.77-1.85,1.68-1.14-.08-1.6-.88-1.54-1.95,.06-1,.64-1.51,1.74-1.53Z"/>
  <path class="cls-1" d="M147.87,226.77c1.29,.12,1.93,.7,1.92,1.83-.02,.97-.52,1.62-1.53,1.69-1.16,.08-1.81-.62-1.91-1.66-.1-1.1,.63-1.69,1.53-1.87Z"/>
  <path class="cls-1" d="M121.52,39.65c-.18,1.15-.92,1.75-1.98,1.64-.95-.1-1.53-.84-1.43-1.83,.11-1.12,.83-1.73,1.96-1.61,1,.11,1.45,.82,1.46,1.8Z"/>
  <path class="cls-1" d="M90.86,172.61c-1.04-.18-1.75-.71-1.75-1.87,0-1.02,.56-1.63,1.59-1.65,1.18-.02,1.8,.69,1.81,1.78,.01,.98-.66,1.53-1.65,1.73Z"/>
  <path class="cls-1" d="M129.11,87.58c-.09,1.11-.69,1.75-1.83,1.73-1-.01-1.66-.63-1.74-1.57-.08-1.09,.57-1.83,1.69-1.91,1.16-.08,1.72,.63,1.87,1.75Z"/>
  <path class="cls-1" d="M129.11,36.74c-.07,1.06-.53,1.86-1.71,1.88-1,.01-1.67-.67-1.73-1.59-.08-1.1,.59-1.82,1.73-1.87,1.03-.05,1.56,.58,1.72,1.58Z"/>
  <path class="cls-1" d="M115.2,266.93c1.25,.13,1.75,.84,1.69,1.95-.06,1-.67,1.6-1.66,1.6-1.12,0-1.81-.68-1.8-1.79,.01-1.11,.71-1.71,1.76-1.76Z"/>
  <path class="cls-1" d="M199.39,86.04c.22-1.26,.8-1.98,1.91-1.89,1.11,.08,1.72,.88,1.56,1.93-.15,1.01-.85,1.66-2,1.52-1.04-.12-1.33-.87-1.47-1.56Z"/>
  <path class="cls-1" d="M195.23,82.52c-.12,1.12-.72,1.74-1.87,1.68-.98-.05-1.63-.6-1.67-1.59-.05-1.14,.7-1.81,1.74-1.86,1.08-.05,1.74,.62,1.8,1.77Z"/>
  <path class="cls-1" d="M206.62,271.58c1.25,.04,1.86,.65,1.86,1.76,0,.97-.55,1.61-1.52,1.69-1.11,.09-1.84-.56-1.92-1.61-.09-1.09,.62-1.69,1.58-1.84Z"/>
  <path class="cls-1" d="M49.02,190.86c-.16,.98-.79,1.58-1.93,1.43-.98-.13-1.55-.81-1.5-1.76,.06-1.15,.88-1.66,1.96-1.52,.92,.12,1.58,.64,1.47,1.85Z"/>
  <path class="cls-1" d="M200.92,275.85c-.29,.96-.91,1.65-2.01,1.39-.99-.23-1.66-.95-1.43-2.07,.2-.94,.88-1.42,1.86-1.32,1.14,.12,1.58,.86,1.58,2Z"/>
  <path class="cls-1" d="M242.67,143.91c1.05,.17,1.79,.77,1.75,1.86-.03,.93-.66,1.58-1.65,1.61-1.11,.04-1.87-.57-1.9-1.65-.03-1.08,.69-1.7,1.8-1.82Z"/>
  <path class="cls-1" d="M105.64,48.33c-1.12-.09-1.83-.73-1.81-1.82,.01-.94,.62-1.6,1.65-1.64,1.02-.04,1.73,.51,1.81,1.47,.09,1.07-.5,1.81-1.65,1.99Z"/>
  <path class="cls-1" d="M109.95,265.13c-.15,1.13-.71,1.88-1.84,1.84-.96-.03-1.62-.67-1.61-1.67,.01-1.11,.64-1.79,1.8-1.78,1.05,.01,1.49,.69,1.65,1.6Z"/>
  <path class="cls-1" d="M105.57,109.39c-.08,1.06-.56,1.77-1.72,1.78-1.02,.02-1.63-.64-1.72-1.53-.1-1.02,.45-1.86,1.57-1.94,1.12-.09,1.71,.59,1.86,1.69Z"/>
  <path class="cls-1" d="M141.76,226.1c-.08,1.02-.58,1.69-1.59,1.73-1.16,.04-1.81-.71-1.79-1.78,.02-1.09,.69-1.76,1.87-1.65,1.05,.09,1.46,.77,1.51,1.71Z"/>
  <path class="cls-1" d="M37.83,125.03c-.86-.16-2.08,.39-2.05-1.2,.04-1.74,1.37-1.16,2.28-1.19,.83-.03,1.96-.43,1.95,1.18,0,1.9-1.4,.95-2.18,1.21Z"/>
  <path class="cls-1" d="M242.89,137.73c-.25,1.05-.88,1.67-2,1.53-.91-.12-1.62-.63-1.57-1.65,.05-1.11,.75-1.75,1.83-1.71,1.07,.04,1.68,.72,1.74,1.83Z"/>
  <path class="cls-1" d="M210.04,89.9c-.08,1.23-.67,1.94-1.79,1.91-.93-.02-1.64-.57-1.68-1.59-.05-1.17,.66-1.75,1.77-1.77,1.01-.02,1.53,.61,1.7,1.46Z"/>
  <path class="cls-1" d="M229.13,108.2c-.12,.97-.72,1.53-1.7,1.47-.95-.05-1.7-.62-1.66-1.62,.04-1.08,.72-1.79,1.88-1.66,.98,.1,1.51,.74,1.49,1.81Z"/>
  <path class="cls-1" d="M233.78,50.46c-.04,1.12-.73,1.59-1.65,1.62-1.07,.04-1.87-.5-1.82-1.67,.04-.94,.63-1.58,1.64-1.6,1.12-.02,1.73,.59,1.83,1.65Z"/>
  <path class="cls-1" d="M217.45,212.23c-.12,1.01-.51,1.76-1.5,1.87-1.11,.12-1.81-.47-1.93-1.57-.11-1,.47-1.63,1.42-1.77,1.14-.17,1.69,.56,2.01,1.47Z"/>
  <path class="cls-1" d="M113.48,95.65c1.21,.09,1.89,.66,1.88,1.77,0,.91-.41,1.68-1.49,1.66-1.1-.02-1.74-.63-1.8-1.74-.05-1.02,.6-1.49,1.41-1.69Z"/>
  <path class="cls-1" d="M99.36,118.02c-1.1-.08-1.81-.63-1.78-1.77,.03-.92,.5-1.67,1.55-1.69,1.15-.03,1.76,.66,1.77,1.76,0,.97-.53,1.58-1.54,1.7Z"/>
  <path class="cls-1" d="M90.68,137.51c1.07-.02,1.73,.52,1.85,1.45,.14,1.1-.54,1.86-1.61,1.92-1.07,.06-1.79-.59-1.78-1.74,.01-1,.62-1.53,1.54-1.64Z"/>
  <path class="cls-1" d="M279.8,205.57c-.08,1.15-.72,1.74-1.82,1.72-1.13-.02-1.74-.7-1.72-1.8,.01-1.12,.7-1.74,1.8-1.72,1.12,.02,1.64,.75,1.75,1.8Z"/>
  <path class="cls-1" d="M216.84,94.92c-.14,1.04-.67,1.76-1.82,1.8-.9,.03-1.45-.48-1.56-1.35-.14-1.16,.53-1.84,1.59-1.99,1.03-.14,1.53,.58,1.78,1.54Z"/>
  <path class="cls-1" d="M233.7,115.18c-.19,.98-.88,1.4-1.84,1.31-1-.09-1.59-.79-1.48-1.74,.12-1.07,.86-1.69,2.01-1.49,1,.18,1.41,.87,1.31,1.91Z"/>
  <path class="cls-1" d="M139.34,276.11c0,1.1-.57,1.69-1.54,1.74-.97,.06-1.7-.51-1.74-1.49-.05-1.07,.55-1.82,1.71-1.84,1.07-.02,1.46,.7,1.57,1.59Z"/>
  <path class="cls-1" d="M53.1,206.74c-1.04-.08-1.84-.55-1.85-1.69,0-1.09,.65-1.81,1.76-1.8,1.11,.01,1.71,.76,1.7,1.85,0,.98-.58,1.55-1.61,1.64Z"/>
  <path class="cls-1" d="M122.13,91.98c-.02,1.11-.51,1.87-1.66,1.94-1.11,.07-1.88-.49-1.95-1.63-.07-1.09,.51-1.86,1.65-1.94,1.12-.09,1.79,.5,1.96,1.63Z"/>
  <path class="cls-1" d="M204.19,38.59c-1.05,.01-1.73-.44-1.81-1.44-.08-1.1,.56-1.86,1.65-1.87,.91,0,1.59,.59,1.61,1.61,.02,.99-.54,1.55-1.45,1.7Z"/>
  <path class="cls-1" d="M132.36,224.54c-1.13-.12-1.8-.71-1.72-1.84,.07-1.09,.76-1.73,1.87-1.67,1,.05,1.54,.71,1.56,1.67,.02,1.11-.63,1.71-1.71,1.84Z"/>
  <path class="cls-1" d="M125.16,220.41c-1.18-.1-1.94-.61-1.94-1.77,0-.98,.59-1.61,1.59-1.69,1-.07,1.68,.44,1.83,1.43,.17,1.15-.53,1.74-1.48,2.03Z"/>
  <path class="cls-1" d="M52.79,128.24c.99,.79,2.11,1.58,2.47,2.88,.17,.62-.65,1.47-1.2,1.24-1.27-.52-2.35-1.52-2.71-2.89-.13-.5,.67-1.05,1.44-1.23Z"/>
  <path class="cls-1" d="M56.03,124.99c-.77-.26-2.03,.55-2.17-1.07-.14-1.65,1.07-1.29,1.92-1.23,.89,.07,2.31-.61,2.34,1.17,.03,1.64-1.29,.91-2.09,1.13Z"/>
  <path class="cls-1" d="M215.85,270.36c.03,1.08-.56,1.71-1.5,1.8-1.06,.11-1.88-.42-1.96-1.58-.06-.99,.56-1.66,1.5-1.78,1.12-.15,1.75,.52,1.96,1.56Z"/>
  <path class="cls-1" d="M136.45,84.01c-.09,1.01-.6,1.67-1.58,1.66-1.08-.01-1.79-.7-1.78-1.78,0-.93,.59-1.59,1.61-1.6,1.14,0,1.7,.64,1.76,1.72Z"/>
  <path class="cls-1" d="M124.31,271.79c-.24,1.05-.81,1.73-1.94,1.62-.94-.09-1.59-.64-1.56-1.65,.03-1.1,.68-1.78,1.77-1.77,1.1,0,1.65,.73,1.74,1.8Z"/>
  <path class="cls-1" d="M56.61,213.62c-1.28-.14-1.94-.78-1.85-1.9,.08-.95,.77-1.6,1.74-1.56,1.1,.05,1.76,.75,1.68,1.89-.07,1.01-.76,1.47-1.58,1.57Z"/>
  <path class="cls-1" d="M187.04,80.08c-.13,.99-.64,1.61-1.63,1.63-1.11,.02-1.79-.6-1.77-1.73,.02-.96,.63-1.59,1.6-1.62,1.13-.04,1.68,.66,1.8,1.72Z"/>
  <path class="cls-1" d="M106.37,200.24c-.15,.92-.55,1.69-1.57,1.73-1.08,.04-1.83-.55-1.83-1.7,0-1.13,.69-1.75,1.81-1.71,1.02,.04,1.42,.78,1.58,1.68Z"/>
  <path class="cls-1" d="M101.81,193.45c-.33,1.12-.89,1.84-2.06,1.68-.99-.13-1.52-.78-1.43-1.79,.11-1.16,.88-1.69,1.96-1.58,.98,.1,1.41,.85,1.53,1.7Z"/>
  <path class="cls-1" d="M178.88,78.33c-.21,.95-.71,1.63-1.71,1.65-.99,.02-1.66-.53-1.69-1.54-.03-1.15,.69-1.78,1.78-1.79,1.03,0,1.42,.79,1.62,1.68Z"/>
  <path class="cls-1" d="M98.81,52.4c-.97-.18-1.6-.68-1.59-1.7,.01-1.16,.72-1.75,1.82-1.72,.99,.03,1.59,.7,1.59,1.66,0,1.14-.76,1.65-1.82,1.76Z"/>
  <path class="cls-1" d="M277.47,99.13c-.16,1.03-.78,1.65-1.89,1.64-1.01-.01-1.61-.65-1.6-1.61,.01-1.23,.78-1.94,2.01-1.83,.95,.08,1.48,.74,1.48,1.8Z"/>
  <path class="cls-5" d="M211.04,37.79c1.1,.03,1.85,.53,1.86,1.68,0,1-.69,1.59-1.63,1.63-1.07,.04-1.85-.48-1.84-1.67,0-1.02,.64-1.52,1.61-1.64Z"/>
  <path class="cls-1" d="M236.18,258.97c0,1.04-.61,1.52-1.42,1.57-.94,.06-1.66-.42-1.75-1.46-.09-1.07,.56-1.67,1.52-1.66,.94,0,1.52,.68,1.66,1.56Z"/>
  <path class="cls-1" d="M39.93,115.55c1.14,.49,2.02,1.38,2.52,2.48,.31,.68-.64,1.41-1.09,1.35-1.36-.18-2.28-1.24-2.72-2.46-.22-.62,.61-1.07,1.29-1.37Z"/>
  <path class="cls-1" d="M145.38,286.04c1,.03,2,.06,2.99,.09,0,.55,0,1.11,.01,1.66-1.01,0-2.01,.01-3.02,.02-.23-.59-.23-1.18,.01-1.77Z"/>
  <path class="cls-5" d="M142.14,290.5c-.1,.55-.48,.71-.98,.72-.1-.82,.31-.95,.98-.72Z"/>
  <path class="cls-3" d="M78.98,255.67c0,7-.06,14,.04,21,.03,1.94-.41,2.94-2.52,2.58-.28-.05-.57,0-.86-.01-2.2-.04-4.9,.68-6.47-.34-1.79-1.16-.56-4.07-.65-6.2-.08-1.76-.82-2.03-2.31-2.01-1.42,.02-2.3,.15-2.34,1.98-.04,2.14,1.12,5-.62,6.24-1.42,1.01-4.1,.11-6.17,.39-2.97,.4-3.65-.71-3.61-3.6,.17-13.61,.13-27.23,.04-40.85-.02-2.15,.52-2.79,2.7-2.74,6.61,.15,13.23,.14,19.85,.05,2.11-.03,3.05,.37,2.99,2.81-.18,6.9-.06,13.81-.06,20.71Zm-10.62,8.44c.59-1.87-.58-2.03-2.16-2.07-1.59-.03-2.19,.46-2.14,2.11,.05,1.56,.23,2.46,2.16,2.38,1.69-.07,2.56-.45,2.14-2.42Zm3.73,.04c-.34,1.71,.32,2.31,2.1,2.35,1.85,.04,2.22-.69,2.21-2.33,0-1.53-.36-2.23-2.06-2.15-1.52,.07-2.71,.15-2.25,2.13Zm-8-8.35c-.3,1.7,.39,2.39,2.19,2.34,1.54-.04,2.2-.43,2.22-2.12,.02-1.74-.44-2.4-2.25-2.3-1.45,.08-2.52,.22-2.16,2.08Zm10.26-19.18c-1.42-.16-2.41-.04-2.4,1.85,0,1.76,.56,2.33,2.31,2.3,1.56-.03,2.24-.4,2.2-2.1-.04-1.58-.45-2.4-2.12-2.05Zm-5.87,10.71c.38-1.8-.48-2.31-2.18-2.24-1.37,.06-2.4,.06-2.32,1.91,.06,1.51,.17,2.55,2.13,2.44,1.49-.09,2.73-.1,2.37-2.12Zm-8.02,8.6c.28-1.59-.32-2.21-2-2.18-1.55,.02-2.22,.39-2.19,2.08,.03,1.54,.37,2.24,2.08,2.18,1.52-.05,2.45-.33,2.11-2.08Zm15.63-.05c.26-1.56-.36-2.14-2-2.14-1.57,0-2.16,.42-2.13,2.06,.03,1.54,.43,2.18,2.08,2.16,1.54-.02,2.37-.38,2.05-2.08Zm-19.75,8.54c-.29,1.62,.42,2.12,2.02,2.1,1.52-.01,2.2-.34,2.19-2.03,0-1.7-.53-2.3-2.27-2.29-1.7,0-2.19,.69-1.94,2.22Zm2.27-15.11c1.9,.36,1.89-.84,1.98-2.22,.11-1.82-.82-1.94-2.27-1.99-1.81-.06-1.94,.85-1.99,2.29-.07,1.81,.81,2.14,2.29,1.92Zm17.5-2.1c.29-1.65-.48-2.1-2.06-2.13-1.64-.03-2.12,.55-2.1,2.14,.01,1.59,.5,2.16,2.14,2.13,1.59-.03,2.34-.49,2.03-2.15Zm-7.68-8.63c.32-1.73-.59-2.02-2.1-2.06-1.7-.04-2.02,.68-2.05,2.19-.03,1.69,.67,2.03,2.19,2.06,1.68,.03,2.24-.62,1.96-2.18Zm-10.07-2.04c-1.49-.4-2.02,.29-2.05,1.91-.03,1.68,.4,2.34,2.21,2.33,1.69-.01,2.06-.66,2.05-2.18-.02-1.5-.32-2.43-2.2-2.06Z"/>
  <path class="cls-3" d="M83.49,263.37c0-4.5,.06-8.99-.02-13.49-.03-1.87,.51-2.17,2.13-1.33,3.31,1.72,6.64,3.39,10.02,4.97,1.23,.58,1.62,1.35,1.61,2.67-.06,6.98-.08,13.97,0,20.95,.02,1.67-.58,2.14-2.16,2.1-3.15-.08-6.32-.07-9.47,.04-1.62,.06-2.17-.5-2.14-2.13,.09-4.59,.03-9.18,.03-13.77Z"/>
  <path class="cls-3" d="M49.02,247.99c0,10.21,0,19.95,0,29.68,0,1.04-.33,1.6-1.47,1.58-3.44-.05-6.89-.09-10.33-.05-1.35,.01-1.54-.72-1.54-1.81,0-7.18,0-14.35-.06-21.53,0-1.14,.51-1.73,1.46-2.18,3.8-1.78,7.57-3.61,11.93-5.69Z"/>
  <path class="cls-1" d="M259.19,69.3c4.55,.2,9.34,1.52,13.29,5.11,.9,.82,2.15,1.76,1.1,3.11-1.2,1.56-2.12,.14-3.03-.62-7.12-5.92-16.54-5.99-23.65-.16-.93,.76-1.8,1.66-2.89,.39-1.12-1.31,.07-2.12,.87-2.85,3.86-3.52,8.53-4.91,14.32-4.98Z"/>
  <path class="cls-1" d="M258.55,75.54c3.46,.14,6.68,1.19,9.38,3.56,.84,.74,1.95,1.52,.93,2.85-1.06,1.38-1.9,.43-2.85-.28-5.14-3.87-9.76-3.94-15.01-.22-.98,.69-1.89,1.57-2.89,.18-1.01-1.39,.22-2.09,1.08-2.78,2.7-2.16,5.81-3.24,9.37-3.31Z"/>
  <path class="cls-1" d="M258.79,85.07c-1.71-.04-2.94,.28-3.95,1.33-.7,.72-1.54,.76-2.27,.05-.83-.8-.35-1.54,.24-2.25,2.46-2.94,8.84-3,11.41-.12,.74,.82,.93,1.73,.3,2.59-.84,1.17-1.64,.35-2.39-.24-1.07-.85-2.23-1.47-3.34-1.35Z"/>
  <path class="cls-4" d="M186.66,264.98c1.39,.63,2.59,1.16,2.57,3.03-.08,6.79-.05,13.59-.07,20.38,0,.82,.2,1.82-1.13,1.88-.83,.04-1.29-.2-1.75-1.04-3.98-7.31-8.3-8.46-16.29-4.18-.16-1.18-.37-2.25-.43-3.33-.18-3.25-.03-3.36,3.17-2.81,5.58,.95,11.46-3.38,13.07-9.67,.35-1.38,.57-2.79,.87-4.26Z"/>
  <path class="cls-4" d="M148.39,287.79c0-.55,0-1.11-.01-1.66-.03-5.22-.05-10.43-.08-15.65-.17-2.72,.09-5.19,3.55-5.9,.35,2.19,.61,4.44,1.09,6.65,1.56,7.14,4.82,9.79,12.09,9.94q1.39,.03,1.15,2.94c-7.72-3.26-13.77-.94-15.5,5.94-2.57,1.08-2.06-.96-2.28-2.26Z"/>
  <path class="cls-4" d="M153.38,263.05c4.85-3.51,9.72-7,14.55-10.53,.75-.55,1.25-.12,1.78,.27,2.39,1.75,4.77,3.52,7.49,5.52-1.54,.68-2.8,1.21-4.05,1.8-2.69,1.27-4.72,3.25-6.05,5.9-.4,.8-.42,1.65-1.71,.73-3.48-2.49-7.54-3.11-12.01-3.7Z"/>
  <path class="cls-2" d="M185.46,256.82c-2.82,.96-4.77,.45-6.64-1.03-2.41-1.89-5.14-3.41-7.38-5.47-2.1-1.93-3.64-1.53-5.69-.04-7.35,5.36-14.78,10.6-22.21,15.85-.62,.43-1.18,1.54-2.18,.8-1.53-1.13-.81-1.93,.43-2.8,6.59-4.61,13.13-9.29,19.69-13.94,.47-.33,.95-.64,1.42-.97q5.88-4.08,11.63-.03c3.51,2.47,7.04,4.91,10.92,7.61Z"/>
  <path class="cls-2" d="M171.43,275.43c1.13-2.79,3.17-4.8,5.12-6.87,.75-.8,1.98-1.61,.61-2.81-1.16-1.01-2.16-.3-2.95,.63-1.52,1.82-2.97,3.69-4.63,5.76-.98-2.01-.45-3.66,.51-5.2,3.02-4.83,8.09-5.67,13.11-6.58,.78-.14,1.02,.4,.96,1.04-.44,4.49-.8,9.05-4.42,12.36-2.32,2.12-5.06,2.95-8.31,1.67Z"/>
  <path class="cls-2" d="M166.34,273.95c-1.31-.56-1.6-2.11-2.75-2.83-.86-.54-1.75-.93-2.6-.07-.97,.99-.24,1.73,.48,2.4,1.33,1.24,2.52,2.59,3.54,4.35-2.07,1.12-3.94,.64-5.56-.63-3.01-2.35-3.97-5.72-4.17-9.37-.03-.6,.09-1.06,.83-1.25,2.76-.71,9.41,2.98,10.17,5.75,.14,.52,.02,1.12,.01,1.68l.04-.04Z"/>
  <path class="cls-2" d="M161.71,290.37c-2.66-.1-5.33-.2-7.99-.3,1.33-3.06,3.78-4.6,6.99-4.45,2.69,.13,4.79,1.55,5.96,4.44-1.8,.11-3.38,.21-4.96,.31Z"/>
  <path class="cls-2" d="M170.48,290.17c2.72-5.13,8.74-6.05,11.68-2.15,.38,.51,1,1.04,.66,1.76-.29,.62-1,.38-1.53,.38-3.51,.02-7.02,.01-10.82,.01Z"/>
  <path class="cls-2" d="M187.54,258.52c2.86,1.96,5.52,3.79,8.18,5.61,.81,.56,1.63,1.06,.76,2.24-.77,1.06-1.44,.5-2.16,0-1.88-1.29-3.7-2.69-5.67-3.84-1.65-.96-1.92-2.14-1.12-4.03Z"/>
  <path class="cls-2" d="M184.78,252.59c-2.79-1.65-5.03-3.05-4.5-6.52,.23-1.51,.98-1.62,2.11-1.54,1.04,.08,2.43-.43,2.39,1.48-.04,2.07,0,4.15,0,6.58Z"/>
  <path class="cls-2" d="M166.3,274c.1,.06,.2,.13,.29,.19-.05,0-.13,.01-.16-.02-.05-.06-.07-.14-.1-.22,0,0-.04,.04-.04,.04Z"/>
  <path class="cls-3" d="M46.39,166.4c-2.59,0-5.17-.05-7.76,.02-1.44,.04-1.7-.4-1.5-1.84,.78-5.8,.72-5.8,6.53-5.81,3.16,0,6.32,.01,9.48-.08,1.44-.04,1.96,.48,2.14,1.94,.72,5.81,.78,5.81-5.16,5.8-1.25,0-2.49,0-3.74,0v-.04Z"/>
  <path class="cls-3" d="M46.73,169.43c8.04,0,16.08-.01,24.12,.02,.69,0,1.87-.46,1.95,.52,.08,1.04-.98,1.54-2.03,1.55-2.87,.04-5.74,.07-8.61,.07-12.83-.01-25.65-.04-38.48-.06-.48,0-.96,0-1.44-.01-.9-.03-2-.21-1.96-1.22,.05-1.27,1.31-.73,2.04-.73,8.14-.04,16.27-.02,24.41-.02,0-.03,0-.07,0-.1Z"/>
  <path class="cls-3" d="M46.36,155.78c-1.92,0-3.84-.1-5.75,.03-1.91,.13-2.34-.69-2.01-2.38,1.18-5.95-.67-4.8,5.5-4.91,2.39-.04,4.8,.14,7.18-.02,1.74-.12,2.34,.55,2.55,2.18,.81,6.17,1.65,5.09-4.32,5.17-1.05,.01-2.11,0-3.16,0v-.08Z"/>
  <path class="cls-3" d="M27.22,166.51c-2.17-.24-4.96,.89-6.17-.44-1.37-1.5,.99-3.79,1.03-5.84,.02-1.18,.43-1.47,1.47-1.47,3.35,.02,6.69-.02,10.04-.01,.36,0,1.03,.13,1.04,.25,.2,2.17-.34,4.27-.67,6.39-.22,1.44-1.35,1.09-2.24,1.11-1.53,.04-3.06,.01-4.5,.01Z"/>
  <path class="cls-3" d="M65.88,166.45c-.57,0-1.15,0-1.72,0-5.11,0-6.03-1.01-6.02-6.28,0-1.26,.6-1.4,1.57-1.4,2.97,0,5.94,.03,8.91-.06,1.43-.05,1.94,.61,2.38,1.88,2.05,5.86,2.1,5.84-3.97,5.86-.38,0-.77,0-1.15,0Z"/>
  <path class="cls-3" d="M63.45,155.8c-.19,0-.38,0-.57,0-5.65-.02-5.59-.03-6.2-5.57-.15-1.31,.17-1.75,1.42-1.72,1.24,.03,2.48-.02,3.73-.02,5.53-.02,5.5,0,7.07,5.26,.43,1.44,.29,2.21-1.43,2.12-1.33-.06-2.67-.01-4.01-.01v-.06Z"/>
  <path class="cls-3" d="M25.9,148.45c3.07-.01,6.13-.02,9.2-.03,.97,.08,1.16,.63,1.14,1.55-.16,5.18-.8,5.82-6.12,5.84-.19,0-.38,.02-.57,0-1.92-.22-5.2,.82-5.48-.53-.42-2.06,.31-4.78,1.83-6.83Z"/>
  <path class="cls-3" d="M46.31,145.59c-.86,0-1.72,0-2.58,0-4.11,0-4.03,0-3.49-4.17,.2-1.59,.82-2.12,2.37-2.07,2.58,.09,5.16,.04,7.75,.03,3.69,0,1.96,3.05,2.49,4.68,.62,1.88-1.21,1.42-2.23,1.47-1.43,.07-2.87,.02-4.3,.02v.03Z"/>
  <path class="cls-3" d="M35.11,145.64c-2.28-.04-4.57-.11-6.85-.09-1.13,0-1.46-.28-1.25-1.5,.68-4.05,1.25-4.6,5.26-4.62,1.33,0,2.66-.06,4-.09,2.4,.66,.92,2.45,.96,3.7,.04,1.26-.22,2.71-2.11,2.59Z"/>
  <path class="cls-3" d="M61.21,145.55c-.29,0-.57,0-.86,0-4.62-.05-4.8-.26-4.97-4.71-.04-.97,.17-1.46,1.2-1.44,1.25,.02,2.53,.2,3.73-.03,3.37-.62,4.59,1.24,5.3,4.08,.39,1.54,.39,2.37-1.53,2.15-.95-.11-1.91-.02-2.87-.02v-.03Z"/>
  <path class="cls-3" d="M46.72,184.12c-2.59,0-5.18,.02-7.76-.01-.6,0-1.46,.26-1.47-.82-.01-.86,.57-1.2,1.31-1.2,5.27-.02,10.54-.01,15.81-.01,.92,0,1.55,.56,1.49,1.4-.07,.99-1.03,.61-1.61,.62-2.59,.04-5.17,.02-7.76,.02,0,0,0,0,0,.01Z"/>
  <path class="cls-3" d="M48.96,176.75c.4,1.9-.39,2.49-2.26,2.45-1.64-.03-2.43-.37-2.3-2.21,.11-1.54,.05-2.72,2.23-2.61,1.76,.09,2.75,.41,2.33,2.36Z"/>
  <path class="cls-2" d="M74.15,64.05c.18,1.6,.5,3.21,.5,4.81,0,8.03,1,16,1.32,24.01,.06,1.64,.01,2.68-2.16,2.64-2.32-.04-1.8-1.48-1.72-2.72,.56-9.56,1.15-19.12,1.73-28.68,.11-.02,.23-.05,.34-.07Z"/>
  <path class="cls-3" d="M68.95,57.98c-1.32,1.3-2.37,2.74-2.77,4.56-.16,.71-.64,1.14-1.27,1.45-5.32,2.62-10.64,5.23-16.21,7.29-.32,.12-.72,.02-1.15,.02,1.31-2.64,15.52-11.63,21.4-13.31Z"/>
  <path class="cls-3" d="M80.01,58.72c4.82-1.62,8.07,1.13,11.37,3.97,3.15,2.72,6.62,5.06,9.25,8.48-7.34-3.41-14.26-7.46-20.64-12.43l.02-.03Z"/>
  <path class="cls-3" d="M75.35,48.38c-.98-1.72-1.51-3.43-3.04-4.6-.59-.45-.51-1.21-.44-1.87,.57-5.31,1.17-10.61,1.75-15.91,.06-.57,.1-1.29,.81-1.31,.91-.02,.91,.82,.91,1.46,.02,7.41,0,14.82,0,22.23Z"/>
  <path class="cls-3" d="M76.7,54.71c-.08,1.63-.88,2.74-2.59,2.78-1.8,.05-2.57-1.26-2.61-2.79-.05-1.83,1.18-2.81,2.94-2.76,1.63,.04,2.25,1.21,2.26,2.77Z"/>
  <path class="cls-3" d="M67.41,98.74h13.12c-1.38,1.14-9.47,1.45-13.12,0Z"/>
  <path class="cls-3" d="M79.99,58.74c-.24-.07-.49-.14-.73-.21,.08-.09,.16-.18,.25-.28,.17,.15,.34,.3,.51,.46,0,0-.02,.03-.02,.03Z"/>
  <path class="cls-2" d="M111.22,178.99c-.12,1.82-1.19,2.73-2.8,2.65-1.46-.07-2.51-1.05-2.47-2.63,.04-1.66,1.07-2.72,2.7-2.75,1.73-.03,2.49,1.14,2.57,2.73Z"/>
  <path class="cls-3" d="M280.32,239.52c.02,12.67-9.86,22.45-22.71,22.5-12.87,.05-22.77-9.83-22.79-22.75-.02-12.36,10.32-22.75,22.68-22.78,12.97-.03,22.81,9.9,22.82,23.03Zm-42.77-.29c-.1,11.23,8.88,20.26,20.21,20.32,10.93,.06,20.22-9.06,20.1-20.19-.12-11.37-8.25-19.89-20.22-20.15-11.25-.24-19.99,8.63-20.09,20.01Z"/>
  <path class="cls-3" d="M281.76,261.93c1-.08,1.29,.48,1.67,.88,3.9,4.08,7.77,8.19,11.71,12.24,1.58,1.63,1.98,3.28,.37,5.03-1.64,1.78-3.6,1.77-5.47-.16-3.99-4.13-7.85-8.38-11.83-12.51-1.09-1.13-.95-1.92,.19-2.8,1.2-.93,2.38-1.89,3.37-2.67Z"/>
  <path class="cls-3" d="M276.1,261.91c-1.13-.32-1.81-1.04-1.91-1.82-.13-1.07,.98-1.78,1.77-1.88,.93-.11,1.94,.96,1.87,1.74-.07,.72-1.16,1.35-1.73,1.95Z"/>
  <path class="cls-3" d="M191.58,35.17c1.32,1.15,2.63,2.31,3.95,3.46,3.29,7.11,2.36,12.85-2.66,16.53-2.26,1.66-4.84,2.29-7.57,2.29-13.32,.03-26.64,.05-39.96,.01-5.13-.01-9.21-2.81-10.77-7.14-1.61-4.5-.4-9.29,3.1-12.31,2.5-2.16,5.45-2.7,8.61-2.27,2.06,.28,3.15-.34,3.7-2.49,2.53-9.87,11.25-14.72,20.96-11.78,.55,.17,1.1,.3,1.65,.45,2.23,1.28,4.18,2.93,5.99,4.75,1.08,1.69,2.09,3.42,2.54,5.41,.32,1.43,1.16,2.26,2.63,2.01,2.74-.47,5.27,.29,7.82,1.08Z"/>
  <path class="cls-3" d="M301.54,147.33c3.23,5.48,4.72,11.39,3.1,17.6-2.72,10.45-15.24,15.87-25.21,11.12-7.89-3.75-11.79-11.63-9.76-20.19,2.45-10.29,8.12-18.93,14.5-27.15,3.23-4.16,3.23-4.14,6.51,.19,4.35,5.74,8.29,11.72,10.9,18.47-4.65-.44-8.9,.81-12.93,3.03-2.06,1.13-3.09,4.24-4.86,4.46-1.87,.23-4.05-1.8-6.35-2.19-4.89-.82-5.3-.46-4.7,4.34,.14,1.13,.35,2.28,.69,3.36,1.44,4.64,4.18,6.71,9.06,6.69,1.3,0,1.52,.52,1.83,1.59,.41,1.44-.36,4.21,2.23,3.77,2.47-.43,.5-2.55,.44-3.83-.11-2.36-.03-3.69,3.09-3.46,5.05,.38,9-2.83,10.28-7.83,.83-3.25,.97-6.62,1.18-9.96Z"/>
  <path class="cls-2" d="M224.65,172.03c1.71,.26,2.64,1.12,2.67,2.68,.03,1.6-.89,2.54-2.47,2.55-1.71,.02-2.71-.94-2.66-2.68,.05-1.62,1.19-2.26,2.47-2.55Z"/>
  <path class="cls-2" d="M181.79,162.63c-.3,1.45-.93,2.59-2.58,2.62-1.6,.03-2.51-.87-2.6-2.44-.1-1.67,1.04-2.51,2.47-2.6,1.53-.09,2.4,.96,2.71,2.42Z"/>
  <path class="cls-2" d="M153.06,143.79c-.25,1.63-1.1,2.51-2.69,2.54-1.63,.02-2.55-.81-2.49-2.46,.05-1.59,1.05-2.55,2.56-2.54,1.49,.01,2.44,.96,2.62,2.46Z"/>
  <path class="cls-2" d="M115.83,143.91c-.1,1.57-.97,2.41-2.56,2.44-1.67,.03-2.52-.99-2.49-2.5,.04-1.51,1.07-2.57,2.58-2.55,1.49,.01,2.44,.95,2.47,2.62Z"/>
  <path class="cls-2" d="M146.89,164.95c-1.49-.11-2.56-.89-2.67-2.43-.11-1.56,.84-2.53,2.4-2.63,1.67-.11,2.84,.73,2.87,2.45,.03,1.57-1.12,2.31-2.61,2.6Z"/>
  <path class="cls-2" d="M112.28,162.29c-.19,1.47-1.09,2.34-2.62,2.36-1.72,.02-2.68-.93-2.6-2.66,.08-1.63,1.26-2.38,2.7-2.33,1.44,.06,2.47,.9,2.52,2.63Z"/>
  <path class="cls-2" d="M222.7,135.39c-.19,1.59-1.17,2.51-2.62,2.53-1.48,.03-2.51-.87-2.51-2.49,0-1.72,.97-2.67,2.67-2.62,1.58,.04,2.3,1.1,2.46,2.57Z"/>
  <path class="cls-4" d="M90.7,86.75c-1.98-.21-3.38-1.33-3.62-3.53-.21-1.94,1.53-3.78,3.47-3.73,2.21,.06,3.55,1.27,3.78,3.48,.2,1.96-1.5,3.73-3.63,3.78Z"/>
  <path class="cls-4" d="M88.39,227.16c.09-2.13,1.16-3.53,3.32-3.55,2.06-.02,3.56,1.15,3.59,3.31,.03,2.09-1.27,3.46-3.38,3.57-2.17,.11-3.31-1.2-3.53-3.34Z"/>
  <path class="cls-2" d="M150.21,86.84c-1.53-.15-2.64-.92-2.71-2.43-.07-1.57,.82-2.87,2.48-2.94,1.63-.07,2.62,.99,2.63,2.71,0,1.6-.93,2.39-2.39,2.66Z"/>
  <path class="cls-2" d="M131.94,96.68c1.68,.1,2.55,1.13,2.55,2.58,0,1.62-.97,2.68-2.73,2.57-1.52-.1-2.6-1.06-2.57-2.53,.03-1.58,1.12-2.55,2.75-2.62Z"/>
  <path class="cls-2" d="M132.79,203.16c1.58,.13,2.46,1,2.51,2.56,.05,1.6-.86,2.55-2.42,2.57-1.55,.02-2.58-.97-2.61-2.47-.03-1.51,1.04-2.36,2.53-2.66Z"/>
  <path class="cls-2" d="M227.71,151.96c1.51,.12,2.5,.86,2.55,2.47,.05,1.54-.68,2.61-2.28,2.73-1.74,.13-2.75-.93-2.79-2.55-.04-1.5,.97-2.4,2.52-2.65Z"/>
  <path class="cls-1" d="M68.35,264.11c.43,1.97-.45,2.36-2.14,2.42-1.94,.08-2.12-.83-2.16-2.38-.05-1.65,.55-2.14,2.14-2.11,1.59,.03,2.75,.2,2.16,2.07Z"/>
  <path class="cls-1" d="M72.08,264.15c-.46-1.99,.73-2.06,2.25-2.13,1.7-.08,2.06,.62,2.06,2.15,0,1.64-.37,2.37-2.21,2.33-1.78-.04-2.44-.63-2.1-2.35Z"/>
  <path class="cls-1" d="M64.09,255.8c-.37-1.86,.7-2,2.16-2.08,1.81-.1,2.27,.56,2.25,2.3-.02,1.69-.68,2.09-2.22,2.12-1.8,.05-2.49-.64-2.19-2.34Z"/>
  <path class="cls-1" d="M74.35,236.61c1.67-.35,2.08,.47,2.12,2.05,.04,1.69-.64,2.07-2.2,2.1-1.75,.03-2.3-.54-2.31-2.3,0-1.89,.98-2.01,2.4-1.85Z"/>
  <path class="cls-1" d="M68.48,247.33c.36,2.02-.88,2.03-2.37,2.12-1.96,.11-2.07-.93-2.13-2.44-.08-1.85,.96-1.86,2.32-1.91,1.7-.07,2.56,.44,2.18,2.24Z"/>
  <path class="cls-1" d="M60.46,255.93c.34,1.75-.59,2.03-2.11,2.08-1.71,.06-2.05-.64-2.08-2.18-.03-1.69,.64-2.06,2.19-2.08,1.68-.03,2.28,.59,2,2.18Z"/>
  <path class="cls-1" d="M76.09,255.88c.32,1.7-.51,2.06-2.05,2.08-1.65,.02-2.05-.62-2.08-2.16-.03-1.65,.56-2.06,2.13-2.06,1.64,0,2.25,.58,2,2.14Z"/>
  <path class="cls-1" d="M56.35,264.41c-.24-1.53,.25-2.21,1.94-2.22,1.74,0,2.26,.59,2.27,2.29,0,1.7-.68,2.02-2.19,2.03-1.6,.01-2.32-.48-2.02-2.1Z"/>
  <path class="cls-1" d="M58.61,249.31c-1.48,.22-2.36-.12-2.29-1.92,.06-1.45,.18-2.35,1.99-2.29,1.45,.05,2.38,.17,2.27,1.99-.08,1.39-.08,2.58-1.98,2.22Z"/>
  <path class="cls-1" d="M76.11,247.21c.32,1.65-.44,2.12-2.03,2.15-1.63,.03-2.13-.54-2.14-2.13-.01-1.59,.46-2.17,2.1-2.14,1.58,.02,2.35,.48,2.06,2.13Z"/>
  <path class="cls-1" d="M68.43,238.59c.28,1.56-.28,2.21-1.96,2.18-1.52-.03-2.22-.37-2.19-2.06,.03-1.52,.35-2.23,2.05-2.19,1.51,.04,2.42,.34,2.1,2.06Z"/>
  <path class="cls-1" d="M58.36,236.55c1.88-.36,2.19,.57,2.2,2.06,.02,1.52-.35,2.17-2.05,2.18-1.81,.01-2.24-.66-2.21-2.33,.03-1.63,.56-2.32,2.05-1.91Z"/>
  <path class="cls-1" d="M237.55,239.23c.1-11.38,8.85-20.25,20.09-20.01,11.97,.26,20.1,8.78,20.22,20.15,.12,11.12-9.17,20.24-20.1,20.19-11.34-.06-20.32-9.09-20.21-20.32Zm30.69-12.99l.06,.06c-.76-1.19-1.98-1.79-3.17-2.37-7.81-3.82-17.36-.98-22.12,6.55-4.56,7.21-2.83,16.75,4.02,22.15,6.86,5.42,16.68,4.87,22.77-1.27,7.19-7.25,6.4-20.05-1.56-25.12Z"/>
  <path class="cls-1" d="M301.54,147.33c-.22,3.34-.36,6.71-1.18,9.96-1.27,5-5.23,8.21-10.28,7.83-3.12-.23-3.2,1.1-3.09,3.46,.06,1.28,2.03,3.41-.44,3.83-2.58,.45-1.82-2.32-2.23-3.77-.3-1.07-.52-1.59-1.83-1.59-4.88,.02-7.62-2.05-9.06-6.69-.34-1.09-.54-2.23-.69-3.36-.6-4.8-.19-5.16,4.7-4.34,2.3,.39,4.48,2.42,6.35,2.19,1.78-.22,2.8-3.32,4.86-4.46,4.03-2.22,8.28-3.47,12.93-3.03,0,0-.05-.05-.05-.05Zm-12.75,14.8c6.24,.6,11.24-5.66,9.42-11-.28-.81-.72-.69-1.3-.57-2.45,.5-4.91,1.05-6.99,2.46-1.89,1.28-3.43,2.91-2.79,5.96,1.28-1.53,2.24-2.79,3.32-3.94,.73-.77,1.66-.96,2.55-.16,.94,.84,.3,1.53-.24,2.21-1.23,1.56-2.46,3.12-3.98,5.04Zm-6.47,1.87c-1.11-1.03-1.83-1.63-2.48-2.3-.77-.79-1.96-1.54-.69-2.81,1.24-1.24,2.2-.45,3.16,.49,.48,.47,.73,1.4,1.74,1.12-.82-2.49-5.13-5.32-7.49-5.02-.74,.09-.9,.45-1,1.09-.55,3.47,2.52,7.18,6.77,7.43Z"/>
  <path class="cls-4" d="M268.24,226.25c7.96,5.07,8.75,17.87,1.56,25.12-6.09,6.14-15.91,6.69-22.77,1.27-6.85-5.41-8.58-14.94-4.02-22.15,4.76-7.53,14.31-10.37,22.12-6.55,1.19,.58,2.41,1.18,3.17,2.37-1.72,.08-3.44,.14-5.16,.25-.69,.04-1.66,.34-1.36,1.09,1.18,2.92-1.56,3.56-2.77,5.06-1.31,1.62-2.65,1.87-4.12,.06-1.24-1.52-2.58-1.63-4.05-.06-1.77,1.88-3.7,3.62-5.59,5.39-.87,.82-1.31,1.61-.37,2.7,1.15,1.33,2.01,.5,2.84-.35,1.35-1.36,2.68-2.74,4-4.14,.64-.68,1.08-1.01,2.09-.27,3.65,2.67,3.7,2.6,6.94-.67,.88-.89,1.77-1.75,2.7-2.59,.4-.36,.79-1.12,1.39-.79,3.38,1.86,2.81-.91,3.1-2.61,.17-1.03,.21-2.09,.31-3.13Zm-1.92,16.41s.06,0,.09,0c0-1.91-.1-3.82,.03-5.72,.1-1.46-.49-1.78-1.81-1.74-1.24,.04-1.89,.26-1.85,1.74,.11,3.72,.06,7.44,.04,11.15,0,1.15,0,2,1.61,1.95,1.46-.05,2.04-.42,1.92-1.96-.14-1.8-.03-3.62-.03-5.43Zm-11.38,2.08h-.03c0-1.34-.06-2.68,.02-4.02,.09-1.46-.68-1.78-1.93-1.79-1.32,0-1.57,.7-1.55,1.83,.05,2.49,.1,4.98,0,7.46-.05,1.38,.41,1.81,1.78,1.82,1.44,.01,1.83-.54,1.72-1.86-.09-1.14-.02-2.3-.02-3.44Zm5.62,.67h-.01c0-.86-.03-1.73,0-2.59,.05-1.23,.09-2.2-1.71-2.2-1.72,0-1.82,.84-1.77,2.14,.07,1.82,.09,3.64,0,5.46-.06,1.31,.28,1.89,1.73,1.9,1.41,0,1.9-.46,1.77-1.83-.09-.95-.02-1.91-.02-2.87Zm-11.23,2.04c0-1.07,.01-1.36,0-1.64-.06-1.23,.55-2.65-1.79-2.65-2.34,0-1.45,1.49-1.56,2.52-.11,1.04,0,2.11-.03,3.16-.03,.83,.29,1.31,1.14,1.26,.73-.04,1.76,.24,2.05-.58,.31-.86,.18-1.89,.19-2.06Z"/>
  <path class="cls-2" d="M288.79,162.14c1.52-1.92,2.75-3.48,3.98-5.04,.54-.69,1.19-1.37,.24-2.21-.89-.8-1.83-.61-2.55,.16-1.08,1.14-2.04,2.41-3.32,3.94-.65-3.05,.9-4.68,2.79-5.96,2.08-1.41,4.54-1.96,6.99-2.46,.58-.12,1.02-.24,1.3,.57,1.82,5.34-3.18,11.6-9.42,11Z"/>
  <path class="cls-2" d="M282.32,164.01c-4.25-.25-7.31-3.96-6.77-7.43,.1-.64,.26-1,1-1.09,2.37-.3,6.68,2.52,7.49,5.02-1,.28-1.25-.65-1.74-1.12-.96-.94-1.92-1.72-3.16-.49-1.27,1.27-.08,2.03,.69,2.81,.65,.67,1.36,1.27,2.48,2.3Z"/>
  <path class="cls-1" d="M268.24,226.25c-.1,1.04-.14,2.1-.31,3.13-.29,1.7,.28,4.47-3.1,2.61-.6-.33-.99,.43-1.39,.79-.92,.84-1.82,1.7-2.7,2.59-3.24,3.28-3.29,3.35-6.94,.67-1.01-.74-1.45-.41-2.09,.27-1.31,1.4-2.65,2.78-4,4.14-.84,.84-1.69,1.68-2.84,.35-.94-1.08-.5-1.87,.37-2.7,1.89-1.77,3.82-3.51,5.59-5.39,1.47-1.57,2.81-1.46,4.05,.06,1.47,1.81,2.82,1.56,4.12-.06,1.21-1.5,3.95-2.14,2.77-5.06-.3-.75,.67-1.05,1.36-1.09,1.72-.11,3.44-.17,5.16-.25,0,0-.06-.06-.06-.06Z"/>
  <path class="cls-1" d="M266.32,242.65c0,1.81-.11,3.63,.03,5.43,.12,1.54-.46,1.92-1.92,1.96-1.62,.05-1.62-.8-1.61-1.95,.02-3.72,.07-7.44-.04-11.15-.04-1.49,.61-1.7,1.85-1.74,1.32-.04,1.91,.27,1.81,1.74-.13,1.9-.03,3.81-.03,5.72-.03,0-.06,0-.09,0Z"/>
  <path class="cls-1" d="M254.94,244.73c0,1.15-.07,2.3,.02,3.44,.11,1.32-.28,1.87-1.72,1.86-1.38-.01-1.83-.44-1.78-1.82,.09-2.49,.04-4.98,0-7.46-.02-1.13,.23-1.84,1.55-1.83,1.25,0,2.02,.33,1.93,1.79-.08,1.33-.02,2.68-.02,4.02h.03Z"/>
  <path class="cls-1" d="M260.56,245.4c0,.96-.07,1.92,.02,2.87,.13,1.37-.37,1.84-1.77,1.83-1.45,0-1.79-.59-1.73-1.9,.08-1.82,.06-3.64,0-5.46-.05-1.3,.05-2.14,1.77-2.14,1.79,0,1.76,.98,1.71,2.2-.04,.86,0,1.72,0,2.59h.01Z"/>
  <path class="cls-1" d="M249.33,247.44c-.01,.18,.13,1.2-.19,2.06-.3,.82-1.32,.54-2.05,.58-.85,.05-1.17-.42-1.14-1.26,.04-1.05-.08-2.12,.03-3.16,.11-1.02-.78-2.52,1.56-2.52,2.34,0,1.73,1.42,1.79,2.65,.01,.29,0,.58,0,1.64Z"/>
</svg>