<?xml version="1.0" encoding="utf-8"?>
<!-- Generator: Adobe Illustrator 26.5.0, SVG Export Plug-In . SVG Version: 6.00 Build 0)  -->
<svg version="1.1" id="_Слой_1" xmlns="http://www.w3.org/2000/svg" xmlns:xlink="http://www.w3.org/1999/xlink" x="0px"
	 y="0px" viewBox="0 0 590 590" style="enable-background:new 0 0 590 590;" xml:space="preserve">
<style type="text/css">
	.st0{fill:#0150AC;}
	.st1{fill:#FEFEFE;}
	.st2{fill:#57A3FE;}
</style>
<path class="st0" d="M82.9,502.1c0-6.3-0.2-12.6,0.1-18.9c0.1-3.3-0.8-4.4-4.2-5.2c-25.9-6.3-42.8-22.4-49.4-48.4
	c-11-43.6,27.7-85.2,72-78.5c26.8,4,53.7,26.5,55.1,61c1.3,32.2-19.6,58.8-51.2,66c-3.1,0.7-4,1.6-4,4.7c0.1,19,0.2,38,0,57.1
	c0,3.8,1.3,4.3,4.6,4.3c18.2-0.2,36.5,0,54.7-0.1c6,0,5.3,0.7,5.3-5.8c0-44.6,0-89.1,0-133.7c0-30.5,0-61.1,0-91.6
	c0-1.3-0.1-2.6-0.2-4.6c-8.7,3.6-16.9,7-25.2,10.4c-2.8,1.2-5.6,2.5-8.5,3.4c-5.9,1.9-11.8-1.8-11.9-8c-0.4-12.7-0.2-25.4-0.1-38
	c0.1-4.9,3.5-7.2,7.7-8.9c28.1-11.6,56.2-23.4,84.3-35.1c44-18.4,88.1-36.6,132.1-55.1c4.5-1.9,8.2-1.8,12.6,0
	c30,12.6,60.1,25.1,90.1,37.6c1.4,0.6,2.8,1.1,4.8,2c0-7.2-0.1-13.9,0.1-20.5c0-2.1-1.1-2.4-2.7-2.9c-4.8-1.7-6.7-5.3-6.6-10.3
	c0.1-8.3,0-16.5,0-24.8c0.1-7.2,3.5-10.5,10.7-10.6c7.5-0.1,15-0.2,22.5,0.1c3.1,0.1,3.9-1,3.8-3.9c-0.2-4.6-0.1-9.2,0-13.8
	c0.2-5.9,3.8-9.8,9-9.9c5.4-0.1,9.2,3.9,9.4,10.1c0.1,4.4,0.3,8.9-0.1,13.2c-0.3,3.8,1.2,4.5,4.6,4.3c6.9-0.2,13.8-0.1,20.7-0.1
	c8.4,0,11.6,3.2,11.6,11.4c0,7.9-0.1,15.8,0,23.6c0.1,5.2-1.7,9.1-6.8,10.7c-2.2,0.7-2.4,1.8-2.4,3.7c0,15.8,0.1,31.5-0.1,47.2
	c0,3.1,1.5,3.9,3.7,4.8c14.3,5.9,28.6,12.1,43,17.8c6.2,2.5,9,6.2,8.8,13c-0.4,10.4-0.1,20.7-0.1,31.1c0,10.2-5.7,14-14.9,10.2
	c-10.1-4.1-20.1-8.4-30.4-12.7c-1,1.7-0.7,3.2-0.7,4.7c0,75.3,0,150.6-0.1,225.9c0,3.9,0.8,5.3,4.9,5.2c9.6-0.3,19.2-0.1,28.8-0.1
	c1.5,0,3.1-0.1,4.6,0.2c4.7,0.8,7.9,4.7,7.8,9.3c-0.1,4.3-3.2,8.1-7.7,8.8c-1.9,0.3-3.8,0.2-5.8,0.2c-181.4,0-362.9,0-544.3,0
	c-1.9,0-3.9,0.1-5.8-0.1c-4.7-0.7-8-4.6-7.9-9.2s3.4-8.4,8.1-9c1.5-0.2,3.1-0.1,4.6-0.1c18.6,0,37.2-0.1,55.9,0.1
	c3.8,0,5.6-0.6,5.2-4.9c-0.5-5.5,2.1-12.3-1-16.3c-2.8-3.7-9.4-4.5-14.4-6.5c-7.8-3.2-15.7-6.2-23.5-9.4c-6.3-2.6-8.7-7.4-6.6-12.6
	c2.2-5.2,7.2-7,13.5-4.5c10.3,4,20.6,8.1,31,12.2C82.3,502.3,82.5,502.2,82.9,502.1L82.9,502.1z M184.3,422.3c0,36.5,0,73,0,109.5
	c0,4-1.8,9.1,0.8,11.6c2.6,2.4,7.7,0.7,11.7,0.7c6.7,0.1,5.9,0.8,5.9-5.7c0-49.2,0-98.4,0-147.5c0-9.9,2.8-12.7,12.6-12.7
	c28.2,0,56.5,0,84.7,0c10.7,0,13.3,2.6,13.3,13.1c0,48.8,0,97.6,0,146.4c0,7.5-1,6.4,6.3,6.5c63.4,0,126.7,0,190.1,0
	c7.4,0,6.4,1,6.4-6.4c0-76.8-0.1-153.7,0.2-230.5c0-5.4-1.8-7.6-6.5-9.5c-51.5-21.3-102.9-42.7-154.4-64.2c-3.7-1.5-6.6-1.6-10.3,0
	c-51.9,21.8-103.9,43.5-155.9,65c-3.8,1.6-5,3.4-5,7.5C184.4,344.7,184.3,383.5,184.3,422.3L184.3,422.3z M294.9,470.4
	c0-22.7,0-45.3,0-68c0-5.7,0-5.8-5.5-5.8c-20.9,0-41.8,0-62.8,0c-5.4,0-5.5,0-5.5,5.8c0,45.3,0,90.6,0,135.9c0,5.8,0,5.8,6.1,5.8
	c20.5,0,41.1,0,61.6,0c6,0,6,0,6-6.4C294.9,515.3,294.9,492.8,294.9,470.4L294.9,470.4z M138.8,299.3c1.5-0.5,2.8-0.9,4-1.4
	c14-5.8,27.9-11.6,41.9-17.5c53.4-22.3,106.7-44.5,160.1-66.8c3.8-1.6,7.2-1.6,11,0c16.7,7.1,33.5,14.1,50.3,21.1
	c45.8,19.1,91.5,38.1,137.3,57.2c6.1,2.5,12.2,5,18.8,7.6c0-4.5-0.3-8.2,0.1-11.8c0.5-4.1-1.5-5.7-4.9-7.1
	c-66.5-27.6-133-55.2-199.3-83.1c-5.9-2.5-10.6-2.1-16.2,0.3c-63.4,26.6-126.8,53.1-190.2,79.6c-4.4,1.8-10.4,2.2-12.6,6.1
	c-2.4,4-0.6,9.7-0.6,14.7C138.4,298.4,138.5,298.6,138.8,299.3L138.8,299.3z M83,445.2L83,445.2c0-4-0.2-8.1,0.1-12.1
	c0.3-5.1,4-8.6,8.8-8.8c5.1-0.2,9.3,3.4,9.4,8.8c0.2,7.7,0.2,15.4,0,23c-0.1,3.6,1,4.3,4.4,3.1c3.3-1.2,6.4-2.6,9.4-4.2
	c17.5-9.6,26.5-30.7,21.8-51.2c-4.3-18.6-22.7-33.8-41.8-34.7c-32-1.5-54.1,27.6-47.9,55.1c4,17.9,14.8,29.3,32,35.1
	c2.8,0.9,3.9,0.5,3.8-2.6C82.9,452.9,83,449,83,445.2L83,445.2z M506.9,239.7c0-14.9,0-29,0-43.1c0-2.9-1.8-2.9-3.8-2.9
	c-9.8,0-19.5,0.1-29.3,0c-2.6,0-3.8,0.7-3.8,3.6c0.1,8.1,0.1,16.1,0,24.2c0,1.9,0.5,3.2,2.4,4C483.7,230.1,495,234.8,506.9,239.7
	L506.9,239.7z M488,175.3c8,0,16.1-0.2,24.1,0.1c3.4,0.1,4.4-1.1,4-4.2c-0.3-2.5,0.9-5.2-3.7-5.2c-16.1,0.2-32.2,0.2-48.2,0
	c-4.3-0.1-3.3,2.5-3.4,4.8c-0.1,2.6-0.3,4.8,3.6,4.6C472.3,175.1,480.2,175.3,488,175.3L488,175.3z"/>
<path class="st0" d="M126.2,166.1c-20.5,0-41.1,0.2-61.6,0c-32-0.3-56.6-26.3-55.2-58.2c1.3-31.6,31-56.5,62.1-51.9
	c2.9,0.4,4.4-0.2,6.2-2.5c16.9-21.1,39-29.9,65.3-24c26.6,5.9,42.9,23.3,49.2,49.8c0.8,3.5,2.4,4.1,5.2,4.8
	c17.1,4,28.1,14.5,32.1,31.6c5.9,25.7-13.4,50-39.8,50.4C168.4,166.3,147.3,166.1,126.2,166.1L126.2,166.1z M125.8,147.6
	c20.9,0,41.8,0.1,62.8,0c13.4-0.1,23.5-10.3,23.4-23.3c-0.1-12.9-10.6-22.9-23.9-22.8c-10.2,0.1-12.4-1.9-13-12.1
	c-1.6-27.3-27.4-47.5-54.1-42.4c-14,2.7-24.6,10.2-31.9,22.4c-4.1,6.9-6.5,7.9-14.1,5.9c-0.9-0.2-1.9-0.4-2.8-0.6
	c-22.3-4.9-43.9,12-44.5,34.8c-0.5,20.7,15.7,37.8,36.5,38C84.7,147.8,105.3,147.6,125.8,147.6L125.8,147.6z"/>
<path class="st0" d="M487.1,36.9c16.2,0.3,30,5.1,42,15.1c5.1,4.2,6.2,9.8,2.8,14.1c-3.5,4.3-8.9,4.5-14.3,0.4
	c-19.4-14.8-40-14.8-59.7,0c-5.4,4-10.9,3.9-14.2-0.5c-3.5-4.5-2.5-9.5,2.8-14C458.4,42.1,472.3,37.3,487.1,36.9L487.1,36.9z"/>
<path class="st0" d="M515.2,80.7c-0.2,7-6.7,11.2-12.6,8.6c-1.5-0.7-2.9-1.8-4.3-2.8c-6.8-4.5-13.6-4.5-20.5-0.4
	c-1.1,0.7-2.1,1.6-3.3,2.3c-4.4,2.7-9.4,2-12.4-1.7c-3.2-4-2.7-9,1.4-12.8c10.2-9.8,27.5-12.1,40.7-5.3c2.9,1.5,5.6,3.2,8,5.5
	C514.4,75.9,515.4,78.3,515.2,80.7L515.2,80.7z"/>
<path class="st0" d="M496.8,101.8c-0.1,5.1-4.3,9.1-9.3,8.9c-4.9-0.2-9.1-4.6-9-9.5c0.2-4.9,4.6-9.1,9.5-8.9
	C493.1,92.5,496.9,96.6,496.8,101.8L496.8,101.8z"/>
<path class="st1" d="M184.3,422.3c0-38.8,0.1-77.6-0.1-116.4c0-4.1,1.2-5.9,5-7.5c52-21.5,104-43.2,155.9-65c3.7-1.5,6.6-1.5,10.3,0
	c51.4,21.5,102.9,43,154.4,64.2c4.6,1.9,6.5,4.1,6.5,9.5c-0.2,76.8-0.2,153.7-0.2,230.5c0,7.4,1,6.4-6.4,6.4
	c-63.4,0-126.7,0-190.1,0c-7.3,0-6.3,1.1-6.3-6.5c0-48.8,0-97.6,0-146.4c0-10.5-2.7-13.1-13.3-13.1c-28.2,0-56.4,0-84.7,0
	c-9.8,0-12.6,2.8-12.6,12.7c0,49.2,0,98.4,0,147.5c0,6.5,0.8,5.8-5.9,5.7c-4,0-9.1,1.7-11.7-0.7c-2.6-2.5-0.8-7.6-0.8-11.6
	C184.3,495.3,184.3,458.8,184.3,422.3L184.3,422.3z M414.7,378.2c-23.8,0-47.6,0-71.4,0c-8.3,0-11.5,3.2-11.5,11.4
	c0,35.3,0,70.6,0,105.9c0,8.6,3.2,11.7,11.9,11.7c47.4,0,94.8,0,142.2,0c8.7,0,11.8-3.1,11.9-11.7c0-35.1,0-70.2,0-105.4
	c0-9-3.1-12-12.2-12C461.9,378.1,438.3,378.2,414.7,378.2L414.7,378.2z M396.3,313.9c0.1-25.5-20.5-46.3-45.8-46.4
	c-25.5-0.1-46.2,20.4-46.4,45.8c-0.2,25.4,20.5,46.3,45.8,46.4C375.5,359.8,396.2,339.3,396.3,313.9L396.3,313.9z"/>
<path class="st2" d="M294.9,470.4c0,22.5,0,44.9,0,67.4c0,6.3,0,6.4-6,6.4c-20.5,0-41.1,0-61.6,0c-6,0-6.1,0-6.1-5.8
	c0-45.3,0-90.6,0-136c0-5.8,0-5.8,5.5-5.8c20.9,0,41.8,0,62.8,0c5.5,0,5.5,0,5.5,5.8C294.9,425.1,294.9,447.7,294.9,470.4
	L294.9,470.4z M267.3,479.3c0,3.3-0.1,6.5,0,9.8c0.3,5.4,4.2,9,9.3,9c4.9,0,8.8-3.5,9-8.6c0.3-6.5,0.3-13,0-19.6
	c-0.2-5.1-4.1-8.6-8.9-8.7c-5.1-0.1-9,3.5-9.4,8.9C267.1,473.1,267.3,476.2,267.3,479.3L267.3,479.3z"/>
<path class="st2" d="M138.8,299.3c-0.3-0.8-0.4-1-0.4-1.1c0-5-1.7-10.7,0.6-14.7c2.3-3.8,8.3-4.2,12.6-6.1
	c63.4-26.5,126.9-52.9,190.2-79.6c5.6-2.4,10.4-2.8,16.2-0.3c66.4,27.9,132.8,55.5,199.3,83.1c3.4,1.4,5.4,3,4.9,7.1
	c-0.4,3.6-0.1,7.3-0.1,11.8c-6.6-2.7-12.8-5.1-18.8-7.6c-45.8-19-91.6-38.1-137.3-57.2c-16.8-7-33.6-14-50.3-21.1
	c-3.8-1.6-7.2-1.6-11,0C291.4,236,238,258.2,184.7,280.5c-14,5.8-27.9,11.7-41.9,17.5C141.6,298.5,140.3,298.8,138.8,299.3
	L138.8,299.3z"/>
<path class="st2" d="M82.9,445.2c0,3.8-0.1,7.7,0,11.5c0.1,3.1-1.1,3.5-3.8,2.6c-17.2-5.8-28-17.3-32-35.1
	C40.9,396.5,63,367.5,95.1,369c19.2,0.9,37.6,16.1,41.8,34.7c4.7,20.5-4.2,41.6-21.8,51.2c-3,1.6-6.2,3.1-9.4,4.2
	c-3.3,1.2-4.4,0.5-4.4-3.1c0.2-7.7,0.2-15.4,0-23c-0.2-5.4-4.3-8.9-9.4-8.8c-4.9,0.2-8.6,3.7-8.8,8.8
	C82.8,437.1,83,441.2,82.9,445.2L82.9,445.2L82.9,445.2z"/>
<path class="st2" d="M506.9,239.7c-11.9-4.9-23.2-9.6-34.5-14.3c-1.9-0.8-2.4-2.1-2.4-4c0.1-8.1,0.1-16.1,0-24.2
	c0-2.8,1.1-3.6,3.8-3.6c9.8,0.1,19.5,0.1,29.3,0c2,0,3.8-0.1,3.8,2.9C506.9,210.7,506.9,224.9,506.9,239.7L506.9,239.7z"/>
<path class="st1" d="M488,175.3c-7.9,0-15.7-0.2-23.5,0.1c-3.9,0.2-3.8-1.9-3.6-4.6c0.1-2.3-0.8-4.9,3.4-4.8
	c16.1,0.2,32.2,0.2,48.2,0c4.6-0.1,3.4,2.7,3.7,5.2c0.3,3.2-0.7,4.3-4,4.2C504.1,175.1,496.1,175.3,488,175.3L488,175.3z"/>
<path class="st1" d="M125.8,147.6c-20.5,0-41.1,0.2-61.6-0.1c-20.8-0.2-37-17.2-36.5-38c0.6-22.8,22.1-39.7,44.5-34.8
	c0.9,0.2,1.9,0.3,2.8,0.6c7.6,2,10,0.9,14.1-5.9c7.3-12.2,17.8-19.8,31.9-22.4c26.8-5.1,52.5,15.1,54.1,42.4
	c0.6,10.2,2.8,12.2,13,12.1c13.3-0.2,23.8,9.8,23.9,22.8c0.1,13-10,23.2-23.4,23.3C167.6,147.7,146.7,147.6,125.8,147.6L125.8,147.6
	z"/>
<path class="st0" d="M414.7,378.2c23.6,0,47.2,0,70.8,0c9.1,0,12.2,3,12.2,12c0,35.1,0,70.2,0,105.4c0,8.6-3.2,11.7-11.9,11.7
	c-47.4,0-94.8,0-142.2,0c-8.7,0-11.9-3.1-11.9-11.7c0-35.3,0-70.6,0-105.9c0-8.2,3.2-11.4,11.5-11.4
	C367.1,378.1,390.9,378.2,414.7,378.2L414.7,378.2z M414.6,488.8c20,0,39.9-0.1,59.9,0.1c3.7,0,4.9-0.9,4.9-4.8
	c-0.1-27.5-0.2-54.9,0-82.4c0-4-1-5.2-5.1-5.2c-39.5,0.1-79.1,0.1-118.6,0c-4.2,0-5.5,1-5.5,5.4c0.2,27.1,0.1,54.1,0.1,81.2
	c0,5.6,0,5.7,5.6,5.7C375.4,488.8,395,488.8,414.6,488.8L414.6,488.8z"/>
<path class="st0" d="M396.3,313.9c-0.1,25.4-20.8,45.9-46.4,45.8c-25.3-0.1-46-21-45.8-46.4c0.2-25.4,20.9-45.9,46.4-45.8
	C375.8,267.6,396.4,288.4,396.3,313.9L396.3,313.9z M350.2,286c-14.9,0.1-27.5,12.7-27.6,27.5c-0.1,15.1,12.9,27.9,28,27.8
	c14.8-0.2,27.4-12.9,27.3-27.8C377.8,298.6,365,285.9,350.2,286L350.2,286z"/>
<path class="st0" d="M267.3,479.2c0-3.1-0.1-6.1,0-9.2c0.3-5.4,4.2-9,9.4-8.9c4.9,0.1,8.7,3.6,8.9,8.7c0.2,6.5,0.3,13,0,19.6
	c-0.2,5.1-4.1,8.5-9,8.6c-5.1,0-9-3.6-9.3-9C267.1,485.8,267.3,482.5,267.3,479.2L267.3,479.2z"/>
<path class="st2" d="M414.6,488.8c-19.6,0-39.1,0-58.7,0c-5.5,0-5.6,0-5.6-5.7c0-27.1,0.1-54.1-0.1-81.2c0-4.4,1.3-5.4,5.5-5.4
	c39.5,0.2,79.1,0.1,118.6,0c4.1,0,5.1,1.2,5.1,5.2c-0.2,27.5-0.2,54.9,0,82.4c0,3.9-1.2,4.8-4.9,4.8
	C454.5,488.7,434.5,488.8,414.6,488.8L414.6,488.8z"/>
<path class="st2" d="M350.2,286c14.8-0.1,27.6,12.6,27.7,27.5c0.1,14.9-12.5,27.6-27.3,27.8c-15.1,0.2-28-12.7-28-27.8
	C322.7,298.6,335.3,286,350.2,286L350.2,286z"/>
</svg>
