<?xml version="1.0" encoding="utf-8"?>
<!-- Generator: Adobe Illustrator 26.5.0, SVG Export Plug-In . SVG Version: 6.00 Build 0)  -->
<svg version="1.1" id="_Слой_1" xmlns="http://www.w3.org/2000/svg" xmlns:xlink="http://www.w3.org/1999/xlink" x="0px"
	 y="0px" viewBox="0 0 384 384" style="enable-background:new 0 0 384 384;" xml:space="preserve">
<style type="text/css">
	.st0{fill:#004FAB;}
	.st1{fill:#FEFEFE;}
	.st2{fill:#57A3FE;}
</style>
<path class="st0" d="M191.8,378c-58.9,0-117.7,0-176.6,0c-1.2,0-2.5,0.1-3.7-0.1c-2.8-0.3-5-2.3-5.4-4.9c-0.5-2.6,0.7-5.6,3.5-6.3
	c2.8-0.8,2.5-2.5,2.5-4.5c0-61.6,0-123.2,0-184.8c0-1.2-0.1-2.5,0-3.7c0.3-3.2,2.4-5.3,5.5-5.6c1.1-0.1,2.2,0,3.4,0
	c31.6,0,63.2,0,94.8,0c0.9,0,1.8,0,2.6,0c1.1,0.1,1.6-0.3,1.6-1.5c0-0.9,0-1.7,0-2.6c0-12,0-24,0-36c0-5.9,2-7.9,7.8-7.9
	c4.6,0,9.2-0.1,13.9,0c1.8,0,2.4-0.5,2.3-2.3c-0.1-2.9-0.1-5.7,0-8.6c0.1-4.9,2.2-7.1,7.1-7.1c10.6,0,21.2,0,31.9,0c3,0,3,0,3-3
	c0-2.2-0.1-4.5,0-6.7c0.1-1.9-0.6-2.4-2.4-2.2c-1.1,0.1-2.2,0.1-3.4,0c-3.9-0.2-6.1-2.4-6.3-6.4c-0.1-2.2,0-4.5,0-6.7
	c-0.1-3.5,0.3-7-0.2-10.4c-3.6-0.9-7.2-0.2-10.7-0.4c-2-0.1-4,0-6,0c-4.7-0.1-6.9-2.2-7-6.8c-0.1-7.5-0.1-15,0-22.5
	c0-4.4,2.3-6.5,6.8-6.6c2.4-0.1,4.7,0,7.1,0c3.2-0.1,6.5,0.3,9.7-0.2c0.8-3.3,0.2-6.7,0.4-10c0.1-2.2,0-4.5,0-6.7
	c0.1-4.7,2.2-6.9,6.8-7c7.5-0.1,15-0.1,22.5,0c4.4,0,6.6,2.3,6.7,6.8c0.1,2.4,0,4.7,0,7.1c0.1,3.2-0.3,6.5,0.2,9.7
	c3.3,0.8,6.7,0.2,10,0.4c2.2,0.1,4.5,0,6.7,0c4.7,0.1,6.9,2.2,7,6.8c0.1,7.4,0.1,14.7,0,22.1c0,4.8-2.2,7-7.2,7c-4.5,0-9,0-13.5,0
	c-3.5,0-3.3-0.4-3.3,3.1c0,4.5,0,9,0,13.5c0,5.2-2.1,7.3-7.2,7.4c-3.2,0-4.8,1.6-4.8,4.7c0,1.6,0.1,3.3,0,4.9
	c-0.2,2,0.6,2.5,2.5,2.5c10.1-0.1,20.2,0,30.4,0c1,0,2,0,3,0c3.7,0.2,6,2.4,6.1,6.2c0.1,3.1,0.2,6.3,0,9.4c-0.1,2.1,0.7,2.5,2.6,2.5
	c4.7-0.1,9.5-0.1,14.2,0c5.1,0,7.2,2.2,7.2,7.4c0,12.4,0,24.7,0,37.1c0,4-0.4,3.5,3.7,3.5c31.6,0,63.2,0,94.8,0c1,0,2,0,3,0
	c4.2,0.2,6.3,2.4,6.5,6.6c0,1,0,2,0,3c0,61.2,0,122.5,0,183.7c0,0.9,0.1,1.8,0,2.6c-0.1,1.3,0.2,2.2,1.7,2.3c0.4,0,0.7,0.3,1,0.4
	c2.4,1.3,3.6,3.7,3.2,6.2c-0.4,2.5-2.4,4.6-5,5c-1.3,0.2-2.7,0.1-4.1,0.1C309.8,378,250.8,378,191.8,378L191.8,378z M132,258
	c0,34.9,0,69.7,0,104.6c0,3.4,0,3.4,2.6,3.4c38.2,0,76.5,0,114.7,0.1c2.1,0,3-0.6,2.7-2.7c-0.1-0.7,0-1.5,0-2.2
	c0-62.6,0-125.2,0-187.8c0-6.9-0.1-13.7,0-20.6c0-2.1-0.5-3-2.7-2.7c-0.5,0.1-1,0-1.5,0c-37.2,0-74.5,0-111.7,0c-0.9,0-1.8,0-2.6,0
	c-1.1-0.1-1.6,0.4-1.5,1.5c0,0.9,0,1.7,0,2.6C132,188.8,132,223.4,132,258z M24,272.6c0,30,0,60,0,89.9c0,3.4,0,3.4,2.6,3.4
	c30.2,0,60.5,0,90.7,0.1c2.1,0,3-0.6,2.7-2.7c-0.1-0.5,0-1,0-1.5c0-59.2,0-118.4,0-177.6c0-0.9,0-1.8,0-2.6c0.1-1.1-0.4-1.6-1.5-1.6
	c-0.7,0-1.5,0-2.2,0c-29.5,0-59,0-88.4,0c-0.7,0-1.5,0-2.2,0c-1.1-0.1-1.6,0.4-1.5,1.5c0,0.9,0,1.7,0,2.6
	C24,213.6,24,243.1,24,272.6L24,272.6z M359.9,273c0-29.9,0-59.7,0-89.6c0-3.4,0-3.4-2.6-3.4c-30.2,0-60.5,0-90.7-0.1
	c-2.1,0-3,0.6-2.7,2.7c0.1,0.5,0,1,0,1.5c0,59.2,0,118.4,0,177.6c0,0.9,0,1.8,0,2.6c-0.1,1.1,0.4,1.6,1.5,1.6c0.7,0,1.5,0,2.2,0
	c29.5,0,59,0,88.4,0c0.7,0,1.5,0,2.2,0c1.1,0.1,1.6-0.4,1.5-1.5c0-0.9,0-1.7,0-2.6C359.9,332.2,359.9,302.6,359.9,273L359.9,273z
	 M171.9,54c2.2,0,4.5,0,6.7,0c5.2,0,7.3,2.1,7.3,7.2c0,4.7,0.1,9.5,0,14.2c0,1.9,0.4,2.7,2.5,2.6c2.4-0.1,4.7-0.2,7.1,0
	c2.1,0.1,2.5-0.9,2.5-2.7c-0.1-4.6,0-9.2,0-13.9c0-5.5,2-7.5,7.4-7.5c4.7,0,9.5-0.1,14.2,0c1.7,0,2.5-0.4,2.4-2.3
	c-0.1-2.4-0.2-4.8,0-7.1c0.2-2.3-0.9-2.7-2.8-2.7c-4.6,0.1-9.2,0.1-13.9,0c-5.2,0-7.3-2.1-7.3-7.2c0-4.7-0.1-9.5,0-14.2
	c0-1.9-0.4-2.8-2.5-2.6c-2.4,0.1-4.7,0.2-7.1,0c-2.1-0.1-2.5,0.8-2.5,2.7c0.1,4.6,0,9.2,0,13.9c0,5.5-2,7.5-7.4,7.5
	c-4.7,0-9.5,0.1-14.2,0c-1.7,0-2.5,0.4-2.4,2.3c0.1,2.5,0.1,5,0,7.5c-0.1,1.9,0.8,2.3,2.5,2.3C166.9,54,169.4,54,171.9,54L171.9,54z
	 M191.7,138c18.6,0,37.2,0,55.8,0c1,0,2,0,3,0c0.6,0,1.1-0.2,1.4-1c1.1-3.1-0.2-5-3.3-5c-0.2,0-0.5,0-0.7,0c-37.2,0-74.4,0-111.6,0
	c-0.9,0-1.7,0-2.6,0c-1.1,0-1.5,0.5-1.6,1.5c-0.6,3.8-0.1,4.4,4,4.4C154.5,138,173.1,138,191.7,138L191.7,138z M192.1,114
	c-11.1,0-22.2,0.1-33.3-0.1c-2.3,0-3,0.7-2.9,3c0.2,3,0,3.1,3.1,3.1c21.9,0,43.9,0,65.8,0c0.6,0,1.2,0,1.9-0.1
	c0.5,0,0.9-0.3,1.1-0.8c1.2-2.8-0.2-5.1-3.2-5.1C213.8,114,203,114,192.1,114L192.1,114z"/>
<path class="st1" d="M132,258c0-34.6,0-69.2,0-103.8c0-0.9,0-1.8,0-2.6c-0.1-1.1,0.4-1.6,1.5-1.5c0.9,0,1.7,0,2.6,0
	c37.2,0,74.5,0,111.7,0c0.5,0,1,0.1,1.5,0c2.1-0.3,2.7,0.6,2.7,2.7c-0.1,6.9,0,13.7,0,20.6c0,62.6,0,125.2,0,187.8
	c0,0.7-0.1,1.5,0,2.2c0.3,2.1-0.6,2.7-2.7,2.7c-38.2-0.1-76.5,0-114.7-0.1c-2.6,0-2.6-0.1-2.6-3.4C132,327.7,132,292.8,132,258z
	 M191.8,216c15.5,0,31,0,46.4,0c5.7,0,7.7-2,7.8-7.6c0-4.6-0.2-9.3,0.1-13.9c0.4-6-2.4-9.2-8.7-8.6c-0.4,0-0.8,0-1.1,0
	c-1.9,0.3-2.3-0.6-2.2-2.3c0.1-4.9,0.1-9.7,0-14.6c0-4.7-2.2-7-6.8-7c-23.5,0-46.9,0-70.4,0c-4.6,0-6.7,2.3-6.8,7c0,4,0,8,0,12
	c0,3.3-1.6,4.9-4.8,5c-5.1,0.1-7.1,2.2-7.2,7.4c0,4.9,0,9.7,0,14.6c0,6.1,1.9,8,8.1,8C161.3,216,176.5,216,191.8,216L191.8,216z
	 M191.9,282c15.6,0,31.2,0,46.8,0c5.1,0,7.2-2.2,7.3-7.3c0-4.2,0-8.5,0-12.7c0-8.6-1-9.7-9.5-9.9c-1.9,0-2.6-0.5-2.5-2.5
	c0.1-5,0.1-10,0-15c-0.1-4.2-2.3-6.5-6.5-6.5c-23.6,0-47.2,0-70.8,0c-4.4,0-6.6,2.3-6.7,6.8c-0.1,4.1,0,8.2,0,12.4
	c0,3.2-1.6,4.8-4.9,4.9c-4.9,0.1-7,2.2-7.1,7.1c0,5,0,10,0,15c0,5.9,2,7.9,7.8,7.9C161.2,282,176.5,282,191.9,282L191.9,282z
	 M191.7,348c15.2,0,30.5-0.2,45.7,0.1c5.7,0.1,9-2.1,8.6-8.8c-0.3-4,0-8,0-12c0-7.8-1.4-9.2-9-9.3c-0.2,0-0.5,0-0.7,0
	c-1.9,0.3-2.3-0.6-2.3-2.3c0.1-4.9,0.1-9.7,0-14.6c0-4.9-2.2-7.1-7.1-7.1c-23.2,0-46.4,0-69.7,0c-5.1,0-7.1,2.2-7.2,7.4
	c0,3.9,0,7.7,0,11.6c0,3.3-1.6,4.9-4.8,5c-5.1,0.1-7.2,2.2-7.2,7.4c0,4.9,0.2,9.7-0.1,14.6c-0.3,5.4,2.7,8.2,8.1,8.1
	C161.3,347.8,176.5,348,191.7,348L191.7,348z"/>
<path class="st1" d="M24,272.6c0-29.5,0-59,0-88.4c0-0.9,0-1.8,0-2.6c-0.1-1.1,0.4-1.6,1.5-1.5c0.7,0,1.5,0,2.2,0
	c29.5,0,59,0,88.4,0c0.7,0,1.5,0,2.2,0c1.1-0.1,1.6,0.5,1.5,1.6c0,0.9,0,1.7,0,2.6c0,59.2,0,118.4,0,177.6c0,0.5-0.1,1,0,1.5
	c0.3,2.1-0.5,2.7-2.7,2.7c-30.2-0.1-60.5,0-90.7-0.1c-2.6,0-2.6-0.1-2.6-3.4C24,332.6,24,302.6,24,272.6L24,272.6z M72,312
	c11.5,0,23,0,34.4,0c5.4,0,7.5-2.1,7.5-7.4c0-7,0-14,0-21c0-5.4-2.1-7.6-7.4-7.6c-23.1,0-46.2,0-69.3,0c-5.2,0-7.3,2.1-7.3,7.3
	c0,7,0,14,0,21c0,5.8,2,7.8,7.9,7.8C49.3,312,60.7,312,72,312z M72,234c-11.6,0-23.2,0-34.8,0c-4.9,0-7.1,2.2-7.1,7
	c0,7.2,0,14.5,0,21.7c0,5.1,2.2,7.2,7.4,7.2c23.1,0,46.2,0,69.3,0c5.2,0,7.3-2.1,7.3-7.2c0-7.1,0-14.2,0-21.3c0-5.3-2.1-7.4-7.6-7.4
	C94.9,234,83.5,234,72,234L72,234z M72.1,192c-11.6,0-23.2,0-34.8,0c-5.2,0-7.3,2.1-7.3,7.3c0,7.1,0,14.2,0,21.3
	c0,5.3,2.1,7.4,7.6,7.4c23,0,45.9,0,68.9,0c5.4,0,7.5-2.1,7.5-7.5c0-6.9,0-13.7,0-20.6c0-5.9-2-7.9-7.8-7.9
	C94.8,192,83.5,192,72.1,192L72.1,192z M72.4,318c-11.7,0-23.5,0-35.2,0c-4.9,0-7.1,2.2-7.2,7c0,7.2,0,14.5,0,21.7
	c0,5.1,2.2,7.2,7.3,7.2c23.1,0,46.2,0,69.3,0c5.2,0,7.3-2.1,7.4-7.2c0-7.1,0-14.2,0-21.3c0-5.3-2.1-7.4-7.5-7.4
	C95.1,318,83.7,318,72.4,318L72.4,318z"/>
<path class="st1" d="M359.9,273c0,29.6,0,59.2,0,88.8c0,0.9,0,1.8,0,2.6c0.1,1.1-0.4,1.6-1.5,1.5c-0.7,0-1.5,0-2.2,0
	c-29.5,0-59,0-88.4,0c-0.7,0-1.5,0-2.2,0c-1.1,0.1-1.6-0.5-1.5-1.6c0-0.9,0-1.7,0-2.6c0-59.2,0-118.4,0-177.6c0-0.5,0.1-1,0-1.5
	c-0.3-2.1,0.6-2.7,2.7-2.7c30.2,0.1,60.5,0,90.7,0.1c2.6,0,2.6,0.1,2.6,3.4C359.9,213.3,359.9,243.1,359.9,273L359.9,273z
	 M311.9,192c-11.6,0-23.2,0-34.8,0c-4.9,0-7,2.2-7.1,7.1c0,7.1,0,14.2,0,21.3c0,5.4,2.1,7.5,7.4,7.5c23.1,0,46.2,0,69.3,0
	c5.1,0,7.2-2.2,7.3-7.3c0-7,0-14,0-21c0-5.7-2-7.7-7.6-7.7C334.8,192,323.3,192,311.9,192L311.9,192z M312,234c-11.5,0-23,0-34.4,0
	c-5.4,0-7.5,2-7.6,7.4c0,7.1,0,14.2,0,21.3c0,5.1,2.2,7.3,7.3,7.3c23.1,0,46.2,0,69.3,0c5.3,0,7.4-2.1,7.4-7.6c0-7,0-14,0-21
	c0-5.4-2.1-7.4-7.5-7.4C334.9,234,323.5,234,312,234z M311.9,276c-11.6,0-23.2,0-34.8,0c-4.9,0-7.1,2.2-7.1,7c0,7.2,0,14.5,0,21.7
	c0,5.1,2.2,7.2,7.4,7.2c23.1,0,46.2,0,69.3,0c5.2,0,7.3-2.1,7.3-7.2c0-7.1,0-14.2,0-21.3c0-5.3-2.1-7.4-7.6-7.4
	C334.9,276,323.4,276,311.9,276L311.9,276z M312.4,318c-11.6,0-23.2,0-34.8,0c-5.4,0-7.5,2-7.6,7.4c0,7.1,0,14.2,0,21.3
	c0,5.1,2.2,7.3,7.3,7.3c23.1,0,46.2,0,69.3,0c5.3,0,7.4-2.1,7.4-7.6c0-7,0-14,0-21c0-5.4-2.1-7.4-7.5-7.4
	C335.1,318,323.7,318,312.4,318z"/>
<path class="st2" d="M171.9,54c-2.5,0-5-0.1-7.5,0c-1.7,0.1-2.6-0.3-2.5-2.3c0.1-2.5,0.1-5,0-7.5c-0.1-1.9,0.7-2.3,2.4-2.3
	c4.7,0.1,9.5,0,14.2,0c5.4,0,7.3-2.1,7.4-7.5c0-4.6,0.1-9.2,0-13.9c0-1.8,0.4-2.8,2.5-2.7c2.4,0.2,4.7,0.1,7.1,0
	c2-0.1,2.5,0.8,2.5,2.6c-0.1,4.7-0.1,9.5,0,14.2c0,5.1,2.1,7.2,7.3,7.2c4.6,0,9.2,0.1,13.9,0c2,0,3,0.4,2.8,2.7
	c-0.2,2.4-0.1,4.7,0,7.1c0.1,1.9-0.7,2.3-2.4,2.3c-4.7-0.1-9.5,0-14.2,0c-5.4,0-7.3,2-7.4,7.5c0,4.6-0.1,9.2,0,13.9
	c0,1.8-0.4,2.8-2.5,2.7c-2.4-0.2-4.7-0.1-7.1,0c-2,0.1-2.5-0.8-2.5-2.6c0.1-4.7,0.1-9.5,0-14.2c0-5.1-2.1-7.1-7.3-7.2
	C176.4,54,174.1,54,171.9,54L171.9,54z"/>
<path class="st2" d="M191.7,138c-18.6,0-37.2,0-55.8,0c-4,0-4.5-0.6-4-4.4c0.2-1.1,0.6-1.6,1.6-1.5c0.9,0,1.7,0,2.6,0
	c37.2,0,74.4,0,111.6,0c0.2,0,0.5,0,0.7,0c3.2,0,4.4,1.9,3.3,5c-0.3,0.7-0.7,0.9-1.4,1c-1,0-2,0-3,0C228.9,138,210.3,138,191.7,138
	L191.7,138z"/>
<path class="st2" d="M192.1,114c10.8,0,21.7,0,32.5,0c3,0,4.4,2.3,3.2,5.1c-0.2,0.5-0.6,0.8-1.1,0.8c-0.6,0-1.2,0.1-1.9,0.1
	c-21.9,0-43.9,0-65.8,0c-3.1,0-3-0.1-3.1-3.1c-0.1-2.3,0.6-3,2.9-3C169.9,114.1,181,114,192.1,114L192.1,114z"/>
<path class="st0" d="M191.8,216c-15.2,0-30.5,0-45.7,0c-6.2,0-8.1-1.9-8.1-8c0-4.9,0-9.7,0-14.6c0-5.2,2.1-7.3,7.2-7.4
	c3.2-0.1,4.8-1.7,4.8-5c0-4,0-8,0-12c0.1-4.7,2.2-7,6.8-7c23.5,0,46.9,0,70.4,0c4.6,0,6.7,2.3,6.8,7c0,4.9,0.1,9.7,0,14.6
	c0,1.7,0.4,2.6,2.2,2.3c0.4-0.1,0.8,0,1.1,0c6.3-0.6,9.1,2.5,8.7,8.6c-0.3,4.6,0,9.2-0.1,13.9c0,5.6-2.1,7.6-7.8,7.6
	C222.7,216,207.2,216,191.8,216L191.8,216z M192.4,198c-11.5,0-23,0-34.5,0c-2.1,0-4.2,0-6.4,0c-1.1,0-1.6,0.3-1.6,1.5
	c0,0.9,0.1,1.8,0,2.6c-0.1,1.5,0.5,2.1,1.9,1.9c0.6-0.1,1.2,0,1.9,0c25.5,0,50.9,0,76.4,0c0.7,0,1.5,0,2.2,0c0.5,0,1.2,0.1,1.3-0.4
	c0.5-1.6,0.4-3.2,0.1-4.8c-0.3-1.4-1.6-0.8-2.5-0.8C218.3,198,205.4,198,192.4,198L192.4,198z M174,180.2c0-4.1-2.1-6.2-6.2-6.2
	c-3.8,0-5.8,2-5.8,6c0,4,2,6,6.1,6C172,186,174,184.1,174,180.2z M198,180.2c0-4.1-2-6.2-5.9-6.2c-4.1,0-6.1,2-6.1,6c0,4,2,6,6.1,6
	C196,186,198,184.1,198,180.2L198,180.2z M222,180.1c0-4.1-2-6.1-6-6.1h-0.4c-3.8,0-5.6,1.9-5.6,5.7c0,4.2,2.1,6.3,6.2,6.3
	C220,186,222,184,222,180.1z"/>
<path class="st0" d="M191.9,282c-15.4,0-30.7,0-46.1,0c-5.9,0-7.8-2-7.8-7.9c0-5,0-10,0-15c0-4.9,2.2-7,7.1-7.1
	c3.3-0.1,4.9-1.7,4.9-4.9c0-4.1-0.1-8.2,0-12.4c0.1-4.5,2.3-6.7,6.7-6.8c23.6,0,47.2,0,70.8,0c4.2,0,6.4,2.3,6.5,6.5
	c0.1,5,0.1,10,0,15c-0.1,2,0.6,2.5,2.5,2.5c8.5,0.1,9.5,1.3,9.5,9.9c0,4.2,0,8.5,0,12.7c0,5.2-2.1,7.3-7.3,7.3
	C223.1,282,207.5,282,191.9,282L191.9,282z M192.4,264c-11.5,0-23,0-34.5,0c-2.1,0-4.2,0-6.4,0c-1.1,0-1.6,0.3-1.6,1.5
	c0,0.9,0.1,1.8,0,2.6c-0.1,1.5,0.5,2.1,1.9,1.9c0.6-0.1,1.2,0,1.9,0c25.5,0,50.9,0,76.4,0c0.7,0,1.5,0,2.2,0c0.5,0,1.2,0.1,1.3-0.4
	c0.5-1.6,0.4-3.2,0.1-4.8c-0.3-1.4-1.6-0.8-2.5-0.8C218.3,264,205.4,264,192.4,264L192.4,264z M174,246c0-4-1.9-6-5.7-6
	c-4.2,0-6.3,2.1-6.3,6.2c0,3.9,2,5.8,5.9,5.8C171.9,252,174,250,174,246L174,246z M198,246.2c0-4.1-2-6.2-5.9-6.2
	c-4.1,0-6.1,2-6.1,6c0,4,2,6,6.1,6C196,252,198,250,198,246.2L198,246.2z M215.8,252c4.1,0,6.1-2,6.1-6v-0.4c0-3.8-1.9-5.7-5.7-5.7
	c-4.2,0-6.3,2.1-6.3,6.2C210,250,211.9,252,215.8,252L215.8,252z"/>
<path class="st0" d="M191.7,348c-15.2,0-30.5-0.2-45.7,0.1c-5.5,0.1-8.5-2.7-8.1-8.1c0.3-4.9,0-9.7,0.1-14.6c0-5.2,2.1-7.3,7.2-7.4
	c3.2-0.1,4.8-1.7,4.8-5c0-3.9,0-7.7,0-11.6c0-5.2,2.1-7.4,7.2-7.4c23.2,0,46.4,0,69.7,0c4.9,0,7.1,2.2,7.1,7.1c0,4.9,0.1,9.7,0,14.6
	c0,1.7,0.4,2.6,2.3,2.3c0.2,0,0.5,0,0.7,0c7.6,0.1,9,1.5,9,9.3c0,4-0.2,8,0,12c0.4,6.7-2.9,8.9-8.6,8.8
	C222.2,347.8,207,348,191.7,348L191.7,348z M192.4,330c-12,0-24,0-35.9,0c-1.6,0-3.2,0-4.9,0c-1.1,0-1.6,0.4-1.6,1.5
	c0,0.9,0.1,1.8,0,2.6c-0.1,1.5,0.5,2,1.9,1.9c0.7-0.1,1.5,0,2.2,0c25.2,0,50.4,0,75.6,0c0.9,0,1.7,0,2.6,0c0.5,0,1.2,0.1,1.3-0.4
	c0.5-1.6,0.4-3.2,0.1-4.8c-0.3-1.3-1.7-0.7-2.5-0.7C218.3,330,205.3,330,192.4,330L192.4,330z M168.2,306c-4.1,0-6.2,2.1-6.2,6.3
	c0,3.8,2,5.7,6,5.7c4,0,6-2,6-6.1C174,307.9,172,306,168.2,306z M191.8,318c4.1,0,6.2-2,6.2-5.9c0-4-2-6.1-6-6.1c-4,0-6,2-6,6.1
	C186,316,187.9,318,191.8,318L191.8,318z M216.2,318c3.8,0,5.8-1.9,5.8-5.6c0-0.1,0-0.2,0-0.4c0-4-2-6-6.1-6c-4,0-5.9,1.9-5.9,5.8
	C210,315.9,212,318,216.2,318z"/>
<path class="st0" d="M72,312c-11.4,0-22.7,0-34.1,0c-5.9,0-7.9-1.9-7.9-7.8c0-7,0-14,0-21c0-5.1,2.1-7.2,7.3-7.3
	c23.1,0,46.2,0,69.3,0c5.3,0,7.4,2.1,7.4,7.6c0,7,0,14,0,21c0,5.4-2.1,7.4-7.5,7.4C95,312,83.5,312,72,312L72,312z M54,294.1
	c0-4.1-2-6.1-6-6.1h-0.4c-3.8,0-5.7,1.9-5.7,5.7c0,4.2,2.1,6.3,6.2,6.3C52,300,54,298,54,294.1L54,294.1z M71.9,300c4,0,6-1.9,6-5.7
	c0-4.2-2-6.3-6.1-6.3c-3.9,0-5.9,2-5.9,5.9C66,297.9,68,300,71.9,300L71.9,300z M95.9,300c4.1,0,6.1-2,6.1-6v-0.4
	c0-3.8-1.9-5.7-5.7-5.7c-4.2,0-6.3,2.1-6.3,6.2C90,298,91.9,300,95.9,300z"/>
<path class="st0" d="M72,234c11.5,0,23,0,34.4,0c5.4,0,7.5,2.1,7.6,7.4c0,7.1,0,14.2,0,21.3c0,5.1-2.2,7.2-7.3,7.2
	c-23.1,0-46.2,0-69.3,0c-5.2,0-7.3-2.1-7.4-7.2c0-7.2,0-14.5,0-21.7c0-4.9,2.2-7,7.1-7C48.8,234,60.4,234,72,234L72,234z M71.7,258
	c4.2,0,6.2-2.1,6.2-6.2c0-0.1,0-0.2,0-0.4c0-3.6-1.9-5.4-5.6-5.4c-4.3,0-6.4,2.1-6.4,6.4C66,256.1,67.9,258,71.7,258z M96.1,246
	c-4.1,0-6.1,2-6.1,6c0,0.1,0,0.2,0,0.4c0,3.8,1.9,5.6,5.7,5.6c4.2,0,6.3-2.1,6.3-6.2C102,247.9,100,246,96.1,246L96.1,246z
	 M54,252.2c0-4.2-2.1-6.3-6.2-6.3c-0.1,0-0.2,0-0.4,0c-3.6,0-5.4,1.9-5.4,5.6c0,4.3,2.1,6.4,6.4,6.4C52.1,258,54,256.1,54,252.2z"/>
<path class="st0" d="M72.1,192c11.4,0,22.7,0,34.1,0c5.8,0,7.8,2,7.8,7.9c0,6.9,0,13.7,0,20.6c0,5.4-2.1,7.5-7.5,7.5
	c-23,0-45.9,0-68.9,0c-5.5,0-7.6-2.1-7.6-7.4c0-7.1,0-14.2,0-21.3c0-5.1,2.1-7.3,7.3-7.3C48.9,192,60.5,192,72.1,192z M47.7,216
	c4.2,0,6.3-2.1,6.3-6.2c0-0.1,0-0.2,0-0.4c0-3.6-1.9-5.4-5.6-5.4c-4.3,0-6.4,2.1-6.4,6.4C42,214.1,43.9,216,47.7,216L47.7,216z
	 M66,209.9c0,4.1,2,6.1,6,6.1c0.1,0,0.2,0,0.4,0c3.8,0,5.7-1.9,5.7-5.7c0-4.2-2.1-6.3-6.2-6.3C67.9,204,66,206,66,209.9z M96.1,204
	c-4.1,0-6.1,2-6.1,6c0,0.1,0,0.2,0,0.4c0,3.8,1.9,5.7,5.7,5.7c4.2,0,6.3-2.1,6.3-6.2C102,205.9,100,204,96.1,204L96.1,204z"/>
<path class="st0" d="M72.4,318c11.4,0,22.7,0,34.1,0c5.4,0,7.5,2.1,7.5,7.4c0,7.1,0,14.2,0,21.3c0,5.1-2.2,7.2-7.4,7.2
	c-23.1,0-46.2,0-69.3,0c-5.2,0-7.3-2.1-7.3-7.2c0-7.2,0-14.5,0-21.7c0-4.9,2.2-7,7.2-7C48.9,318,60.6,318,72.4,318z M54,336.1
	c0-4.1-2-6.1-6-6.1c-0.1,0-0.2,0-0.4,0c-3.8,0-5.6,1.9-5.6,5.7c0,4.2,2.1,6.3,6.2,6.3C52.1,342,54,340,54,336.1L54,336.1z M78,336.2
	c0-4.1-2.1-6.2-6.2-6.2c-3.8,0-5.8,2-5.8,6c0,4,2,6,6.1,6C76,342,78,340,78,336.2z M96.1,330c-4.1,0-6.1,2-6.1,6c0,0.1,0,0.2,0,0.4
	c0,3.8,1.9,5.7,5.7,5.7c4.2,0,6.3-2.1,6.3-6.2C102,331.9,100,330,96.1,330z"/>
<path class="st0" d="M311.9,192c11.5,0,23,0,34.4,0c5.6,0,7.6,2,7.6,7.7c0,7,0,14,0,21c0,5.2-2.1,7.3-7.3,7.3c-23.1,0-46.2,0-69.3,0
	c-5.4,0-7.4-2.1-7.4-7.5c0-7.1,0-14.2,0-21.3c0-4.9,2.2-7.1,7.1-7.1C288.6,192,300.2,192,311.9,192L311.9,192z M287.8,216
	c4.1,0,6.2-2,6.2-5.9c0-4-2-6.1-6-6.1c-4,0-6,2-6,6.1C282,214,283.9,216,287.8,216L287.8,216z M311.8,216c4.1,0,6.1-2,6.1-6
	c0-0.1,0-0.2,0-0.4c0-3.8-1.9-5.7-5.7-5.7c-4.2,0-6.3,2.1-6.3,6.2C306,214,307.9,216,311.8,216L311.8,216z M335.7,216
	c4.2,0,6.3-2.1,6.3-6.2v-0.4c0-3.6-1.9-5.4-5.6-5.4c-4.3,0-6.4,2.1-6.4,6.4C329.9,214.1,331.9,216,335.7,216z"/>
<path class="st0" d="M312,234c11.5,0,23,0,34.4,0c5.4,0,7.5,2.1,7.5,7.4c0,7,0,14,0,21c0,5.4-2.1,7.6-7.4,7.6c-23.1,0-46.2,0-69.3,0
	c-5.2,0-7.3-2.1-7.3-7.3c0-7.1,0-14.2,0-21.3c0-5.3,2.1-7.4,7.6-7.4C289,234,300.5,234,312,234L312,234z M282,251.9
	c0,4.1,2,6.1,6,6.1h0.4c3.8,0,5.7-1.9,5.7-5.7c0-4.2-2.1-6.3-6.2-6.3C283.9,246,282,247.9,282,251.9L282,251.9z M317.9,252.1
	c0-4.1-2-6.2-5.9-6.2c-4,0-6.1,2-6.1,6c0,4,2,6,6.1,6C316,258,317.9,256,317.9,252.1L317.9,252.1z M336.1,246
	c-4.1,0-6.2,2.1-6.2,6.3c0,3.8,2,5.7,6,5.7c4,0,6-2,6-6.1C341.9,248,340,246,336.1,246z"/>
<path class="st0" d="M311.9,276c11.5,0,23,0,34.4,0c5.4,0,7.5,2.1,7.6,7.4c0,7.1,0,14.2,0,21.3c0,5.1-2.2,7.2-7.3,7.2
	c-23.1,0-46.2,0-69.3,0c-5.2,0-7.3-2.1-7.4-7.2c0-7.2,0-14.5,0-21.7c0-4.9,2.2-7,7.1-7C288.7,276,300.3,276,311.9,276L311.9,276z
	 M294,294.1c0-4.1-2-6.1-6-6.1h-0.4c-3.8,0-5.6,1.9-5.6,5.7c0,4.2,2.1,6.3,6.2,6.3C292,300,294,298,294,294.1z M341.9,294.2
	c0-4.1-2.1-6.2-6.3-6.2c-3.8,0-5.7,2-5.7,6c0,4,2,6,6.1,6C340,300,341.9,298,341.9,294.2z M317.9,294.1c0-4.1-2-6.1-6-6.1
	c-0.1,0-0.2,0-0.4,0c-3.8,0-5.6,1.9-5.6,5.7c0,4.2,2.1,6.3,6.2,6.3C316,300,317.9,298,317.9,294.1z"/>
<path class="st0" d="M312.4,318c11.4,0,22.7,0,34.1,0c5.4,0,7.5,2.1,7.5,7.4c0,7,0,14,0,21c0,5.4-2.1,7.6-7.4,7.6
	c-23.1,0-46.2,0-69.3,0c-5.2,0-7.3-2.1-7.3-7.3c0-7.1,0-14.2,0-21.3c0-5.3,2.1-7.4,7.6-7.4C289.1,318,300.7,318,312.4,318L312.4,318
	z M288.1,330c-4.1,0-6.2,2-6.2,5.9c0,4,2,6.1,6,6.1c4,0,6-2,6-6.1C294,331.9,292,330,288.1,330L288.1,330z M311.9,342
	c4,0,6.1-2,6.1-6c0-0.1,0-0.2,0-0.4c0-3.7-1.9-5.6-5.7-5.6c-4.2,0-6.3,2.1-6.3,6.2C306,340,307.9,342,311.9,342L311.9,342z
	 M335.8,342c4.1,0,6.1-2,6.1-6v-0.4c0-3.8-1.9-5.7-5.7-5.7c-4.2,0-6.3,2.1-6.3,6.2C329.9,340,331.9,342,335.8,342L335.8,342z"/>
<path class="st1" d="M192.4,198c13,0,26,0,38.9,0c0.9,0,2.3-0.6,2.5,0.8c0.3,1.6,0.4,3.2-0.1,4.8c-0.2,0.5-0.8,0.4-1.3,0.4
	c-0.7,0-1.5,0-2.2,0c-25.5,0-50.9,0-76.4,0c-0.6,0-1.3-0.1-1.9,0c-1.5,0.2-2-0.5-1.9-1.9c0.1-0.9,0.1-1.7,0-2.6
	c-0.1-1.2,0.5-1.5,1.6-1.5c2.1,0,4.2,0,6.4,0C169.4,198,180.9,198,192.4,198L192.4,198z"/>
<path class="st2" d="M174,180.2c0,3.9-2,5.8-5.9,5.8c-4,0-6.1-2-6.1-6c0-4,1.9-6,5.8-6C171.9,174,174,176.1,174,180.2z"/>
<path class="st2" d="M198,180.2c0,3.9-2,5.8-5.9,5.8c-4.1,0-6.1-2-6.1-6c0-4,2-6,6.1-6C196,174,198,176.1,198,180.2z"/>
<path class="st2" d="M222,180.1c0,3.9-1.9,5.9-5.8,5.9c-4.1,0-6.2-2.1-6.2-6.3c0-3.8,1.9-5.7,5.6-5.7h0.4C220,174,222,176,222,180.1
	z"/>
<path class="st1" d="M192.4,264c13,0,26,0,38.9,0c0.9,0,2.3-0.6,2.5,0.8c0.3,1.6,0.4,3.2-0.1,4.8c-0.2,0.5-0.8,0.4-1.3,0.4
	c-0.7,0-1.5,0-2.2,0c-25.5,0-50.9,0-76.4,0c-0.6,0-1.3-0.1-1.9,0c-1.5,0.2-2-0.5-1.9-1.9c0.1-0.9,0.1-1.7,0-2.6
	c-0.1-1.2,0.5-1.5,1.6-1.5c2.1,0,4.2,0,6.4,0C169.4,264,180.9,264,192.4,264L192.4,264z"/>
<path class="st2" d="M174,246c0,4-2,6-6.1,6c-3.9,0-5.9-1.9-5.9-5.8c0-4.1,2.1-6.2,6.3-6.2C172.1,240,174,242,174,246L174,246z"/>
<path class="st2" d="M198,246.2c0,3.9-2,5.8-5.9,5.8c-4.1,0-6.1-2-6.1-6c0-4,2-6,6.1-6C196,240,198,242.1,198,246.2L198,246.2z"/>
<path class="st2" d="M215.8,252c-3.9,0-5.9-1.9-5.9-5.8c0-4.1,2.1-6.2,6.3-6.2c3.8,0,5.7,1.9,5.7,5.7v0.4
	C222,250,219.9,252,215.8,252L215.8,252z"/>
<path class="st1" d="M192.4,330c13,0,26,0,38.9,0c0.9,0,2.3-0.6,2.5,0.7c0.3,1.6,0.4,3.2-0.1,4.8c-0.2,0.5-0.8,0.4-1.3,0.4
	c-0.9,0-1.7,0-2.6,0c-25.2,0-50.4,0-75.6,0c-0.7,0-1.5-0.1-2.2,0c-1.4,0.1-2.1-0.4-1.9-1.9c0.1-0.9,0.1-1.7,0-2.6
	c-0.1-1.1,0.5-1.5,1.6-1.5c1.6,0,3.2,0,4.9,0C168.4,330,180.4,330,192.4,330L192.4,330z"/>
<path class="st2" d="M168.2,306c3.9,0,5.8,2,5.8,5.9c0,4.1-2,6.1-6,6.1c-4,0-6-1.9-6-5.7C162,308.1,164,306,168.2,306L168.2,306z"/>
<path class="st2" d="M191.8,318c-3.9,0-5.8-2-5.8-5.9c0-4.1,2-6.1,6-6.1c4,0,6,2,6,6.1C198,316,195.9,318,191.8,318L191.8,318z"/>
<path class="st2" d="M216.2,318c-4.2,0-6.2-2.1-6.2-6.2c0-3.9,2-5.8,5.9-5.8c4,0,6.1,2,6.1,6c0,0.1,0,0.2,0,0.4
	C222,316.1,220,318,216.2,318z"/>
<path class="st2" d="M54,294.1c0,3.9-1.9,5.9-5.8,5.9c-4.1,0-6.2-2.1-6.2-6.3c0-3.8,1.9-5.7,5.7-5.7H48C52,288,54,290,54,294.1
	L54,294.1z"/>
<path class="st2" d="M71.9,300c-4,0-6-2-6-6.1c0-3.9,2-5.9,5.9-5.9c4.1,0,6.1,2.1,6.1,6.3C78,298.1,76,300,71.9,300L71.9,300z"/>
<path class="st2" d="M95.9,300c-3.9,0-5.9-1.9-5.9-5.8c0-4.1,2.1-6.2,6.3-6.2c3.8,0,5.7,1.9,5.7,5.7v0.4C102,298,99.9,300,95.9,300z
	"/>
<path class="st2" d="M71.7,258c-3.8,0-5.8-1.9-5.8-5.6c0-4.3,2.1-6.4,6.4-6.4c3.7,0,5.6,1.8,5.6,5.4c0,0.1,0,0.2,0,0.4
	C78,255.9,75.9,258,71.7,258z"/>
<path class="st2" d="M96.1,246c3.9,0,5.9,1.9,5.9,5.8c0,4.1-2.1,6.2-6.3,6.2c-3.8,0-5.7-1.9-5.7-5.6c0-0.1,0-0.2,0-0.4
	C90,248,92,246,96.1,246L96.1,246z"/>
<path class="st2" d="M54,252.2c0,3.8-1.9,5.7-5.6,5.7c-4.3,0-6.4-2.1-6.4-6.4c0-3.7,1.8-5.6,5.4-5.6c0.1,0,0.2,0,0.4,0
	C51.9,246,54,248.1,54,252.2L54,252.2z"/>
<path class="st2" d="M47.7,216c-3.8,0-5.7-1.9-5.7-5.6c0-4.3,2.1-6.4,6.4-6.4c3.7,0,5.6,1.8,5.6,5.4c0,0.1,0,0.2,0,0.4
	C54,213.9,51.9,216,47.7,216z"/>
<path class="st2" d="M66,209.9c0-3.9,1.9-5.9,5.8-5.9c4.1,0,6.2,2.1,6.2,6.3c0,3.8-1.9,5.7-5.7,5.7c-0.1,0-0.2,0-0.4,0
	C68,216,66,214,66,209.9z"/>
<path class="st2" d="M96.1,204c3.9,0,5.9,1.9,5.9,5.8c0,4.1-2.1,6.2-6.3,6.2c-3.8,0-5.7-1.9-5.7-5.7c0-0.1,0-0.2,0-0.4
	C90,206,92,204,96.1,204L96.1,204z"/>
<path class="st2" d="M54,336.1c0,3.9-1.9,5.9-5.8,5.9c-4.1,0-6.2-2.1-6.2-6.3c0-3.8,1.9-5.7,5.6-5.7c0.1,0,0.2,0,0.4,0
	C52,330,54,332,54,336.1L54,336.1z"/>
<path class="st2" d="M78,336.2c0,3.9-2,5.8-5.9,5.8c-4,0-6.1-2-6.1-6c0-4,1.9-6,5.8-6C75.9,330,78,332,78,336.2z"/>
<path class="st2" d="M96.1,330c3.9,0,5.9,1.9,5.9,5.8c0,4.1-2.1,6.2-6.3,6.2c-3.8,0-5.7-1.9-5.7-5.7c0-0.1,0-0.2,0-0.4
	C90,332,92,330,96.1,330z"/>
<path class="st2" d="M287.8,216c-3.9,0-5.8-2-5.8-5.9c0-4.1,2-6.1,6-6.1c4,0,6,2,6,6.1C294,214,291.9,216,287.8,216L287.8,216z"/>
<path class="st2" d="M311.8,216c-3.9,0-5.9-1.9-5.9-5.8c0-4.1,2.1-6.2,6.3-6.2c3.8,0,5.7,1.9,5.7,5.7c0,0.1,0,0.2,0,0.4
	C317.9,214,315.9,216,311.8,216L311.8,216z"/>
<path class="st2" d="M335.7,216c-3.8,0-5.7-1.9-5.7-5.6c0-4.3,2.1-6.4,6.4-6.4c3.7,0,5.6,1.8,5.6,5.4v0.4
	C341.9,213.9,339.9,216,335.7,216z"/>
<path class="st2" d="M282,251.9c0-3.9,1.9-5.9,5.8-5.9c4.1,0,6.2,2.1,6.2,6.3c0,3.8-1.9,5.7-5.7,5.7h-0.4
	C283.9,258,282,255.9,282,251.9z"/>
<path class="st2" d="M317.9,252.1c0,3.9-2,5.8-5.9,5.8c-4.1,0-6.1-2-6.1-6c0-4,2-6,6.1-6C316,246,317.9,248,317.9,252.1L317.9,252.1
	z"/>
<path class="st2" d="M336.1,246c3.9,0,5.8,2,5.8,5.9c0,4.1-2,6.1-6,6.1c-4,0-6-1.9-6-5.7C329.9,248.1,332,246,336.1,246z"/>
<path class="st2" d="M294,294.1c0,3.9-1.9,5.9-5.8,5.9c-4.1,0-6.2-2.1-6.2-6.3c0-3.8,1.9-5.7,5.6-5.7h0.4C292,288,294,290,294,294.1
	z"/>
<path class="st2" d="M341.9,294.2c0,3.9-2,5.8-5.9,5.8c-4.1,0-6.1-2-6.1-6c0-4,1.9-6,5.7-6C339.9,288,341.9,290,341.9,294.2
	L341.9,294.2z"/>
<path class="st2" d="M317.9,294.1c0,3.9-1.9,5.9-5.8,5.9c-4.1,0-6.2-2.1-6.2-6.3c0-3.8,1.9-5.7,5.6-5.7c0.1,0,0.2,0,0.4,0
	C315.9,288,317.9,290,317.9,294.1z"/>
<path class="st2" d="M288.1,330c3.9,0,5.8,2,5.8,5.9c0,4.1-2,6.1-6,6.1c-4,0-6-2-6-6.1C282,332,284,330,288.1,330L288.1,330z"/>
<path class="st2" d="M311.9,342c-4,0-5.9-1.9-5.9-5.8c0-4.1,2.1-6.2,6.3-6.2c3.8,0,5.7,1.9,5.7,5.6c0,0.1,0,0.2,0,0.4
	C317.9,340,315.9,342,311.9,342L311.9,342z"/>
<path class="st2" d="M335.8,342c-3.9,0-5.9-1.9-5.9-5.8c0-4.1,2.1-6.2,6.3-6.2c3.8,0,5.7,1.9,5.7,5.7v0.4
	C341.9,340,339.9,342,335.8,342L335.8,342z"/>
</svg>
