<?xml version="1.0" encoding="UTF-8"?>
<svg id="_Слой_1" data-name="Слой 1" xmlns="http://www.w3.org/2000/svg" viewBox="0 0 576.99 561.667">
  <defs>
    <style>
      .cls-1 {
        fill: #1e3e5b;
      }

      .cls-2 {
        fill: #fdfdfd;
      }

      .cls-3 {
        fill: #57b2e2;
      }
    </style>
  </defs>
  <path class="cls-1" d="M205.285,461.211c-2.49,9.681-4.927,19.15-7.359,28.619-.456,1.774-.854,3.563-1.347,5.326-1.474,5.273-2.274,5.927-7.593,5.929-17.828,.006-35.656-.011-53.483-.044-5.089-.009-5.088-.048-5.075,5.183,.019,7.997,.184,15.998-.019,23.989-.079,3.128,.896,4.133,3.961,3.955,3.986-.231,7.998-.18,11.992-.054,3.747,.118,5.449,1.784,5.66,5.525,.178,3.156,.182,6.334,.044,9.493-.101,2.325,.625,3.312,3.084,3.199,3.658-.168,7.331-.123,10.994-.044,3.965,.086,6.032,1.764,5.745,4.629-.338,3.37-2.782,3.618-5.484,3.615-41.821-.055-83.641-.086-125.462-.1-2.921,0-5.705-.496-5.642-4.041,.06-3.403,2.734-4.14,5.698-4.101,2.998,.04,5.998-.032,8.997-.054q4.921-.036,4.96-4.737c.017-2.499-.048-5,.017-7.497,.12-4.654,1.273-5.793,6.052-5.899,3.83-.085,7.668-.172,11.494-.032,2.897,.106,4.163-.72,4.08-3.932-.217-8.325-.251-16.664-.017-24.988,.097-3.45-1.24-4.089-4.323-4.073-21.16,.104-42.32,.049-63.481,.047-1.166,0-2.335,.068-3.498,.013-4.68-.222-6.209-2.397-4.739-6.893,5.325-16.286,10.798-32.525,16.018-48.845,7.806-24.406,16.182-48.631,23.329-73.247,1.412-4.862,2.177-5.434,7.437-5.434,24.659-.002,49.318,.028,73.978,.041,1.499,0,2.999-.023,4.497-.059,1.532-.037,2.014-.775,1.575-2.26-.848-2.867-1.622-5.755-2.435-8.632-.479-1.695-1.998-1.506-3.255-1.756-6.523-1.299-13.055-2.556-19.573-3.882-10.098-2.054-15.155-8.129-15.295-18.465-.072-5.33-.057-10.664,.093-15.991,.069-2.47-.56-3.534-3.307-3.485-8.994,.16-17.995,.155-26.989-.001-2.422-.042-3.325,1.081-4.464,2.944-5.369,8.786-17.13,10.487-23.995,3.563-4.224-4.26-5.698-9.434-3.795-15.154,1.871-5.626,5.864-9.298,11.819-10.248,6.312-1.007,11.905,.939,15.016,6.565,2.181,3.946,4.851,4.539,8.777,4.41,7.656-.251,15.328-.189,22.988-.01,2.976,.07,4.187-.669,4.013-3.883-.27-4.984-.202-9.996-.056-14.99,.272-9.276,5.002-14.765,14.056-16.579,5.55-1.112,11.106-2.197,16.651-3.338,7.299-1.501,7.665-1.952,8.297-10.125-7.34,0-14.652-.014-21.965,.003-13.829,.031-27.658,.069-41.487,.127-6.269,.026-6.722-.397-6.781-6.842-.075-8.163-.229-16.327-.149-24.489,.027-2.754-.57-4.383-3.3-5.825-6.572-3.471-9.184-11.249-6.651-18.022,2.527-6.759,9.492-10.928,16.223-9.712,7.318,1.321,12.536,7.692,12.5,15.283-.028,5.936-3.007,10.197-8.04,12.85-2.27,1.196-3.024,2.435-2.96,4.935,.176,6.826,.134,13.663-.007,20.491-.053,2.571,.723,3.427,3.396,3.416,19.827-.084,39.655-.052,59.482,.065,2.406,.014,3.606-.878,4.483-2.991,3-7.232,6.276-14.353,10.526-20.941,1.427-2.212,.605-3.711-.554-5.381-3.89-5.61-7.876-11.155-11.691-16.815-7.401-10.983-6.525-18.626,2.554-28.047,9.254-9.603,19.065-18.628,28.473-28.066,4.32-4.334,9.185-7.182,15.483-6.56,2.509,.248,2.609-1.091,2.711-2.93,.522-9.477,1.185-18.947,1.679-28.426,.815-15.634,1.54-31.273,2.3-46.91,.28-5.768,1.368-6.84,7.339-6.862,11.996-.044,23.993-.03,35.989-.039,7.819-.006,8.666,.687,9.072,8.338,1.245,23.451,2.41,46.906,3.625,70.359,.198,3.811,.496,7.617,.767,11.722,3.881,.074,5.734-1.179,6.264-5.17,.918-6.917,2.36-13.775,3.811-20.609,1.942-9.146,7.939-13.926,17.333-14.046,4.665-.06,9.345-.245,13.991,.051,3.562,.227,5.002-.524,4.854-4.535-.326-8.818-.231-17.662,.017-26.486,.098-3.5-.734-5.487-4.058-7.355-7.547-4.242-9.248-14.302-4.206-21.334,4.833-6.74,14.833-8.281,21.322-3.286,6.632,5.106,7.859,14.911,2.661,21.403-1.261,1.574-2.686,3.195-4.566,3.783-3.297,1.03-3.503,3.21-3.442,6.134,.196,9.327,.206,18.66,.094,27.989-.033,2.758,.713,3.827,3.626,3.711,5.323-.212,10.663-.14,15.992-.04,9.325,.175,15.336,5.167,17.143,14.29,1.164,5.878,2.1,11.802,3.159,17.701q1.375,7.652,10.083,9.059c-2.367-5.634-4.44-11.113-4.947-17.034-2.23-26.064,15.422-47.778,41.522-50.851,2.565-.302,4.148-.408,4.352-3.795,1.799-29.815,28.675-51.717,59.18-49.768,20.233,1.293,35.681,10.782,46.017,28.337,1.046,1.776,1.759,3.009,4.512,2.449,17.999-3.662,35.646,5.975,40.732,23.564,.77,2.663,2.699,2.516,4.582,2.865,22.549,4.188,37.833,22.432,38.025,45.403,.19,22.772-17.997,43.239-40.714,44.815-12.606,.875-25.31,.37-37.97,.413-3.065,.01-6.024-.585-5.627,4.329,.187,2.316-2.084,3.813-4.541,3.59-2.639-.24-4.155-1.81-4.131-4.668,.046-5.498,.005-10.997,.007-16.495,.005-11.663-.018-23.326,.033-34.989,.031-7.244,.854-8.02,8.038-8.083,1.154-.01,2.308-.001,4.545-.001-4.166-4.895-7.809-9.125-11.395-13.404-3.632-4.334-7.205-8.717-11.035-13.358-3.46,2.894-5.246,5.936-5.159,10.623,.419,22.486,1.536,44.965,1.091,67.458-.123,6.201-2.155,12.613,3.884,17.346,.446,7.171,5.225,8.071,10.995,7.68,5.6-.379,10.129,1.886,14.649,5.152,18.493,13.361,37.234,26.379,55.838,39.587,5.902,4.19,6.968,10.695,2.828,15.973-3.429,4.372-8.336,5.27-14.418,2.515-16.216-7.345-32.407-14.743-48.622-22.091-4.546-2.06-9.036-4.314-13.739-5.938-4.346-1.5-7.628-3.862-9.642-7.998-.339-.696-.944-1.263-1.382-1.831-1.481,.725-1.118,1.792-1.089,2.671,.469,14.484,1.029,28.965,1.394,43.451,.066,2.605,.697,3.857,3.471,4.262,12.5,1.822,18.7,6.872,18.148,23.156-.113,3.328,.105,6.668-.019,9.995-.092,2.465,.567,3.588,3.344,3.528,8.994-.192,17.997-.295,26.988-.081,3.207,.076,3.729-2.175,4.933-4.035,3.995-6.173,11.237-8.683,17.862-6.184,6.485,2.446,10.311,8.822,9.528,15.877-.68,6.127-4.801,10.913-10.704,12.428-6.376,1.637-12.944-.313-16.211-5.868-2.047-3.48-4.37-4.156-7.976-4.048-7.824,.234-15.666,.238-23.488-.028-3.399-.116-4.254,1.052-4.142,4.233,.18,5.156,.057,10.331-.136,15.491-.39,10.428-4.806,16.063-14.973,18.242-3.809,.816-3.58,2.844-3.49,5.663,1.745,54.78,3.43,109.562,5.119,164.344,.082,2.664,.303,5.35,.069,7.991-.285,3.22,1.134,3.833,4.04,3.905,10.758,.269,10.664,.372,10.81,10.949,.124,8.947-.831,7.011,7.018,7.195,4.663,.109,9.332,.092,13.995-.032,3.082-.082,5.318,.856,5.719,4.159,.335,2.759-1.52,4.229-5.436,4.226-35.656-.031-71.311-.116-106.967-.149-2.961-.003-5.593-.538-5.599-4.083-.006-3.608,2.749-4.075,5.643-4.052,2.666,.022,5.356-.233,7.992,.046,3.476,.368,4.306-1.15,3.99-4.271-.251-2.476-.15-4.994-.116-7.492,.063-4.549,1.807-6.26,6.24-6.605,2.919-.227,6.601,1.34,8.57-.946,1.865-2.165,.672-5.765,.774-8.73,.718-20.975,1.386-41.952,2.037-62.929,.028-.911,.498-1.929-.439-2.925-1.746,.319-2.545,1.93-3.69,3-6.206,5.8-12.144,11.906-18.572,17.446-6.673,5.751-13.365,5.806-20.515,.694-6.092-4.356-12.138-8.792-17.99-13.462-2.645-2.111-4.685-1.948-7.589-.489-2.997,1.506-3.93,3.277-3.893,6.558,.183,16.493,.102,32.989,.11,49.484,0,1.333-.01,2.666-.039,3.998-.057,2.58-1.414,4.195-3.951,4.169-2.527-.025-3.852-1.72-4.006-4.227-.071-1.162-.026-2.332-.022-3.498,.056-14.829,.128-29.658,.155-44.486,.003-1.806,.36-3.66-.502-5.689-7.07,2.255-14.131,4.547-21.221,6.745-2.15,.666-1.953,2.542-2.235,4.047-1.226,6.546-2.266,13.126-3.442,19.681-1.879,10.473-8.334,15.921-19.03,16.056-4.831,.061-9.674,.207-14.491-.067-2.967-.169-3.851,.868-3.565,3.638,.188,1.815,.197,3.671,.063,5.493-.307,4.167,.075,7.254,4.885,9.399,5.248,2.34,7.327,10.019,5.662,15.736-1.817,6.241-7.426,10.601-14.037,10.912-6.397,.301-12.433-3.844-14.617-10.036-2.057-5.832-.465-13.78,4.935-16.43,5.53-2.715,5.347-6.61,5.297-11.287-.081-7.487,.02-7.48-7.27-7.474-3.832,.003-7.664-.018-11.496-.042-9.152-.059-15.718-5.602-17.371-14.718-1.307-7.205-2.589-14.414-3.795-21.636-.257-1.539-.388-2.913-2.217-3.431-3.81-1.079-7.593-2.256-11.918-3.552,0,4.018-.004,7.635,0,11.251,.011,7.831,.079,15.662,.022,23.493-.032,4.461-.39,8.272,5.217,10.73,5.424,2.378,7.081,10.217,5.104,16.34-2.04,6.321-7.706,10.463-14.307,10.461-6.356-.002-12.062-4.068-14.098-10.046-2.139-6.281-.442-13.675,5.232-16.785,4.738-2.597,5.125-5.827,5.007-10.42-.295-11.489-.22-22.993-.008-34.485,.056-3.041-1.083-4.348-3.69-5.47-4.71-2.028-9.249-4.454-14.248-6.904Zm166.897-234.105c-1.398-.997-2.739-1.741-3.824-2.758-38.861-36.388-98.551-41.441-143.033-11.759-49.727,33.182-65.436,97.774-39.03,151.327,1.1,2.23,2.48,3.087,5.013,3.041,9.991-.182,19.985-.162,29.979-.166,6.972-.003,8.218,1.641,6.495,8.508-1.944,7.75-3.911,15.494-5.923,23.226-1.49,5.727-1.585,5.799,3.464,9.14,17.147,11.349,35.93,17.751,56.522,19.096,26.733,1.746,51.547-4.284,73.157-19.962,36.102-26.192,52.47-62.241,49.756-106.729-1.06-17.385-6.832-33.468-15.215-48.683-1.464-2.657-2.792-3.013-5.414-1.763-4.648,2.216-9.431,4.16-14.208,6.094-5.58,2.259-10.99,.436-13.772-4.499-2.846-5.049-1.488-10.872,3.323-14.464,3.965-2.961,8.3-5.441,12.71-9.651Zm-194.714,139.512c.129-.701,.231-.894,.178-1.024-.433-1.069-.88-2.132-1.348-3.187-6.406-14.432-10.228-29.547-10.994-45.29-1.139-23.41,3.52-45.624,14.586-66.443,23.522-44.256,70.482-70.679,124.015-64.961,27.783,2.968,52.104,14.476,72.063,34.358,2.674,2.664,4.356,2.305,7.094,.362,10.043-7.127,20.375-13.85,30.369-21.043,6.982-5.025,14.039-9.411,23.074-8.974,2.223,.107,3.29-1.061,3.618-3.233,.17-1.124,.546-2.372,1.241-3.232,2.444-3.025,.906-4.949-1.388-7.109-8.971-8.446-17.84-17.002-26.723-25.541-5.688-5.467-9.528-5.665-15.734-.853-6.182,4.794-12.495,9.422-18.602,14.307-3.228,2.582-6.074,3.123-9.941,.968-11.667-6.501-23.984-11.544-37.027-14.582-3.675-.856-5.235-2.996-5.76-6.481-1.187-7.886-3.344-15.592-4.25-23.544-.609-5.352-3.154-7.708-8.454-8.093-15.635-1.134-31.297-.461-46.944-.348-5.898,.043-8.547,2.867-9.633,8.798-1.376,7.518-2.863,15.024-3.919,22.588-.589,4.221-2.441,6.322-6.686,7.239-12.944,2.795-25.05,7.908-36.474,14.533-3.415,1.98-6.026,1.791-9.04-.589-6.398-5.052-12.939-9.924-19.464-14.813-6.124-4.589-10.146-4.319-15.747,1.101-9.934,9.612-19.838,19.256-29.714,28.927-4.913,4.811-5.37,8.948-1.487,14.618,4.325,6.316,8.628,12.665,13.304,18.719,3.475,4.499,4.104,8.499,.898,13.542-7.828,12.312-13.127,25.77-16.638,39.915-.772,3.108-2.325,4.689-5.653,5.246-8.19,1.37-16.327,3.079-24.447,4.827-4.248,.914-6.597,3.467-6.631,7.564-.138,16.156-.187,32.316-.031,48.471,.048,5.012,2.387,7.206,7.579,8.28,7.808,1.616,15.614,3.25,23.446,4.745,3.287,.627,5.328,2.049,6.008,5.617,.712,3.74,2.154,7.335,3.112,11.036,.686,2.652,2.026,3.764,4.926,3.638,5.486-.238,10.991-.062,16.488-.061,6.947,.002,13.894,0,20.732,0Zm236.27-56.853c-.239,4.101-.355,8.766-.829,13.395-.422,4.127-1.023,8.26-1.914,12.309-9.197,41.783-32.692,72.301-72.022,89.748-23.436,10.396-48.049,12.949-73.269,7.983-15.621-3.076-30.426-8.333-43.608-17.574-4.038-2.83-3.99-2.704-5.311,2.325-2.619,9.968-5.158,19.967-8.19,29.811-1.189,3.859-.179,5.694,3.15,7.429,10.806,5.63,21.862,10.627,33.744,13.475,4.85,1.162,7.259,3.54,7.8,8.744,.737,7.087,2.383,14.079,3.656,21.109,1.344,7.429,3.885,9.589,11.435,9.612,13.826,.043,27.651,.048,41.477,.064,8.193,.01,10.965-2.499,12.255-10.551,1.209-7.547,2.704-15.049,4.026-22.579,.507-2.889,1.868-4.817,4.901-5.546,13.512-3.251,26.295-8.404,38.302-15.369,3.287-1.907,5.747-1.485,8.562,.712,6.297,4.915,12.674,9.733,19.134,14.431,6.539,4.755,9.989,4.42,15.724-1.208,5.701-5.594,10.858-11.907,17.194-16.647,7.45-5.573,9.67-12.512,8.987-21.112-.013-.165-.02-.336,.006-.499,1.339-8.509-.327-16.251-6.433-22.537-5.602-5.767-4.506-10.82-.239-17.048,4.17-6.086,8.237-12.739,8.539-20.508,.426-10.976,.569-21.961,1.087-32.939,.659-13.966,.667-27.966,1.477-41.922,.512-8.816,.589-17.632,.947-26.445,.12-2.964,.923-5.877,.009-8.912-2.744-9.112-6.14-17.93-10.68-26.319-1.584-2.928-3.278-3.577-6.384-2.169-9.393,4.259-18.862,8.359-28.391,12.306-3.025,1.253-3.221,2.533-1.543,5.153,5.846,9.131,9.111,19.409,12.258,29.643,3.097,10.07,3.636,20.601,4.146,31.634Zm53.989-228.064c.394-.291,.82-.546,1.175-.877,4.897-4.556,5.931-4.48,10.301,.71,3.431,4.075,6.884,8.131,10.329,12.194,6.242,7.364,12.482,14.73,18.732,22.087,1.369,1.612,2.329,3.319,1.188,5.437-1.112,2.064-2.769,3.178-5.247,3.067-2.659-.118-5.337,.114-7.99-.063-2.573-.172-3.454,.707-3.415,3.356,.159,10.656,.231,21.317,.067,31.972-.049,3.151,.967,3.89,3.973,3.842,11.488-.184,22.997-.494,34.469-.033,23.514,.946,45.806-24.785,34.251-52.058-5.818-13.733-17.076-20.922-31.773-22.441-4.003-.414-5.829-2.029-6.761-5.837-3.892-15.905-18.592-24.167-34.135-19.387-6.045,1.859-7.094,1.4-9.605-4.196-8.44-18.808-27.335-29.019-49.999-27.017-18.255,1.612-35.438,16.578-40.065,34.863-.946,3.74-1.159,7.54-1.317,11.375-.199,4.843-1.572,6.167-6.289,6.58-1.327,.116-2.667,.108-3.986,.275-17.001,2.153-28.483,11.271-33.988,27.504-3.022,8.911-1.78,17.71,1.825,26.289,3.141,7.476,8.245,12.745,16.121,15.163,1.258,.386,2.475,1.022,3.59,1.732,2.884,1.835,5.247,1.651,7.994-.701,5.051-4.326,10.483-8.206,15.735-12.298,8.472-6.601,15.613-6.608,23.925,.086,1.682,1.354,3.246,2.861,4.802,4.362,4.673,4.508,9.298,9.066,13.985,13.559,.879,.843,1.775,2.566,3.217,1.36,1.151-.963-.098-2.17-.773-2.976-2.737-3.269-2.67-6.98-2.046-10.869,1.107-6.899,2.065-13.823,3.241-20.71,.347-2.034,.984-3.448-1.711-4.729-2.691-1.279-3.164-4.139-1.443-6.865,.796-1.26,1.614-2.594,2.719-3.553,2.861-2.483,3.715-5.633,4.156-9.261,.782-6.435,1.976-12.823,3.101-19.212,.767-4.353,3.534-7.037,7.619-8.45,5.187-1.795,9.919,.132,14.026,5.719Zm-1.687,289.745c.019,0,.038-.001,.057-.002-.746-22.975-1.509-45.95-2.234-68.927-.93-29.469-1.834-58.938-2.729-88.408-.063-2.076,.155-3.736-3.069-3.628-2.851,.095-3.219,1.142-3.294,3.504-.458,14.484-1.057,28.963-1.565,43.446-1.126,32.128-2.248,64.257-3.33,96.386-1.894,56.269-3.761,112.54-5.618,168.811-.093,2.821-1.004,6.338,.31,8.29,1.467,2.178,5.241,.525,7.984,.864,.658,.081,1.365-.027,1.978,.171,4.583,1.482,9.067,.659,13.676-.075,2.658-.423,2.782-1.601,2.688-3.599-.266-5.656-.515-11.313-.685-16.972-1.401-46.62-2.783-93.24-4.171-139.86ZM208.832,81.293v-.023c-4.99,0-9.989,.185-14.966-.067-3.159-.16-4.348,.782-4.509,4.053-.9,18.264-1.94,36.522-3.093,54.773-.171,2.709,.822,4.358,2.826,5.836,4.682,3.453,9.406,6.863,13.918,10.529,2.03,1.649,3.514,1.513,5.704,.313,4.214-2.31,8.656-4.205,13.014-6.248,2.838-1.331,6.832-1.412,8.405-3.85,1.581-2.452-.041-6.105-.19-9.233-.833-17.437-1.859-34.865-2.608-52.304-.131-3.044-.982-4.01-4.034-3.846-4.81,.259-9.643,.069-14.467,.069Zm-38.987,411.73c5.736,0,10.392-.115,15.038,.046,2.551,.088,3.898-.626,4.555-3.302,2.332-9.495,4.885-18.937,7.398-28.387,.575-2.161-.03-3.002-2.357-2.99-12.127,.063-24.255,.015-36.382,.015-1.321,0-2.681-.144-3.072,1.701-2.098,9.904-5.329,19.505-7.891,29.286-.648,2.474,.558,3.175,2.889,3.212,6.969,.113,13.927,.736,19.821,.418Zm19.735-82.771c5.319,0,10.649-.198,15.955,.071,3.373,.171,5.051-.727,5.874-4.262,2.144-9.204,4.634-18.332,7.183-27.436,.767-2.739,.15-3.548-2.651-3.527-11.636,.09-23.273,.083-34.909-.021-2.255-.02-3.299,.849-3.857,2.914-2.597,9.612-5.224,19.216-7.932,28.797-.782,2.767,.222,3.55,2.883,3.498,5.816-.113,11.636-.035,17.454-.036Zm-148.167,48.179v-.018c-5.649,0-11.299,.068-16.946-.036-2.038-.037-3.43,.297-4.169,2.511-3.255,9.75-6.655,19.451-9.964,29.182-.559,1.643-.578,2.896,1.901,2.729,12.264-.823,24.539,1.01,36.821-.124,2.452-.226,3.851-.6,4.53-3.283,2.357-9.313,4.93-18.573,7.55-27.816,.655-2.309,.533-3.295-2.281-3.203-5.808,.191-11.628,.057-17.442,.057Zm145.917-40.178c0,.019,0,.038,0,.056-5.487,0-10.997,.308-16.453-.103-3.93-.296-5.113,1.525-5.906,4.816-1.904,7.901-3.873,15.797-6.187,23.585-.957,3.22,.037,3.719,2.885,3.701,11.472-.074,22.946-.078,34.417,.053,2.682,.031,3.802-.997,4.432-3.521,2.128-8.532,4.376-17.038,6.767-25.499,.74-2.617-.042-3.176-2.499-3.126-5.817,.118-11.638,.038-17.457,.038Zm-131.631-8.023v.012c5.157,0,10.323-.174,15.469,.068,2.912,.137,4.127-1.002,4.819-3.678,2.453-9.483,4.997-18.945,7.679-28.365,.787-2.765-.372-3.111-2.636-3.1-9.981,.047-19.963,.065-29.944-.03-2.383-.023-3.568,.829-4.278,3.138-2.978,9.685-6.094,19.327-9.232,28.961-.708,2.172-.235,3.061,2.154,3.022,5.322-.087,10.647-.027,15.97-.027Zm-11.6,40.047c5.32,0,10.647-.164,15.958,.063,3.036,.13,4.448-.901,5.207-3.875,2.05-8.034,4.437-15.981,6.609-23.984,1.007-3.711,.592-4.159-3.518-4.162-10.308-.007-20.616,.096-30.922-.013-2.568-.027-3.808,.721-4.58,3.301-2.524,8.426-5.21,16.81-8.124,25.109-1.179,3.358,.239,3.64,2.912,3.596,5.485-.09,10.972-.027,16.459-.035Zm103.148,8.128c-11.372,0-21.845,.056-32.317-.045-2.208-.021-2.786,1.108-3.265,2.884-2.549,9.46-5.088,18.924-7.835,28.327-.645,2.207-.315,3.082,1.967,3.187,9.808,.448,19.609,.576,29.418-.091,2.097-.143,2.769-1.144,3.264-2.952,2.803-10.223,5.706-20.419,8.768-31.309Zm-4.189-48.206v.043c4.325,0,8.659-.171,12.972,.058,3.02,.16,4.421-.833,5.165-3.87,2.291-9.349,4.801-18.65,7.451-27.905,.845-2.953-.243-3.495-2.791-3.466-9.148,.104-18.298,.201-27.445,.13-2.394-.018-3.671,.752-4.287,3.08-2.549,9.632-5.17,19.245-7.811,28.852-.713,2.594,.429,3.168,2.774,3.11,4.655-.114,9.315-.034,13.972-.034Zm-39.119,90.914c-4.82,0-9.648,.174-14.457-.059-3.351-.162-4.725,.761-4.606,4.386,.261,7.97,.231,15.955,.071,23.93-.064,3.189,.878,4.287,4.207,4.292,9.961,.014,19.939-.582,29.884,.413,2.797,.28,3.284-1.088,3.245-3.528-.141-8.641-.223-17.286-.068-25.925,.054-3.01-1.158-3.637-3.818-3.552-4.815,.155-9.638,.044-14.458,.043Zm-26.313-8.018v-.043c4.483,0,8.968-.091,13.447,.035,2.576,.073,3.806-.818,4.462-3.457,2.28-9.161,4.829-18.255,7.317-27.363,.711-2.604,.389-3.967-2.88-3.905-8.796,.168-17.598,.087-26.397-.007-2.076-.022-3.279,.369-3.887,2.683-2.546,9.691-5.232,19.347-8.05,28.962-.794,2.71,.183,3.172,2.54,3.122,4.481-.095,8.965-.027,13.448-.027Zm22.996-82.857v.039c3.985,0,7.987-.219,11.951,.069,3.226,.234,4.702-.921,5.512-4.032,2.379-9.138,4.96-18.225,7.607-27.29,.789-2.7,.549-4.01-2.707-3.956-8.965,.148-17.934,.163-26.9,.076-2.287-.022-3.266,.955-3.799,2.986-2.501,9.535-4.926,19.093-7.669,28.559-.969,3.343,.396,3.645,3.053,3.578,4.315-.109,8.634-.029,12.952-.029ZM437.25,198.811c-3.157,1.544-7.686-.451-11.656,2.372-12.722,9.048-25.687,17.754-38.546,26.608-7.251,4.992-14.478,10.019-21.717,15.027-1.411,.976-2.821,1.951-1.863,4.017,1.021,2.2,2.64,1.45,4.215,.828,.772-.305,1.529-.65,2.291-.981,16.592-7.202,33.085-14.645,49.818-21.505,8.508-3.488,16.229-7.356,19.776-16.569,.461-1.197,1.404-2.289,2.344-3.203,1.898-1.844,.215-3.305-.306-4.92-.586-1.817-1.944-2.042-4.355-1.676Zm43.963,.938c-1.492-.088-2.359,.002-3.144-.212-2.471-.674-3.747,.425-5.188,2.416-1.64,2.266-.035,3.291,.904,4.71,1.009,1.524,2.238,2.93,3.059,4.547,2.137,4.208,5.473,6.73,9.801,8.599,10.972,4.737,21.769,9.879,32.646,14.837,9.368,4.27,18.74,8.531,28.135,12.741,1.424,.638,3.153,1.897,4.364-.203,1.225-2.123-.306-3.36-1.878-4.466-1.087-.764-2.138-1.581-3.226-2.345-16.869-11.835-33.849-23.514-50.544-35.589-4.824-3.489-9.629-5.72-14.93-5.035ZM132.027,450.246v.015c4.661,0,9.324-.078,13.982,.033,2.332,.055,3.614-.615,4.219-3.1,2.082-8.552,4.378-17.052,6.638-25.56,.62-2.335,.015-3.375-2.578-3.349-9.488,.095-18.977,.11-28.464,.033-2.07-.017-2.999,.859-3.491,2.712-2.257,8.512-4.494,17.03-6.886,25.505-.858,3.038,.216,3.844,3.099,3.75,4.49-.146,8.988-.039,13.482-.039Zm-42.8,.058v-.045c4.486,0,8.978-.129,13.457,.049,2.65,.105,3.837-.91,4.473-3.452,2.051-8.205,4.174-16.398,6.548-24.514,.964-3.296,.009-4.093-3.157-4.038-8.472,.146-16.952,.229-25.419-.002-2.932-.08-4.149,.951-4.833,3.599-2.198,8.511-4.491,16.999-6.85,25.467-.635,2.281,.069,3.004,2.324,2.961,4.485-.086,8.972-.026,13.458-.026ZM461.411,129.047c-.45,0-.901,0-1.351,.001,0-13.653-.001-27.306,.002-40.959,0-1.829,.308-3.969-2.284-4.201-2.618-.235-3.285,1.717-3.601,3.853-3.025,20.404-5.966,40.82-9.17,61.196-.618,3.934,.219,6.958,2.434,10.17,2.966,4.301,7.274,7.932,7.694,13.704,.053,.725,.764,.892,1.45,1.087,3.476,.987,4.763,.139,4.791-3.884,.093-13.655,.036-27.312,.036-40.968ZM103.502,552.025v.096c11.994,0,23.989-.103,35.981,.07,3.116,.045,4.721-.513,4.212-4.01-.39-2.68,1.191-5.914-4.064-5.865-24.152,.222-48.308,.126-72.462-.069-3.55-.029-4.304,1.325-3.931,4.342,.31,2.503-1.228,5.678,3.784,5.543,12.152-.328,24.318-.107,36.479-.107Zm380.57-242.633h-.016c0-7.652,.049-15.305-.016-22.957-.05-5.923-2.57-8.763-8.28-10.026-3.116-.689-4.091,.2-3.979,3.45,.599,17.448,.991,34.904,1.497,52.355,.077,2.652,.436,5.296,.548,7.948,.079,1.862,.983,2.161,2.61,1.859,4.43-.822,7.528-4.313,7.603-9.173,.121-7.817,.032-15.637,.032-23.456Zm-27.272,240.949v.024c7.996,0,16.003-.232,23.985,.099,3.897,.162,4.84-1.179,4.686-4.789-.231-5.401-.028-5.453-4.46-5.454-15.66-.001-31.319,.009-46.979,.059-6.098,.019-5.925,.073-5.998,5.971-.04,3.247,.993,4.26,4.279,4.166,8.156-.234,16.324-.077,24.487-.077ZM208.676,72.772v.015c4.979,0,9.962-.1,14.937,.041,2.573,.073,3.795-.671,3.237-3.408-.198-.97-.359-1.994-.266-2.967,.328-3.441-1.094-4.553-4.561-4.477-9.29,.204-18.59,.129-27.882-.023-2.91-.048-4.435,.707-4.092,3.879,.124,1.142,.017,2.329-.131,3.476-.334,2.583,.685,3.578,3.323,3.505,5.142-.141,10.29-.041,15.435-.041Zm249.218,109.047c-5.889-.047-10.135,4.048-10.187,9.825-.053,5.888,4.448,10.649,10.134,10.72,5.253,.066,10.146-4.734,10.299-10.102,.164-5.781-4.363-10.396-10.246-10.443ZM45.95,308.224c.123-3.955-2.733-6.957-6.737-7.083-4.13-.13-7.133,2.562-7.278,6.525-.153,4.193,2.906,7.508,6.942,7.521,3.773,.012,6.954-3.119,7.073-6.962ZM289.259,46.481c-3.832-.032-6.956,3.012-7.066,6.884-.112,3.972,3.211,7.208,7.31,7.119,3.952-.086,6.739-3.044,6.676-7.086-.062-3.98-2.967-6.883-6.921-6.916Zm-55.141,483.662c.079-3.849-2.929-6.886-6.832-6.898-3.929-.012-7.027,2.928-7.096,6.736-.068,3.757,2.996,7.124,6.658,7.314,3.888,.202,7.185-3.042,7.27-7.152Zm313.071-222.215c.02-3.897-3.017-7.155-6.707-7.196-4.006-.044-7.388,3.224-7.387,7.137,0,3.591,3.381,6.834,7.116,6.828,4.069-.007,6.958-2.809,6.978-6.77ZM59.383,198.561c-3.739-.019-6.891,3.187-6.883,7,.008,3.664,3.313,6.86,7.075,6.842,3.909-.018,6.821-3.024,6.766-6.985-.055-3.934-3.001-6.837-6.958-6.857Zm229.784,341.43c-3.819-.062-6.759,2.6-6.951,6.293-.208,3.988,2.577,7.074,6.562,7.27,3.893,.192,7.036-2.711,7.195-6.644,.162-4.011-2.632-6.851-6.805-6.919ZM445.788,214.441c-2.799,3.191-4.16,6.416-6.079,9.269-.613,.912-.811,1.794-.313,2.789,1.801,3.603,3.605,7.204,5.408,10.806l.984-.306v-22.558Zm-5.89,187.587c.127-2.446,.242-4.644,.386-7.406q-3.439,4.298-.386,7.406Z"/>
  <path class="cls-1" d="M505.935,0c26.223,.318,47.42,17.975,52.301,43.638,.563,2.96,.528,5.655-2.86,6.32-3.258,.64-4.196-1.999-4.627-4.634-1.302-7.964-4.978-14.821-10.109-20.871-11.436-13.483-26.134-18.253-43.394-15.619-5.1,.778-7.374,.209-7.961-2.508-.661-3.059,1.154-4.642,6.713-5.441,3.287-.472,6.623-.602,9.937-.886Z"/>
  <path class="cls-1" d="M528.172,458.49c-.25,2.529-.128,4.881,3.46,6.616,5.817,2.814,8.574,10.442,6.974,16.664-1.612,6.271-7.121,10.744-13.741,11.157-6.277,.392-12.354-3.724-14.639-9.915-2.336-6.328-.623-13.892,5.343-17.081,4.822-2.578,5.306-5.914,4.873-10.298-.266-2.691,.172-4.283,3.599-4.295,3.244-.011,4.651,.821,4.15,4.143-.123,.812-.018,1.658-.018,3.009Zm2.865,19.682c.087-4.07-2.594-6.864-6.695-6.975-4.153-.112-7.196,2.584-7.251,6.425-.052,3.628,3.174,7.038,6.828,7.217,3.816,.186,7.036-2.83,7.119-6.667Z"/>
  <path class="cls-1" d="M88.694,129.096c-.06-7.118,4.874-13.071,12.03-14.514,6.685-1.348,13.659,2.467,16.173,8.846,2.734,6.941,.554,14.579-5.912,18.179-3.044,1.695-4.594,3.403-3.996,6.809,.532,3.027-1.01,3.519-3.665,3.562-2.725,.044-4.094-.609-3.742-3.546,.371-3.09-.638-4.992-3.778-6.513-4.798-2.324-7.063-7.227-7.11-12.822Zm21.379,.089c-.01-3.863-2.711-6.677-6.487-6.76-3.972-.087-7.087,2.846-7.179,6.76-.091,3.85,3.025,7.075,6.87,7.11,3.789,.034,6.807-3.123,6.797-7.11Z"/>
  <path class="cls-1" d="M504.476,17.81c17.114,.423,30.245,9.954,34.957,24.646,.303,.945,.637,1.897,.785,2.873,.385,2.548-.036,5.066-3.088,5.133-2.268,.05-4.496-.388-4.964-3.98-.832-6.391-4.98-11.083-9.973-14.916-6.321-4.852-13.419-6.665-21.333-5.212-2.69,.494-5.155-.022-5.693-3.251-.55-3.305,1.703-4.353,4.416-4.746,1.967-.285,3.953-.444,4.892-.547Z"/>
  <path class="cls-1" d="M505.388,35.626c7.044-.057,14.356,4.68,16.547,10.311,.952,2.447,1.528,5.095-1.415,6.471-2.818,1.318-4.943,.426-6.178-2.787-1.456-3.79-4.545-5.601-8.612-5.485-3.166,.09-5.308-1.188-5.342-4.448-.04-3.753,3.178-3.578,5.001-4.061Z"/>
  <path class="cls-1" d="M498.551,380.469c-5.74,.05-5.765-.091-5.421-5.172,.139-2.057,.993-2.547,2.771-2.469,1.327,.058,2.68,.113,3.986-.077,3.434-.499,4.798,.756,4.438,4.315-.337,3.334-.138,3.354-5.774,3.404Z"/>
  <path class="cls-1" d="M520.454,417.442c.048-5.934,.058-5.741,4.562-5.961,5.323-.26,2.725,3.656,3.189,5.813,.601,2.793-.079,4.465-3.727,4.291-3.381-.161-5.049-.86-4.024-4.143Z"/>
  <path class="cls-1" d="M528.308,436.268c-.015,5.382-.142,5.364-5.253,5.11-2.285-.114-2.855-1.011-2.607-3.037,.119-.975-.01-1.979,.028-2.967,.048-1.26-.795-3.035,.625-3.625,1.956-.814,4.405-1.001,6.281-.168,1.985,.881,.445,3.284,.926,4.688Z"/>
  <path class="cls-1" d="M107.162,206.784c.063,2.007,.674,4.596-3.77,4.313-3.141-.2-4.181-1.068-3.729-4.023,.099-.648,.119-1.339,.01-1.983-.557-3.305,.857-4.075,4.072-4.208,3.748-.156,3.477,1.917,3.418,4.285-.008,.331-.001,.663-.001,1.616Z"/>
  <path class="cls-1" d="M107.195,225.26c.083,2.955,.522,5.304-3.793,5.273-4.104-.029-3.99-1.924-4.023-4.867-.035-3.138-.11-5.017,4.236-5.119,4.743-.111,3.358,2.696,3.58,4.713Z"/>
  <path class="cls-1" d="M107.1,167.15c-.303,1.527,1.511,4.584-3.073,4.481-3.625-.082-5.237-.932-4.683-4.768,.365-2.526-1.181-5.566,3.774-5.549,4.525,.015,4.14,2.45,3.982,5.836Z"/>
  <path class="cls-1" d="M107.134,186.707c-.023,4.09-2.253,5.67-6.143,4.442-.955-.301-1.314-.875-1.349-1.754-.033-.821,.018-1.645,.013-2.468q-.028-5.446,4.176-5.409,3.331,.029,3.302,5.189Z"/>
  <path class="cls-1" d="M390.002,558.185c-2.721,.261-4.685,.392-4.734-3.555-.054-4.381,2.269-4.067,5.223-4.252,3.129-.196,4.293,.562,4.352,3.979,.07,4.046-1.986,4.255-4.842,3.827Z"/>
  <path class="cls-1" d="M520.675,396.404c-.614-3.013-.032-4.612,3.831-4.7,5.424-.124,3.251,3.582,3.69,6.022,.526,2.924-.557,3.814-3.673,3.967-4.509,.222-4.234-2.265-3.848-5.289Z"/>
  <path class="cls-1" d="M351.309,558.12c-2.906,.39-4.531,.185-4.661-3.627-.166-4.866,2.748-3.697,5.41-4.011,3.308-.39,4.133,.82,4.258,4.086,.172,4.484-2.504,3.759-5.007,3.552Z"/>
  <path class="cls-1" d="M369.868,558.249c-3.222,.814-3.72-.869-3.907-3.962-.269-4.433,2.506-3.545,5.034-3.768,2.925-.259,4.236,.278,4.401,3.811,.219,4.709-2.551,3.99-5.528,3.92Z"/>
  <path class="cls-1" d="M528.195,376.192c.05,3.178,.603,5.617-3.578,5.353-3.255-.205-4.634-.751-4.577-4.379,.052-3.307,.789-4.552,4.331-4.677,3.684-.13,4.37,1.355,3.824,3.702Z"/>
  <path class="cls-1" d="M332.561,558.15c-3.229,.701-4.625-.148-4.749-3.906-.129-3.912,1.804-3.733,4.477-3.769,2.777-.038,4.665,.023,4.582,3.824-.074,3.373-1.078,4.58-4.31,3.851Z"/>
  <path class="cls-2" d="M372.181,227.106c-4.41,4.21-8.745,6.69-12.71,9.651-4.81,3.592-6.168,9.415-3.323,14.464,2.781,4.935,8.191,6.758,13.772,4.499,4.777-1.934,9.56-3.878,14.208-6.094,2.621-1.25,3.95-.894,5.414,1.763,8.384,15.214,14.155,31.298,15.215,48.683,2.713,44.488-13.655,80.537-49.756,106.729-21.61,15.678-46.423,21.708-73.157,19.962-20.592-1.345-39.375-7.747-56.522-19.096-5.049-3.342-4.955-3.414-3.464-9.14,2.012-7.732,3.979-15.476,5.923-23.226,1.723-6.868,.476-8.511-6.495-8.508-9.993,.004-19.988-.017-29.979,.166-2.534,.046-3.914-.81-5.013-3.041-26.406-53.552-10.697-118.145,39.03-151.327,44.482-29.682,104.172-24.629,143.033,11.759,1.085,1.016,2.426,1.76,3.824,2.758Zm-94.748,136.717c-.151,0-.302,0-.454,0,0,10.829,.02,21.658-.018,32.487-.007,2.02,.398,3.641,2.616,4.208,1.963,.502,3.653,.052,4.882-1.589,.694-.927,1.232-1.972,1.824-2.973,20.172-34.093,40.34-68.188,60.519-102.277,1.191-2.012,2.687-3.924,1.22-6.433-1.36-2.327-3.643-1.982-5.775-1.981-12.162,.008-24.326-.078-36.484,.143-3.547,.064-4.385-.993-4.321-4.511,.38-20.987,.471-41.98,.685-62.971,.025-2.451-.044-4.803-3.051-5.474-2.748-.613-4.218,.898-5.535,3.148-14.379,24.558-28.783,49.102-43.289,73.585-6.277,10.594-12.177,21.41-18.874,31.76-2.617,4.044-1.093,6.645,3.742,6.945,1.327,.082,2.665,.004,3.997,.004,11.495,.004,22.992,.101,34.485-.047,3.08-.039,3.946,.959,3.897,3.992-.172,10.659-.067,21.323-.067,31.984Z"/>
  <path class="cls-3" d="M177.467,366.617c-6.838,0-13.785,.001-20.732,0-5.497-.001-11.001-.178-16.488,.061-2.9,.126-4.239-.986-4.926-3.638-.958-3.701-2.399-7.296-3.112-11.036-.68-3.568-2.721-4.99-6.008-5.617-7.832-1.495-15.637-3.129-23.446-4.745-5.192-1.074-7.531-3.269-7.579-8.28-.156-16.156-.107-32.315,.031-48.471,.035-4.097,2.384-6.65,6.631-7.564,8.121-1.748,16.257-3.457,24.447-4.827,3.328-.557,4.881-2.138,5.653-5.246,3.511-14.146,8.81-27.603,16.638-39.915,3.206-5.043,2.577-9.043-.898-13.542-4.676-6.054-8.979-12.402-13.304-18.719-3.882-5.67-3.426-9.807,1.487-14.618,9.877-9.671,19.78-19.314,29.714-28.927,5.601-5.419,9.623-5.69,15.747-1.101,6.525,4.889,13.066,9.761,19.464,14.813,3.014,2.38,5.625,2.569,9.04,.589,11.424-6.625,23.531-11.738,36.474-14.533,4.244-.916,6.096-3.018,6.686-7.239,1.056-7.564,2.543-15.07,3.919-22.588,1.086-5.931,3.735-8.755,9.633-8.798,15.647-.113,31.309-.786,46.944,.348,5.3,.384,7.845,2.741,8.454,8.093,.905,7.952,3.063,15.658,4.25,23.544,.525,3.486,2.084,5.625,5.76,6.481,13.043,3.038,25.36,8.081,37.027,14.582,3.867,2.155,6.713,1.614,9.941-.968,6.108-4.886,12.42-9.514,18.602-14.307,6.206-4.812,10.046-4.615,15.734,.853,8.883,8.539,17.751,17.095,26.723,25.541,2.294,2.16,3.831,4.084,1.388,7.109-.695,.86-1.071,2.108-1.241,3.232-.329,2.172-1.395,3.341-3.618,3.233-9.035-.436-16.092,3.95-23.074,8.974-9.994,7.193-20.326,13.916-30.369,21.043-2.738,1.943-4.42,2.302-7.094-.362-19.959-19.882-44.28-31.39-72.063-34.358-53.532-5.718-100.492,20.704-124.015,64.961-11.065,20.82-15.725,43.033-14.586,66.443,.766,15.743,4.588,30.858,10.994,45.29,.468,1.054,.916,2.118,1.348,3.187,.053,.13-.049,.323-.178,1.024Z"/>
  <path class="cls-3" d="M413.737,309.764c-.51-11.034-1.049-21.565-4.146-31.634-3.147-10.234-6.411-20.512-12.258-29.643-1.678-2.62-1.482-3.9,1.543-5.153,9.529-3.947,18.997-8.048,28.391-12.306,3.106-1.408,4.8-.759,6.384,2.169,4.539,8.389,7.936,17.206,10.68,26.319,.914,3.035,.111,5.948-.009,8.912-.358,8.813-.435,17.629-.947,26.445-.81,13.955-.818,27.955-1.477,41.922-.518,10.978-.661,21.963-1.087,32.939-.302,7.769-4.37,14.422-8.539,20.508-4.267,6.228-5.363,11.281,.239,17.048,6.106,6.286,7.772,14.029,6.433,22.537-.026,.163-.019,.334-.006,.499,.684,8.6-1.537,15.539-8.987,21.112-6.336,4.74-11.493,11.053-17.194,16.647-5.735,5.628-9.186,5.963-15.724,1.208-6.46-4.698-12.837-9.516-19.134-14.431-2.815-2.197-5.274-2.619-8.562-.712-12.006,6.964-24.789,12.118-38.302,15.369-3.032,.73-4.393,2.658-4.901,5.546-1.322,7.53-2.817,15.031-4.026,22.579-1.29,8.052-4.062,10.56-12.255,10.551-13.826-.016-27.651-.021-41.477-.064-7.55-.024-10.09-2.183-11.435-9.612-1.272-7.03-2.918-14.023-3.656-21.109-.541-5.203-2.95-7.581-7.8-8.744-11.882-2.848-22.938-7.845-33.744-13.475-3.33-1.735-4.339-3.569-3.15-7.429,3.032-9.844,5.571-19.843,8.19-29.811,1.322-5.029,1.274-5.155,5.311-2.325,13.183,9.241,27.987,14.498,43.608,17.574,25.22,4.966,49.834,2.413,73.269-7.983,39.329-17.446,62.824-47.965,72.022-89.748,.891-4.049,1.492-8.183,1.914-12.309,.473-4.629,.589-9.294,.829-13.395Z"/>
  <path class="cls-2" d="M467.727,81.7c-4.107-5.587-8.839-7.513-14.026-5.719-4.085,1.413-6.852,4.098-7.619,8.45-1.126,6.389-2.319,12.777-3.101,19.212-.441,3.628-1.295,6.778-4.156,9.261-1.105,.959-1.923,2.293-2.719,3.553-1.721,2.726-1.248,5.586,1.443,6.865,2.696,1.281,2.059,2.696,1.711,4.729-1.177,6.887-2.134,13.811-3.241,20.71-.624,3.888-.691,7.6,2.046,10.869,.675,.807,1.924,2.013,.773,2.976-1.442,1.206-2.338-.517-3.217-1.36-4.687-4.494-9.312-9.051-13.985-13.559-1.556-1.501-3.121-3.008-4.802-4.362-8.312-6.694-15.453-6.687-23.925-.086-5.252,4.092-10.684,7.972-15.735,12.298-2.747,2.352-5.11,2.536-7.994,.701-1.116-.71-2.333-1.346-3.59-1.732-7.876-2.418-12.981-7.687-16.121-15.163-3.604-8.579-4.847-17.378-1.825-26.289,5.505-16.233,16.988-25.351,33.988-27.504,1.319-.167,2.659-.159,3.986-.275,4.717-.412,6.09-1.736,6.289-6.58,.158-3.834,.37-7.635,1.317-11.375,4.627-18.285,21.81-33.251,40.065-34.863,22.664-2.002,41.559,8.208,49.999,27.017,2.511,5.596,3.561,6.055,9.605,4.196,15.543-4.78,30.243,3.482,34.135,19.387,.932,3.809,2.758,5.424,6.761,5.837,14.697,1.519,25.954,8.708,31.773,22.441,11.555,27.272-10.737,53.004-34.251,52.058-11.472-.462-22.98-.151-34.469,.033-3.006,.048-4.022-.69-3.973-3.842,.164-10.655,.092-21.316-.067-31.972-.04-2.65,.842-3.528,3.415-3.356,2.653,.177,5.33-.055,7.99,.063,2.478,.11,4.135-1.004,5.247-3.067,1.141-2.118,.181-3.825-1.188-5.437-6.25-7.358-12.489-14.724-18.732-22.087-3.445-4.063-6.898-8.119-10.329-12.194-4.37-5.189-5.404-5.265-10.301-.71-.355,.331-.781,.585-1.175,.877Z"/>
  <path class="cls-2" d="M466.04,371.444c1.388,46.62,2.769,93.241,4.171,139.86,.17,5.659,.419,11.316,.685,16.972,.094,1.999-.03,3.176-2.688,3.599-4.609,.734-9.093,1.557-13.676,.075-.613-.198-1.32-.09-1.978-.171-2.744-.339-6.518,1.314-7.984-.864-1.314-1.951-.403-5.469-.31-8.29,1.857-56.271,3.724-112.541,5.618-168.811,1.081-32.13,2.204-64.258,3.33-96.386,.507-14.482,1.106-28.962,1.565-43.446,.075-2.362,.443-3.409,3.294-3.504,3.224-.108,3.006,1.553,3.069,3.628,.894,29.47,1.799,58.939,2.729,88.408,.725,22.976,1.488,45.951,2.234,68.927-.019,0-.038,.001-.057,.002Z"/>
  <path class="cls-2" d="M208.832,81.293c4.823,0,9.657,.19,14.467-.069,3.052-.164,3.903,.802,4.034,3.846,.749,17.44,1.776,34.868,2.608,52.304,.149,3.128,1.771,6.781,.19,9.233-1.572,2.438-5.566,2.519-8.405,3.85-4.358,2.043-8.8,3.938-13.014,6.248-2.19,1.2-3.674,1.337-5.704-.313-4.513-3.666-9.236-7.075-13.918-10.529-2.004-1.478-2.997-3.127-2.826-5.836,1.153-18.25,2.193-36.508,3.093-54.773,.161-3.271,1.35-4.213,4.509-4.053,4.977,.253,9.976,.067,14.966,.067v.023Z"/>
  <path class="cls-3" d="M169.845,493.023c-5.894,.317-12.852-.306-19.821-.418-2.332-.038-3.537-.739-2.889-3.212,2.561-9.781,5.793-19.382,7.891-29.286,.391-1.845,1.751-1.701,3.072-1.701,12.127,0,24.255,.048,36.382-.015,2.326-.012,2.932,.829,2.357,2.99-2.513,9.45-5.066,18.892-7.398,28.387-.657,2.675-2.004,3.39-4.555,3.302-4.646-.161-9.302-.046-15.038-.046Z"/>
  <path class="cls-3" d="M189.58,410.252c-5.818,0-11.638-.078-17.454,.035-2.661,.052-3.665-.731-2.883-3.498,2.707-9.581,5.334-19.186,7.932-28.797,.558-2.065,1.603-2.934,3.857-2.914,11.636,.104,23.273,.111,34.909,.021,2.801-.022,3.418,.787,2.651,3.527-2.549,9.103-5.04,18.231-7.183,27.436-.824,3.536-2.502,4.434-5.874,4.262-5.306-.269-10.635-.071-15.955-.071Z"/>
  <path class="cls-3" d="M41.413,458.431c5.815,0,11.634,.133,17.442-.057,2.814-.093,2.936,.894,2.281,3.203-2.62,9.243-5.193,18.503-7.55,27.816-.679,2.683-2.078,3.056-4.53,3.283-12.282,1.133-24.557-.699-36.821,.124-2.479,.166-2.459-1.087-1.901-2.729,3.309-9.731,6.71-19.432,9.964-29.182,.739-2.215,2.131-2.549,4.169-2.511,5.647,.104,11.297,.036,16.946,.036v.018Z"/>
  <path class="cls-3" d="M187.33,418.253c5.819,0,11.64,.08,17.457-.038,2.456-.05,3.238,.509,2.499,3.126-2.392,8.462-4.639,16.967-6.767,25.499-.63,2.524-1.75,3.552-4.432,3.521-11.471-.131-22.945-.127-34.417-.053-2.848,.018-3.842-.481-2.885-3.701,2.314-7.788,4.283-15.683,6.187-23.585,.793-3.292,1.977-5.112,5.906-4.816,5.456,.411,10.966,.103,16.453,.103,0-.019,0-.038,0-.056Z"/>
  <path class="cls-3" d="M55.699,410.23c-5.324,0-10.648-.06-15.97,.027-2.389,.039-2.862-.85-2.154-3.022,3.139-9.634,6.254-19.277,9.232-28.961,.71-2.31,1.895-3.161,4.278-3.138,9.981,.095,19.963,.077,29.944,.03,2.263-.011,3.423,.335,2.636,3.1-2.682,9.421-5.226,18.882-7.679,28.365-.692,2.676-1.907,3.815-4.819,3.678-5.146-.241-10.311-.068-15.469-.068v-.012Z"/>
  <path class="cls-3" d="M44.099,450.281c-5.486,.004-10.974-.059-16.459,.031-2.672,.044-4.091-.238-2.912-3.596,2.913-8.299,5.6-16.683,8.124-25.109,.773-2.58,2.012-3.329,4.58-3.301,10.306,.11,20.615,.006,30.922,.013,4.11,.003,4.525,.451,3.518,4.162-2.172,8.004-4.559,15.95-6.609,23.984-.759,2.974-2.172,4.005-5.207,3.875-5.31-.227-10.638-.063-15.958-.059Z"/>
  <path class="cls-3" d="M147.247,458.405c-3.062,10.89-5.965,21.086-8.768,31.309-.496,1.808-1.167,2.809-3.264,2.952-9.809,.668-19.61,.54-29.418,.091-2.282-.104-2.612-.979-1.967-3.187,2.747-9.403,5.286-18.867,7.835-28.327,.478-1.775,1.056-2.905,3.265-2.884,10.472,.102,20.945,.045,32.317,.045Z"/>
  <path class="cls-3" d="M143.058,410.199c-4.658,0-9.317-.08-13.972,.034-2.345,.057-3.487-.517-2.774-3.11,2.641-9.607,5.261-19.22,7.811-28.852,.616-2.328,1.893-3.099,4.287-3.08,9.148,.071,18.297-.026,27.445-.13,2.547-.029,3.636,.513,2.791,3.466-2.649,9.255-5.159,18.555-7.451,27.905-.744,3.037-2.145,4.03-5.165,3.87-4.313-.229-8.647-.058-12.972-.058v-.043Z"/>
  <path class="cls-3" d="M103.939,501.113c4.82,0,9.643,.111,14.458-.044,2.659-.085,3.872,.542,3.818,3.552-.155,8.639-.073,17.285,.068,25.925,.04,2.44-.447,3.808-3.245,3.528-9.945-.996-19.923-.399-29.884-.413-3.33-.005-4.272-1.102-4.207-4.292,.16-7.974,.19-15.96-.071-23.93-.119-3.625,1.256-4.549,4.606-4.386,4.809,.233,9.637,.059,14.457,.06Z"/>
  <path class="cls-3" d="M77.626,493.095c-4.483,0-8.967-.067-13.448,.027-2.357,.05-3.334-.412-2.54-3.122,2.818-9.615,5.504-19.272,8.05-28.962,.608-2.314,1.812-2.705,3.887-2.683,8.799,.094,17.601,.175,26.397,.007,3.269-.063,3.592,1.301,2.88,3.905-2.489,9.108-5.038,18.202-7.317,27.363-.657,2.64-1.887,3.53-4.462,3.457-4.479-.126-8.965-.035-13.447-.035v.043Z"/>
  <path class="cls-3" d="M100.622,410.238c-4.318,0-8.637-.08-12.952,.029-2.657,.067-4.022-.235-3.053-3.578,2.743-9.466,5.168-19.024,7.669-28.559,.533-2.031,1.512-3.008,3.799-2.986,8.966,.087,17.935,.072,26.9-.076,3.256-.054,3.496,1.256,2.707,3.956-2.647,9.065-5.228,18.152-7.607,27.29-.81,3.11-2.286,4.265-5.512,4.032-3.965-.287-7.966-.069-11.951-.069v-.039Z"/>
  <path class="cls-2" d="M437.25,198.811c2.411-.367,3.77-.141,4.355,1.676,.521,1.615,2.204,3.076,.306,4.92-.94,.913-1.883,2.006-2.344,3.203-3.547,9.213-11.268,13.081-19.776,16.569-16.732,6.86-33.225,14.303-49.818,21.505-.762,.331-1.518,.676-2.291,.981-1.575,.622-3.194,1.371-4.215-.828-.958-2.066,.452-3.04,1.863-4.017,7.239-5.009,14.466-10.035,21.717-15.027,12.859-8.855,25.824-17.56,38.546-26.608,3.97-2.824,8.499-.828,11.656-2.372Z"/>
  <path class="cls-2" d="M481.213,199.749c5.3-.685,10.105,1.545,14.93,5.035,16.695,12.075,33.675,23.754,50.544,35.589,1.088,.763,2.138,1.58,3.226,2.345,1.572,1.105,3.103,2.343,1.878,4.466-1.211,2.1-2.94,.841-4.364,.203-9.395-4.21-18.767-8.471-28.135-12.741-10.877-4.958-21.674-10.1-32.646-14.837-4.328-1.869-7.664-4.39-9.801-8.599-.821-1.616-2.05-3.022-3.059-4.547-.939-1.419-2.544-2.444-.904-4.71,1.44-1.99,2.717-3.09,5.188-2.416,.785,.214,1.652,.124,3.144,.212Z"/>
  <path class="cls-3" d="M132.027,450.246c-4.494,0-8.992-.108-13.482,.039-2.882,.094-3.956-.712-3.099-3.75,2.392-8.474,4.629-16.993,6.886-25.505,.492-1.854,1.421-2.729,3.491-2.712,9.488,.077,18.977,.063,28.464-.033,2.593-.026,3.198,1.014,2.578,3.349-2.26,8.508-4.556,17.008-6.638,25.56-.605,2.486-1.886,3.156-4.219,3.1-4.658-.111-9.321-.033-13.982-.033v-.015Z"/>
  <path class="cls-3" d="M89.227,450.304c-4.486,0-8.974-.061-13.458,.026-2.255,.043-2.959-.679-2.324-2.961,2.359-8.468,4.652-16.956,6.85-25.467,.684-2.648,1.901-3.679,4.833-3.599,8.467,.231,16.947,.148,25.419,.002,3.166-.054,4.122,.742,3.157,4.038-2.374,8.116-4.497,16.308-6.548,24.514-.635,2.542-1.822,3.557-4.473,3.452-4.479-.177-8.971-.049-13.457-.049v.045Z"/>
  <path class="cls-2" d="M461.411,129.047c0,13.656,.058,27.312-.036,40.968-.027,4.022-1.315,4.871-4.791,3.884-.687-.195-1.398-.362-1.45-1.087-.42-5.772-4.728-9.403-7.694-13.704-2.215-3.212-3.052-6.236-2.434-10.17,3.203-20.376,6.145-40.793,9.17-61.196,.317-2.137,.984-4.088,3.601-3.853,2.592,.232,2.284,2.372,2.284,4.201-.003,13.653-.002,27.306-.002,40.959,.45,0,.901,0,1.351-.001Z"/>
  <path class="cls-2" d="M103.502,552.025c-12.161,0-24.327-.222-36.479,.107-5.012,.135-3.475-3.04-3.784-5.543-.373-3.018,.38-4.371,3.931-4.342,24.153,.195,48.309,.291,72.462,.069,5.254-.048,3.673,3.185,4.064,5.865,.509,3.497-1.096,4.055-4.212,4.01-11.992-.173-23.987-.07-35.981-.07v-.096Z"/>
  <path class="cls-3" d="M484.072,309.392c0,7.819,.088,15.639-.032,23.456-.075,4.86-3.173,8.351-7.603,9.173-1.627,.302-2.531,.004-2.61-1.859-.112-2.653-.472-5.296-.548-7.948-.506-17.452-.898-34.907-1.497-52.355-.112-3.249,.863-4.139,3.979-3.45,5.71,1.263,8.23,4.103,8.28,10.026,.065,7.652,.016,15.305,.016,22.957h.016Z"/>
  <path class="cls-3" d="M456.8,550.341c-8.163,0-16.331-.157-24.487,.077-3.285,.094-4.319-.919-4.279-4.166,.073-5.898-.1-5.952,5.998-5.971,15.659-.049,31.319-.06,46.979-.059,4.432,0,4.23,.053,4.46,5.454,.154,3.61-.789,4.951-4.686,4.789-7.983-.331-15.989-.099-23.985-.099v-.024Z"/>
  <path class="cls-3" d="M208.676,72.772c-5.145,0-10.293-.099-15.435,.041-2.638,.072-3.657-.922-3.323-3.505,.148-1.147,.255-2.334,.131-3.476-.343-3.171,1.182-3.926,4.092-3.879,9.293,.152,18.592,.226,27.882,.023,3.467-.076,4.888,1.036,4.561,4.477-.093,.973,.069,1.997,.266,2.967,.558,2.738-.665,3.481-3.237,3.408-4.975-.141-9.958-.041-14.937-.041v-.015Z"/>
  <path class="cls-3" d="M457.895,181.819c5.883,.047,10.41,4.662,10.246,10.443-.152,5.368-5.045,10.168-10.299,10.102-5.686-.071-10.187-4.832-10.134-10.72,.052-5.777,4.298-9.872,10.187-9.825Z"/>
  <path class="cls-2" d="M45.95,308.224c-.119,3.843-3.3,6.974-7.073,6.962-4.036-.013-7.096-3.327-6.942-7.521,.145-3.963,3.148-6.655,7.278-6.525,4.005,.126,6.86,3.128,6.737,7.083Z"/>
  <path class="cls-2" d="M289.259,46.481c3.953,.033,6.858,2.937,6.921,6.916,.063,4.042-2.724,6.999-6.676,7.086-4.099,.089-7.422-3.146-7.31-7.119,.109-3.872,3.233-6.916,7.066-6.884Z"/>
  <path class="cls-2" d="M234.118,530.143c-.085,4.11-3.382,7.354-7.27,7.152-3.662-.19-6.726-3.557-6.658-7.314,.069-3.808,3.166-6.749,7.096-6.736,3.903,.012,6.911,3.049,6.832,6.898Z"/>
  <path class="cls-2" d="M547.19,307.928c-.021,3.96-2.909,6.763-6.978,6.77-3.735,.006-7.115-3.237-7.116-6.828,0-3.914,3.382-7.182,7.387-7.137,3.69,.041,6.727,3.299,6.707,7.196Z"/>
  <path class="cls-2" d="M59.383,198.561c3.957,.02,6.904,2.924,6.958,6.857,.055,3.96-2.857,6.967-6.766,6.985-3.761,.018-7.066-3.179-7.075-6.842-.009-3.813,3.144-7.019,6.883-7Z"/>
  <path class="cls-2" d="M289.166,539.991c4.173,.068,6.967,2.909,6.805,6.919-.159,3.933-3.302,6.836-7.195,6.644-3.984-.196-6.769-3.282-6.562-7.27,.192-3.694,3.133-6.356,6.951-6.293Z"/>
  <path class="cls-2" d="M445.788,214.441v22.558l-.984,.306c-1.803-3.602-3.607-7.203-5.408-10.806-.497-.995-.3-1.877,.313-2.789,1.919-2.853,3.28-6.078,6.079-9.269Z"/>
  <path class="cls-2" d="M439.898,402.028q-3.053-3.108,.386-7.406c-.144,2.762-.258,4.96-.386,7.406Z"/>
  <path class="cls-2" d="M531.037,478.172c-.082,3.837-3.303,6.853-7.119,6.667-3.654-.179-6.88-3.589-6.828-7.217,.055-3.842,3.098-6.538,7.251-6.425,4.101,.111,6.783,2.905,6.695,6.975Z"/>
  <path class="cls-2" d="M110.073,129.184c.01,3.987-3.008,7.144-6.797,7.11-3.845-.034-6.961-3.259-6.87-7.11,.092-3.914,3.207-6.846,7.179-6.76,3.777,.083,6.478,2.897,6.487,6.76Z"/>
  <path class="cls-1" d="M277.433,363.823c0-10.662-.105-21.325,.067-31.984,.049-3.033-.817-4.032-3.897-3.992-11.493,.148-22.99,.051-34.485,.047-1.333,0-2.67,.078-3.997-.004-4.834-.3-6.358-2.901-3.742-6.945,6.697-10.349,12.597-21.166,18.874-31.76,14.506-24.483,28.91-49.027,43.289-73.585,1.317-2.25,2.787-3.761,5.535-3.148,3.006,.671,3.076,3.024,3.051,5.474-.214,20.991-.305,41.983-.685,62.971-.064,3.517,.774,4.575,4.321,4.511,12.158-.221,24.323-.136,36.484-.143,2.132-.001,4.415-.346,5.775,1.981,1.466,2.509-.029,4.421-1.22,6.433-20.179,34.089-40.347,68.184-60.519,102.277-.592,1.001-1.13,2.046-1.824,2.973-1.229,1.641-2.919,2.092-4.882,1.589-2.218-.567-2.623-2.188-2.616-4.208,.038-10.829,.018-21.658,.018-32.487,.151,0,.302,0,.454,0Zm58.9-69.98c-13.194,0-25.171,.046-37.148-.021-5.279-.03-6.38-1.226-6.431-6.553-.032-3.328,.072-6.658,.074-9.987,.01-14.094,.004-28.189,.004-42.392-16.836,27.66-33.259,55.646-49.737,84.451,12.659,0,24.306-.062,35.952,.026,5.848,.044,7.201,1.362,7.178,7.022-.042,9.985-.305,19.969-.398,29.954-.068,7.285-.013,14.571-.013,22.749,16.987-28.665,33.481-56.498,50.519-85.248Z"/>
  <path class="cls-2" d="M336.333,293.842c-17.037,28.75-33.532,56.583-50.519,85.248,0-8.178-.055-15.464,.013-22.749,.094-9.985,.356-19.969,.398-29.954,.024-5.66-1.329-6.977-7.178-7.022-11.646-.088-23.294-.026-35.952-.026,16.478-28.805,32.901-56.791,49.737-84.451,0,14.203,.006,28.297-.004,42.392-.002,3.329-.106,6.659-.074,9.987,.051,5.327,1.152,6.523,6.431,6.553,11.976,.068,23.953,.021,37.148,.021Z"/>
</svg>