<?xml version="1.0" encoding="UTF-8"?>
<svg id="_Слой_1" data-name="Слой 1" xmlns="http://www.w3.org/2000/svg" viewBox="0 0 590 597.465">
  <defs>
    <style>
      .cls-1 {
        fill: #60a6fa;
      }

      .cls-2 {
        fill: #fdfdfd;
      }

      .cls-3 {
        fill: #0b4fa2;
      }
    </style>
  </defs>
  <path class="cls-3" d="M301.258,137.648c-1.194,2.031-.69,4.268-.695,6.415-.057,23.289-.06,46.577-.091,69.866-.008,5.717-.033,5.754,5.788,6.358,23.613,2.451,43.867,12.255,61.534,27.867,1.418,1.253,2.576,4.545,4.951,2.835,2.47-1.778,5.511-3.682,5.373-7.658-.151-4.361-.039-8.732-.041-13.098-.005-10.007,.159-20.018-.095-30.019-.106-4.196,1.307-7.189,4.293-10.031,9.488-9.03,18.724-18.323,28.172-27.396,2.516-2.416,3.639-4.753,3.288-8.5-1.369-14.619,12.784-27.92,29.569-22.515,11.684,3.763,17.535,17.113,13.125,28.899-4.328,11.564-17.696,17.342-29.183,11.965-4.374-2.047-6.724-1.496-9.945,1.898-7.383,7.779-15.227,15.126-23.036,22.488-2.037,1.921-2.848,3.857-2.809,6.641,.182,13.098-.037,26.204,.308,39.296,.139,5.29-1.158,9.26-5.228,12.913-6.228,5.59-5.959,5.855-1.449,12.8,9.664,14.881,15.785,31.07,17.555,48.767,.31,3.094,.988,4.394,4.449,4.383,44.94-.151,89.88-.184,134.82-.112,3.23,.005,4.632-1.271,6.173-3.933,6.383-11.028,18.901-14.62,30.128-8.993,9.813,4.918,14.418,17.003,10.253,27.516-3.4,8.583-10.042,13.297-19.102,14.061-9.376,.791-16.767-3.151-21.259-11.415-1.638-3.014-3.251-3.939-6.582-3.93-44.394,.121-88.789,.146-133.183-.032-4.304-.017-5.37,1.292-5.771,5.379-1.737,17.692-7.634,34-17.87,48.567-2.212,3.148-1.582,4.769,.912,7.114,8.879,8.349,17.475,16.999,26.391,25.307,2.421,2.256,2.117,3.315-.158,5.342-7.299,6.503-7.237,6.619-14.221-.26-6.74-6.639-13.635-13.14-20.048-20.083-2.919-3.161-4.438-2.587-7.207,.066-16.604,15.907-36.309,25.812-59.004,29.697-.538,.092-1.076,.188-1.606,.315-2.812,.675-6.627-.791-8.341,1.355-1.972,2.469-.724,6.312-.729,9.548-.052,34.023,.013,68.047-.12,102.07-.013,3.383,.98,5.007,4.107,6.474,8.012,3.759,12.636,12.85,11.665,21.659-1.002,9.082-7.288,16.398-16.405,19.09-8.314,2.455-17.606-.604-23.109-7.215-9.63-11.568-4.049-27.871,6.285-33.16,3.226-1.651,4.3-3.434,4.282-7.042-.176-35.66-.187-71.322-.095-106.983,.009-3.659-.459-5.178-4.801-5.634-24.506-2.571-45.65-12.74-63.613-29.558-4.314-4.039-4.155-3.954-8.582,.314-5.355,5.162-10.94,10.085-16.679,15.344-1.337-1.406-3.282-3.821-5.605-5.79-2.329-1.973-2.492-3.385-.229-5.582,5.22-5.067,10.073-10.515,15.369-15.498,2.424-2.28,2.241-3.843,.529-6.413-10.265-15.414-16.414-32.361-17.964-50.848-.256-3.05-1.557-3.457-4.102-3.455-44.394,.039-88.789,.068-133.183-.099-3.353-.013-4.206,1.714-5.455,4.017-4.681,8.632-13.852,13.03-23.348,11.402-9.248-1.586-16.354-8.696-18.072-18.084-1.923-10.502,4.225-21.016,14.43-24.681,10.378-3.727,21.794,.137,26.71,9.772,1.862,3.649,4.046,4.289,7.608,4.281,43.303-.096,86.605-.121,129.908-.01,3.742,.01,5.248-.621,5.682-4.846,1.793-17.458,7.55-33.643,17.43-48.203,1.823-2.687,1.618-4.011-.653-6.251-16.447-16.223-32.746-32.597-49.023-48.992-1.547-1.559-3.112-2.191-5.265-2.185-10.734,.028-21.472,.055-32.202-.197-2.819-.066-3.684,1.389-4.742,3.433-4.394,8.485-13.048,13.219-21.929,12.164-9.586-1.139-17.147-7.717-19.302-16.794-2.135-8.993,1.706-18.673,9.462-23.847,10.867-7.25,25.612-3.636,31.764,8.156,1.535,2.942,3.14,3.765,6.22,3.724,11.46-.151,22.925,.032,34.386-.082,3.321-.033,5.83,.942,8.212,3.344,16.784,16.92,33.739,33.669,50.496,50.615,2.47,2.498,3.753,2.591,6.308,.006,16.187-16.382,35.648-26.694,58.411-30.587,2.503-.428,5.053-.812,7.581-.81,3.307,.002,4.23-1.317,4.205-4.61-.147-19.467-.034-38.936-.057-58.404-.008-6.538-.159-13.077-.245-19.615,1.053-6.727,.471-11.961-6.719-16.094-8.214-4.721-10.261-17.584-5.884-26.328,4.698-9.386,15.802-14.529,25.575-11.767,9.087,2.569,14.606,8.627,16.179,17.845,1.616,9.468-2.734,16.856-10.239,21.83-3.959,2.624-5.393,5.237-4.848,9.562,.203,1.61,.166,3.251,.238,4.877Zm-7.374,286.084c51.832,1.003,95.539-42.155,95.888-94.705,.34-51.292-40.526-96.022-95.822-95.921-52.87,.097-94.619,41.639-95.273,94.81-.672,54.618,44.8,96.373,95.207,95.816Zm282.531-95.267c-.033-5.112-3.912-8.938-8.984-8.861-4.805,.073-8.621,3.894-8.634,8.646-.014,5.067,4.012,9.059,8.974,8.897,4.884-.159,8.676-3.967,8.645-8.681Zm-282.083,255.466c4.625-.144,8.73-4.264,8.672-8.704-.064-4.881-4.272-8.985-9.075-8.849-4.642,.131-8.871,4.676-8.701,9.352,.164,4.516,4.417,8.347,9.105,8.201ZM100.52,204.553c.055-5.041-3.967-9.055-8.966-8.949-4.566,.097-8.493,4.237-8.507,8.969-.015,4.945,3.668,8.533,8.706,8.48,4.986-.052,8.715-3.667,8.768-8.5Zm335.177-60.48c-4.624,.123-8.615,4.306-8.479,8.885,.139,4.666,4.294,8.491,9.03,8.313,4.821-.181,8.661-4.212,8.452-8.87-.213-4.73-4.239-8.455-9.003-8.328ZM23.293,319.776c-4.741,.088-8.429,4.016-8.332,8.875,.097,4.885,3.953,8.653,8.704,8.508,4.759-.146,8.837-4.133,8.815-8.62-.024-4.877-4.195-8.856-9.187-8.763ZM294.25,113.308c4.615-.052,8.868-4.231,8.781-8.627-.092-4.672-4.092-8.612-8.756-8.624-4.845-.013-8.782,4.211-8.605,9.231,.159,4.512,3.968,8.073,8.58,8.02Z"/>
  <path class="cls-1" d="M301.258,137.648c-.072-1.627-.035-3.267-.238-4.877-.545-4.325,.889-6.938,4.848-9.562,7.505-4.973,11.855-12.362,10.239-21.83-1.573-9.218-7.092-15.276-16.179-17.845-9.773-2.763-20.877,2.381-25.575,11.767-4.377,8.744-2.33,21.607,5.884,26.328,7.19,4.133,7.772,9.366,6.719,16.094-5.319,1.043-10.733,.401-16.082,.917-.595-.373-1.18-1.053-1.787-1.073-9.067-.302-18.152-.945-27.201-.619-7.26,.262-14.434,.574-21.703-.188-19.317-2.027-35.004-20.798-32.208-41.975,2.963-22.441,24.303-35.216,43.438-30.668,5.901,1.402,8.783-.873,9.804-7.009,2.014-12.11,7.9-22.001,16.919-30.241,11.005-10.055,24.004-13.775,38.628-12.876,22.062,1.357,37.526,12.333,46.343,32.384,5.354,12.176,5.011,12.327,18.302,12.449,16.393,.151,30.153,9.09,35.945,23.677,6.321,15.919,3.342,30.265-8.051,42.874-7.82,8.654-18.063,11.849-29.349,12.034-14.174,.232-28.352,.175-42.528,.243-5.389,.441-10.778,.339-16.168-.002Z"/>
  <path class="cls-3" d="M120.125,586.379c-37.84,.002-75.68,.017-113.519-.01-7.3-.005-6.336,.747-6.465-6.366-.02-1.091,.105-2.202-.057-3.271-.456-3.001,.992-3.603,3.698-3.674,3.372-.088,7.959,1.677,9.803-.938,1.649-2.339,.588-6.643,.593-10.079,.032-21.649,.218-43.3-.092-64.944-.084-5.845,2.07-8.804,7.253-11.167,14.7-6.701,29.127-14,43.748-20.881,2.897-1.363,3.906-3.036,3.851-6.234-.191-11.094-.072-22.193-.028-33.29,.026-6.562,1.81-8.344,8.457-8.387,10.733-.07,21.468-.173,32.199-.037,3.126,.039,3.966-1.016,3.946-4.047-.108-16.008,.071-32.019-.066-48.026-.028-3.223,.628-4.425,4.145-4.414,9.495,.03,9.52-.151,9.575,9.487,.081,14.19,.25,28.381,.093,42.568-.04,3.621,1.031,4.584,4.563,4.514,10.365-.205,20.738-.075,31.107-.012,6.571,.04,8.456,1.894,8.496,8.388,.068,10.915,.22,21.834-.021,32.744-.08,3.605,.928,5.477,4.29,7.041,14.871,6.92,29.51,14.339,44.413,21.187,4.481,2.059,6.114,4.668,6.07,9.56-.216,23.83-.097,47.663-.099,71.495,0,6.707-.058,5.483,6.166,5.505,8.68,.031,8.467-.009,8.549,8.634,.037,3.888-1.301,4.742-4.964,4.73-38.567-.123-77.135-.076-115.702-.074Zm37.992-84.178c0-22.367-.088-44.734,.085-67.099,.029-3.817-1.024-4.944-4.867-4.91-22.001,.195-44.005,.124-66.008,.167-5.227,.01-5.25,.051-5.254,5.432-.03,36.914-.053,73.828-.068,110.742-.003,7.637,.08,15.275,.026,22.912-.017,2.341,.42,3.762,3.256,3.725,8.363-.111,16.73-.076,25.093,.023,2.411,.029,3.19-.986,3.143-3.256-.09-4.362-.03-8.728-.03-13.092,0-9.473-.003-9.365,9.435-9.032,2.786,.098,3.903,.916,3.818,3.781-.156,5.269-.044,10.546-.047,15.819q-.003,5.746,5.493,5.742c6.728-.006,13.456-.017,20.185-.02q5.745-.002,5.747-6.015c0-21.639,0-43.279-.005-64.918Zm13.385-23.955c0,31.066,.027,61.438-.042,91.81-.007,2.989,1.642,3.091,3.843,3.081,11.098-.051,22.198-.12,33.295,.003,2.999,.033,4.14-.829,4.126-3.987-.1-22.56-.073-45.122,.012-67.682,.009-2.31-.699-3.678-2.796-4.679-12.59-6.013-25.137-12.115-38.439-18.546Zm-103.428,.434c-12.543,6.027-25.101,12.082-37.683,18.088-1.996,.952-2.28,2.539-2.278,4.487,.019,22.332,.068,44.664-.084,66.994-.025,3.743,1.055,5.052,4.912,4.964,10.179-.232,20.366-.049,30.55-.069,5.253-.01,5.267-.047,5.268-5.43,.007-28.188,.015-56.376-.012-84.564-.001-1.386,.441-2.867-.673-4.47Z"/>
  <path class="cls-3" d="M418.312,500.51c0,22.157-.027,43.07,.013,63.984,.017,8.644,.082,8.644,8.663,8.661,1.274,.002,2.554-.086,3.819,.016,2.101,.171,2.996-.68,2.865-2.809-.112-1.813-.038-3.637-.038-5.456,.003-28.562,0-57.125,.031-85.687,.001-1.216-.347-2.509,.689-4.137,1.767,1.111,3.577,2.174,5.311,3.351,9.325,6.333,18.696,12.604,27.896,19.115,2.149,1.521,3.514,1.819,5.582-.001,2.664-2.344,5.665-4.305,9.42-7.1,0,3.388,.002,5.671,0,7.954-.028,23.105-.066,46.21-.081,69.314-.003,5.37,.031,5.37,5.181,5.386q10.045,.032,10.041-9.781c.002-30.746,.012-61.492,.004-92.237,0-2.547-.099-4.824,2.553-6.61,14.635-9.854,28.543-20.715,42.711-31.217,.691-.512,1.342-1.27,2.91-.913,.697,1.792,.351,3.938,.353,5.997,.04,42.935,.033,85.87,.087,128.806,.008,6.669-.745,5.873,5.72,5.916,1.091,.007,2.183-.002,3.275-.005,9.071-.023,8.892-.022,8.969,8.805,.031,3.54-.939,4.575-4.548,4.57-67.495-.094-134.99-.084-202.485,.043-3.66,.007-4.569-1.042-4.523-4.569,.116-8.933-.056-8.935,8.853-8.91,8.459,.024,8.437,.024,8.396-8.222-.044-8.914-.018-17.829-.075-26.743-.015-2.26,.148-4.342,2.241-5.779,15.093-10.362,30.174-20.742,46.168-31.742Zm114.465-42.275c-7.366,4.57-13.316,8.965-19.277,13.352-2.396,1.763-2.559,4.086-2.551,6.732,.055,19.613,.018,39.227,.026,58.841,.004,10.352,.177,20.705-.005,31.053-.067,3.838,1.273,5.233,5.058,4.968,3.615-.253,7.261-.062,10.893-.085,5.843-.037,5.88-.044,5.881-5.969,.004-29.965-.014-59.93-.024-89.895-.002-5.972,0-11.943,0-18.997Zm-84.58,42.197c-.445,.519-.639,.639-.64,.76-.068,22.89-.096,45.781-.213,68.671-.014,2.741,1.252,3.375,3.671,3.307,4.359-.123,8.733-.243,13.081-.008,3.311,.178,4.427-.9,4.395-4.292-.162-17.082-.104-34.167-.115-51.25,0-1.653,.076-3.317-1.515-4.407-6.238-4.275-12.479-8.545-18.665-12.78Zm-43.28,25.828c-7.462,4.109-13.643,8.759-20.047,13.054-1.794,1.203-1.679,3.026-1.674,4.862,.019,6.884-.062,13.768,.004,20.651,.093,9.851-1.073,8.209,8.405,8.215,4.266,.003,9.704,1.931,12.506-1.024,2.532-2.67,.733-7.958,.771-12.086,.102-10.979,.035-21.959,.035-33.673Z"/>
  <path class="cls-3" d="M492.026,290.873c-23.457,0-46.913,.005-70.37-.003-6.302-.002-5.668,.66-5.705-5.347q-.05-8.059,7.955-8.082,5.846-.016,5.862-5.838c.011-12.365-.004-24.73,.017-37.094,.012-7.293,1.376-8.729,8.499-8.764,8.182-.04,16.369-.125,24.546,.099,3.42,.094,4.447-1.095,4.234-4.403-.268-4.165-.105-8.361-.076-12.542,.049-6.852,1.777-8.632,8.781-8.716,8-.096,16.007-.217,23.999,.045,3.679,.12,4.567-1.134,4.481-4.639-.228-9.268-.108-18.545-.038-27.818,.043-5.638,1.881-7.572,7.491-7.632,11.273-.12,22.547-.116,33.821-.093,6.77,.013,9.068,2.335,9.084,9.154,.078,34.185,.127,68.37,.183,102.554q.009,5.774,5.897,5.757c7.894-.023,7.921-.023,7.788,7.686-.107,6.213,.628,5.697-6.079,5.705-23.457,.027-46.913,.011-70.37,.011v-.039Zm25.395-65.609c-.02,0-.041,0-.061,0,0,15.465-.007,30.93,.004,46.396,.004,5.791,.024,5.801,6.03,5.802,4.185,.001,8.369-.008,12.554-.048,5.402-.051,5.436-.066,5.446-5.294,.027-13.1,.023-26.2,.026-39.3,.005-18.194-.066-36.389,.069-54.583,.025-3.405-.719-4.96-4.503-4.721-4.892,.309-9.835,.285-14.728-.033-3.811-.248-4.977,.962-4.924,4.84,.212,15.644,.088,31.293,.088,46.94Zm-13.219,20.887h-.045c0-9.272-.165-18.548,.081-27.813,.099-3.704-1.16-4.691-4.69-4.492-5.074,.285-10.183,.213-15.264-.002-3.133-.133-4.021,1.045-4.007,4.072,.089,18.543,.081,37.086-.062,55.628-.025,3.217,1.2,4.022,4.159,3.923,5.266-.177,10.548-.185,15.812,.024,3.117,.124,4.112-1.03,4.065-4.072-.139-9.088-.05-18.179-.05-27.269Zm-37.09,11.93h-.028c0-5.257-.065-10.515,.03-15.771,.041-2.277-.728-3.289-3.121-3.251-5.981,.095-11.965,.092-17.946-.004-2.473-.04-3.043,1.191-3.032,3.35,.051,10.514,.079,21.029-.002,31.542-.019,2.52,.823,3.593,3.434,3.545,5.618-.105,11.244-.157,16.856,.058,3.29,.126,3.947-1.368,3.853-4.243-.166-5.07-.046-10.15-.046-15.226Z"/>
  <path class="cls-3" d="M317.426,137.649c14.176-.068,28.355-.011,42.528-.243,11.286-.185,21.53-3.38,29.349-12.034,11.393-12.609,14.373-26.955,8.051-42.874-5.792-14.587-19.552-23.526-35.945-23.677-13.291-.122-12.948-.273-18.302-12.449-8.817-20.051-24.281-31.027-46.343-32.384-14.624-.9-27.623,2.821-38.628,12.876-9.019,8.24-14.905,18.131-16.919,30.241-1.021,6.136-3.903,8.412-9.804,7.009-19.135-4.547-40.475,8.227-43.438,30.668-2.796,21.178,12.891,39.949,32.208,41.975,7.269,.763,14.443,.45,21.703,.188,9.049-.327,18.134,.316,27.201,.619,.607,.02,1.192,.7,1.787,1.073-.384,3.778,1.532,8.72-.771,11.064-2.551,2.597-7.578,.859-11.513,.898-11.64,.116-23.307,.493-34.919-.108-19.833-1.025-35.201-9.94-44.091-28.109-8.787-17.958-7.784-35.724,3.873-52.112,9.707-13.645,23.561-20.187,40.28-20.148,3.688,.009,5.25-.902,6.444-4.534,12.187-37.074,51.967-55.065,88.534-40.591,17.55,6.947,29.546,19.213,36.955,36.213,1.255,2.879,2.761,3.582,5.633,3.675,11.13,.361,21.116,3.858,30.519,10.093,16.139,10.701,25.903,34.837,20.443,56.141-6.662,25.992-31.284,40.081-52.35,39.603-12.181-.277-24.374-.023-36.561-.044-6.658-.011-5.602,.431-5.696-5.953-.035-2.36-.151-4.719-.23-7.079Z"/>
  <path class="cls-3" d="M534.705,392.001c-3.851-.416-7.186,.86-10.629,.972-4.187,.137-6.996-1.929-7.51-5.496-.588-4.076,1.879-7.562,6.137-8.131,10.265-1.373,20.539-2.704,30.837-3.79,6.784-.715,9.107,1.874,8.354,8.469-1.048,9.181-2.043,18.368-3.018,27.557-.195,1.832-.438,3.633-1.557,5.149-1.803,2.441-6.12,3.572-8.909,2.246-3.029-1.44-4.13-3.996-3.556-7.216,.596-3.336,1.395-6.642,.646-10.978-7.867,7.946-15.196,15.44-22.624,22.833-16.497,16.418-33.029,32.802-49.58,49.166-5.456,5.394-8.027,5.329-13.746-.162-6.034-5.794-12.017-11.641-18.065-17.42-4.836-4.622-4.868-4.596-9.799,.268-16.572,16.348-33.111,32.73-49.732,49.029-4.321,4.237-6.679,4.05-10.309-.292-3.024-3.617-2.856-5.824,.713-9.322,19.352-18.971,38.704-37.941,58.057-56.911,4.951-4.853,7.316-4.882,12.405-.048,7.12,6.763,14.251,13.516,21.276,20.377,1.715,1.676,2.811,2.182,4.794,.193,21.706-21.761,43.505-43.428,65.265-65.134,.219-.218,.258-.616,.549-1.358Z"/>
  <path class="cls-3" d="M531.74,125.586c.18,2.904-.191,5.623-2.82,7.275-1.737,1.092-2.946,2.922-6.063,1.534-2.878-1.281-4.052-2.869-4.253-5.421-.371-4.722-.914-9.381-2.111-13.981-5.426-20.865-17.999-35.926-37.508-44.744-7.419-3.354-15.413-5.649-23.831-5.986-6.287-.252-9.192-5.971-5.884-10.693,1.651-2.357,4.031-3.05,6.696-2.801,22.798,2.127,42.338,10.851,57.102,28.805,8.148,9.909,14.326,20.919,16.759,33.708,.775,4.075,1.282,8.201,1.912,12.303Z"/>
  <path class="cls-3" d="M456.674,76.452c11.005,.442,20.951,3.881,29.532,10.824,11.29,9.134,18.261,20.935,21.054,35.183,.277,1.415,.382,2.884,.384,4.328,.006,4.145-2.571,7.239-6.208,7.587-3.852,.368-6.66-1.976-7.166-6.45-.514-4.544-1.356-8.995-3.271-13.132-7.08-15.3-19.095-23.75-35.874-25.269-5.214-.472-7.748-2.578-7.591-6.934,.155-4.3,2.288-6.045,7.505-6.136,.544-.009,1.089-.001,1.633-.001Z"/>
  <path class="cls-3" d="M455.737,100.569c12.492,.277,26.053,13.167,27.135,25.792,.331,3.867-1.808,7.188-5.095,7.907-3.53,.773-6.666-.981-7.661-5.212-2.04-8.67-7.34-13.306-15.985-14.838-4.587-.813-6.361-3.854-5.712-8.372,.569-3.963,2.538-5.383,7.319-5.277Z"/>
  <path class="cls-1" d="M293.883,423.732c-50.407,.557-95.879-41.198-95.207-95.816,.654-53.171,42.403-94.713,95.273-94.81,55.296-.101,96.162,44.629,95.822,95.921-.348,52.55-44.055,95.708-95.888,94.705Zm-.069-15.22c42.689,1.909,80.593-35.406,80.963-79.592,.352-42.08-34.575-80.734-80.002-80.995-44.931-.258-80.61,35.456-81.007,80.268-.405,45.651,37.981,81.621,80.046,80.319Z"/>
  <path class="cls-2" d="M576.415,328.465c.031,4.715-3.76,8.522-8.645,8.681-4.962,.162-8.988-3.83-8.974-8.897,.013-4.752,3.83-8.573,8.634-8.646,5.072-.077,8.951,3.749,8.984,8.861Z"/>
  <path class="cls-2" d="M294.332,583.931c-4.688,.146-8.94-3.685-9.105-8.201-.17-4.676,4.059-9.221,8.701-9.352,4.803-.135,9.011,3.968,9.075,8.849,.058,4.44-4.046,8.56-8.672,8.704Z"/>
  <path class="cls-2" d="M100.52,204.553c-.053,4.833-3.782,8.448-8.768,8.5-5.038,.053-8.721-3.535-8.706-8.48,.015-4.732,3.942-8.873,8.507-8.969,4.999-.106,9.021,3.908,8.966,8.949Z"/>
  <path class="cls-2" d="M435.696,144.073c4.763-.127,8.79,3.598,9.003,8.328,.21,4.658-3.631,8.689-8.452,8.87-4.736,.178-8.891-3.647-9.03-8.313-.137-4.58,3.855-8.762,8.479-8.885Z"/>
  <path class="cls-2" d="M23.293,319.776c4.992-.093,9.163,3.886,9.187,8.763,.022,4.487-4.056,8.474-8.815,8.62-4.752,.145-8.608-3.623-8.704-8.508-.096-4.859,3.591-8.787,8.332-8.875Z"/>
  <path class="cls-2" d="M294.25,113.308c-4.612,.052-8.421-3.508-8.58-8.02-.177-5.02,3.76-9.244,8.605-9.231,4.664,.012,8.664,3.952,8.756,8.624,.087,4.396-4.166,8.575-8.781,8.627Z"/>
  <path class="cls-1" d="M158.119,502.201c.003,21.639,.003,43.279,.002,64.918q0,6.017-5.747,6.015c-6.728,.003-13.456,.014-20.185,.02q-5.498,.005-5.493-5.742c.003-5.273-.11-10.55,.047-15.819,.085-2.865-1.032-3.682-3.818-3.781-9.438-.333-9.435-.441-9.435,9.032,0,4.364-.06,8.73,.03,13.092,.047,2.269-.732,3.285-3.143,3.256-8.364-.099-16.73-.134-25.093-.023-2.835,.038-3.272-1.384-3.256-3.725,.054-7.637-.029-15.275-.026-22.912,.015-36.914,.038-73.828,.068-110.742,.004-5.381,.028-5.422,5.254-5.432,22.003-.043,44.007,.028,66.008-.167,3.843-.034,4.897,1.093,4.867,4.91-.173,22.365-.085,44.733-.082,67.099Zm-67.499-26.635c.111,7.446-.921,6.992,5.796,6.941,7.744-.059,6.985,1.177,7.069-7.372,.055-5.612,.014-5.676-5.548-5.585-7.686,.125-7.294-1.119-7.318,6.016Zm29.577-6.074q-6.602,.003-6.595,6.32c.025,7.596-.518,6.749,6.707,6.764,7.015,.015,6.284,.581,6.293-6.579,.01-7.239,.493-6.468-6.405-6.505Zm.129,51.485c-7.235,.115-6.607-1.024-6.661,6.132-.052,6.937-.022,6.937,6.551,6.945,6.42,.008,6.473,.007,6.429-5.365-.071-8.666,.575-7.614-6.319-7.711Zm-29.813-19.119q-.03,6.703,5.584,6.737,7.377,.045,7.405-5.795c.035-7.092,.034-7.157-5.214-7.115-8.517,.068-7.65-.949-7.775,6.174Zm36.057,.501c-.044-7.472,.566-6.671-6.078-6.673-6.93-.002-6.806-1.006-6.82,5.397q-.016,7.395,6.217,7.417,6.664,.023,6.68-6.142Zm-35.976,25.154c.168,7.478-1.014,6.358,7.938,6.48,5.057,.069,5.058-.011,5.033-6.693q-.023-6.39-7.292-6.356-5.714,.026-5.68,6.569Zm46.739-50.638c.554,1.68-1.178,4.887,.93,6.078,2.769,1.564,6.387,1.05,9.476,.195,2.458-.68,1.694-3.284,1.736-5.184,.194-8.914-.505-9.467-9.283-8.453-2.036,.235-2.957,.967-2.868,3.002,.055,1.264,.01,2.533,.01,4.362Zm-40.265-20.403q6.447,.024,6.463-5.922,.017-6.407-5.437-6.443-7.535-.051-7.544,5.952-.01,6.389,6.519,6.413Zm47.207,51.57c1.602-1.087,4.355,2.217,5.314-1.461,2.215-8.495-.857-12.052-9.391-10.921-.357,.047-.721,.049-1.077,.099-.761,.108-1.443,.447-1.527,1.257-.338,3.237-1.002,6.723,.175,9.65,1.014,2.521,4.258,.716,6.506,1.376Zm-17.764-57.649q.017-6.121-5.574-6.145-6.518-.029-6.531,5.764-.014,6.418,5.873,6.423,6.216,.005,6.232-6.042Zm23.043-.273c-.005-5.926-.005-5.984-5.222-5.921-8.03,.097-6.873-.594-6.97,6.934-.069,5.375-.006,5.376,6.328,5.376q5.87,0,5.865-6.389Zm-.041,76.456c.19-2.23,.894-5.201-4.218-5.071-7.915,.202-7.923-.101-8.02,5.045-.139,7.365-.139,7.465,4.295,7.457,9.525-.018,7.661,.466,7.943-7.431Z"/>
  <path class="cls-1" d="M171.502,478.247c13.302,6.431,25.849,12.533,38.439,18.546,2.097,1.002,2.804,2.369,2.796,4.679-.085,22.561-.112,45.122-.012,67.682,.014,3.158-1.127,4.021-4.126,3.987-11.097-.123-22.196-.054-33.295-.003-2.201,.01-3.85-.091-3.843-3.081,.068-30.372,.042-60.744,.042-91.81Z"/>
  <path class="cls-1" d="M68.073,478.68c1.113,1.603,.671,3.084,.673,4.47,.027,28.188,.02,56.376,.012,84.564-.001,5.383-.015,5.419-5.268,5.43-10.184,.02-20.372-.163-30.55,.069-3.858,.088-4.938-1.221-4.912-4.964,.151-22.331,.103-44.663,.084-66.994-.002-1.948,.283-3.535,2.278-4.487,12.582-6.005,25.141-12.06,37.683-18.088Z"/>
  <path class="cls-1" d="M532.777,458.234c0,7.054-.002,13.025,0,18.997,.01,29.965,.028,59.93,.024,89.895,0,5.925-.038,5.932-5.881,5.969-3.632,.023-7.278-.168-10.893,.085-3.785,.265-5.126-1.131-5.058-4.968,.182-10.348,.009-20.702,.005-31.053-.008-19.614,.029-39.227-.026-58.841-.007-2.646,.156-4.969,2.551-6.732,5.962-4.387,11.911-8.782,19.277-13.352Z"/>
  <path class="cls-1" d="M448.198,500.431c6.186,4.235,12.427,8.505,18.665,12.78,1.591,1.09,1.514,2.755,1.515,4.407,.011,17.084-.048,34.168,.115,51.25,.032,3.393-1.084,4.471-4.395,4.292-4.348-.234-8.723-.115-13.081,.008-2.419,.068-3.685-.566-3.671-3.307,.117-22.89,.144-45.781,.213-68.671,0-.121,.194-.241,.64-.76Z"/>
  <path class="cls-1" d="M404.918,526.259c0,11.714,.067,22.694-.035,33.673-.038,4.127,1.761,9.415-.771,12.086-2.802,2.955-8.24,1.027-12.506,1.024-9.479-.006-8.313,1.636-8.405-8.215-.065-6.883,.015-13.768-.004-20.651-.005-1.835-.12-3.659,1.674-4.862,6.404-4.295,12.585-8.945,20.047-13.054Z"/>
  <path class="cls-1" d="M517.421,225.263c0-15.647,.124-31.296-.088-46.94-.052-3.878,1.113-5.088,4.924-4.84,4.893,.318,9.835,.342,14.728,.033,3.784-.239,4.528,1.316,4.503,4.721-.134,18.193-.064,36.388-.069,54.583-.003,13.1,0,26.2-.026,39.3-.011,5.228-.044,5.243-5.446,5.294-4.184,.04-8.369,.049-12.554,.048-6.006-.002-6.025-.011-6.03-5.802-.011-15.465-.004-30.93-.004-46.396,.02,0,.041,0,.061,0Z"/>
  <path class="cls-1" d="M504.202,246.151c0,9.09-.089,18.181,.05,27.269,.046,3.042-.948,4.196-4.065,4.072-5.264-.209-10.546-.2-15.812-.024-2.958,.099-4.183-.706-4.159-3.923,.143-18.542,.151-37.086,.062-55.628-.015-3.028,.874-4.205,4.007-4.072,5.081,.215,10.19,.288,15.264,.002,3.53-.199,4.789,.788,4.69,4.492-.247,9.265-.081,18.541-.081,27.813h.045Z"/>
  <path class="cls-1" d="M467.112,258.081c0,5.076-.119,10.156,.046,15.226,.094,2.875-.563,4.369-3.853,4.243-5.612-.215-11.239-.162-16.856-.058-2.612,.049-3.454-1.025-3.434-3.545,.081-10.514,.053-21.028,.002-31.542-.01-2.159,.559-3.39,3.032-3.35,5.981,.096,11.965,.099,17.946,.004,2.393-.038,3.162,.973,3.121,3.251-.095,5.255-.03,10.514-.03,15.771h.028Z"/>
  <path class="cls-3" d="M293.815,408.512c-42.065,1.303-80.45-34.668-80.046-80.319,.397-44.812,36.076-80.526,81.007-80.268,45.427,.261,80.354,38.915,80.002,80.995-.37,44.186-38.274,81.501-80.963,79.592Zm.187-13.228c37.283,.118,66.945-29.411,67.206-66.401,.275-38.904-31.063-66.801-66.834-67.293-35.241-.484-67.097,28.447-67.251,66.982-.148,36.929,29.694,66.62,66.879,66.712Z"/>
  <path class="cls-3" d="M90.62,475.566c.023-7.135-.369-5.891,7.318-6.016,5.562-.09,5.603-.027,5.548,5.585-.084,8.549,.675,7.313-7.069,7.372-6.717,.051-5.685,.505-5.796-6.941Z"/>
  <path class="cls-3" d="M120.197,469.492c6.898,.036,6.415-.734,6.405,6.505-.009,7.16,.722,6.595-6.293,6.579-7.225-.016-6.682,.832-6.707-6.764q-.021-6.317,6.595-6.32Z"/>
  <path class="cls-3" d="M120.325,520.977c6.894,.097,6.249-.955,6.319,7.711,.044,5.373-.009,5.373-6.429,5.365-6.573-.008-6.603-.008-6.551-6.945,.054-7.156-.574-6.017,6.661-6.132Z"/>
  <path class="cls-3" d="M90.513,501.857c.125-7.123-.743-6.106,7.775-6.174,5.248-.042,5.249,.023,5.214,7.115q-.029,5.84-7.405,5.795-5.613-.034-5.584-6.737Z"/>
  <path class="cls-3" d="M126.57,502.359q-.016,6.165-6.68,6.142-6.239-.022-6.217-7.417c.013-6.403-.11-5.399,6.82-5.397,6.644,.002,6.034-.799,6.078,6.673Z"/>
  <path class="cls-3" d="M90.594,527.513q-.034-6.543,5.68-6.569,7.268-.033,7.292,6.356c.024,6.682,.023,6.762-5.033,6.693-8.951-.122-7.77,.998-7.938-6.48Z"/>
  <path class="cls-3" d="M137.333,476.874c0-1.83,.045-3.098-.01-4.362-.089-2.035,.832-2.767,2.868-3.002,8.779-1.014,9.478-.461,9.283,8.453-.041,1.9,.722,4.504-1.736,5.184-3.089,.855-6.707,1.37-9.476-.195-2.107-1.19-.376-4.398-.93-6.078Z"/>
  <path class="cls-3" d="M97.068,456.472q-6.529-.024-6.519-6.413,.009-6.002,7.544-5.952,5.454,.037,5.437,6.443-.016,5.945-6.463,5.922Z"/>
  <path class="cls-3" d="M144.275,508.041c-2.249-.66-5.492,1.145-6.506-1.376-1.177-2.927-.513-6.412-.175-9.65,.085-.809,.766-1.149,1.527-1.257,.357-.051,.72-.052,1.077-.099,8.534-1.131,11.606,2.425,9.391,10.921-.959,3.678-3.712,.374-5.314,1.461Z"/>
  <path class="cls-3" d="M126.511,450.392q-.016,6.047-6.232,6.042-5.887-.005-5.873-6.423,.013-5.792,6.531-5.764,5.591,.025,5.574,6.145Z"/>
  <path class="cls-3" d="M149.554,450.119q.005,6.389-5.865,6.389c-6.334,0-6.397,0-6.328-5.376,.097-7.528-1.06-6.837,6.97-6.934,5.217-.063,5.217-.005,5.222,5.921Z"/>
  <path class="cls-3" d="M149.512,526.575c-.282,7.897,1.582,7.413-7.943,7.431-4.434,.008-4.434-.091-4.295-7.457,.097-5.146,.105-4.843,8.02-5.045,5.112-.13,4.409,2.841,4.218,5.071Z"/>
  <path class="cls-1" d="M294.002,395.284c-37.185-.091-67.027-29.783-66.879-66.712,.155-38.535,32.011-67.466,67.251-66.982,35.771,.491,67.11,28.389,66.834,67.293-.262,36.99-29.923,66.519-67.206,66.401Zm-1.72-58.93c2.628,0,4.828-.178,6.989,.035,5.568,.548,8.917,5.3,8.543,11.882-.311,5.47-2.907,7.78-8.852,7.83-4.001,.033-8.026-.246-11.996,.112-4.317,.389-5.733-1.042-5.434-5.435,.308-4.524-1.596-5.934-6.398-5.969-4.726-.035-6.603,1.472-6.784,5.791-.153,3.623-.288,7.229-.639,10.852-.495,5.104,3,8.483,8.196,8.574,2.545,.045,5.112,.188,7.633-.068,3.726-.38,4.768,1.13,4.384,4.696-.536,4.979,1.595,7.238,6.248,7.235,5.265-.004,6.908-1.651,6.937-7.348,.013-2.523,.063-4.085,3.38-4.869,9.099-2.15,15.533-9.442,16.436-17.566,1.209-10.876-1.176-20.175-11.186-26.369-6.279-3.885-13.194-3.859-20.064-3.403-5.311,.352-9.027-3.838-9.088-10.475-.054-5.903,3.023-9.31,8.779-9.486,3.815-.117,7.637-.025,11.456-.009,5.069,.022,6.022-.968,5.864,5.416-.122,4.957,2.529,6.948,7.776,6.601,4.089-.271,6.754-3.145,6.057-7.303-.641-3.819-.444-7.603-.555-11.406-.129-4.426-2.099-6.731-6.461-7.18-2.521-.26-5.107-.308-7.627-.067-3.833,.366-5.247-1.069-4.821-4.922,.329-2.974-.212-5.817-3.36-7.393-4.403-2.203-11.779,.211-10.525,6.381,.822,4.046-.745,5.842-4.892,7.275-14.719,5.085-18.534,19.397-13.516,32.542,4.061,10.638,12.781,14.804,23.519,14.047Z"/>
  <path class="cls-3" d="M292.281,336.354c-10.738,.757-19.457-3.409-23.519-14.047-5.018-13.146-1.203-27.457,13.516-32.542,4.147-1.433,5.714-3.228,4.892-7.275-1.254-6.171,6.122-8.585,10.525-6.381,3.148,1.575,3.689,4.419,3.36,7.393-.426,3.853,.988,5.288,4.821,4.922,2.52-.241,5.106-.193,7.627,.067,4.362,.449,6.332,2.755,6.461,7.18,.111,3.804-.085,7.588,.555,11.406,.697,4.158-1.968,7.032-6.057,7.303-5.247,.347-7.899-1.644-7.776-6.601,.158-6.384-.796-5.394-5.864-5.416-3.819-.017-7.641-.108-11.456,.009-5.756,.176-8.834,3.583-8.779,9.486,.061,6.637,3.778,10.827,9.088,10.475,6.87-.455,13.785-.482,20.064,3.403,10.01,6.194,12.395,15.493,11.186,26.369-.903,8.124-7.337,15.416-16.436,17.566-3.316,.784-3.367,2.346-3.38,4.869-.029,5.697-1.672,7.345-6.937,7.348-4.653,.003-6.783-2.256-6.248-7.235,.384-3.567-.659-5.076-4.384-4.696-2.521,.257-5.088,.113-7.633,.068-5.196-.091-8.691-3.47-8.196-8.574,.351-3.623,.486-7.228,.639-10.852,.182-4.319,2.058-5.825,6.784-5.791,4.802,.035,6.706,1.445,6.398,5.969-.299,4.393,1.117,5.824,5.434,5.435,3.97-.357,7.995-.078,11.996-.112,5.945-.049,8.541-2.359,8.852-7.83,.374-6.582-2.976-11.334-8.543-11.882-2.161-.213-4.361-.035-6.989-.035Z"/>
</svg>