<?xml version="1.0" encoding="utf-8"?>
<!-- Generator: Adobe Illustrator 26.5.0, SVG Export Plug-In . SVG Version: 6.00 Build 0)  -->
<svg version="1.1" id="_Слой_1" xmlns="http://www.w3.org/2000/svg" xmlns:xlink="http://www.w3.org/1999/xlink" x="0px"
	 y="0px" viewBox="0 0 590 592.5" style="enable-background:new 0 0 590 592.5;" xml:space="preserve">
<style type="text/css">
	.st0{fill:#014FAC;}
	.st1{fill:#FEFEFE;}
	.st2{fill:#56A3FE;}
</style>
<path class="st0" d="M240.3,425.2c2.6,0.9,4.7,0.5,6.8,0.5c42.8,0,85.5,0,128.2,0c2.9,0,5.8-0.1,8.3,1.7c3.5,2.6,4,6.2,4,10.2
	c0,36.5,0,72.9,0,109.3v7.2h73.3v-20.8c-1.3-1.5-3.7-1.8-5.7-2.7c-11.2-4.5-22.4-8.9-33.5-13.4c-4.6-1.9-6.8-5.6-6.3-9.9
	c0.5-3.9,3.5-7.1,7.3-8c2.6-0.6,4.9,0.3,7.2,1.2c9.1,3.6,18.1,7.2,27.2,10.9c1.2,0.5,2.5,0.9,4,1.5v-23.6c-20.2-3.7-36.1-14-46.5-32
	c-8.1-14-10.3-29.1-7.2-45c6.5-32.7,35.4-55.1,68.2-52.3c30.5,2.6,56.6,25,59.1,61.2c2.2,31.8-19.4,61.8-54.6,68v64.7
	c1.9,0.7,3.8,0.4,5.7,0.4c27.4,0,54.8,0,82.2,0c1.7,0,3.5-0.1,5.2,0.2c4.4,0.7,7.6,4.4,7.7,8.7c0.2,4.5-3.1,8.5-7.7,9.3
	c-1.5,0.3-3.1,0.2-4.6,0.2c-181.9,0-363.9,0-545.8,0c-0.8,0-1.5,0-2.3,0c-6.2-0.2-10.2-4-10.1-9.4c0.1-5.3,3.9-8.9,9.9-9
	c9.2-0.1,18.4,0,27.6,0c2.6,0,5.3,0,8.5,0v-7.2c0-121.8,0-243.6,0-365.4c0-1.5,0-3.1,0-4.6c0.2-7.2,3.4-10.6,10.5-10.7
	c5.5-0.1,11,0,16.5,0c0.9-2.2,0.5-4.2,0.5-6c0-24.9,0.2-49.9-0.1-74.8c-0.1-8.5,4.3-12.8,12.4-12.5c12.2,0.4,24.5,0.1,36.8,0.1
	c1.9,0,3.8,0.3,6.1-0.5c0-7.4,0-14.8,0-22.3c0-1.7-0.1-3.5,0.1-5.2c0.4-5.1,4.1-8.7,8.9-8.9c5-0.2,9.2,3.5,9.4,8.9
	c0.3,7.1,0.1,14.2,0.1,21.3c0,2.1,0,4.1,0,6.7c9.1,0,17.6,0,26.2,0c5.9,0,11.9,0,17.8,0c7.9,0.1,11.1,3.3,11.1,11.2
	c0,25.7,0,51.4,0,77.1v4.9c5.2,0,10.3,0,15.4,0c9.4,0,12.2,2.9,12.2,12.4c0,79.8,0,159.6,0,239.4L240.3,425.2L240.3,425.2z
	 M221.5,554.4V185.5H75v368.9L221.5,554.4L221.5,554.4z M368.8,554.4v-110H240.6v109.8h27.3c0-2.3,0-4.2,0-6.1c0-18.6,0-37.2,0-55.8
	c0-8.3,3.2-11.4,11.5-11.5c16.7,0,33.3,0,50,0c9.1,0,12.1,3,12.1,12c0,18.8,0,37.6,0,56.4c0,1.7-0.5,3.4,0.7,5.1L368.8,554.4
	L368.8,554.4z M460.6,470.3c0.9-2.2,0.5-4.1,0.5-6c0-6.5-0.1-13,0-19.6c0.1-5.9,3.7-9.7,9-9.8c5.6-0.1,9.2,3.8,9.4,10
	c0,1.7,0,3.5,0,5.2c0,6.7,0,13.4,0,20.1c20.5-2.7,38.4-23.5,36.7-46.8c-1.9-24.8-17.6-43.2-43.1-44.6c-26.6-1.5-45.4,16.1-48.5,42.5
	C421.9,444,437.7,466,460.6,470.3L460.6,470.3z M102.5,166.3H194V92.2h-91.5V166.3L102.5,166.3z M286.8,499.6v54.7h36v-54.7H286.8z"
	/>
<path class="st0" d="M488.6,49.9c-1.8,25.6-3.6,51.4-5.3,77.2c-1.2,18.5-2.5,37.1-3.5,55.6c-0.3,5.1-2,8.6-6.2,11.4
	c-26.3,17.4-52.6,34.9-78.8,52.6c-4.9,3.3-9.2,3.4-14.2,0.1c-26.2-17.6-52.5-35.1-78.8-52.6c-4-2.6-6-5.9-6.3-10.8
	c-2-32.1-4.3-64.2-6.4-96.3c-0.8-12.4-1.7-24.8-2.5-37.3c-0.5-9.2,1.3-11.7,10.1-13.5c29.2-6,58.5-11.8,87.7-17.8
	c3.3-0.7,6.5,0.1,9.6,0.8c28.1,5.6,56.2,11.4,84.4,16.8C486.4,37.7,489.6,41.9,488.6,49.9L488.6,49.9z M305.9,53.3
	c-0.7,11.8,1,23,1.6,34.3c0.3,5.3,0.2,10.7,0.8,16c1.8,15,2.1,30.1,3.1,45.1c0.6,8.2,1.7,16.4,1.5,24.6c-0.1,4.4,1.8,7.6,5.9,10.2
	c21.6,14.1,43.1,28.4,64.5,42.9c3.2,2.2,5.4,2.1,8.6-0.1c21.4-14.5,42.9-28.8,64.5-42.9c4.1-2.6,5.6-5.9,5.8-10.3
	c0.4-12,1.5-24,2.3-36c1.1-15.3,1.3-30.6,2.8-45.8c0.8-7.6,0.5-15.2,1.7-22.8c0.8-5,0.9-10.2,0-15.4c-2.5-0.6-4.7-1.1-6.9-1.6
	c-20.4-4.1-40.7-8.3-61.1-12.2c-5-1-10-3.3-15.1-2.3C359.3,42.3,332.8,47.8,305.9,53.3L305.9,53.3z"/>
<path class="st1" d="M221.5,554.4H75V185.5h146.5V554.4L221.5,554.4z M148.4,453.3c17.6,0,35.3,0,52.9,0c8.2,0,11.4-3.2,11.4-11.5
	c0-10.9,0.1-21.9,0-32.8c-0.1-9-3.2-12-12.2-12c-34.7,0-69.4,0-104.1,0c-9.6,0-12.5,3-12.6,12.8c0,10.7-0.1,21.5,0,32.2
	c0,8.2,3.2,11.4,11.6,11.4C113.1,453.3,130.7,453.3,148.4,453.3L148.4,453.3z M148.2,462.5c-17.8,0-35.6,0-53.4,0
	c-7.6,0-10.9,3.3-10.9,10.8c-0.1,11.1-0.1,22.2,0,33.3c0,7.8,3.3,11,11.3,11c35.4,0,70.8,0,106.3,0c7.9,0,11.2-3.3,11.2-11.1
	c0.1-10.7,0-21.5,0-32.2c0-8.9-3.1-11.9-12.2-11.9C183.1,462.5,165.6,462.5,148.2,462.5L148.2,462.5z M148.5,258.8
	c17.6,0,35.2,0,52.8,0c8,0,11.3-3.2,11.4-11c0.1-11.1,0.1-22.2,0-33.3c-0.1-7.5-3.4-10.9-10.9-10.9c-35.6,0-71.2,0-106.8,0
	c-7.8,0-11,3.3-11.1,11.3c-0.1,10.7,0,21.5,0,32.2c0,8.6,3.1,11.7,11.8,11.8C113.3,258.8,130.9,258.8,148.5,258.8L148.5,258.8z
	 M148.3,323.2c17.8,0,35.6,0,53.4,0c7.6,0,10.9-3.4,11-10.8c0.1-11.1,0.1-22.2,0-33.3c0-7.8-3.3-11.1-11.3-11.1
	c-35.4,0-70.8,0-106.3,0c-7.9,0-11.2,3.2-11.2,11.1c-0.1,10.9-0.1,21.8,0,32.8c0,8.2,3.2,11.4,11.6,11.4
	C113.1,323.3,130.7,323.2,148.3,323.2L148.3,323.2z M148.4,332.5c-17.8,0-35.6,0-53.4,0c-7.8,0-11.1,3.3-11.1,11.2
	c-0.1,11.1-0.1,22.2,0,33.3c0.1,7.2,3.4,10.6,10.6,10.6c35.8,0,71.6,0,107.4,0c7.5,0,10.8-3.4,10.8-11c0.1-10.7,0-21.5,0-32.2
	c0-9-3-12.1-12-12.1C183.2,332.5,165.8,332.5,148.4,332.5L148.4,332.5z"/>
<path class="st1" d="M368.8,554.4h-26.6c-1.2-1.7-0.6-3.5-0.7-5.1c0-18.8,0-37.6,0-56.4c0-9-3-12-12.1-12c-16.7,0-33.3,0-50,0
	c-8.3,0-11.5,3.2-11.5,11.5c0,18.6,0,37.2,0,55.8c0,1.9,0,3.8,0,6.1h-27.3V444.5h128.1V554.4L368.8,554.4z"/>
<path class="st2" d="M460.6,470.3c-23-4.3-38.7-26.4-36-49c3.1-26.5,22-44.1,48.5-42.5c25.5,1.5,41.2,19.8,43.1,44.6
	c1.8,23.4-16.2,44.1-36.7,46.8c0-6.7,0-13.4,0-20.1c0-1.7,0-3.5,0-5.2c-0.2-6.2-3.8-10.1-9.4-10c-5.3,0.1-8.9,3.9-9,9.8
	c-0.1,6.5,0,13,0,19.6C461.1,466.1,461.5,468.1,460.6,470.3L460.6,470.3z"/>
<path class="st1" d="M102.5,166.3V92.2H194v74.1L102.5,166.3L102.5,166.3z M148.4,157.5c8.6,0,17.2,0.1,25.8,0
	c7.5-0.1,10.8-3.4,10.9-10.9c0.1-8.4,0.1-16.9,0-25.3c-0.1-7.6-3.3-11-10.8-11c-17.4-0.1-34.8-0.1-52.2,0c-7.1,0-10.5,3.4-10.6,10.6
	c-0.1,8.2,0,16.5,0,24.7c0,8.7,3.1,11.8,11.6,11.9C131.5,157.5,139.9,157.5,148.4,157.5L148.4,157.5z"/>
<path class="st2" d="M286.8,499.6h36v54.7h-36V499.6z"/>
<path class="st2" d="M305.9,53.3c26.9-5.5,53.4-11,79.9-16.2c5.1-1,10.1,1.4,15.1,2.3c20.4,3.9,40.7,8.1,61.1,12.2
	c2.2,0.5,4.4,1,6.9,1.6c0.9,5.2,0.8,10.4,0,15.4c-1.2,7.6-0.9,15.2-1.7,22.8c-1.5,15.2-1.7,30.5-2.8,45.8c-0.9,12-1.9,24-2.3,36
	c-0.1,4.4-1.7,7.6-5.8,10.3c-21.6,14.1-43.1,28.4-64.5,42.9c-3.2,2.1-5.4,2.2-8.6,0.1c-21.4-14.5-42.8-28.8-64.5-42.9
	c-4-2.6-6-5.8-5.9-10.2c0.2-8.3-0.9-16.4-1.5-24.6c-1-15.1-1.4-30.2-3.1-45.2c-0.6-5.3-0.5-10.7-0.8-16
	C306.9,76.4,305.2,65.1,305.9,53.3L305.9,53.3z M387.6,45.8c-1,0.1-1.9,0.2-2.9,0.4c-12.2,2.2-24.4,4.5-36.5,6.7
	c-8.4,1.6-16.9,3-25.3,4.8c-6.2,1.3-9.8,5.9-8.6,11.5s1.1,11.4,1.6,17.1c1,11,2.1,22.1,2.8,33.1c1,16.6,2.9,33.1,4.4,49.6
	c0.4,4.2,1.9,7.6,5.8,9.9c16.7,9.7,33.4,19.4,49.9,29.5c6.2,3.8,11.4,3.8,17.5,0c16-9.8,32.1-19.4,48.4-28.6c5.2-3,7-6.9,7.3-12.5
	c0.6-10.1,1.5-20.2,2.4-30.3c1-11.8,2.2-23.6,3.2-35.3c0.9-10.1,1.5-20.2,2.6-30.2c1-8.9-1.3-12.4-9.8-14c-15.9-2.9-31.8-6-47.7-9
	C397.7,47.5,392.6,46.7,387.6,45.8L387.6,45.8z"/>
<path class="st0" d="M148.4,453.3c-17.6,0-35.3,0-52.9,0c-8.3,0-11.6-3.2-11.6-11.4c-0.1-10.7,0-21.5,0-32.2c0-9.8,3-12.8,12.6-12.8
	c34.7,0,69.4,0,104.1,0c9,0,12.1,3,12.2,12c0.1,10.9,0.1,21.9,0,32.8c0,8.3-3.2,11.5-11.4,11.5C183.6,453.3,166,453.3,148.4,453.3
	L148.4,453.3z M120.5,416.7c-6-0.3-11.9-0.5-18.3,0.2c0.3,6.1-0.5,11.9,0.5,17.6h17.8V416.7L120.5,416.7z M139.4,416.8v17.9
	c6.1,0.3,11.9,0.6,17.6-0.2v-17.8L139.4,416.8L139.4,416.8z M176,434.6c6,0.3,11.9,0.5,18-0.1c0.3-6.1,0.5-11.9-0.1-17.6h-18V434.6z
	"/>
<path class="st0" d="M148.2,462.5c17.4,0,34.8,0,52.3,0c9.1,0,12.2,3,12.2,11.9c0,10.7,0.1,21.5,0,32.2c0,7.8-3.3,11.1-11.2,11.1
	c-35.4,0-70.8,0-106.3,0c-8,0-11.3-3.2-11.3-11c-0.1-11.1-0.1-22.2,0-33.3c0.1-7.5,3.4-10.8,10.9-10.8
	C112.6,462.5,130.4,462.5,148.2,462.5L148.2,462.5z M102.7,481.2V499h17.7c0.3-6.1,0.5-11.9-0.1-17.9H102.7z M157.2,499.1v-17.9
	c-6.1-0.3-11.8-0.5-18.2,0.1c0.4,6.1-0.5,11.9,0.5,17.8L157.2,499.1L157.2,499.1z M176.3,481.2v17.7H194v-17.7H176.3z"/>
<path class="st0" d="M148.5,258.8c-17.6,0-35.2,0-52.8,0c-8.7,0-11.8-3.1-11.8-11.8c0-10.7,0-21.5,0-32.2c0-8,3.2-11.3,11.1-11.3
	c35.6,0,71.2,0,106.8,0c7.5,0,10.9,3.4,10.9,10.9c0.1,11.1,0.1,22.2,0,33.3c-0.1,7.8-3.4,11-11.4,11
	C183.7,258.8,166.1,258.8,148.5,258.8L148.5,258.8z M176.2,240.4c6.1-0.2,11.9,0.3,17.9-0.4c0.3-6.1,0.5-11.9-0.1-17.6h-17.8
	L176.2,240.4L176.2,240.4z M139,222.3c0.2,6.1-0.3,11.9,0.4,17.9c6.1,0.3,11.9,0.5,17.6-0.1v-17.8L139,222.3L139,222.3z
	 M120.2,240.1v-17.7h-17.7v17.7H120.2z"/>
<path class="st0" d="M148.3,323.2c-17.6,0-35.2,0-52.8,0c-8.3,0-11.5-3.2-11.6-11.4c-0.1-10.9-0.1-21.8,0-32.8
	c0-7.9,3.3-11.1,11.2-11.1c35.4,0,70.8,0,106.3,0c7.9,0,11.2,3.2,11.3,11.1c0.1,11.1,0.1,22.2,0,33.3c-0.1,7.5-3.4,10.8-11,10.8
	C183.9,323.3,166.1,323.3,148.3,323.2L148.3,323.2z M157.5,304.5c-0.2-6.1,0.4-11.9-0.4-18.2c-6.1,0.4-11.9-0.5-17.6,0.5v17.7H157.5
	L157.5,304.5z M120.4,304.5v-17.9c-6.1-0.3-11.9-0.6-17.6,0.2v17.8L120.4,304.5L120.4,304.5z M176.2,304.6c6.2,0.3,12,0.5,17.7-0.1
	v-17.8h-17.7V304.6z"/>
<path class="st0" d="M148.4,332.5c17.4,0,34.9,0,52.3,0c9,0,12,3,12,12.1c0,10.7,0.1,21.5,0,32.2c-0.1,7.5-3.4,11-10.8,11
	c-35.8,0-71.6,0-107.4,0c-7.1,0-10.5-3.5-10.6-10.6c-0.1-11.1-0.1-22.2,0-33.3c0-7.9,3.3-11.2,11.1-11.2
	C112.8,332.4,130.6,332.4,148.4,332.5L148.4,332.5z M120.4,369v-17.9c-6.1-0.3-11.9-0.6-17.6,0.2V369L120.4,369L120.4,369z
	 M139.4,368.9h18.1c-0.2-6.1,0.5-11.9-0.4-17.6h-17.7V368.9z M176.2,368.9h17.7v-17.7h-17.7V368.9z"/>
<path class="st0" d="M148.4,157.5c-8.4,0-16.8,0-25.3,0c-8.6,0-11.6-3.2-11.6-11.9c0-8.2-0.1-16.5,0-24.7
	c0.1-7.2,3.4-10.6,10.6-10.6c17.4-0.1,34.8-0.1,52.2,0c7.4,0,10.7,3.4,10.8,11c0.1,8.4,0.1,16.8,0,25.3c-0.1,7.5-3.4,10.8-10.9,10.9
	C165.6,157.6,157,157.5,148.4,157.5L148.4,157.5z M130.1,138.7h36.3c0.3-3.4,0.4-6.4-0.1-9.6h-36.2
	C129.7,132.4,129.8,135.3,130.1,138.7z"/>
<path class="st0" d="M387.6,45.8c5,0.9,10.1,1.7,15.2,2.6c15.9,3,31.8,6,47.7,9c8.5,1.6,10.8,5.1,9.8,14
	c-1.1,10.1-1.7,20.2-2.6,30.2c-1,11.8-2.2,23.6-3.2,35.3c-0.9,10.1-1.9,20.2-2.4,30.3c-0.3,5.6-2.1,9.6-7.3,12.5
	c-16.3,9.3-32.4,18.8-48.4,28.6c-6.1,3.8-11.4,3.8-17.5,0c-16.5-10.1-33.2-19.8-49.9-29.5c-3.9-2.3-5.4-5.7-5.8-9.9
	c-1.5-16.5-3.3-33.1-4.4-49.6c-0.7-11.1-1.9-22.1-2.8-33.1c-0.5-5.7-0.5-11.4-1.6-17.1c-1.2-5.7,2.4-10.2,8.6-11.5
	c8.4-1.7,16.8-3.2,25.3-4.8c12.2-2.2,24.4-4.5,36.5-6.7C385.6,46,386.6,45.9,387.6,45.8L387.6,45.8z M333.5,74.7
	c0.1,1.8,0.1,3.1,0.2,4.4c1.5,17,3,34,4.6,50.9c1,10.5,2,21,2.9,31.5c0.2,2.6,1.3,4,3.5,5.3c13.1,7.6,26.1,15.2,39,23.1
	c3.1,1.9,5.2,1.7,8.2-0.1c12.4-7.6,25-14.9,37.6-22.1c2.9-1.7,4.4-3.5,4.7-7c2-24.2,4.3-48.5,6.3-72.7c0.4-4.3,1.7-8.7,0.9-13.1
	c-1.1-0.3-2-0.7-2.9-0.9c-13.4-2.5-26.8-4.5-40-7.5c-7.9-1.8-15.4-1.2-23.2,0.3c-8.4,1.7-16.9,3.2-25.4,4.8
	C344.5,72.5,339.1,73.6,333.5,74.7L333.5,74.7z"/>
<path class="st2" d="M120.5,416.7v17.7h-17.8c-1-5.7-0.2-11.5-0.5-17.6C108.7,416.2,114.6,416.4,120.5,416.7L120.5,416.7z"/>
<path class="st2" d="M139.4,416.8h17.6v17.8c-5.8,0.7-11.5,0.4-17.6,0.2V416.8L139.4,416.8z"/>
<path class="st2" d="M176,434.6v-17.7h18c0.6,5.7,0.4,11.5,0.1,17.6C187.9,435.2,182,435,176,434.6z"/>
<path class="st2" d="M102.7,481.2h17.6c0.6,6,0.4,11.8,0.1,17.9h-17.7V481.2z"/>
<path class="st2" d="M157.2,499.1h-17.6c-1-5.9-0.2-11.7-0.5-17.8c6.3-0.6,12.1-0.5,18.2-0.1L157.2,499.1L157.2,499.1z"/>
<path class="st2" d="M176.3,481.2H194v17.7h-17.6V481.2z"/>
<path class="st2" d="M176.2,240.4v-18H194c0.6,5.7,0.4,11.5,0.1,17.6C188,240.8,182.3,240.2,176.2,240.4L176.2,240.4z"/>
<path class="st2" d="M139,222.3h18V240c-5.7,0.6-11.5,0.4-17.6,0.1C138.7,234.1,139.3,228.3,139,222.3L139,222.3z"/>
<path class="st2" d="M120.2,240.1h-17.7v-17.7h17.7V240.1z"/>
<path class="st2" d="M157.5,304.5h-18v-17.7c5.7-1,11.5-0.1,17.6-0.5C157.9,292.7,157.3,298.5,157.5,304.5L157.5,304.5z"/>
<path class="st2" d="M120.3,304.5h-17.6v-17.8c5.8-0.7,11.5-0.4,17.6-0.2V304.5L120.3,304.5z"/>
<path class="st2" d="M176.2,304.6v-17.9h17.7v17.8C188.2,305.1,182.4,304.9,176.2,304.6z"/>
<path class="st2" d="M120.3,369h-17.6v-17.8c5.8-0.7,11.5-0.4,17.6-0.2V369L120.3,369z"/>
<path class="st2" d="M139.4,369v-17.6h17.7c0.9,5.7,0.2,11.5,0.4,17.6H139.4z"/>
<path class="st2" d="M176.2,368.9v-17.7h17.7v17.7H176.2z"/>
<path class="st2" d="M130.1,138.7c-0.4-3.3-0.4-6.3,0-9.6h36.2c0.5,3.2,0.4,6.2,0.1,9.6H130.1z"/>
<path class="st1" d="M333.5,74.7c5.6-1.1,11-2.2,16.4-3.2c8.5-1.6,16.9-3.1,25.4-4.8c7.7-1.6,15.2-2.1,23.2-0.3
	c13.2,3,26.7,5,40,7.5c0.9,0.2,1.8,0.6,2.9,0.9c0.8,4.4-0.5,8.7-0.9,13.1c-2,24.2-4.3,48.5-6.3,72.7c-0.3,3.5-1.8,5.4-4.7,7
	c-12.6,7.2-25.2,14.6-37.6,22.1c-3,1.8-5.1,2-8.2,0.1c-12.9-7.9-26-15.5-39-23.1c-2.2-1.3-3.2-2.7-3.5-5.3
	c-0.8-10.5-1.9-21-2.9-31.5c-1.5-17-3.1-33.9-4.6-50.9C333.6,77.7,333.6,76.4,333.5,74.7L333.5,74.7z"/>
</svg>
