<?xml version="1.0" encoding="utf-8"?>
<!-- Generator: Adobe Illustrator 26.5.0, SVG Export Plug-In . SVG Version: 6.00 Build 0)  -->
<svg version="1.1" id="_Слой_1" xmlns="http://www.w3.org/2000/svg" xmlns:xlink="http://www.w3.org/1999/xlink" x="0px"
	 y="0px" viewBox="0 0 590 590" style="enable-background:new 0 0 590 590;" xml:space="preserve">
<style type="text/css">
	.st0{fill:#014FAC;}
	.st1{fill:#57A3FE;}
	.st2{fill:#FEFEFE;}
</style>
<path class="st0" d="M543.9,368.6c6.6,0,11.5,3.1,15.2,8c2,2.5,3.2,5.6,3.2,9c0,7.1,0.1,14.2,0,21.3c-0.1,6.9-5.7,14-12.2,16.1
	c-2.4,0.8-4.7,1-7,1c-12.3,0-24.5,0-36.9,0c-2.2,14.4-9.6,25.9-20.7,34.6c-11.3,8.8-24.6,13-39,11.3c-12-1.4-22.9-6-32-14.5
	c-9.2-8.6-14.6-18.9-17.3-31.2h-37.2c-0.9,1.1-0.3,2.7-0.3,4.1c0,40.3,0,80.6-0.1,121c0,10.3-5,20-14.3,25.7
	c-6.3,3.9-11.5,5.7-17.8,5.7c-89.3,0-178.6,0-267.9,0c-10.6,0-20.4-5.4-26.3-14.3c-3.6-5.4-5.5-11.1-5.5-17.3
	c-0.1-169.4-0.1-338.7,0-508.1c0-11.1,4.9-19.9,14.4-26.2c5.4-3.6,11.1-5.5,17.3-5.5c89.3-0.1,178.6-0.1,267.9,0
	c11.4,0,20.5,4.7,26.7,14.6c3.5,5.6,5.5,11.3,5.5,17.3c0,52.4,0,104.8,0,157.3c0,1.8-0.9,4.3,0.6,5.4c1.1,0.7,3.1,1.1,4.5,1.6
	c11.5,4.1,19,10.4,26,20.2c4.1,5.8,5.8,12.6,8,19.2c4.4,12.8,8.5,25.7,12.7,38.5c0.5,1.6,1.2,2.7,3.1,2.6c1.3-0.1,2.7,0,4,0
	c31.3,0,62.6-0.1,93.9,0.1c10.7,0,19.8,5.3,25.9,14.1c3.9,5.7,5.6,11.8,5.6,18.4c0.1,15.2,0,30.3,0,45.5L543.9,368.6L543.9,368.6z
	 M341.1,202.8V60.1c0-6.1,0-12.3,0-18.4c0-7.5-6.7-13.9-13.6-14c-23,0-46.1,0-69.1,0c-1.8,0-2.2,0.3-2.8,2.4
	c-1.6,5.9-3.1,11.8-4.4,17.7c-0.7,3.3-2,6.5-2.4,10c-0.5,3.9-4.6,6.8-8.8,6.8c-30.9,0-61.8,0-92.8,0c-4.2,0-8.4-2.8-8.9-6.7
	c-0.5-3.8-1.7-7.4-2.6-11.1c-1.4-5.5-2.4-11.2-4.3-16.6c-0.6-1.7-0.5-2.5-2.6-2.5c-23,0.1-46.1,0-69.1,0.1
	c-6.9,0-11.5,4.9-13.6,10.9c-0.5,1.5-0.1,3.4-0.1,5.2v502.3c0,1.3-0.2,2.7,0,4c0.3,1.7,0.6,3.7,1.6,5.1c3.6,4.6,7.9,7.2,14.3,7.2
	c87.8-0.2,175.5-0.1,263.3-0.1c1.1,0,2.4,0.2,3.5,0c1.9-0.5,4-0.8,5.5-1.9c4.4-3.4,7-7.7,7-13.8c-0.2-39.2-0.1-78.4-0.1-117.5
	c0-1.6,0.4-3.4-0.3-4.8h-83.4c-2.6,12.5-8.4,22.8-17.6,31.6c-8.6,8.2-23.7,13.6-32.7,14.3c-14.2,1-27.2-3-38.3-11.8
	c-10.9-8.7-18.1-20.1-20.4-34.1c-0.2-0.1-0.4-0.2-0.5-0.2c-12.3,0-24.6-0.3-36.9,0.1c-10.1,0.3-19.3-8.7-18.8-18.8
	c0.3-6.1,0.2-12.3,0-18.4c-0.1-2.9,0.7-5.5,1.9-7.9c3.3-6.6,8.9-10,16.5-10.5v-2.8c0-15.9-0.1-31.9,0.1-47.8
	c0.1-6.4,1.6-12.4,5.5-17.9c2.3-3.1,4.8-6,7.7-8.1c2.1-1.6,4.5-3.3,7.5-4c4.3-1,8.4-2.2,12.9-2.1c9,0.1,18.1,0,27.1,0c5,0,10,0,15,0
	c1.4,0,2.8-0.2,3.4-1.5c2.1-4.9,5.9-8.7,8.3-13.3c3.8-7.2,8.9-13.5,13-20.5c3.6-6.2,8.3-11.9,11.2-18.4c4.1-9.2,10.5-16.1,18.5-21.5
	c7.1-4.8,15.2-7.6,23.8-7.7C289.9,202.7,315.3,202.8,341.1,202.8L341.1,202.8z M130,312.5c1.1,1.4,2.3,0.9,3.4,0.9
	c7.9,0,15.7,0,23.6,0c5.2,0,8.9,3.7,8.9,9.1c0.1,9.4,0,18.8,0,28.2c0,1.1,0,2.1-0.6,3.2c-1.8,3.7-4.4,5.6-8.6,5.6
	c-9.2,0-18.3,0-27.5,0v8.8c1.4,0.7,2.7,0.4,4,0.4c11.5,0,23,0,34.6,0c2.9,0,5.3-0.6,7.8-2c4.6-2.7,9.6-5,14.8-5.9
	c2.7-0.5,5.3-1.7,8.1-1.4c3.1,0.3,6.2-0.3,9.2,0.1c3.2,0.5,6.4,1.2,9.5,2c4.8,1.1,9.1,3.2,13.3,5.5c2.2,1.1,4.3,1.7,6.8,1.7
	c59.9-0.1,119.8-0.1,179.7,0c2.6,0,4.9-0.3,7.3-1.9c4.5-2.9,9.6-4.8,14.7-6c2.8-0.6,5.6-1.8,8.7-1.5c3,0.3,6.2-0.1,9.2,0.1
	c2.9,0.3,5.7,0.9,8.5,1.6c4.8,1.3,9.5,3.1,13.7,5.8c2.4,1.5,4.7,1.8,7.4,1.8c11.5,0,23,0,34.6,0c1.4,0,3,0.6,4.1-0.3v-8.9
	c-9.4,0-18.6,0-27.8,0c-5,0-8.8-3.7-8.8-8.6c-0.1-9.6-0.2-19.2,0.1-28.8c0.2-5.4,3.1-8.4,8.6-8.6c6.9-0.3,13.8-0.1,20.7-0.1h7.2
	c-3.1-3.7-4.9-6.9-9-8.2c-2.2-0.7-4.3-1-6.5-1c-79.9,0-159.8,0-239.6,0c-1,0-1.9-0.1-2.9,0c-5.1,0.5-9.2-4.8-9.2-8.9
	c0.1-18.6,0-37.2,0.1-55.9c0-1.1-0.1-2.1,0.5-3.2c1.9-3.9,4.8-5.8,9.1-5.7c32.6,0.1,65.3,0,97.9,0c1.4,0,2.9,0.5,4.4-0.6
	c-5.8-5.6-12.6-8.4-20.4-8.5c-27.8-0.1-55.7,0-83.5-0.1c-3.1,0-5.7,1.8-8.7,1.3c-7.2,3.6-14.1,7.5-17.6,15.3
	c-1.2,2.8-2.1,5.7-3.7,8.2c-4.8,7.4-9.7,14.8-14.3,22.3c-6.4,10.5-13.6,20.4-20.1,30.9c-2.3,3.7-5,5-8.9,5c-16.3,0-32.6,0.1-49-0.1
	C137.3,304.1,133.4,307.7,130,312.5L130,312.5z M392.7,285.6c-2.6-7.9-5.2-15.6-7.8-23.3c-1.1-3.4-2.3-6.7-3.4-10.1
	c-1-3.2-1-3.3-4.1-3.3c-19.4,0-38.8,0-58.2,0h-5.6v36.7L392.7,285.6L392.7,285.6z M403.6,387.4h-153c3.5,6,5.6,12,6.7,18h140
	C397.9,398.9,400.9,393.4,403.6,387.4z M239.7,415c0.5-11.1-4.3-19.8-10.9-26.4c-6.6-6.5-14.7-10.3-24.3-10.8
	c-10.9-0.5-20.2,3.3-27.8,10.7c-6.7,6.7-10.6,14.9-10.9,24.8c-0.4,10.9,3.6,20,10.9,27.7c5.4,5.7,16.8,10.6,24.9,10.8
	c10.7,0.1,19.8-3.5,27.2-10.8C235.8,434.1,240,425.4,239.7,415z M414.8,414.6c-0.5,10.5,3.7,19.3,10.9,26.5
	c6.5,6.6,14.7,10.3,24.3,10.7c10.9,0.4,20.2-3.4,27.7-10.8c6.8-6.6,10.5-15,10.9-24.8c0.5-10.9-3.4-20.2-10.9-27.6
	c-6.7-6.7-15-10.4-24.9-10.7c-10.7-0.3-19.8,3.4-27.1,10.8C418.7,395.6,414.5,404.3,414.8,414.6z M236,27.8h-85c0,1.5-0.4,3,0.1,4.1
	c1.6,3.6,1.8,7.6,3.1,11.3c0.8,2.2,1.2,2.9,3.4,2.8c5.6-0.1,11.1,0,16.7,0c18.6,0,37.2,0,55.8,0c1.7,0,2.3-0.1,2.9-2.2
	c0.6-2.1,0-4.9,2-6.6C234.5,34.1,237.4,31.3,236,27.8L236,27.8z M110.7,405.4h37.7c0.7-6.5,3.5-12.1,6.3-18h-44
	C110.7,387.4,110.7,405.4,110.7,405.4z M543.9,405.5c0-5.3,0-10.1,0-14.9c0-3.4,0-3.5-3.2-3.5c-12.5,0-24.9,0-37.4,0
	c-1,0-2.3-0.6-3.3,0.8c2.9,5.4,5.4,11.1,6.3,17.5L543.9,405.5L543.9,405.5z M294.8,285.7v-36.8c-3.2,0-6.3,0-9.3,0
	c-3,0-6-0.1-8.7,0.1v36.7L294.8,285.7L294.8,285.7z M129.2,340.9h18.4c-0.1-3.1,0.1-6.1-0.1-8.8h-18.2L129.2,340.9L129.2,340.9z
	 M525.4,332.1H507c0.1,3.1-0.1,6.1,0.1,8.9h18.2V332.1z"/>
<path class="st1" d="M341.1,202.8c-25.8,0-51.1-0.1-76.5,0.1c-8.7,0.1-16.8,2.9-23.8,7.7c-8,5.4-14.4,12.3-18.5,21.5
	c-2.9,6.5-7.6,12.2-11.2,18.4c-4,7-9.1,13.4-13,20.5c-2.4,4.6-6.2,8.4-8.3,13.3c-0.6,1.3-1.9,1.5-3.4,1.5c-5-0.1-10,0-15,0
	c-9,0-18.1,0.1-27.1,0c-4.5,0-8.6,1.1-12.9,2.1c-3,0.7-5.4,2.4-7.5,4c-2.9,2.1-5.4,5-7.7,8.1c-4,5.5-5.5,11.5-5.5,17.9
	c-0.2,15.9-0.1,31.9-0.1,47.8v2.8c-7.6,0.5-13.2,3.9-16.5,10.5c-1.2,2.4-2,5-1.9,7.9c0.2,6.1,0.3,12.3,0,18.4
	c-0.4,10.1,8.8,19.1,18.8,18.8c12.3-0.3,24.6-0.1,36.9-0.1c0.2,0,0.3,0.1,0.5,0.2c2.3,14,9.4,25.4,20.4,34.1
	c11.1,8.8,24,12.8,38.3,11.8c9-0.6,24.2-6.1,32.7-14.3c9.2-8.8,15-19.1,17.6-31.6h83.4c0.8,1.4,0.3,3.2,0.3,4.8
	c0,39.2-0.1,78.4,0.1,117.5c0,6.1-2.5,10.4-7,13.8c-1.5,1.1-3.6,1.4-5.5,1.9c-1.1,0.3-2.3,0-3.5,0c-87.8,0-175.5,0-263.3,0.1
	c-6.3,0-10.7-2.6-14.3-7.2c-1-1.3-1.3-3.3-1.6-5.1c-0.2-1.3,0-2.7,0-4V43.8c0-1.7-0.5-3.6,0.1-5.2c2.1-6,6.7-10.9,13.6-10.9
	c23-0.1,46.1,0,69.1-0.1c2.1,0,2,0.8,2.6,2.5c1.9,5.4,2.9,11.1,4.3,16.6c0.9,3.7,2.1,7.3,2.6,11.1c0.5,3.9,4.7,6.7,8.9,6.7
	c30.9,0,61.8,0,92.8,0c4.1,0,8.3-3,8.8-6.8c0.4-3.5,1.7-6.6,2.4-10c1.3-6,2.8-11.8,4.4-17.7c0.5-2,0.9-2.4,2.8-2.4
	c23,0,46.1,0,69.1,0c6.9,0,13.6,6.4,13.6,13.9c0,6.1,0,12.3,0,18.4L341.1,202.8L341.1,202.8z M193.6,543.9c15.2,0,30.3,0,45.5,0
	c1.3,0,2.5,0.2,3.9-0.4c4.5-2,6.9-6.5,5.9-11.3c-0.8-3.6-4.9-6.7-9-6.7c-30.9,0-61.8,0-92.7,0c-2.3,0-4.3,0.6-6,2.3
	c-2.5,2.5-3.8,7-2.6,10.2c1.4,3.7,4.7,6,8.9,6C162.9,543.9,178.3,543.9,193.6,543.9L193.6,543.9z"/>
<path class="st2" d="M130,312.5c3.4-4.8,7.3-8.5,13.9-8.4c16.3,0.2,32.6,0,49,0.1c4,0,6.7-1.3,8.9-5c6.4-10.5,13.7-20.4,20.1-30.9
	c4.6-7.5,9.5-14.9,14.3-22.3c1.6-2.5,2.5-5.5,3.7-8.2c3.5-7.9,10.5-11.7,17.6-15.3c3,0.5,5.7-1.3,8.7-1.3c27.8,0.1,55.7,0,83.5,0.1
	c7.7,0,14.5,2.9,20.4,8.5c-1.5,1.1-3,0.6-4.4,0.6c-32.6,0-65.3,0.1-97.9,0c-4.4,0-7.2,1.8-9.1,5.7c-0.5,1.1-0.5,2.2-0.5,3.2
	c0,18.6,0.1,37.2-0.1,55.9c0,4.1,4.1,9.5,9.2,8.9c1-0.1,1.9,0,2.9,0c79.9,0,159.8,0,239.6,0c2.2,0,4.3,0.3,6.5,1
	c4.2,1.3,6,4.6,9,8.2H518c-6.9,0-13.8-0.2-20.7,0.1c-5.5,0.2-8.5,3.3-8.6,8.6c-0.3,9.6-0.1,19.2-0.1,28.8c0,4.8,3.9,8.5,8.8,8.6
	c9.2,0.1,18.4,0,27.8,0v8.9c-1.1,0.9-2.7,0.3-4.1,0.3c-11.5,0.1-23,0-34.6,0c-2.6,0-5-0.3-7.4-1.8c-4.2-2.6-8.9-4.5-13.7-5.8
	c-2.8-0.8-5.6-1.4-8.5-1.6c-3-0.3-6.2,0.2-9.2-0.1c-3.1-0.3-5.9,0.8-8.7,1.5c-5.1,1.2-10.3,3.1-14.7,6c-2.4,1.5-4.7,1.9-7.3,1.9
	c-59.9,0-119.8,0-179.7,0c-2.5,0-4.6-0.6-6.8-1.7c-4.3-2.2-8.5-4.4-13.3-5.5c-3.1-0.7-6.3-1.5-9.5-2c-3-0.4-6.1,0.1-9.2-0.1
	c-2.9-0.2-5.5,1-8.1,1.4c-5.2,0.9-10.2,3.2-14.8,5.9c-2.5,1.5-5,2.1-7.8,2c-11.5-0.1-23,0-34.6,0c-1.3,0-2.6,0.4-4-0.4v-8.8
	c9.2,0,18.4,0,27.5,0c4.2,0,6.8-1.9,8.6-5.6c0.6-1.1,0.6-2.1,0.6-3.2c0-9.4,0.1-18.8,0-28.2c0-5.3-3.7-9-8.9-9.1
	c-7.9-0.1-15.7,0-23.6,0C132.3,313.4,131.1,314,130,312.5L130,312.5z M322.8,331.9c3.3,0,6.5,0.1,9.8,0c4.8-0.1,8.4-4,8.5-8.9
	c0.1-5.4-3.5-9.4-8.5-9.5c-6.5-0.1-13-0.1-19.6,0c-5.1,0-8.8,3.9-8.8,9.2c0,5.3,3.6,9.1,8.8,9.2
	C316.3,331.9,319.5,331.9,322.8,331.9L322.8,331.9z"/>
<path class="st1" d="M392.7,285.6h-79.2v-36.7h5.6c19.4,0,38.8,0,58.2,0c3.1,0,3,0.1,4.1,3.3c1.1,3.4,2.3,6.7,3.4,10.1
	C387.5,270,390,277.7,392.7,285.6L392.7,285.6z"/>
<path class="st1" d="M403.6,387.4c-2.8,6-5.7,11.5-6.3,18h-140c-1.1-6.1-3.2-12.1-6.7-18H403.6L403.6,387.4z"/>
<path class="st1" d="M239.7,415c0.3,10.5-3.9,19.1-10.9,26.1c-7.4,7.3-16.4,10.9-27.2,10.8c-8.1-0.1-19.5-5.1-24.9-10.8
	c-7.3-7.7-11.3-16.8-10.9-27.7c0.3-9.8,4.2-18.1,10.9-24.8c7.5-7.5,16.8-11.2,27.8-10.7c9.6,0.4,17.7,4.2,24.3,10.8
	C235.4,395.2,240.2,403.9,239.7,415z M175.1,416c0.2,6,3,12.3,8.1,17.7c5.4,5.8,12.2,8.5,19.9,8.7c7.3,0.2,13.4-2.9,18.6-7.8
	c5.5-5.2,8.7-11.6,8.9-19.3c0.1-7.8-2.9-14.1-8.2-19.6c-5.1-5.4-11.3-8.4-18.9-8.6c-7.7-0.1-14.1,2.6-19.7,8
	C178.2,400.6,175.2,406.9,175.1,416L175.1,416z"/>
<path class="st1" d="M414.9,414.6c-0.4-10.3,3.9-18.9,10.8-25.9c7.3-7.3,16.4-11.1,27.1-10.8c9.8,0.3,18.1,4,24.9,10.7
	c7.5,7.5,11.4,16.7,10.9,27.6c-0.4,9.8-4.1,18.1-10.9,24.8c-7.5,7.4-16.8,11.2-27.7,10.8c-9.6-0.4-17.7-4.1-24.3-10.7
	C418.6,433.9,414.4,425.1,414.9,414.6L414.9,414.6z M424,416.3c-0.5,13.6,13.9,26.2,27.5,26.2c7.5,0,13.8-2.9,19.1-8
	c5.4-5.1,8.6-11.3,8.7-18.8c0.1-7.5-2.3-14.2-7.8-19.7c-5.3-5.4-11.6-8.7-19.3-8.9s-14.1,2.7-19.6,8.1
	C427.1,400.7,424,407,424,416.3L424,416.3z"/>
<path class="st2" d="M236,27.8c1.4,3.5-1.4,6.3-0.9,9.4c-2,1.7-1.4,4.5-2,6.6c-0.6,2.2-1.2,2.2-2.9,2.2c-18.6,0-37.2,0-55.8,0
	c-5.6,0-11.1-0.1-16.7,0c-2.2,0-2.6-0.6-3.4-2.8c-1.3-3.7-1.6-7.7-3.1-11.4c-0.5-1.1-0.1-2.6-0.1-4.1L236,27.8L236,27.8z"/>
<path class="st1" d="M110.7,405.4v-18h44c-2.8,6-5.7,11.5-6.3,18C148.4,405.4,110.7,405.4,110.7,405.4z"/>
<path class="st1" d="M543.9,405.5h-37.7c-0.9-6.3-3.4-12.1-6.3-17.5c1-1.4,2.3-0.8,3.3-0.8c12.5,0,24.9,0,37.4,0
	c3.2,0,3.2,0,3.2,3.5C543.9,395.4,543.9,400.2,543.9,405.5L543.9,405.5z"/>
<path class="st1" d="M294.8,285.7h-18V249c2.7-0.2,5.7,0,8.7-0.1c3,0,6.1,0,9.3,0L294.8,285.7L294.8,285.7z"/>
<path class="st1" d="M129.2,340.9v-8.8h18.2c0.3,2.7,0,5.7,0.1,8.8H129.2z"/>
<path class="st1" d="M525.4,332.1v8.9h-18.2c-0.3-2.7,0-5.7-0.1-8.9H525.4z"/>
<path class="st0" d="M193.6,543.9c-15.4,0-30.7,0-46.1,0c-4.2,0-7.6-2.3-8.9-6c-1.2-3.2,0-7.7,2.6-10.2c1.7-1.7,3.7-2.3,6-2.3
	c30.9,0,61.8,0,92.7,0c4.1,0,8.2,3.1,9,6.7c1.1,4.8-1.4,9.3-5.9,11.3c-1.3,0.6-2.6,0.4-3.9,0.4C224,543.9,208.8,543.9,193.6,543.9
	L193.6,543.9z"/>
<path class="st0" d="M322.8,331.9c-3.3,0-6.5,0-9.8,0c-5.1-0.1-8.8-3.9-8.8-9.2s3.6-9.1,8.8-9.2c6.5-0.1,13-0.1,19.6,0
	c5,0.1,8.6,4.1,8.5,9.5c-0.1,4.9-3.7,8.8-8.5,8.9C329.3,331.9,326.1,331.9,322.8,331.9L322.8,331.9z"/>
<path class="st0" d="M175.1,416c0.2-9.1,3.2-15.4,8.7-20.8c5.5-5.4,11.9-8.1,19.7-8c7.6,0.1,13.7,3.1,18.9,8.6
	c5.2,5.5,8.3,11.9,8.2,19.6c-0.1,7.7-3.4,14.1-8.9,19.3c-5.2,4.9-11.3,8-18.6,7.8c-7.8-0.2-14.5-2.9-19.9-8.7
	C178,428.4,175.2,422.1,175.1,416L175.1,416z M212,414.8c0-5.5-3.8-9.3-9.4-9.2c-5.3,0-9,3.7-9.1,8.9c-0.1,5.7,3.6,9.5,9.1,9.5
	C208.2,424.1,212,420.3,212,414.8L212,414.8z"/>
<path class="st0" d="M424,416.3c0-9.3,3-15.6,8.6-21s11.9-8.3,19.6-8.1c7.7,0.1,14,3.5,19.3,8.9c5.4,5.5,7.8,12.2,7.8,19.7
	c-0.1,7.5-3.4,13.7-8.7,18.8c-5.3,5.1-11.6,8-19.1,8C437.9,442.6,423.6,429.9,424,416.3L424,416.3z M460.9,414.6
	c-0.1-5.4-4-8.8-9.6-9c-4.2-0.1-9.4,4.6-8.9,9.9c0.5,5,4.2,8.7,9.5,8.6C457.4,424,461,420.2,460.9,414.6z"/>
<path class="st2" d="M212,414.8c0,5.5-3.8,9.3-9.4,9.2c-5.5,0-9.1-3.8-9.1-9.5c0.1-5.2,3.8-8.9,9.1-8.9
	C208.2,405.6,212,409.3,212,414.8L212,414.8z"/>
<path class="st2" d="M460.9,414.6c0.1,5.7-3.5,9.5-9.1,9.5c-5.3,0-8.9-3.6-9.5-8.6c-0.5-5.3,4.6-10,8.9-9.9
	C457,405.8,460.9,409.1,460.9,414.6z"/>
</svg>
